<?xml version="1.0" encoding="utf-8"?>
<!-- Generator: Adobe Illustrator 25.4.1, SVG Export Plug-In . SVG Version: 6.00 Build 0)  -->
<svg version="1.1" id="레이어_1" xmlns="http://www.w3.org/2000/svg" xmlns:xlink="http://www.w3.org/1999/xlink" x="0px"
	 y="0px" viewBox="0 0 2700 1500" style="enable-background:new 0 0 2700 1500;" xml:space="preserve">
<style type="text/css">
	.st0{fill:#146ece;}
	.st1{fill:#E9E9E9;}
	.st2{fill:#3C3C3B;}
</style>
<g>
	<g>
		<path class="st0" d="M326.03,242.3c-9.95,22.13-12.29,46.97-5,70.28c2.04,6.54,12.74,9.14,16.02,1.97
			c10.03-21.93,22.59-42.87,36.16-62.77c-5.15,0.05-10.3,0.1-15.46,0.15c-0.47-1.01,0.62,1.85,0.72,2.24
			c0.15,0.59,0.28,1.19,0.39,1.8c-0.07-0.82-0.06-0.69,0.03,0.4c0.09,1.23,0.08,2.47,0.02,3.7c-0.02,0.38-0.33,3.35-0.2,2.45
			c-0.78,5.25-2.46,10.36-3.93,15.45c-3.05,10.56-5.86,22.28-1.64,32.94c1.45,3.65,4.29,6.37,8.44,6.37c3.88,0,7.56-2.68,8.64-6.43
			c7.78-27.05,21.91-51.77,41.16-72.31c-4.87-1.95-9.74-3.91-14.61-5.86c-0.92,22.02-4.32,43.64-9.41,65.06
			c-2.01,8.45,8.53,14.66,14.8,8.31c11.06-11.22,18.55-25.05,26.01-38.76c7.05-12.96,14.27-26.1,25.91-35.5
			c-4.75-1.91-9.5-3.81-14.25-5.72c-1.86,19.19-5.72,38.07-11.31,56.51c-2.98,9.83,11.03,14.66,16.17,6.53
			c7.61-12.05,14.95-24.28,22.38-36.45c3.71-6.08,7.37-12.2,11.14-18.25c1.16-1.86,2.31-3.69,3.84-5.26
			c0.9-0.92,1.37-1.39,2.34-1.82c-0.14,0.06,0.71,0.05,1.4,0.11c-2.7-3.5-5.4-7-8.1-10.5c-6.92,27.1-14.27,54.13-20.72,81.35
			c-0.93,3.93,0.6,8.09,4.19,10.11c3.27,1.84,8.59,1.55,11.1-1.53c11.89-14.55,19.07-31.62,26.75-48.59
			c7.01-15.48,15.09-31.94,28.05-41.59c-2.93,0.03-5.87,0.06-8.8,0.08c1.63,0.89-0.08-0.6-0.43-0.78c0.2,0.93,0.26,1.13,0.18,0.6
			c-0.05-0.4-0.06-0.32-0.03,0.22c0.02,0.63-0.01,1.26-0.06,1.89c-0.03,0.35-0.22,1.4-0.5,2.51c-0.47,1.85-1.07,3.66-1.62,5.49
			c-2.36,7.84-4.71,15.67-7.07,23.51c-4.71,15.67-9.44,31.34-14.2,47c-1.5,4.92,1.36,10.29,6.05,12.1
			c5.18,2.01,9.93-0.07,13.14-4.35c10.53-14.06,20.42-28.65,30.6-42.96c-6.46-1.68-12.92-3.36-19.38-5.05
			c-1.14,18.34-5.56,36.1-12.24,53.19c-1.79,4.58,1.58,9.98,5.81,11.61c4.17,1.61,10.61,0.44,12.62-4.18
			c8.37-19.31,13.2-39.59,14.63-60.6c0.31-4.51-3.4-8.74-7.6-9.85c-4.7-1.24-9.07,1.03-11.78,4.8
			c-10.26,14.27-20.88,28.34-30.79,42.86c6.4,2.58,12.8,5.16,19.19,7.75c4.64-18.18,9.34-36.34,14.04-54.5
			c2.11-8.14,4.83-16.36,6.17-24.67c1.32-8.18,0.07-17.11-7.88-21.47c-2.5-1.37-6.37-1.71-8.8,0.08
			c-15.57,11.5-25.24,27.63-33.28,44.92c-7.51,16.14-14.67,34.42-25.7,47.44c5.1,2.86,10.2,5.72,15.29,8.58
			c6.95-27.1,13.02-54.45,19.5-81.67c1.33-5.59-2.56-10.14-8.1-10.5c-15.77-1.03-23.94,17.61-30.9,28.69
			c-8.6,13.68-17.32,27.3-25.72,41.11c5.39,2.18,10.78,4.35,16.17,6.53c5.68-19.9,9.3-40.35,10.95-60.97
			c0.63-7.91-9.29-9.86-14.25-5.72c-11.98,10.01-20.29,23.25-27.87,36.72c-7.32,13.02-14.22,26.38-24.78,36.83
			c4.93,2.77,9.87,5.54,14.8,8.31c5.53-22.74,8.44-46.16,9.45-69.52c0.32-7.38-9.67-11.11-14.61-5.86
			c-21.23,22.58-37,49.93-46.11,79.55c5.69-0.02,11.38-0.04,17.08-0.06c-0.45-1.19-0.84-2.38-1.12-3.62
			c-0.14-0.6-0.27-1.22-0.35-1.84c0.12,0.95,0.03-0.12,0.02-0.47c-0.05-1.42-0.03-2.82,0.08-4.24c0.09-1.16,0.25-2.21,0.31-2.53
			c1-5.43,2.74-10.69,4.28-15.98c3.41-11.67,5.16-23.3-0.25-34.65c-3.06-6.43-12.11-4.83-15.46,0.15
			c-13.55,20.12-25.07,41.24-35.84,62.95c5.34,0.66,10.68,1.31,16.02,1.97c-5.18-18.66-4.3-39.18,3.76-56.93
			c2-4.41,1.3-9.58-3.25-12.14C334.6,236.78,328.04,237.84,326.03,242.3L326.03,242.3z"/>
	</g>
	<g>
		<path class="st0" d="M200.59,1108.9c-2.29,11.46-0.96,22.43,3.76,33.09c2.1,4.74,9.84,5.12,13.02,1.52
			c11.12-12.58,21.01-26.21,29.57-40.66c-4.2,0.58-8.39,1.15-12.59,1.73c0.9,0.85,1.45,1.69,1.61,2.6c0.33,1.95,0.05,4.09-0.31,6.02
			c-0.85,4.54-2.69,8.81-3.5,13.36c-1.71,9.64-0.44,21.37,9.5,26.08c3.99,1.89,8.02,0.74,10.57-2.83
			c11.07-15.49,23.46-29.95,36.96-43.36c-4.24-1.7-8.48-3.4-12.72-5.11c-0.86,14.59-2.19,29.15-3.33,43.71
			c-0.54,6.9,9.17,10.33,13.62,5.47c14.36-15.67,28.56-31.49,42.8-47.27c-4.83-1.94-9.66-3.88-14.49-5.82
			c-1.43,13.26-3.08,26.49-4.59,39.74c-0.88,7.71,10.64,11.84,15.45,6.2c13.4-15.72,27.23-31.07,41.74-45.76
			c-5.06-2.03-10.12-4.06-15.18-6.09c-1.6,12.74-3.55,25.45-5.47,38.14c-0.63,4.15,0.4,8.19,4.31,10.39
			c3.33,1.87,8.87,1.62,11.41-1.57c12.79-16.09,26.21-31.61,40.43-46.45c-5.02-2.02-10.05-4.03-15.07-6.05
			c1.25,11.22-0.01,22.24-3.44,32.98c-2.84,8.88,9.12,14.73,15.27,8.57c13.52-13.53,26.78-27.4,39.81-41.42
			c-4.96-1.99-9.92-3.98-14.88-5.97c0.66,12.47,0.56,25.02,0.81,37.5c0.17,8.2,9.79,11.43,15.58,6.26
			c12.95-11.55,24.3-24.87,34.19-39.11c-5.16-0.63-10.32-1.27-15.47-1.9c2.96,10.29,3.43,21.2,2.69,31.83
			c-0.42,6.01,5.87,9.38,11.02,8.31c12.99-2.7,22.6-13.73,23.62-26.84c0.69-8.81-12.16-9.36-14.75-1.9c-1.07,3.09-3.11,5.92-5.27,8
			c-2.29,2.2-4.94,3.41-8.06,4.14c3.67,2.77,7.35,5.54,11.02,8.31c0.53-12.32-1.25-24.24-3.92-36.23
			c-1.29-5.78-10.26-8.54-14.15-3.59c-10.3,13.07-21.68,25.12-33.83,36.49c5.19,2.09,10.39,4.17,15.58,6.26
			c-0.56-12.48-1.48-25.01-1.64-37.5c-0.1-7.59-9.51-11.22-14.88-5.97c-13.68,13.37-27.22,26.98-40.41,40.83
			c5.09,2.86,10.18,5.71,15.27,8.57c3.58-12.22,4.65-24.92,3.48-37.58c-0.68-7.33-9.36-11.79-15.07-6.05
			c-14.47,14.54-28.3,29.74-41.25,45.65c5.35,2.15,10.71,4.3,16.06,6.45c1.49-13.51,2.94-27.05,4.78-40.51
			c0.46-3.38-2.56-6.88-5.45-8c-3.3-1.28-7.16-0.65-9.73,1.9c-14.67,14.55-28.76,29.66-41.97,45.54c5.15,2.07,10.3,4.14,15.45,6.2
			c1.17-13.25,2.21-26.51,3.47-39.74c0.69-7.28-9.87-11.06-14.49-5.82c-14.05,15.96-28.15,31.89-42.08,47.97
			c4.54,1.82,9.08,3.65,13.62,5.47c0.73-14.57,1.27-29.16,2.27-43.71c0.46-6.68-8.4-9.32-12.72-5.11
			c-14.56,14.2-27.8,29.64-39.76,46.08c3.52-0.94,7.05-1.89,10.57-2.83c-1.37-0.66-1.09-0.56-1.78-1.25c0.76,0.76-0.32-1.24,0-0.07
			c-0.62-2.25-0.76-2.6-0.7-4.95c0.1-3.75,1.38-7.24,2.52-10.99c3-9.8,4.24-21.11-3.82-28.89c-3.71-3.59-9.94-2.61-12.59,1.73
			c-8.04,13.18-17.21,25.53-27.43,37.09c4.34,0.51,8.68,1.01,13.02,1.52c-2.81-6.35-3.51-13.82-2.15-20.61
			c0.87-4.34-1.24-8.74-5.74-9.92C206.79,1102.11,201.46,1104.53,200.59,1108.9L200.59,1108.9z"/>
	</g>
	<g>
		<path class="st0" d="M267.45,1181.94c1.5-2.32,3.11-4.55,4.93-6.63c0.99-1.13,3.59-4.98,4.58-5.12c-0.92,0-1.83,0.01-2.75,0.01
			c-1.19-1.5-1.54-1.62-1.06-0.35c0.09,0.32,0.14,0.65,0.16,0.98c0.13,0.88,0.13,1.78,0.22,2.67c0.22,2.02,0.52,3.91,1.38,5.76
			c1.8,3.87,5.96,6.2,10.2,4.88c4.21-1.31,7.63-4.71,10.28-8.08c0.48-0.61,1.12-1.43,2.11-2.42c1.3-1.3-0.04,0.28-0.34,0
			c-3.31-0.46-4.97-1.86-4.98-4.21c0.01,0.31,0,0.62-0.03,0.92c-0.05,0.54-0.03,0.42,0.05-0.36c-0.11,0.5-0.2,1.01-0.25,1.53
			c-0.15,0.93-0.29,1.85-0.28,2.8c0.04,2.12,0.61,4.18,1.71,5.99c3.66,5.99,11.61,5.3,16.39,1.26c2.45-2.07,4.35-4.94,5.84-7.77
			c0.6-1.13,1.16-2.25,1.89-3.3c-0.98,1.41,0.1,0.05,0.4-0.27c1.14-1.21,2.09-2.41,2.43-4.09c0.77-3.82-1.07-7.24-4.88-8.43
			c-6.56-2.06-11.67,4.86-14.6,9.68c-0.51,0.83-1.01,1.66-1.58,2.45c1.24-1.71-0.39,0.24-0.42,0.29c0.44-0.98,7.77,2.39,8.05,2.79
			c-0.16-0.7-0.19-0.77-0.1-0.2c0.05,0.48,0.07,0.51,0.05,0.07c0.1-0.44,0.04-1.03,0.04-1.5c-0.01-1.42-0.13-2.95-0.54-4.32
			c-1.07-3.62-3.88-6.36-7.62-6.96c-3.67-0.59-7.19,0.95-9.91,3.35c-1.98,1.75-3.39,4.11-4.82,6.31c-1.04,1.6-2.73,4.57-4.32,5.28
			c0.9-0.24,1.8-0.48,2.7-0.72c-0.22,0-0.44,0-0.66,0c0.85,0.22,1.69,0.44,2.54,0.66c-1.16-0.53-1.14-6.72-1.49-8.04
			c-1.11-4.24-4.43-7.72-9.16-6.59c-3.72,0.89-6.72,4.23-8.95,7.14c-2.31,3.01-4.34,6.2-6.11,9.56
			C255.44,1182.83,263.92,1187.4,267.45,1181.94L267.45,1181.94z"/>
	</g>
	<path class="st1" d="M929.23,1181.86c22.29,5.73,46.4,15.54,48.48,34.63c3.68,33.66-47.82,42.79-71.4,46.28
		c-57.9,8.56-116.44,15.29-174.86,11.73c-20.3-1.24-40.75-3.77-59.76-11.01c-19-7.24-36.59-19.58-47.08-37
		c-14.53,0.9-18.76,0.29-27.77,10.84c-7.52,8.8-17.88,15.08-29.36,17.01c-15.7,2.64-32.55-3.04-43.46-14.64
		c-12.49,16.29-25.43,32.98-43.1,43.43c-14.02,8.29-30.15,12.12-46.01,15.84c-53.08,12.45-104.89,27.87-159.41,33.18
		c-23.02,2.24-47.31,2.97-68.11-7.16c-12.57-6.13-23.81-17.22-25.49-31.11c-1.68-13.88,9.82-29.22,23.72-27.77
		c-6.19,8.59-3.88,21.27,3.03,29.29c6.91,8.02,17.34,12.14,27.67,14.43c24.21,5.36,49.43,2.23,73.91-1.74
		c48.48-7.85,96.44-18.86,143.49-32.94c15.37-4.6,33.05-12.04,36.38-27.74c1.27-6,0.27-13.82,6.22-17.41
		c5.95-3.59,17.52,0.94,24.81-1.99c4.46-1.8,8.3-4.82,12.4-7.35c13.23-8.17,29.63-11.04,44.86-7.86c4.27,0.89,8.48,2.24,12.84,2.46
		c17.22,0.86,30.36-14.23,47.19-15.67c16.37-1.39,31.41-4.77,47.63-8.67c38.66-9.29,77.79-17.29,117.52-20.21
		c32.45-2.39,65.35-1.27,97.31,5.11C908.14,1177.28,918.47,1179.1,929.23,1181.86z"/>
	<g>
		<path class="st0" d="M720.89,900.98c-4.95,15.35-9.82,30.71-14.54,46.12c-2.5,8.18,8.65,14.21,14.38,8.07
			c14.7-15.74,29.24-31.68,43.55-47.77c-4.26-3.17-8.52-6.34-12.78-9.51c-12.57,28.38-26.47,56.21-39.81,84.24
			c-1.81,3.81-1.42,9.44,3.06,11.43c11.38,5.05,19.55-2.83,26.49-10.99c7-8.24,13.86-16.6,20.78-24.91
			c13.85-16.63,27.79-33.19,41.22-50.16c-4.58-2.57-9.17-5.14-13.75-7.72c-14.02,37.11-42.7,66.65-55.95,104.24
			c-3.74,10.61-6.13,21.93-6.45,33.19c-0.29,10.08,13.54,12.84,18.46,4.81c24.95-40.71,52.6-79.72,82.4-117.03
			c8.54-10.68,17.03-21.38,25.9-31.8c-4.84-1.94-9.68-3.89-14.52-5.83c0.66,5.77-2.6,10.36-5.59,15.04
			c-3.5,5.48-7.05,10.92-10.64,16.33c-7.3,11.03-14.71,21.99-22.14,32.94c-14.71,21.7-29.34,43.42-42.8,65.93
			c-7.57,12.67-14.79,25.55-21.5,38.69c-5.24,10.26,7.3,19.25,15.76,11.73c17.61-15.64,33.91-32.79,48.92-50.94
			c15.11-18.28,28.32-37.72,41.34-57.5c6.73-10.22,13.93-19.73,23.29-27.72c-5.16-2.9-10.33-5.79-15.49-8.69
			c-2.8,11.36-9.12,21.23-15.7,30.76c-6.72,9.73-13.57,19.33-19.84,29.36c-12.86,20.57-24.39,43.09-28.82,67.14
			c-0.88,4.77,0.56,9.56,5,12.06c4.15,2.33,9.89,1.62,13.24-1.82c21.43-21.95,42.38-44.49,64.3-65.94
			c-5.58-3.13-11.16-6.26-16.74-9.39c-6.12,24.11-15.86,46.19-28.87,67.35c-3.06,4.98-1.11,11.79,3.92,14.62
			c5.19,2.92,11.9,0.99,14.98-4.01c13.75-22.35,23.54-47.31,29.28-72.89c2.12-9.46-9.62-16.75-16.74-9.39
			c-21.33,22.05-43.75,43.14-65.57,64.7c6.08,3.41,12.16,6.83,18.24,10.24c4.8-23.67,14.49-44.25,26.96-64.81
			c12.31-20.29,28.8-39.68,34.21-63.29c0.91-3.99-0.59-8.18-4.25-10.24c-3.84-2.16-7.98-1.02-11.24,1.54
			c-18.08,14.25-29.32,34.97-42.17,53.61c-13.15,19.08-27.78,37.08-43.77,53.86c-9.17,9.62-18.78,18.78-28.69,27.64
			c5.25,3.91,10.51,7.82,15.76,11.73c24.27-47.94,55.27-92.09,83.8-137.5c4.03-6.42,8.07-12.84,11.94-19.36
			c3.92-6.62,7.25-13.9,6.61-21.78c-0.55-6.84-9.23-11.64-14.52-5.83c-33.13,36.4-63.38,75.02-90.83,115.88
			c-7.74,11.52-15.25,23.19-22.54,34.99c6.15,1.6,12.31,3.21,18.46,4.81c0.52-17.97,6.43-35.11,14.73-51.3
			c8.99-17.53,19.9-33.99,29.33-51.28c5.4-9.91,10.37-20.15,14.38-30.71c2.93-7.71-8.59-13.59-13.75-7.72
			c-12.69,14.43-24.96,29.22-37.27,43.97c-6.01,7.19-12.01,14.39-18.02,21.58c-3.08,3.69-6.15,7.39-9.21,11.1
			c-1.29,1.57-2.56,3.25-4.1,4.58c-1.54,1.32-1.64,0.65,0.4,1.53c1.02,3.81,2.04,7.62,3.06,11.43
			c12.94-28.23,25.37-56.78,39.07-84.65c1.76-3.58,1.31-7.8-2.09-10.25c-3.18-2.3-7.85-2.2-10.69,0.74
			c-14.93,15.51-29.68,31.25-44.22,47.12c4.79,2.69,9.59,5.38,14.38,8.07c4.56-15.45,8.96-30.94,13.29-46.45
			C738.98,895.13,723.95,891.49,720.89,900.98L720.89,900.98z"/>
	</g>
	<g>
		<path class="st2" d="M329.38,251.03c-0.67-2.89,0.71-5.99,3.16-7.66c3.86-2.62,8.75,0.37,12.85,1.01
			c9.07,1.41,16.17-3.46,23.91-7.32c3.23-1.61,6.38-2.6,9.94-1.56c4.41,1.29,8.33,3.55,12.99,3.96c4.65,0.41,8.94-1.36,12.89-3.64
			c3.95-2.28,7.12-4.45,11.86-3.94c8.87,0.95,16.99,5.19,25.83,1.28c6.79-3,9.85-9.69,15.67-13.78c3.29-2.31,6.57-0.72,9.97,0.65
			c4.09,1.64,8.16,2.93,12.62,2.64c8.11-0.53,15.21-4.74,22.1-8.67c5.49-3.12,11.92-7.16,18.51-5.6c6.47,1.54,9.94,8.24,11.87,14.04
			c2.72,8.17,3.4,16.8,4.4,25.3c0.91,7.79,4.83,20.41-4.65,24.25c-8.28,3.35-17.77,0.05-26.26-0.26c-5.38-0.19-10.61,0.66-15.5,2.94
			c-4.26,1.98-7.93,5-12.15,7.06c-9.01,4.4-19.66,3.4-29.33,2.67c-9.42-0.71-18.75-1.39-28.16-0.06c-4.8,0.68-9.41,1.99-13.78,4.1
			c-4.81,2.32-8.28,6.02-12.38,9.3c-1.46,1.17-2.88,2.25-4.81,1.87c-2.36-0.47-4.59-2.54-6.67-3.69c-3.7-2.05-7.81-3.55-11.97-4.32
			c-18.16-3.36-37.66,4.45-47.33,20.44c3.3-0.03,6.6-0.06,9.91-0.1c-7.43-15.52-11.41-32.27-12.74-49.38
			c-0.49-6.28-10.05-6.43-10.07-0.01c-0.06,19.11,4.76,37.91,12.89,55.13c1.89,4.01,7.87,3.22,9.91-0.1
			c8.03-13.11,25.86-18.98,40.19-13.42c4.28,1.66,7.79,4.84,12.21,6.22c5,1.56,10.08,0.21,14.22-2.82c3.64-2.67,6.6-6.15,10.54-8.4
			c3.76-2.14,8.07-3.31,12.35-3.85c20.47-2.57,41.99,6,61.36-4.08c4.37-2.27,8.24-5.74,12.97-7.28c5.38-1.76,11.37-0.73,16.85-0.07
			c9.01,1.1,18.99,1.43,26.76-4.11c9.6-6.85,8.77-17.56,7.51-28.01c-1.16-9.66-1.8-19.58-4.35-29c-2.16-7.98-5.8-16.11-12.6-21.16
			c-6.72-5-15.37-5.73-23.18-3.02c-7.89,2.74-14.49,7.92-22.12,11.17c-2.81,1.2-5.99,2.16-9.09,1.79c-5-0.6-9.28-3.81-14.33-4.41
			c-9.47-1.13-15.08,5.7-20.95,11.86c-2.32,2.43-4.68,4.62-8.19,4.77c-4.48,0.2-8.9-1.59-13.25-2.41c-4.83-0.9-9.73-1.13-14.38,0.66
			c-4.17,1.61-7.93,5.27-12.3,6.18c-4.27,0.89-8.79-2.37-12.77-3.52c-4.37-1.26-8.99-1.09-13.28,0.4
			c-7.75,2.68-14.99,10.02-23.63,7.78c-5.09-1.32-9.96-2.67-15.12-0.83c-4.24,1.51-7.9,4.63-10.13,8.55c-2.36,4.16-3,8.8-1.93,13.43
			C319.88,261.1,331.02,258.11,329.38,251.03L329.38,251.03z"/>
	</g>
	<g>
		<path class="st2" d="M315.92,269.18c-10.86,2.24-21.38,5.86-31.34,10.75c-9.22,4.53-17.49,10.14-17.12,21.55
			c0.17,5.17,1.22,10.44,2.02,15.54c0.9,5.7,1.99,11.39,3.65,16.93c2.86,9.52,7.39,18.54,14.32,25.75
			c6.91,7.19,15.86,11.64,25.8,12.58c10.93,1.04,21.97-1.94,32.53-4.37c22.88-5.26,45.58-11.31,68.05-18.14
			c6.29-1.91,12.56-3.88,18.81-5.92c3.13-1.02,6.25-2.05,9.36-3.1c1.1-0.37,4.96-2.23,5.84-1.97c0.01,0-0.56-1.53,0.08,0.19
			c0.24,0.64,0.1,1.35,0.07,2.14c-0.08,1.99-0.42,3.97-0.65,5.95c-0.53,4.46-0.44,8.65,1.76,12.68c2.83,5.2,11.89,1.65,9.97-4.14
			c-2.11-6.36,1.68-13.13-0.04-19.61c-0.86-3.24-3.01-5.8-6.05-7.16c-5.33-2.39-10.73,0.06-15.86,1.78
			c-21.15,7.09-42.53,13.48-64.11,19.16c-10.44,2.75-20.93,5.34-31.46,7.75c-10.23,2.35-21.48,5.66-31.96,2.96
			c-18.59-4.79-25.58-25.7-28.57-42.42c-0.97-5.41-2.13-11.08-2.29-16.58c-0.15-5.24,2.59-7.26,6.85-9.6
			c10.4-5.72,21.6-9.64,33.21-12.06C325.89,278.36,323,267.71,315.92,269.18L315.92,269.18z"/>
	</g>
	<g>
		<path class="st2" d="M441.95,370.17c8.84-5.08,18.52-6.38,28.54-5.12c-1.71-1.7-3.41-3.39-5.12-5.09
			c2.75,28.53,6.21,57,8.61,85.56c2.33-1.73,4.65-3.46,6.98-5.19c-8.25-1.53-16.52-2.92-24.79-4.28c1.32,1.3,2.64,2.6,3.95,3.89
			c-3.66-10.88-6.82-21.92-9.34-33.12c-2.51-11.11-3.64-22.5-6.22-33.57c-1.3-5.59-10.23-4.36-10.17,1.33
			c0.11,11.51,2.84,23.28,5.34,34.48c2.55,11.43,5.72,22.7,9.42,33.8c0.59,1.77,1.98,3.56,3.95,3.89
			c8.29,1.38,16.58,2.74,24.89,3.95c2.96,0.43,7.46-1.33,6.98-5.19c-3.54-28.46-6.03-57.06-9.22-85.56
			c-0.34-3.01-2.08-4.75-5.12-5.09c-11.43-1.26-23.56,1.44-33.4,7.34C432.01,365.36,436.71,373.18,441.95,370.17L441.95,370.17z"/>
	</g>
	<g>
		<path class="st2" d="M491.37,794.4c6.9,60.4,13.98,120.77,21.26,181.13c6.85,56.83,13.88,113.63,21.13,170.4
			c3.69,28.9,7.45,57.79,11.32,86.66c0.4,3.01,4.26,4.56,6.87,3.86c3.21-0.86,4.42-3.76,4.03-6.78
			c-6.97-52.64-13.73-105.31-20.3-158c-7.3-58.54-14.38-117.1-21.29-175.69c-3.99-33.85-7.93-67.71-11.8-101.58
			c-0.34-2.99-2.29-5.5-5.54-5.5C494.37,788.91,491.02,791.38,491.37,794.4L491.37,794.4z"/>
	</g>
	<g>
		<path class="st2" d="M454.31,441.05c6.35,67.9,13.11,135.75,20.42,203.56c2.25,20.85,4.52,41.7,6.82,62.54
			c0.33,3.01,2.29,5.45,5.53,5.49c2.68,0.03,6.01-2.49,5.67-5.48c-7.91-70.78-15.57-141.6-22.89-212.44
			c-1.85-17.89-3.82-35.76-5.6-53.66C463.65,434.84,453.73,434.83,454.31,441.05L454.31,441.05z"/>
	</g>
	<g>
		<path class="st2" d="M515.01,791.07c6.57,57.96,12.88,115.95,19.31,173.93c3.2,28.81,5.96,57.61,11.48,86.09
			c5.49,28.3,11.05,56.59,16.34,84.93c5.98,32.03,11.55,64.22,13.84,96.75c0.89-1.5,1.78-3,2.68-4.51
			c-9.94,5.72-21.92,7.28-33.07,4.78c-6.55-1.47-9.55,8.45-2.86,10.04c13.97,3.31,28.85,1.47,41.3-5.79c1.5-0.87,2.8-2.7,2.68-4.51
			c-1.94-28.77-6.25-57.29-11.31-85.66c-5.06-28.38-10.39-56.72-16.12-84.97c-2.87-14.13-5.68-28.28-7.71-42.56
			c-2.04-14.35-3.36-28.81-4.96-43.21c-3.23-28.99-6.46-57.98-9.69-86.97c-3.65-32.78-7.24-65.56-10.97-98.33
			c-0.33-2.94-2.23-5.33-5.4-5.37C517.94,785.69,514.68,788.15,515.01,791.07L515.01,791.07z"/>
	</g>
	<g>
		<path class="st2" d="M465.67,443.14c17.55,65.61,25.12,132.84,32.18,200.2c2.06,19.65,4.31,39.29,6.61,58.91
			c0.35,2.94,2.23,5.34,5.41,5.38c2.61,0.03,5.91-2.44,5.56-5.37c-8.2-68.64-13.22-137.73-27.2-205.54
			c-3.88-18.81-8.4-37.48-13.5-56.01C473.16,435.02,464.14,437.43,465.67,443.14L465.67,443.14z"/>
	</g>
	<g>
		<path class="st2" d="M209,1098.95c4.24-1.61,8.34-3.62,12.61-5.16c5.18-1.86,10.51-2.41,15.94-3.08
			c11.62-1.44,23.24-2.82,34.86-4.21c23.81-2.84,47.63-5.62,71.51-7.81c23.84-2.18,47.74-3.78,71.68-4.25
			c11.95-0.23,23.91-0.18,35.86,0.21c10.3,0.33,21.33,0.03,31.37,2.64c8.32,2.15,13.43,7.78,16.77,15.52
			c2.67,6.18,4.09,13.58-2.57,17.54c-6.86,4.08-15.78,4.16-23.48,4.89c-12.01,1.14-24.02,2.31-36.02,3.5
			c-48.04,4.76-96.07,9.66-144.1,14.55c-13.45,1.37-26.9,2.74-40.35,4.11c-11.07,1.13-23.32,3.77-34.43,1.92
			c-10.39-1.73-15.27-9.12-18.3-18.59c-1.54-4.83-3.81-10.52-3.48-15.66c0.13-1.97,1.67-6.62,4.33-4.94
			c2.68,1.69,6.54,0.46,8.1-2.17c1.77-2.98,0.44-6.04-2.12-7.91c-9.22-6.72-21.18,2.1-22.84,11.77c-1.02,5.95,0.49,11.83,2.07,17.55
			c1.36,4.92,2.93,9.8,5.17,14.41c4.81,9.89,13.7,16.53,24.59,18.2c11.45,1.75,23.15-0.27,34.56-1.43
			c52.84-5.36,105.69-10.62,158.51-16.12c13.21-1.38,26.42-2.75,39.63-4.13c12.55-1.31,25.22-2.28,37.69-4.17
			c9.01-1.37,18.62-4.63,23.93-12.54c5.69-8.47,2.98-19.12-1.16-27.61c-4.39-9.02-11.12-15.81-20.74-19.01
			c-10.72-3.57-22.96-3.26-34.12-3.66c-26.3-0.93-52.64-0.11-78.89,1.68c-26.32,1.8-52.56,4.6-78.75,7.69
			c-13.03,1.54-26.05,3.15-39.08,4.75c-6.46,0.8-12.92,1.6-19.38,2.42c-5.82,0.74-11.83,1.14-17.45,2.9
			c-5.04,1.58-9.77,4.02-14.69,5.91c-2.72,1.05-4.68,3.51-3.89,6.56C203.02,1097.85,206.3,1099.98,209,1098.95L209,1098.95z"/>
	</g>
	<g>
		<path class="st2" d="M189.61,1093.6c-9.6,7.25-13.5,19.29-16.65,30.46c-0.93,3.3-1.41,6.73-0.46,10.08
			c1.04,3.63,3.59,6.67,5.86,9.6c4.53,5.84,9.39,11.41,14.76,16.49c9.64,9.13,24.36,12.66,37.41,11.15
			c7.13-0.83,13.81-3.59,20.93-4.62c7.45-1.08,15.03-1.2,22.54-1.5c32.27-1.28,64.66-1.1,96.71-5.53
			c15.76-2.18,31.36-5.17,47.26-6.21c16-1.05,31.82-2.08,47.68-4.5c8.69-1.33,17.38-2.79,26.01-4.43c6.62-1.26,13.71-3.28,18.25-8.6
			c5.06-5.92,4.71-13.41,5.69-20.68c1.04-7.65-0.15-14.54-5.8-20.17c-4.8-4.78-12.69,2.85-7.63,7.55c4.48,4.15,3.13,9.24,2.6,14.72
			c-0.47,4.84-0.3,10.35-4.8,13.34c-4.61,3.06-11,3.43-16.31,4.31c-6.95,1.15-13.91,2.26-20.9,3.24
			c-14.14,1.97-28.32,2.84-42.56,3.71c-14.18,0.87-28.16,3.04-42.18,5.23c-28.38,4.45-56.94,5.18-85.59,6.09
			c-13.9,0.44-28,0.51-41.8,2.38c-6.63,0.9-12.77,3.24-19.29,4.43c-5.38,0.98-11.13,0.46-16.42-0.8c-6.68-1.6-11.3-4.39-16.14-9.22
			c-5.23-5.22-10.45-10.89-14.45-17.12c-2.83-4.4,1.08-11.87,2.73-16.39c1.72-4.71,4-10.45,8.15-13.58
			c2.36-1.79,3.73-4.73,2.05-7.53C195.87,1093.17,192.01,1091.79,189.61,1093.6L189.61,1093.6z"/>
	</g>
	<g>
		<path class="st2" d="M485.95,1157.37c-1.35,18.13-2.15,36.31-2.22,54.5c-0.05,11.89,1.8,23.96,0.58,35.81
			c-0.5,4.82-1.85,9.94-4.96,13.76c-4.39,5.38-11.29,6.73-17.73,8.14c-17.24,3.78-34.45,7.7-51.69,11.49
			c-34.21,7.52-68.7,14.91-103.56,18.64c-15.92,1.7-32.14,1.82-48.03-0.3c-8.19-1.09-16.31-2.81-24.25-5.1
			c-3.76-1.09-7.48-2.31-11.15-3.67c-3.04-1.13-6.96-1.84-7.82-5.32c-1.02-4.09-1.04-8.55-1.43-12.74c-0.46-5-0.91-10.01-1.35-15.01
			c-0.88-10.01-1.72-20.02-2.52-30.04c-1.62-20.27-3.08-40.56-4.6-60.84c-0.55-7.32-12.04-7.38-11.67-0.01
			c1.88,38.23,5.28,76.32,8.29,114.46c0.3,3.81,0.54,7.61,2.2,11.12c2.09,4.43,5.92,6.67,10.28,8.45
			c7.96,3.25,16.15,5.87,24.52,7.83c16.88,3.94,34.36,5.41,51.67,4.79c18.37-0.66,36.71-3.64,54.81-6.7
			c18.55-3.13,37-6.88,55.38-10.9c18.4-4.02,36.74-8.28,55.11-12.42c8.25-1.86,17.41-2.99,24.81-7.37
			c5.77-3.42,10.1-8.59,12.71-14.72c5.53-12.99,3.06-27.47,2.64-41.11c-0.64-20.86,0.59-41.92,2.12-62.72
			C498.66,1149.67,486.51,1149.79,485.95,1157.37L485.95,1157.37z"/>
	</g>
	<g>
		<path class="st2" d="M202.32,1166.11c-5.49-2.78-11.69-2.02-16.65,1.57c-5.15,3.74-7.63,9.55-8.03,15.8
			c-0.74,11.44,4.07,27.26,14.91,32.85c6.16,3.18,13.17,3.03,19.88,2.36c7.34-0.73,14.66-1.61,21.99-2.45
			c12.9-1.49,25.81-2.98,38.78-3.77c7.27-0.44,14.56-0.66,21.85-0.61c8.42,0.05,16.8,0.87,25.2,1c5.87,0.09,7.77-9.57,1.53-10.43
			c-22.3-3.07-45.64-1.39-67.93,0.9c-11.73,1.21-23.44,2.67-35.17,3.98c-5.51,0.61-11.52,1.8-17.04,0.84
			c-5.03-0.88-8.12-4.27-10.09-8.8c-2.17-4.99-3.86-11.59-3.01-17.04c0.54-3.47,4.02-9.32,8.39-7.15
			C202.91,1178.13,208.44,1169.21,202.32,1166.11L202.32,1166.11z"/>
	</g>
	<g>
		<path class="st2" d="M407.72,1204.72c18.5,0,36.91-1.19,55.29-3.26c18.51-2.09,37.19-4.4,55.46-8.08c2.3-0.46,4.82-3.25,4.55-5.74
			c-2.03-18.42-9.26-35.88-22.91-48.76c-5.15-4.86-13.12,2.77-8,7.91c10.83,10.87,18.22,25.32,18.72,40.83
			c1.52-1.91,3.03-3.83,4.55-5.74c-17.92,2.4-35.66,6.07-53.6,8.43c-17.9,2.36-35.93,3.84-53.95,5.06
			C401.83,1195.76,401.48,1204.72,407.72,1204.72L407.72,1204.72z"/>
	</g>
	<g>
		<path class="st2" d="M195.36,1114.63c41.61-7.09,83.54-12.41,125.61-15.92c20.8-1.74,41.65-3.02,62.51-3.85
			c10.38-0.41,20.83-0.3,31.19-0.97c10.1-0.65,19.92-3.41,30-4.23c10.97-0.89,22.85-1.47,33.75,0.41c4.01,0.69,7.19,2.37,8.79,6.27
			c1.56,3.81,1.75,8.17,1.95,12.22c0.35,7.02,11.33,7.03,11.13,0.01c-0.25-8.29-1.16-17.67-7.53-23.75
			c-6.98-6.66-18.01-6.4-27.02-6.69c-11.17-0.35-22.38,0.25-33.4,2.11c-4.92,0.83-9.82,1.89-14.79,2.42
			c-5.58,0.59-11.25,0.48-16.85,0.64c-44.58,1.28-89.12,4.61-133.39,10.07c-24.97,3.08-49.85,6.86-74.63,11.24
			C185.95,1105.81,188.7,1115.76,195.36,1114.63L195.36,1114.63z"/>
	</g>
	<g>
		<path class="st2" d="M815.41,412.3c-23.17,6.49-45.11,16.68-65.89,28.74c-20.78,12.06-41.16,25.54-59.7,40.86
			c-36.33,30.03-61.4,71.93-75.19,116.68c-6.6,21.43-10.84,43.5-14.42,65.61c-4.07,25.17-6.89,49.96-4.36,75.47
			c4.43,44.63,21.01,91.19,52.18,124.26c14.29,15.17,31.56,25.74,50.17,34.76c9.48,4.59,19.08,9.07,29.52,10.95
			c12.76,2.3,25.93,2.36,38.85,2.04c25.83-0.64,51.25-2.67,76.52-8.31c22.43-5.01,45.45-11.19,66.19-21.31
			c19.37-9.46,35.26-23.98,43.89-43.97c8.56-19.81,10.02-41.82,10.18-63.14c0.38-48.06-2.15-97.82-21.14-142.63
			c-15.57-36.72-43.25-70.11-80.59-85.92c-34.56-14.63-77.55-12.95-109.11,8.42c-7.65,5.18-14.47,11.34-20.24,18.55
			c-2.24,2.8-2.82,6.65-0.01,9.37c2.38,2.31,7.31,2.72,9.57-0.11c21.58-26.96,59-36.71,92.15-30.65
			c36.92,6.75,66.65,32.99,85.39,64.56c22.63,38.12,28.78,83.05,30.1,126.67c0.64,21.23,1.42,43.17-1.83,64.23
			c-3,19.45-10.38,37.67-25.67,50.64c-15.11,12.81-34.88,19.24-53.57,24.76c-22.82,6.74-46.2,12.09-69.97,13.99
			c-12.4,0.99-24.93,1.38-37.36,1.51c-11.6,0.13-23.66,0.09-34.96-2.84c-9.5-2.46-18.23-7.13-27.02-11.38
			c-8.44-4.08-16.64-8.81-24.18-14.41c-33.34-24.75-52.65-65.46-61.37-105.18c-5.02-22.86-6.34-46.45-4.03-69.74
			c2.18-21.94,6.31-44.06,11.16-65.56c9.58-42.46,26.75-82.84,55.86-115.7c15.18-17.14,33.35-30.81,52.29-43.5
			c18.94-12.69,38.55-24.53,59.4-33.83c9.93-4.43,20.14-8.2,30.58-11.23C827.04,422.54,823.72,409.97,815.41,412.3L815.41,412.3z"/>
	</g>
	<g>
		<path class="st2" d="M607.11,663.39c-6.54-6.17-8.7-15.55-15.79-21.41c-8.23-6.79-20.11-9.13-28.57-1.44
			c-5.97,5.43-7.44,14.01-8.53,21.59c-0.59,4.12-0.9,6.19-1.58,10.2c-1,5.92-1.57,12.03,0.62,17.76
			c4.53,11.88,16.7,21.03,28.54,24.73c6.35,1.98,11.03-7.94,4.71-10.91c-8.71-4.09-21.5-11.2-21.96-22.22
			c-0.21-4.87,1.2-9.74,1.87-14.54c0.5-3.6,0.8-6.46,1.72-10.08c0.43-1.67,1.07-3.64,1.59-4.63c0.83-1.58,0.87-1.85,2.23-3
			c-0.67,0.56,1.18-0.7,1.48-0.83c-0.97,0.41,1.21-0.25,1.28-0.26c2.19-0.23,4.37,0.89,6.16,1.99c3.73,2.28,5.92,6.02,8.03,9.72
			c2.55,4.49,5.14,8.9,8.94,12.48C603.81,678.19,613.22,669.16,607.11,663.39L607.11,663.39z"/>
	</g>
	<g>
		<path class="st2" d="M709.43,898.96c1.27,27.31,2.52,54.63,3.86,81.94c0.66,13.42,1.32,26.83,1.98,40.25
			c0.68,13.89,0.61,28.08,2.74,41.83c1.07,6.91,11.57,4.78,11.92-1.56c0.74-13.32-0.77-26.93-1.43-40.25
			c-0.68-13.66-1.36-27.31-2.03-40.97c-1.34-27.08-2.77-54.15-4.19-81.22C721.84,890.86,709.05,890.89,709.43,898.96L709.43,898.96z
			"/>
	</g>
	<g>
		<path class="st2" d="M849.3,895.76c2.14,24.89,3.25,49.9,3.16,74.88c-0.05,12.38-0.4,24.76-1.06,37.12
			c-0.33,6.18-0.72,12.36-1.19,18.53c-0.47,6.22-1.93,13-1.37,19.2c0.6,6.72,10.1,8.49,12.19,1.57c1.82-6.02,1.72-13.09,2.24-19.34
			c0.52-6.41,0.97-12.82,1.32-19.24c0.66-12.36,1.02-24.74,1.07-37.12c0.1-25.26-1.15-50.48-3.82-75.6
			c-0.35-3.34-2.57-6.13-6.18-6.14C852.57,889.63,849.01,892.39,849.3,895.76L849.3,895.76z"/>
	</g>
	<g>
		<path class="st2" d="M723.6,1067.4c45.66,1.57,91.34,1.14,136.96-1.29c3.71-0.2,7.03-2.93,7.07-6.83c0.04-3.6-3.17-7.04-6.89-6.84
			c-45.6,2.42-91.32,2.94-136.96,1.56C715.03,1053.74,714.79,1067.1,723.6,1067.4L723.6,1067.4z"/>
	</g>
	<g>
		<path class="st2" d="M706.27,888.89c-29.71,0.91-59.34,3.24-88.83,6.97c-14.65,1.85-29.27,3.97-43.84,6.42
			c-14.69,2.47-30.12,4.52-44.32,9.11c-2.88,0.93-4.98,3.55-4.54,6.66c0.39,2.76,2.96,5.61,6.03,5.28
			c14.58-1.56,29.06-5.13,43.52-7.58c14.51-2.47,29.06-4.66,43.67-6.5c29.26-3.68,58.68-6.2,88.13-7.68
			C714.31,901.15,714.66,888.63,706.27,888.89L706.27,888.89z"/>
	</g>
	<g>
		<path class="st2" d="M513.32,912.73c-11.95-2.83-23.01,6.66-24.14,18.4c-0.52,5.41,1.31,11.23,4.33,15.68
			c3.32,4.89,8.32,9.44,14.24,10.75c7.73,1.71,16.26-2.66,16.9-11.09c0.22-2.84-2.32-5.22-4.95-5.56c-2.81-0.36-5.55,1.33-6.37,4.1
			c-0.2,0.62-0.17,0.59,0.08-0.08c-0.16,0.26-0.31,0.52-0.47,0.78c0.13-0.15,0.26-0.31,0.39-0.46c-0.2,0.23-0.42,0.45-0.65,0.66
			c0.94-0.98-0.13-0.02-0.51,0.22c-0.42,0.2-0.28,0.15,0.41-0.16c-0.3,0.1-0.6,0.19-0.91,0.25c0.75-0.07,0.9-0.09,0.44-0.06
			c-0.26,0.02-0.52,0.02-0.78,0.01c-0.7-0.05-0.72-0.04-0.06,0.02c-0.35-0.07-0.7-0.16-1.05-0.26c-1.12-0.24,0.49,0.38-0.6-0.23
			c-0.48-0.27-0.97-0.51-1.44-0.8c-0.31-0.2-0.62-0.4-0.92-0.61c0.49,0.36,0.46,0.33-0.08-0.1c-0.39-0.35-0.78-0.68-1.16-1.04
			c-0.44-0.42-0.86-0.86-1.26-1.32c-0.17-0.19-0.34-0.39-0.51-0.6c0.41,0.52,0.41,0.51,0-0.04c-0.67-1.03-1.27-2.06-1.87-3.13
			c-0.62-1.11,0.24,0.87-0.21-0.45c-0.19-0.57-0.39-1.13-0.55-1.72c-0.16-0.58-0.28-1.16-0.39-1.75c-0.31-1.56-0.02,1.12-0.04-0.46
			c-0.01-0.6-0.04-1.19-0.01-1.79c0.01-0.3,0.33-2.02,0.05-0.77c0.11-0.48,0.21-0.95,0.35-1.42c0.09-0.3,0.19-0.6,0.31-0.89
			c-0.3,0.66-0.31,0.69-0.03,0.09c0.23-0.41,0.44-0.84,0.7-1.24c0.17-0.27,0.35-0.53,0.53-0.79c-0.41,0.5-0.48,0.59-0.21,0.26
			c0.71-0.76,1.4-1.49,2.2-2.15c-1.16,0.97,0.44-0.24,0.71-0.4c0.4-0.24,0.82-0.44,1.24-0.65c-1.3,0.68-0.11,0.06,0.27-0.06
			c0.36-0.11,2.25-0.36,0.7-0.26c0.46-0.03,0.92-0.06,1.38-0.05c0.31,0.01,0.62,0.03,0.92,0.06c-0.72-0.09-0.75-0.07-0.1,0.05
			c2.92,0.64,6.4-0.91,7.14-4.02C518.04,916.71,516.42,913.47,513.32,912.73L513.32,912.73z"/>
	</g>
	<g>
		<path class="st2" d="M491.02,801.19c9.25-2.06,18.5-4.11,27.74-6.17c3.59-0.8,7.83-1.15,11.09-2.98c3.69-2.08,5.24-6.01,5.5-10.05
			c0.27-4.15-0.35-8.48-0.62-12.63c-0.32-4.79-0.65-9.59-1.02-14.38c-0.75-9.58-1.64-19.15-2.68-28.7
			c-0.79-7.22-0.59-16.39-6.67-21.49c-5.81-4.87-15.49-5.94-22.76-5.34c-7.84,0.65-16.67,3.37-22.32,9.14
			c-6.12,6.25-6.1,14.63-5.51,22.79c1.54,21.09,4.08,42.3,8.32,63.03c1.51,7.41,12.79,4.23,11.51-3.08
			c-2.66-15.19-5.1-30.37-6.63-45.72c-0.72-7.19-1.77-14.59-1.56-21.83c0.19-6.53,4.43-9.63,10.3-11.54
			c6.09-1.98,12.92-2.43,19.08-0.44c5.51,1.78,4.8,9.73,5.33,14.48c1.7,15.52,3.05,31.08,3.92,46.67c0.11,1.88,1.21,9.09,0.17,9.92
			c0.04-0.03-3.56,0.59-4.1,0.7c-2.08,0.46-4.16,0.92-6.24,1.38c-8.56,1.9-17.11,3.79-25.67,5.69
			C481.18,792.19,484.02,802.74,491.02,801.19L491.02,801.19z"/>
	</g>
	<g>
		<path class="st2" d="M455.62,293.38c-1.61,6-1.54,13.23,2.18,18.49c3.78,5.35,10.57,7.26,16.11,3.31
			c2.47-1.76,3.87-4.23,5.67-6.59c0.57-0.75,2.63-1.82,0.84-1.77c-1.53,0.05-0.85-0.42-0.61,0.52c0.17,0.65,0.8,1.31,1.2,1.85
			c4.08,5.54,11.42,4.91,16.26,0.75c2.29-1.97,3.55-4.68,5.19-7.15c0.21-0.31,1.47-1.56,1.5-1.79c0.09-0.67-0.78-1.67-1.14-1.3
			c-0.41,0.43,0.07,4.15,0.09,4.83c0.04,1.51,0.1,3.02,0.2,4.52c0.21,3.29,0.58,6.6,1.21,9.84c1.17,5.97,3.44,13.63,9.11,16.82
			c6.62,3.72,12.49-1.57,15.23-7.38c2.9-6.17,3.38-13,3.32-19.73c-0.07-7.96-0.29-15.91-0.57-23.87c-0.25-7.15-11.38-7.13-11.3-0.01
			c0.07,6,0.18,11.99,0.37,17.99c0.16,5.17,0.63,10.55-0.18,15.69c-0.32,2.03-0.89,4.09-1.89,5.89c-0.66,1.19-2.35,2.23-0.4,2.03
			c2.47-0.25,0.78,0.14,0.69-0.48c-0.07-0.5-0.9-1.5-1.14-2.04c-2.15-4.73-2.86-10.17-3.17-15.31c-0.29-4.88,0.91-11.32-2.47-15.34
			c-3.39-4.02-9.29-4.12-13.66-1.65c-2.21,1.25-3.84,3.3-5.21,5.4c-0.66,1.02-1.21,2.11-1.84,3.15c-0.41,0.68-1.45,1.54-1.73,2.17
			c0.15-0.34-0.58,0.46-0.6,0.26c-0.04-0.27,1.33,0.36,1.28,0.4c0.13-0.12-1.38-2.31-1.61-2.63c-1.74-2.44-4.31-4.1-7.36-4.25
			c-5.54-0.26-10.66,4.37-13.11,9.04c-0.49,0.94-1.01,0.77-0.36,0.95c-0.52-0.15-1.07-1.25-1.24-1.59
			c-1.23-2.43-1.25-5.77-0.78-8.39C466.89,289.53,457.35,286.92,455.62,293.38L455.62,293.38z"/>
	</g>
	<g>
		<path class="st2" d="M753.62,526.03c20.97-14.81,44.42-26.08,68.58-34.62c12.11-4.28,24.51-7.8,37.07-10.46
			c10.91-2.31,22.79-4.43,33.21,0.82c8.35,4.21,15.21-7.19,7.43-12.51c-8.71-5.95-19.84-6.6-30.03-5.36
			c-10.72,1.31-21.3,3.83-31.68,6.76c-20.87,5.89-41.08,14.49-59.89,25.26c-10.61,6.07-20.73,13-30.57,20.23
			c-2.51,1.84-3.87,4.96-2.14,7.88C747.09,526.56,751.06,527.84,753.62,526.03L753.62,526.03z"/>
	</g>
	<g>
		<path class="st2" d="M806.1,619.88c0.94,4.06,1.87,8.13,2.81,12.19c0.46,1.99,0.92,3.99,1.38,5.98c0.56,2.43,1.02,4.98,2.18,7.2
			c1.21,2.31,4.52,3.54,6.97,2.76c2.61-0.82,4.59-3.06,4.66-5.88c0.06-2.36-0.74-4.91-1.28-7.2c-0.49-2.07-0.97-4.14-1.46-6.2
			c-0.95-4.06-1.91-8.12-2.86-12.18c-0.77-3.26-4.64-5.39-7.82-4.39C807.33,613.23,805.3,616.4,806.1,619.88L806.1,619.88z"/>
	</g>
	<g>
		<path class="st2" d="M737.55,630.73c1.44,4.04,2.89,8.07,4.33,12.11c1.58,4.41,3.05,8.86,5.12,13.07
			c1.34,2.72,5.07,3.47,7.64,2.41c2.8-1.16,4.33-4.09,3.63-7.08c-0.96-4.09-2.53-8.02-3.95-11.97c-1.42-3.96-2.85-7.92-4.27-11.88
			c-1.14-3.16-4.42-5.51-7.88-4.42C739.11,623.93,736.34,627.35,737.55,630.73L737.55,630.73z"/>
	</g>
	<g>
		<path class="st2" d="M667.41,691.64c10.78,34.99,28.67,70.92,63.22,87.61c17.29,8.36,36.03,10.23,54.64,5.39
			c17.1-4.45,34.08-12.54,48.2-23.19c14.83-11.18,28.79-27.09,31.17-46.19c0.38-3.04-2.63-5.73-5.38-6.04
			c-3.17-0.36-5.88,1.44-6.93,4.45c-2.39,6.9-4.93,13.32-9.11,19.38c-4.11,5.96-9.37,11.12-14.98,15.68
			c-11.67,9.49-25.8,16.48-40.04,21.16c-16.02,5.26-32.43,5.75-48.11-0.98c-14.36-6.17-26.71-16.61-36-29.1
			c-11.45-15.39-19.05-33.17-25.07-51.27C676.64,681.4,665.17,684.36,667.41,691.64L667.41,691.64z"/>
	</g>
	<g>
		<path class="st2" d="M662.86,697.01c0.59-0.99,1.24-1.94,1.94-2.87c0.56-0.74-0.55,0.66-0.14,0.18c0.17-0.2,0.33-0.4,0.5-0.6
			c0.37-0.43,0.76-0.85,1.16-1.26c0.76-0.79,1.54-1.57,2.36-2.29c0.43-0.38,0.88-0.75,1.32-1.12c0.2-0.17,0.42-0.32,0.61-0.49
			c-1.23,1.14-0.56,0.43-0.19,0.16c1.8-1.29,3.74-2.29,5.73-3.23c1.09-0.51-1.46,0.54-0.33,0.13c0.25-0.09,0.49-0.19,0.73-0.27
			c0.54-0.19,1.1-0.35,1.64-0.55c1.08-0.4,2.16-0.79,3.27-1.13c2.63-0.8,4.43-3.22,4.08-6c-0.33-2.64-2.67-4.84-5.42-4.75
			c-11.9,0.37-22.35,9.53-25.99,20.56c-0.74,2.24,0.67,4.66,2.75,5.5C659.05,699.87,661.64,699.06,662.86,697.01L662.86,697.01z"/>
	</g>
	<g>
		<path class="st2" d="M934.22,620.66c5.34-13.15,17.4-25.21,31.73-19.49c0.9,0.36,3.35,1.71,3.91,2.12
			c1.29,0.93,3.29,2.91,3.83,3.59c2.44,3.12,3.46,5.88,3.37,9.33c-0.11,4.41-2.28,9.47-4.85,13.01c-2.54,3.52-6.8,5.43-10.37,7.75
			c-5.7,3.69-2.26,13.04,4.67,11.06c5.19-1.48,9.95-3.63,13.93-7.37c4.04-3.79,6.5-8.98,8.41-14.09c3.42-9.1,2.56-19.1-3.39-26.96
			c-11.71-15.44-33.44-16.95-48.34-5.25c-7.45,5.85-12.29,14.24-15.72,22.93c-1.31,3.32,1.43,7.14,4.61,7.98
			C929.76,626.26,932.87,623.99,934.22,620.66L934.22,620.66z"/>
	</g>
	<g>
		<path class="st2" d="M319.48,1201.1c-2.83,7.12-4.72,15.21,0.17,21.94c5.29,7.27,13.85,5.67,21.66,4.96
			c17.54-1.61,35.06-3.47,52.58-5.22c6.49-0.65,17.09,0.54,19.7-7.18c1.49-4.41,0.02-9.26-1.68-13.39
			c-1.81-4.41-3.91-9.03-7.82-11.97c-5.53-4.15-13.75-5.01-19.29-0.4c-1.38,1.15-2.41,2.53-3.37,4.05
			c-0.08,0.12-1.23,1.71-0.87,1.56c0.78-0.33,0.15-0.22-0.3-0.36c-3.57-1.06-6.22-5.06-9.53-6.8c-3.63-1.91-7.88-2.48-11.76-1.08
			c-1.92,0.69-3.53,1.85-4.9,3.37c-0.45,0.5-1.05,1.12-1.37,1.72c-0.97,1.78-1.13,0.28,0.45,0.45c1.03,0.27,2.06,0.54,3.09,0.81
			c-3.14-1.3-5.45-3.56-8.95-4.29c-3.75-0.78-7.61-0.56-11.2,0.82c-6.9,2.66-12.08,9.29-12.07,16.8c0.01,6.52,9.93,7.91,11.55,1.49
			c1.19-4.71,4.77-9.16,10.15-6.74c2.87,1.29,4.53,3.54,8.01,3.47c3.22-0.06,5.82-1.86,7.83-4.24c0.52-0.61,2.3-2.33,1.51-2.19
			c0.74-0.14,1.66,0.45,2.22,0.79c2.98,1.79,5.19,4.63,8.34,6.22c6.82,3.45,14.16,1.59,18.11-4.93c0.9-1.48,0.87-2.15,2.63-1.76
			c1.12,0.24,1.62,0.82,2.5,1.4c1.17,0.77-0.52-0.83-0.06-0.14c0.24,0.36,0.48,0.71,0.7,1.08c0.85,1.38,1.84,3.34,2.31,4.48
			c0.44,1.06,0.81,2.15,1.13,3.25c0.25,0.88,0.52,2.15,0.51,2.05c0.25,1.54-0.39,1.62,0.53,0.02c0.44-0.77,1.95-1.93,2-1.8
			c-0.02-0.06-3.05,0.31-2.84,0.29c-4.26,0.43-8.53,0.87-12.79,1.3c-8.05,0.82-16.11,1.64-24.16,2.46c-9,0.92-18.01,1.81-27,2.8
			c-2.73,0.3-7.08,1.96-8.33-1.36c-1.27-3.4,0.77-7.61,1.95-10.75c1.11-2.96-1.23-6.32-4.09-7.07
			C323.45,1196.14,320.66,1198.14,319.48,1201.1L319.48,1201.1z"/>
	</g>
	<g>
		<path class="st2" d="M254.27,1170.21c-1.61,6.23-2.93,12.84-0.17,18.95c2.17,4.81,6.91,8.4,12.2,8.91
			c5.57,0.54,9.72-2.65,12.56-7.15c0.57-0.9,1-1.98,1.68-2.8c1.51-1.86,0.37-0.1,0.05-0.65c0.94,1.59,4.47,3.26,6.21,3.81
			c4.92,1.56,9.28-0.93,12.86-4.11c0.95-0.85,2.59-1.97,3.17-2.8c0.54-0.77,0.65-0.06-0.19-0.32c1.26,0.39,2.42,1.35,3.68,1.82
			c5.5,2.04,11.44,0.23,15.81-3.43c4.52-3.79,6.77-9.72,8.4-15.21c2.11-7.09-8.66-9.61-11.02-2.89c-1.25,3.56-2.36,8.33-5.82,10.44
			c-3.33,2.04-5.93-1.37-9.34-1.76c-3.94-0.45-7.18,1.4-10.09,3.85c-1.2,1.02-2.32,2.13-3.52,3.15c-0.14,0.12-0.8,0.86-0.53,0.43
			c-0.48,0.76-0.84-0.6,0.3,0.16c-3.49-2.33-6.35-4.94-10.88-4.33c-4.85,0.66-7.79,4.35-10.15,8.29c-0.39,0.65-0.8,1.29-1.2,1.93
			c-0.81,0.68-0.89,0.82-0.24,0.42c0,0.18-0.14,0.21-0.4,0.08c-1.1-0.1-2.22-0.88-2.85-1.81c-2.23-3.29-0.66-8.7,0.11-12.2
			C266.37,1166.14,256.02,1163.46,254.27,1170.21L254.27,1170.21z"/>
	</g>
	<g>
		<path class="st2" d="M810.64,1068.94c-3.44,45.3-8.61,90.46-15.91,135.31c-0.57,3.51,0.87,6.58,4.45,7.69
			c11.55,3.6,22.59,8.12,33.78,12.68c3.19,1.3,6.89,0.86,8.8-2.36c1.68-2.83,0.79-7.07-2.3-8.59
			c-11.71-5.76-24.34-10.11-36.81-13.88c1.48,2.56,2.96,5.13,4.45,7.69c6.99-45.97,12.42-92.16,15.85-138.54
			C823.51,1061.16,811.22,1061.28,810.64,1068.94L810.64,1068.94z"/>
	</g>
	<g>
		<path class="st2" d="M752.44,1067.61c1.59,48.38,3.67,96.7,6.41,145.03c0.62-1.45,1.25-2.91,1.87-4.36
			c-9.32,7.49-18.9,14.76-27.9,22.65c-5.3,4.65,1.9,13.84,7.6,9.61c4.87-3.62,9.55-7.46,14.25-11.28c4.8-3.9,9.99-7.56,14.5-11.78
			c2.61-2.43,2.42-5.08,2.28-8.4c-0.13-3.11-0.26-6.22-0.38-9.33c-0.24-5.98-0.52-11.97-0.79-17.95
			c-1.12-24.18-2.28-48.35-3.58-72.52c-0.75-13.89-1.68-27.76-2.47-41.65C763.81,1060.19,752.19,1060.16,752.44,1067.61
			L752.44,1067.61z"/>
	</g>
	<g>
		<path class="st2" d="M857.79,901.78c10.07,6.14,16.26,16.54,20.98,27.05c5.33,11.87,9.08,24.58,11.78,37.29
			c5.62,26.43,6.13,54.33,0.51,80.81c-1.09,5.13,3.1,9.02,8.14,8.01c6.11-1.23,13.74-0.24,17.73,5.09
			c3.56,4.75,2.44,11.09-1.88,14.82c-5.48,4.73,1.59,12.8,7.51,9.49c10.54-5.88,12.38-20.91,6.2-30.63
			c-6.9-10.86-21.03-14.1-32.96-11.4c2.71,2.67,5.43,5.34,8.14,8.01c8.38-44.44,4.46-93.51-17.23-133.89
			c-5.43-10.11-12.76-19.17-22.7-25.12C857.34,887.3,851.03,897.65,857.79,901.78L857.79,901.78z"/>
	</g>
</g>
<g>
	<path class="st0" d="M2129.53,477.66c-2.49,10.58-4.2,21.48-5.13,32.7c-0.93,11.24-1.4,22.79-1.4,34.69
		c0,25.77,0.3,52.03,0.93,78.78c0.61,26.76,0.93,51.7,0.93,74.82c0,46.92-3.27,94.32-9.8,142.21
		c-6.53,47.91-18.83,91.67-36.87,131.31c-18.06,39.64-43.57,73.18-76.54,100.59c-32.99,27.42-75.61,44.1-127.89,50.04
		c56.62-5.95,102.05-23.61,136.29-53.02c34.22-29.39,60.68-65.73,79.35-109.01c18.67-43.26,31.11-90.68,37.34-142.21
		c6.21-51.53,9.34-102.07,9.34-151.62c0-20.47-0.32-40.96-0.93-61.44c-0.63-20.47-0.93-40.96-0.93-61.44v-22.79
		c0-7.93,0.31-15.52,0.93-22.79c8.08,20.49,12.91,45.59,14.47,75.32c1.54,29.73,2.33,57.82,2.33,84.24
		c0,27.75-0.32,52.37-0.93,73.83c-0.63,21.48-2.8,46.08-6.54,73.83l-9.33,14.86c-4.99,46.92-14.32,89.86-28,128.83
		c-13.7,38.99-32.67,72.51-56.94,100.59c-24.27,28.09-54.14,49.89-89.62,65.41c-35.47,15.51-76.87,23.29-124.15,23.29
		c-39.21,0-77.64-5.79-115.29-17.34c-37.66-11.55-71.1-32.21-100.35-61.94l-1.87,6.94c29.24,30.4,62.38,51.53,99.42,63.42
		c37.02,11.89,75.45,17.84,115.28,17.84c44.81,0,84.32-7.28,118.55-21.8c34.22-14.52,63.94-34.84,89.15-60.95
		c25.2-26.09,45.89-57.31,62.08-93.65c15.55-35.01,27.68-73.98,36.41-116.94c-8.72,44.27-20.54,84.24-35.47,119.91
		c-14.94,37.01-34.54,68.72-58.81,95.14c-24.27,26.43-53.53,46.73-87.75,60.95c-34.23,14.2-75,21.31-122.29,21.31
		c-54.14,0-100.67-8.92-139.55-26.76c-38.9-17.84-70.8-42.94-95.68-75.32c-24.9-32.36-43.26-71.01-55.07-115.95
		c-11.83-44.92-17.74-94.47-17.74-148.65c0-29.06,2.01-57.63,6.07-85.72c4.04-28.07,8.87-55.99,14.47-83.74s11.2-55.65,16.8-83.74
		c5.6-28.07,9.95-56.32,13.07-84.73h22.4c3.73,1.33,6.21,4.63,7.47,9.91c1.24,5.3,1.87,9.58,1.87,12.88
		c0,9.26-0.63,18.18-1.87,26.76c-1.25,8.59-2.49,17.51-3.73,26.76h8.4c0.61-3.96,2.64-11.72,6.07-23.29
		c3.41-11.55,7.47-23.29,12.13-35.18c4.67-11.89,9.8-22.62,15.4-32.21c5.6-9.57,11.2-14.37,16.8-14.37c3.73,0,6.54,2.32,8.4,6.94
		c1.87,4.63,3.27,9.91,4.2,15.86c0.93,5.95,1.55,12.06,1.87,18.33c0.31,6.29,0.47,11.07,0.47,14.37c0,27.1-1.72,53.68-5.13,79.78
		c-3.43,26.11-7.32,52.37-11.67,78.78c-4.36,26.43-8.25,52.86-11.67,79.28c-3.43,26.43-5.13,52.86-5.13,79.28
		c0,35.03,3.73,67.06,11.2,96.13c7.47,29.08,19.44,54.01,35.94,74.82c16.48,20.81,37.34,37.01,62.54,48.56
		c25.21,11.57,55.54,17.34,91.01,17.34c37.95,0,69.85-9.91,95.68-29.73c25.82-19.82,46.67-45.09,62.54-75.81
		c15.87-30.72,27.07-64.57,33.6-101.58c6.54-36.99,9.8-72.34,9.8-106.04c0-27.75-1.25-55.16-3.73-82.25
		c-2.49-27.08-3.73-54.5-3.73-82.25v-2.97c0-5.95,0.77-13.87,2.33-23.78c1.55-9.91,6.07-14.86,13.54-14.86
		c1.24,0,2.33,9.09,3.27,27.25c0.93,18.18,1.71,38.82,2.33,61.94c0.61,23.13,1.08,45.26,1.4,66.4c0.31,21.15,0.47,34.69,0.47,40.63
		v39.64c0,12.56-0.63,25.44-1.87,38.65c3.11-17.17,4.81-34.02,5.13-50.54c0.31-16.51,0.47-33.35,0.47-50.54
		c0-28.4-0.63-56.81-1.87-85.23l-3.73-85.23h17.74c-1.26-6.6-1.87-16.51-1.87-29.73c0-11.89,1.24-23.61,3.73-35.18
		c2.48-11.55,7.77-17.34,15.87-17.34c3.73,0,7.47,1.98,11.2,5.95c3.73,3.96,7,8.59,9.8,13.87c2.8,5.3,5.28,10.75,7.47,16.35
		C2126.57,470.89,2128.28,475.02,2129.53,477.66z M1987.65,992.98c-8.72,5.3-20.23,12.88-34.54,22.79
		c-14.32,9.91-32.99,19.17-56.01,27.75c8.71-1.98,17.57-4.79,26.6-8.42c9.01-3.62,17.58-7.93,25.67-12.88
		c8.08-4.96,15.55-10.06,22.4-15.36C1978.62,1001.57,1983.91,996.94,1987.65,992.98z"/>
	<path class="st0" d="M2365.69,1055.41c13.07-37.66,22.08-78.44,27.07-122.39c4.97-43.93,8.71-88.03,11.2-132.3
		c0-6.6-0.32-12.88-0.93-18.83c0-5.28,0-10.24,0-14.87c-1.87,48.9-5.6,97.78-11.2,146.67c-4.99,50.22-15.56,96.47-31.74,138.74
		c-2.49-5.28-4.36-9.91-5.6-13.87c-1.25-3.96-1.87-8.58-1.87-13.87c0-15.86,2.48-32.36,7.47-49.55c4.97-17.17,8.08-35.01,9.33-53.51
		l13.07-5.95c0-32.36,1.24-64.57,3.73-96.62c2.48-32.04,3.73-64.24,3.73-96.62c0-16.51-0.47-32.7-1.4-48.56s-2.96-32.36-6.07-49.55
		h-5.6c3.73,46.92,5.6,91.84,5.6,134.78c0,21.8-0.63,42.61-1.87,62.43c-1.25,18.5-3.43,37.33-6.53,56.49
		c1.87-14.52,3.11-28.4,3.73-41.62c1.24-15.19,1.87-31.37,1.87-48.56c0-53.51-2.03-107.85-6.07-163.02
		c-4.05-55.16-7.63-111.81-10.74-169.96v-27.75c1.87-7.93,2.95-16.51,3.27-25.77c0.31-9.24,1.08-18.16,2.33-26.76
		c1.24-8.58,3.57-15.69,7-21.31c3.41-5.6,9.17-8.42,17.27-8.42l15.87,4.96l5.6,11.89h8.4c2.48-3.96,5.28-5.95,8.4-5.95
		c3.73,0,7.47,1.49,11.2,4.46c3.73,2.97,8.08,4.46,13.07,4.46c9.33,0,15.87,6.78,19.6,20.32c3.73,13.55,6.21,30.4,7.47,50.54
		c1.24,20.16,1.87,42.29,1.87,66.4c0,24.12,1.24,46.75,3.73,67.88c1.87,19.17,3.57,38.49,5.13,57.97
		c1.55,19.49,2.33,39.14,2.33,58.96s-0.63,42.95-1.87,69.37c-1.25,26.43-2.96,53.68-5.13,81.76c-2.19,28.09-4.83,55.99-7.93,83.74
		c-3.12,27.75-6.54,52.52-10.27,74.33c-3.73,21.8-8.09,39.49-13.07,53.02c-4.99,13.55-9.96,20.32-14.94,20.32
		c-1.25,0-3.12-0.65-5.6-1.98c4.35-21.14,8.55-42.27,12.6-63.42c4.04-21.14,7.61-43.26,10.73-66.4
		c-4.36,21.15-8.87,42.78-13.54,64.91c-4.67,22.14-9.8,42.78-15.4,61.94c-2.49-2.63-5.6-3.96-9.33-3.96c-1.25,0-2.65,1.66-4.2,4.96
		c-1.56,3.31-3.59,7.11-6.07,11.4c-2.49,4.3-5.6,8.1-9.33,11.4c-3.73,3.31-7.79,4.96-12.13,4.96c-4.36,0-7.79-0.99-10.27-2.97
		c-2.49-1.98-4.52-4.46-6.07-7.43c-1.56-2.97-3.12-6.1-4.67-9.42c-1.56-3.3-3.59-6.27-6.07-8.92L2365.69,1055.41z M2374.09,881.98
		c0-1.32,0-2.63,0-3.96C2374.09,879.35,2374.09,880.67,2374.09,881.98z M2473.98,770c-3.73,13.22-6.39,25.27-7.93,36.17
		c-1.56,10.9-2.49,21.31-2.8,31.22c-0.32,9.91-0.47,20.16-0.47,30.72c0,9.26-0.32,19.5-0.93,30.72c2.48-22.45,4.67-42.94,6.53-61.44
		C2470.85,817.57,2472.72,795.12,2473.98,770z"/>
</g>
<g>
</g>
<g>
</g>
<g>
</g>
<g>
</g>
<g>
</g>
<g>
</g>
</svg>
