<?xml version="1.0" encoding="utf-8"?>
<!-- Generator: Adobe Illustrator 25.4.1, SVG Export Plug-In . SVG Version: 6.00 Build 0)  -->
<svg version="1.1" id="Ebene_2" xmlns="http://www.w3.org/2000/svg" xmlns:xlink="http://www.w3.org/1999/xlink" x="0px" y="0px"
	 viewBox="0 0 10913.57 5000" style="enable-background:new 0 0 10913.57 5000;" xml:space="preserve">
<style type="text/css">
	.st0{fill:#146ece;}
	.st1{fill:#3D3D3F;}
	.st2{fill:#ECEDED;}
	.st3{fill:#38373A;}
</style>
<g>
	<g>
		<path class="st0" d="M4814.61,2393.43c43-47.9,93.82-70.53,152.15-94.75c-12.99-12.63-25.98-25.25-38.98-37.88
			c-48.68,75.1-102.75,146.27-162.05,213.29c-19.75,22.32,6.77,61.78,33.71,42.58c95.83-68.32,191.83-136.41,287.35-205.15
			c-11.14-14.07-22.27-28.13-33.41-42.2c-71.53,77.43-172.78,115.72-222.39,212.98c-13.77,27,19.04,50.1,41.24,30.7
			c117.8-102.88,275.34-137.31,406.32-219.25c-12.72-5.04-25.44-10.09-38.17-15.13c10.66,39.58-76.46,96.78-102.07,113.42
			c-38.62,25.1-79.99,45.52-120.31,67.67c-73.08,40.15-143.32,87.15-178.35,165.76c-11.96,26.84,18.17,50.54,41.05,30.56
			c129.04-112.69,302.91-148.32,450.94-228.78c-13.16-12.79-26.33-25.59-39.49-38.38c-85.54,135.17-290.55,123.91-362.33,275.38
			c-12.36,26.07,14.73,59.48,42.55,41.35c57.99-37.79,116.01-75.52,173.88-113.5c49.78-32.68,122.73-102.38,184.65-99.18
			c-7.45-17.87-14.9-35.74-22.35-53.62c-75.63,81.05-151.02,162.29-225.9,244.04c-23.29,25.42,6.85,66.69,37.74,47.68
			c34.18-21.04,68.54-41.78,102.83-62.62c15.59-9.47,31.13-19.04,46.77-28.42c13.85-8.31,54.33-45.55,61.02-46.98
			c-29.33,6.24-24.18,53.97,6.48,51.99c52.83-3.41,64.57-68.97,12.58-87.44c-34.96-12.42-72.11,8.38-101.28,25.43
			c-53.54,31.3-106.32,63.9-159.72,95.44c12.58,15.89,25.16,31.79,37.74,47.68c76.19-80.51,151.84-161.48,227.29-242.69
			c19.24-20.72,5.39-52.25-22.35-53.62c-69.53-3.43-126.18,48.24-181.05,84.43c-69.96,46.14-139.79,92.5-209.6,138.88
			c14.18,13.78,28.37,27.57,42.55,41.35c35.31-76.25,113.92-106.83,185.28-141.16c68.3-32.86,132.45-70.34,173.18-136.39
			c15.59-25.27-15.3-51.89-39.49-38.38c-152.12,84.98-325.43,125.02-458.89,241.71c13.68,10.19,27.36,20.37,41.05,30.56
			c44.36-99.73,149.22-139.35,238.25-190.09c59.77-34.06,190.34-111.25,167.63-195.57c-4.27-15.84-24.05-23.96-38.17-15.13
			c-135.48,84.75-294.48,121.57-417.41,227.02c13.75,10.23,27.5,20.47,41.24,30.7c47.42-90.94,147.81-127.93,216.13-200.57
			c20.6-21.9-7.06-60.8-33.41-42.2c-96.12,67.88-191.78,136.42-287.6,204.73c11.24,14.19,22.47,28.39,33.71,42.58
			c64.1-69.79,121.67-143.44,171.92-223.81c16.67-26.66-15.43-48.07-38.98-37.88c-59.39,25.71-111.46,71.59-149.8,123.27
			C4776.99,2389.15,4802.24,2407.21,4814.61,2393.43L4814.61,2393.43z"/>
	</g>
	<g>
		<path class="st1" d="M4863.8,2644.75c-7.5-55.74-22.11-110.77-25.56-167.06c-3.32-54.14,3.59-108.76,11.33-162.21
			c6.35-43.87-71.15-46.54-71.87-0.07c-1.89,122.44,4.97,223.58,51.35,338.66C4837.57,2675.24,4866.83,2667.3,4863.8,2644.75
			L4863.8,2644.75z"/>
	</g>
	<g>
		<path class="st1" d="M5442.52,2634.08c-9.89-143.73-13.52-310.24-130.03-413.42c-17.89,17.7-35.78,35.41-53.67,53.11
			c8.77,7.29,17.53,14.58,26.3,21.87c26.64,22.15,78.96-8.59,53.79-41.07c-6.81-8.78-13.62-17.57-20.43-26.35
			c-28.58-36.86-94.6-1.04-65.65,37.99c41.49,55.94,72.69,109.92,89.27,178.18c15.11,62.19,19.26,126.18,26.11,189.63
			C5373.17,2679.99,5445.77,2681.23,5442.52,2634.08L5442.52,2634.08z"/>
	</g>
	<g>
		<path class="st1" d="M5140.94,550.26c-83.52-25.48-164.54,5.16-239.18,43.52c-85.92,44.15-171.89,90.64-249.88,147.93
			c-63.59,46.71-124.87,99.96-169.65,165.5c-50.89,74.48-58.37,159.41-68.33,246.75c-19.45,170.57-73.57,333.51-81.27,506.33
			c-6.32,141.97,10.83,294.6,91.06,415.78c168.02,253.79,563.07,311.09,828.64,196.94c155.18-66.7,253.66-189.62,319.91-341.93
			c77.82-178.93,113.32-372.38,78.64-566.06c-18.2-101.63-56.6-200.54-100.3-293.84c-34.16-72.91-79.11-144.47-147.87-189.22
			c-151.1-98.36-371.37-46.97-499.29,64.59c-28.71,25.04,9.54,73.21,40.87,51.63c116.65-80.36,303.72-141.26,430.33-44.67
			c46.67,35.61,77.29,89.37,102.38,141.28c35.28,72.97,65.31,151.7,84.87,230.35c41.79,168.1,24.01,340.62-34.71,502.37
			c-52.2,143.77-120.17,278.45-257.27,356.52c-224.08,127.59-588.85,93.05-759.8-110.74c-168.54-200.92-110.26-515.73-54.21-747.61
			c21.81-90.23,28.18-180.93,43.82-272.11c14.33-83.57,64.1-147.18,124.51-204.03c66.82-62.88,143.65-112.43,222.29-159.05
			c84.71-50.23,180.78-120.59,284.28-104.58C5153.91,589.48,5164.73,557.52,5140.94,550.26L5140.94,550.26z"/>
	</g>
	<g>
		<path class="st1" d="M5286.65,2228.52c62.64,64.72,122.53,130.37,181.37,198.59c57.57,66.75,116.12,130.14,194.81,171.99
			c30.12,16.02,66.69-24.58,38.71-49.51c-67.27-59.94-130.81-121.28-190.95-188.4c-57.63-64.31-120.19-126.68-198.78-164.87
			C5291.52,2186.46,5269.73,2211.04,5286.65,2228.52L5286.65,2228.52z"/>
	</g>
	<g>
		<path class="st1" d="M5971.75,2581.59c58.7-1.36,93.17-50.45,144.32-70.53c98.97-38.86,135.84,93.69,153.94,161.9
			c12.51,47.15,83.69,27.23,74.25-19.89c-18.36-91.58-60.61-200.15-164.99-218.42c-96.04-16.81-143.66,73.64-215.68,116.45
			C5949.73,2559.34,5954.95,2581.98,5971.75,2581.59L5971.75,2581.59z"/>
	</g>
	<g>
		<path class="st1" d="M4818.81,2250.92c-76.8,63.14-144.97,133.47-226.01,191.97c-36.44,26.31-73.06,52.31-109.01,79.29
			c-38.65,29-84.59,56.47-108.41,99.38c-13.14,23.67,8.97,55.86,36.59,46.83c48.37-15.81,87.35-54.6,128.04-84.43
			c38.77-28.42,77.65-56.59,115.51-86.23c76.97-60.24,155.7-130.54,202.72-217.47C4872.42,2254.04,4839.92,2233.57,4818.81,2250.92
			L4818.81,2250.92z"/>
	</g>
	<g>
		<path class="st1" d="M4806.61,1345.44c-17.86,17.95-18.23,39.16-18.62,63.22c-0.41,24.67-0.6,51.39,14.17,72.22
			c14.5,20.44,54.38,21.38,59.96-8.14c4.63-24.49-2.01-44.96-6.1-68.99c-3.88-22.78-3.29-40.07-18.57-58.66
			C4830.05,1336.09,4814.07,1337.94,4806.61,1345.44L4806.61,1345.44z"/>
	</g>
	<g>
		<path class="st1" d="M5157.64,1341.19c-9.84,15.84-7.62,35.01-6.56,53c1.12,19.04,5.66,36.76,10.37,55.16
			c7.65,29.88,52.12,22.5,53.54-7.03c1.56-32.54,5.26-81.07-18.99-106.41C5184.99,1324.41,5165.54,1328.48,5157.64,1341.19
			L5157.64,1341.19z"/>
	</g>
	<g>
		<path class="st1" d="M4823.72,877.1c87.95-29.94,157.81-98.06,248.7-124.47c106.98-31.09,206.87,5.48,314.13,8.61
			c34,0.99,35.97-43.22,8-54.4c-102.36-40.92-232.84-48.32-338.21-14.22c-88.69,28.71-191.8,90.38-244.69,169.04
			C4806.53,869.27,4815.11,880.03,4823.72,877.1L4823.72,877.1z"/>
	</g>
	<g>
		<path class="st1" d="M5341,1659.08c-15.51,165.19-136.78,284.71-305.49,289.95c-81.9,2.54-172.8-15.96-234.66-72.67
			c-57.61-52.82-107.21-123.51-137.05-195.59c-13.72-33.14-64.25-21.88-56.36,15.1c19.8,92.81,89.65,187.77,163.32,246.37
			c78.76,62.65,192.55,83.28,290.96,73.48c174.28-17.36,362.56-168.09,318.73-361.81C5375.28,1630.98,5342.96,1638.16,5341,1659.08
			L5341,1659.08z"/>
	</g>
	<g>
		<path class="st0" d="M1743.73,3073.85c68.36-80.8,142.01-156.39,228.05-218.45c-15.44-3.85-30.89-7.69-46.33-11.54
			c9.64,16.22-44.18,75.05-52.59,87.11c-22.93,32.86-45.85,65.73-68.78,98.59c-45.82,65.68-90.35,132.24-135.77,198.19
			c-22.14,32.15,25.61,61.74,51.59,38.41c164.74-147.9,330.9-294.22,496.34-441.34c-17.16-12.77-34.31-25.54-51.47-38.31
			c-148.46,243.23-371.45,434.15-483.9,699.98c-14.03,33.18,33.29,48.6,54.48,30.57c218.31-185.75,362.74-441.18,582.92-625.03
			c-16.98-12.64-33.97-25.29-50.95-37.93c-173.08,270.9-425.35,485.38-552.51,785.66c-11.11,26.23,26.04,50.55,47.79,35.71
			c232.33-158.57,360.58-422.78,586.88-587.22c-14.03-17.72-28.06-35.44-42.08-53.16c-163.07,205.35-311.36,421.3-443.57,647.78
			c-16.76,28.72,18.92,67.75,48.06,46.71c167.09-120.69,258.99-326.66,444.6-422.86c-16.02-15.57-32.04-31.14-48.06-46.71
			c-52.88,89.2-105.77,178.39-158.65,267.59c-30.2,50.93-80.29,112.59-32.29,167.61c13.44,15.41,36.03,10.13,49.83-0.56
			c50.11-38.81,99.52-78.46,148.24-119c34.95-29.08-15.67-76.61-49.8-48.22c-48.73,40.54-98.13,80.19-148.24,119
			c16.61-0.19,33.22-0.38,49.83-0.56c-12.9-14.79,83.7-152.41,94.22-170.15c35.88-60.53,71.77-121.05,107.65-181.58
			c18.69-31.52-18.25-62.16-48.06-46.71c-187.95,97.41-276.79,301.64-444.6,422.86c16.02,15.57,32.04,31.14,48.06,46.71
			c129.11-221.17,273.17-433.3,432.01-634.21c22.15-28.02-7.57-78.35-42.08-53.16c-226.62,165.42-353.97,431.19-584.67,590.93
			c15.93,11.9,31.86,23.81,47.79,35.71c123.47-293.86,376.23-505.72,545.67-770.71c21.11-33.02-24.75-59.8-50.95-37.93
			c-220.24,183.77-364.77,439.14-583.15,624.81c18.16,10.19,36.32,20.38,54.48,30.57c109.84-259.38,332.49-447.1,477.64-684.71
			c20.16-33-24.97-61.86-51.47-38.31c-165.49,147.07-330.28,294.94-496.46,441.22c17.2,12.8,34.4,25.61,51.59,38.41
			c60.79-86.46,122.19-172.46,182.45-259.3c32.96-47.5,117.51-127.01,76.65-190.4c-12.86-19.95-36.1-19.58-53.3-6.22
			c-88.12,68.46-165.14,147.64-224.07,242.66C1692.92,3068.66,1726.53,3094.18,1743.73,3073.85L1743.73,3073.85z"/>
	</g>
	<g>
		<path class="st0" d="M7318.51,879.01c34.46,18.65-24.09,64.65-35.96,77.61c-15.69,17.14-24.36,34.12-24.99,57.42
			c-0.5,18.64,18.99,24.97,33.47,18.78c50.62-21.62,93.42-54.57,128.83-96.6c20.28-24.06-11.72-55.44-34.84-33.73
			c-32.39,30.41-54.74,65.43-69.82,107.14c-6.76,18.68,13.69,34.87,30.89,30.4c36.52-9.49,67.48-26.21,96.19-50.56
			c-14.25-8-28.51-16-42.76-23.99c-8.62,37.35-25.43,67.34-53.2,93.81c-22.19,21.16,6.21,51.85,31.24,39.47
			c30.46-15.07,63.68-28.47,91.22-48.47c19.66-14.27,9.21-49.18-17.36-41.11c-34.92,10.6-67.23,29.77-99.79,46.04
			c10.41,13.16,20.83,26.31,31.24,39.47c33.49-32.19,55.7-70.93,65.97-116.28c5.85-25.86-23.79-40.22-42.76-23.99
			c-21.9,18.73-45.09,30.3-72.84,37.64c10.3,10.13,20.6,20.27,30.89,30.4c12.03-33.7,30.19-61.26,55.73-86.24
			c-11.61-11.24-23.23-22.49-34.84-33.73c-32.27,39.91-70.56,69.77-116.34,92.81c11.16,6.26,22.32,12.52,33.47,18.78
			c-1.51-40.48,52.47-60.55,56.97-102.73c2.63-24.69-7.31-45.79-31.56-53.35C7315.15,854.14,7306.81,872.67,7318.51,879.01
			L7318.51,879.01z"/>
	</g>
	<g>
		<path class="st0" d="M7301.71,1613.47c69.64-69.35,150.95-120.46,242.98-154.75c-9.73-12.45-19.46-24.91-29.19-37.36
			c-45.63,80.33-97.39,156.45-156.22,227.72c-23.23,28.14,11.83,60.27,39.52,38.27c52.04-41.35,104.07-82.7,156.11-124.05
			c-14.68-10.93-29.36-21.86-44.04-32.79c-44.95,83.6-96.64,162.6-156.21,236.56c-18.49,22.95,5.5,61.71,33.95,42.89
			c55.23-36.53,110.46-73.06,165.69-109.58c-11.33-14.31-22.65-28.62-33.98-42.92c-68.35,72.84-124.57,153.92-168.04,243.9
			c-10.29,21.3,6.84,46.86,31.43,40.23c85.05-22.93,163.03-59.61,234.49-111.23c-12.82-12.46-25.64-24.92-38.46-37.38
			c-60.09,77.45-120.18,154.9-180.27,232.35c-19.71,25.4,17.03,46.53,38.51,37.43c92.31-39.11,179.63-86.56,262.67-142.73
			c-11.38-14.38-22.76-28.75-34.14-43.13c-58.53,68.08-117.05,136.16-175.58,204.24c-16.95,19.71-1.29,55.49,27.16,46.08
			c42.15-13.94,84.29-27.89,126.44-41.83c-10.53-13.48-21.06-26.96-31.6-40.44c-41.01,66.22-82.02,132.44-123.02,198.66
			c-12.55,20.26,8.51,48.13,31.63,40.48c69.83-23.1,139.66-46.19,209.5-69.29c-9.07-15.4-18.15-30.8-27.22-46.19
			c-72.05,77.43-134.43,162.12-186.61,254.13c-13.29,23.43,8.68,43.71,31.7,40.57c58.6-8.01,111.25-28.26,160.36-61.17
			c-12.92-12.56-25.85-25.12-38.77-37.68c-46.44,70.77-92.87,141.56-139.29,212.34c-13.12,20,8.92,48.47,31.71,40.58
			c78.9-27.31,152.18-64.22,220.41-112.47c-11.43-14.44-22.86-28.88-34.3-43.32c-72.95,79.98-145.89,159.96-218.84,239.94
			c-21.58,23.66,5.85,58.91,34.27,43.29c47.15-25.94,94.31-51.87,141.46-77.81c-12.89-12.53-25.79-25.06-38.68-37.59
			c-51.46,77.62-102.93,155.25-154.39,232.87c-16.16,24.37,15.51,50.8,38.65,37.56c91.43-52.3,182.86-104.59,274.3-156.89
			c-11.4-14.4-22.8-28.8-34.2-43.2c-85.93,90.96-171.85,181.93-257.78,272.89c-21.86,23.14,6.2,59.27,34.16,43.15
			c77.04-44.41,154.08-88.83,231.12-133.24c-11.38-14.37-22.76-28.75-34.14-43.12c-86.46,105.82-172.86,211.69-259.28,317.55
			c-23.18,28.39,11.8,60.53,39.71,38.46c89.76-70.98,191.73-121.06,302.26-150.3c-8.93-15.16-17.86-30.31-26.8-45.47
			c-77.78,95.35-155.64,190.64-233.46,285.96c-19.54,23.93,4.75,57.98,33.71,42.58c84.6-45,169.2-90,253.8-135.01
			c-11.24-14.19-22.47-28.39-33.71-42.58c-112.47,115.28-224.94,230.57-337.41,345.85c-17.79,18.24,0.03,56.5,26.78,45.44
			c106.13-43.88,212.25-87.76,318.38-131.64c-8.93-15.15-17.85-30.29-26.78-45.44c-82.28,76.86-164.55,153.73-246.83,230.59
			c-20.09,18.77,0.73,53.51,26.78,45.44c110.52-34.22,216.75-78.91,318.46-134.06c-9.32-15.65-18.65-31.31-27.97-46.96
			c-135.35,91.89-260.71,196.52-374.87,313.72c-22.47,23.07,6.2,57.14,33.71,42.58c112-59.3,224.07-118.46,336.14-177.64
			c-11.35-14.34-22.7-28.68-34.05-43.01c-103.06,96.38-206.07,192.82-309.02,289.32c-21.24,19.91,1.05,52.63,27.26,46.26
			c143.03-34.74,276.99-94.59,398.06-178.32c-11.42-14.42-22.84-28.85-34.26-43.27c-91.39,98.89-182.78,197.77-274.16,296.66
			c-22.53,24.38,5.89,56.68,34.21,43.21c113.2-53.87,226.4-107.74,339.59-161.61c-9.45-15.86-18.9-31.73-28.34-47.59
			c-99.13,53.42-179,131.68-234.3,229.78c-14.8,26.26,14.27,48.15,38.39,37.31c48.7-21.89,97.4-43.79,146.09-65.68
			c32.83-14.76,4.27-61.34-27.97-46.96c-48.78,21.76-97.55,43.52-146.33,65.28c12.8,12.44,25.59,24.87,38.39,37.31
			c51.13-90.09,122.88-160.32,214.07-209.44c32.48-17.49,3.85-62.91-28.34-47.59c-113.21,53.85-226.42,107.7-339.63,161.54
			c11.4,14.4,22.8,28.81,34.21,43.21c91.41-98.87,182.82-197.73,274.22-296.6c20.89-22.6-6.96-62.14-34.26-43.27
			c-117.18,81.01-245.53,138.81-384.01,172.42c9.09,15.42,18.18,30.84,27.26,46.26c102.96-96.48,205.87-193.02,308.72-289.62
			c24.01-22.55-6.83-57.47-34.05-43.01c-111.93,59.41-223.86,118.83-335.85,178.12c11.24,14.19,22.47,28.39,33.71,42.58
			c110.84-113.79,231.96-215.71,363.4-304.95c29.56-20.07,3.69-64.13-27.97-46.96c-97.4,52.83-198.76,95.56-304.61,128.34
			c8.93,15.15,17.85,30.29,26.78,45.44c82.28-76.86,164.55-153.73,246.83-230.59c19.11-17.85-0.78-56.19-26.78-45.44
			c-106.13,43.88-212.25,87.76-318.38,131.64c8.93,15.15,17.85,30.29,26.78,45.44c112.47-115.28,224.94-230.57,337.41-345.85
			c22.47-23.03-6.22-57.2-33.71-42.58c-84.6,45-169.2,90-253.79,135.01c11.24,14.19,22.47,28.39,33.71,42.58
			c77.82-95.32,155.62-190.66,233.48-285.94c16.74-20.48,1.63-52.96-26.8-45.47c-120.63,31.8-229.98,87.33-327.85,164.57
			c13.24,12.82,26.48,25.64,39.71,38.46c86.51-105.77,173.04-211.52,259.52-317.32c19.41-23.75-5-59.91-34.14-43.12
			c-77.05,44.4-154.09,88.8-231.14,133.21c11.39,14.38,22.77,28.77,34.16,43.15c85.94-90.95,171.88-181.9,257.82-272.85
			c21.93-23.21-6.19-59.21-34.2-43.2c-91.44,52.28-182.88,104.57-274.32,156.85c12.88,12.52,25.77,25.04,38.65,37.56
			c51.48-77.62,102.95-155.23,154.43-232.85c16.35-24.66-15.52-50.33-38.68-37.59c-47.16,25.93-94.32,51.86-141.48,77.79
			c11.42,14.43,22.84,28.86,34.27,43.29c72.96-79.97,145.92-159.94,218.88-239.91c20.64-22.62-7.05-62.59-34.3-43.32
			c-64,45.25-132.19,80.96-206.33,106.61c10.57,13.53,21.14,27.06,31.71,40.58c46.44-70.77,92.89-141.54,139.31-212.33
			c15.38-23.45-15.73-53.12-38.77-37.68c-45.2,30.3-92.41,48-146.25,55.37c10.57,13.52,21.13,27.05,31.7,40.57
			c49.89-88.02,108.75-168.71,177.68-242.82c18.16-19.52,0.54-55.38-27.22-46.19c-69.83,23.11-139.65,46.23-209.48,69.34
			c10.54,13.49,21.08,26.99,31.63,40.48c40.99-66.23,81.98-132.46,122.98-198.69c12.53-20.24-8.5-48.09-31.6-40.44
			c-42.14,13.95-84.29,27.91-126.43,41.86c9.05,15.36,18.1,30.72,27.16,46.08c58.51-68.09,117.02-136.19,175.53-204.28
			c19.64-22.86-6.23-62.02-34.14-43.13c-83.03,56.19-170.33,103.66-262.63,142.79c12.84,12.48,25.67,24.95,38.51,37.43
			c60.07-77.46,120.14-154.92,180.21-232.38c17.19-22.17-16.75-53.07-38.46-37.38c-67.43,48.74-140.06,83.8-220.48,105.5
			c10.48,13.41,20.96,26.82,31.43,40.23c41.43-85.83,93.93-163.1,159.19-232.67c21.09-22.48-6.71-60.97-33.98-42.92
			c-55.22,36.54-110.44,73.08-165.67,109.62c11.32,14.3,22.63,28.59,33.95,42.89c62.56-77.71,117.73-159.91,164.9-247.86
			c15.89-29.62-20.34-51.66-44.04-32.79c-51.99,41.4-103.98,82.79-155.97,124.18c13.17,12.76,26.35,25.51,39.52,38.27
			c61.94-75.18,115.94-154.68,161.84-240.66c9.58-17.94-6.97-46.29-29.19-37.36c-98.99,39.82-183.99,100.05-254.89,179.79
			C7261.42,1606.16,7285.58,1629.54,7301.71,1613.47L7301.71,1613.47z"/>
	</g>
	<g>
		<path class="st0" d="M8585.1,2826.35c76.63-45.5,155.41-85.25,235.59-124.01c-11.25-14.22-22.51-28.43-33.76-42.65
			c-73.85,83.15-147.61,166.38-221.19,249.78c-20.75,23.52,6.8,64.32,35.35,44.66c83.57-57.58,172.66-102.61,269.02-134.69
			c-7.52-17.81-15.04-35.62-22.56-53.42c-122.29,75.82-221.56,179.46-291.55,305.22c-14.26,25.62,15.36,56.32,41.21,40.05
			c148.97-93.76,297.94-187.52,446.92-281.27c-12.19-15.4-24.39-30.8-36.58-46.21c-151.21,124.07-302.43,248.14-453.64,372.22
			c-22.48,18.45-1.69,47.97,21.06,50.51c100.36,11.22,182.7-62.52,259.77-116.07c96.49-67.06,192.98-134.11,289.47-201.17
			c-12.26-15.49-24.52-30.97-36.78-46.46c-173.82,134.87-330.88,289.07-467.81,461.31c-20.32,25.56,4.97,63.51,36.37,45.94
			c167.41-93.67,331.25-193.33,490.93-299.65c-9.83-16.51-19.67-33.02-29.5-49.53c-183.15,131.48-368.56,267.95-486.11,464.83
			c-15.06,25.22,15.17,52.79,39.71,38.59c179.58-103.99,352.97-217.99,519.62-341.64c-11.79-14.89-23.57-29.78-35.36-44.67
			c-100.34,99.38-200.69,198.75-301.03,298.13c-24.86,24.62,6.86,59.81,35.89,45.34c89.34-44.53,178.56-89.28,267.68-134.24
			c-14.33-5.68-28.65-11.36-42.98-17.04c9.39,33.83,3.85,62.39-19.92,88.76c-23.98,26.6,15.03,64.14,39.44,38.19
			c37.76-40.13,50.73-88.59,37.11-142.13c-4.93-19.37-26.67-25.11-42.98-17.04c-89.48,44.28-178.86,88.77-268.13,133.48
			c11.96,15.11,23.93,30.23,35.89,45.34c100.13-99.58,200.27-199.16,300.4-298.74c22.81-22.69-8.37-64.78-35.36-44.67
			c-166.47,124.04-339.7,238.06-519.45,341.92c13.23,12.86,26.47,25.72,39.7,38.59c112.45-187.91,290.34-318.09,465.37-443.48
			c30.35-21.74,2.23-70.61-29.5-49.53c-159.79,106.16-323.57,205.94-491.61,298.51c12.12,15.31,24.25,30.63,36.37,45.94
			c138.08-171.34,294.44-325.89,468.29-460.84c27.12-21.06-8.81-65.91-36.78-46.46c-84.41,58.7-168.83,117.4-253.24,176.1
			c-74.69,51.93-167.68,143.74-264.67,132.92c7.02,16.84,14.04,33.68,21.06,50.51c151.17-124.11,302.35-248.22,453.52-372.33
			c26.71-21.93-8.18-64.09-36.58-46.21c-148.95,93.8-297.9,187.59-446.84,281.39c13.74,13.35,27.48,26.7,41.21,40.05
			c65-116.88,155.98-213.16,269.39-284.13c27.5-17.21,10.53-64.59-22.56-53.42c-101.01,34.08-195.64,81.06-283.21,141.93
			c11.78,14.89,23.57,29.77,35.35,44.66c73.26-83.73,146.34-167.61,219.33-251.57c20.53-23.62-5.35-58.08-33.76-42.65
			c-77.8,42.24-152.86,90.2-226.45,139.36C8546.2,2808.03,8564.2,2838.76,8585.1,2826.35L8585.1,2826.35z"/>
	</g>
	<path class="st2" d="M7716.01,4136.35c-34.06,14.01-70.41,31.4-86.77,64.87c-23.4,47.87,7.14,108.43,52.38,135.61
		c45.24,27.18,100.26,29.69,152.77,31.48c647.4,22.1,763.91,154.38,1405.39,62.74c39.52-5.65,615.78-122.96,646.99-148.27
		c353.8-286.95-796.35-389.92-934.39-380.37C8548.55,3930.35,8090.8,3982.22,7716.01,4136.35z"/>
	<path class="st2" d="M864.66,4339.82c-34.06,14.01-70.41,31.4-86.77,64.87c-23.4,47.87,7.14,108.43,52.38,135.61
		c45.24,27.18,100.26,29.69,152.77,31.48c647.4,22.1,763.91,154.38,1405.39,62.74c39.52-5.65,615.78-122.96,646.99-148.27
		c353.8-286.95-796.35-389.92-934.39-380.37C1697.2,4133.82,1239.44,4185.69,864.66,4339.82z"/>
	<g>
		<path class="st1" d="M8901.99,698.12c-368.41,88-572.39,454.76-674.93,789.17c-54.48,177.67-97.1,365.48-97.37,552.17
			c-0.22,154.97,41.08,277.68,142.64,394.45c106.66,122.62,243.26,231.05,389.74,302.05c136.75,66.28,282.96,77.38,417.42-3.71
			c141.76-85.49,230.1-234.12,306.97-375.72c87.01-160.27,180.86-321.59,231.49-498.01c26.17-91.17,40.25-189.49,12.52-282.02
			c-28.69-95.72-94.34-176.76-173.26-236.25c-196.51-148.13-457.01-151.04-690.37-116.43c-40.05,5.94-32.13,75.07,8.74,70.11
			c198.38-24.09,414.29-33.26,591.93,73.95c155.54,93.87,231.16,248.29,190.85,426.38c-37.3,164.78-121.36,316.76-201.63,463.87
			c-69.94,128.19-137.01,262.92-247.36,361.99c-111.36,99.97-250.18,123.94-386.53,63.9c-133.56-58.8-254.95-152.54-356.42-256.51
			c-97.96-100.37-155.2-200.5-162.01-342.73c-7.98-166.81,25.85-335.15,69.39-495.34c45.95-169.04,103.68-337.64,201.08-484.53
			c111.53-168.21,259.65-287.95,441.17-373.47C8935.69,722.19,8921.66,693.42,8901.99,698.12L8901.99,698.12z"/>
	</g>
	<g>
		<path class="st1" d="M8651.93,1171.41c89.29-89.04,199.14-158.99,321.5-191.61c66.54-17.73,301.16-63.34,315.53,43.16
			c5.87,43.52,78.64,32.61,77.56-10.18c-3.99-158.74-242.14-132.72-342.99-108.61c-155.56,37.2-296.08,123.52-388.57,254.6
			C8627.74,1169.01,8643.6,1179.72,8651.93,1171.41L8651.93,1171.41z"/>
	</g>
	<g>
		<path class="st1" d="M8228.62,1602.19c-5.98-116.35-163.85-119.53-218.79-36.67c-29.78,44.9-35.66,106.6-12.33,155.52
			c30.34,63.63,108.14,70.16,142.16,126.66c18.06,29.99,66.66,2.51,48.31-27.96c-34.59-57.44-125.09-74.53-142.75-139.77
			c-10.19-37.67,1.95-83.3,34.72-106.15c37.99-26.5,99.5-12.25,116.76,32.56C8202.66,1621.87,8229.61,1621.51,8228.62,1602.19
			L8228.62,1602.19z"/>
	</g>
	<g>
		<path class="st1" d="M9596.8,1892.68c18.28-37.7,81.16-32.14,102.53,0.38c25,38.04,9.06,92.33-15.85,125.68
			c-47.38,63.43-136.04,82.25-209.43,59.93c-28.3-8.61-48.31,34.27-20.82,48.26c126.29,64.28,301.09-11.84,321.96-158.38
			c8.54-59.93-15.88-128.73-78.57-147.62c-54.15-16.31-104.23,9.69-119.88,63.66C9573.34,1896.28,9591.38,1903.85,9596.8,1892.68
			L9596.8,1892.68z"/>
	</g>
	<g>
		<path class="st1" d="M8619.33,2696.89c-96.93,46.09-109.95,164.23-105.47,260.26c7.25,155.84,20.21,314.84,43.42,469.14
			c5.37,35.7,64.92,26.92,63.83-8.38c-4.15-135.18-19.86-271.02-34.57-405.4c-10.45-95.41-29.65-218.39,57.03-285.01
			C8662.74,2712.74,8638.11,2687.96,8619.33,2696.89L8619.33,2696.89z"/>
	</g>
	<g>
		<path class="st1" d="M8476.58,3515.97c112.36,33.92,228.51,47.07,346.05,50.96c115.53,3.81,240.25,6.77,353.99-15.43
			c43.67-8.52,33.65-74.22-9.32-74.81c-114.09-1.56-229.12,12.19-343.61,12.26c-114.68,0.07-229.02-3.82-343.35,1.5
			C8465.63,3491.13,8461.83,3511.51,8476.58,3515.97L8476.58,3515.97z"/>
	</g>
	<g>
		<path class="st1" d="M9108.66,2732.42c-9.3,3.58,47.28,162.43,51.65,179.59c17.23,67.74,29.57,136.82,34.46,206.59
			c4.46,63.59,4.04,127.48-3.12,190.86c-7.2,63.65-37.01,132.42-31.67,196.07c2.02,24.08,35.26,44.84,53.88,21.63
			c54.28-67.62,58.91-181.36,63.37-265.24c5.23-98.37-3.24-199.12-28.65-294.45c-12.24-45.92-28.25-90.37-47.56-133.77
			c-14.55-32.71-31.48-86.31-61.92-107.68c-21.29-14.94-65.55-5.39-38.76,22.63c2.73,2.85,7.41,3.08,10.72,1.25
			c1.35-0.74,2.7-1.49,4.05-2.23C9123.33,2743.15,9117.79,2728.9,9108.66,2732.42L9108.66,2732.42z"/>
	</g>
	<g>
		<path class="st1" d="M7553.26,1384.53c47.53,226.28,104.31,450.45,149.47,677.24c44.49,223.39,81.78,448.19,113.3,673.76
			c32.31,231.27,59.27,463.23,87.04,695.07c14.15,118.17,28.56,236.3,43.39,354.39c14.2,113.1,21.02,230.51,46.63,341.68
			c8.99,39.03,72.39,30.72,71.38-9.37c-2.87-114.07-25.45-229.48-39.83-342.58c-15.02-118.06-30.45-236.05-46.14-354.03
			c-30.7-230.82-60.4-461.83-94.79-692.14c-67.81-454.12-150.48-917.06-300.74-1351.99
			C7576.65,1358.33,7549.25,1365.46,7553.26,1384.53L7553.26,1384.53z"/>
	</g>
	<g>
		<path class="st1" d="M7303.8,1517c44.36,361.07,104.62,719.86,147.83,1081.15c43.72,365.59,78.57,732.37,102.69,1099.78
			c6.37,97.02,8.58,194.78,18,291.55c7.53,77.36,23.73,149.51,76.11,209.05c21.55,24.5,64.86-7.79,46.65-35.62
			c-59.07-90.27-57.11-197.27-63.14-301.14c-6.34-109.22-13.62-218.38-21.83-327.47c-17.24-229.08-38-458-64.4-686.21
			c-51.63-446.19-108.56-897.76-214.81-1334.66C7327.4,1499,7301.92,1501.68,7303.8,1517L7303.8,1517z"/>
	</g>
	<g>
		<path class="st1" d="M7534.39,4232.96c89.24-12.81,176.64-38.06,266.24-50.68c90.29-12.71,181.8-9.1,271.39-21.09
			c42.01-5.62,31.94-71.34-8.9-71.45c-89.75-0.24-187.83,25.05-275.72,43.14c-88.12,18.15-181.96,36.38-264.58,72.67
			C7505.55,4213.14,7518.99,4235.17,7534.39,4232.96L7534.39,4232.96z"/>
	</g>
	<g>
		<path class="st1" d="M7258.11,1538.45c122.87-52.27,245.07-107.57,361.87-172.48c-12.12-15.32-24.25-30.63-36.37-45.95
			c-9.67,8.33-19.47,16.51-29.4,24.53c-24.13,19.8,7.42,58.04,33.07,41.78c10.79-6.96,21.69-13.75,32.7-20.36
			c33.39-20.42,4.05-67.76-30.18-50.68c-119.07,59.43-233.27,128.66-345.33,200.27C7229.29,1525.26,7242.5,1545.09,7258.11,1538.45
			L7258.11,1538.45z"/>
	</g>
	<g>
		<path class="st1" d="M7339.6,1467.27c21.44-212.52,31.81-426.97,30.98-640.65c-0.16-40.88-62.62-40.3-64.19-0.06
			c-8.33,213.31-5.55,427.77,8.44,640.69C7315.86,1483.07,7338.04,1482.71,7339.6,1467.27L7339.6,1467.27z"/>
	</g>
	<g>
		<path class="st1" d="M7212.18,695.21c58.64,114.58,129.75,222.54,193.08,334.57c62.66,110.85,112.69,235.17,185.42,339.4
			c16.88,24.19,59.96,10.14,51.16-21.21c-34.63-123.39-112.47-243.03-179.37-351.29c-68.35-110.59-141.91-221.42-233.54-314.25
			C7220.38,673.79,7206.86,684.83,7212.18,695.21L7212.18,695.21z"/>
	</g>
	<g>
		<path class="st1" d="M7316.08,1093.21c9.16,9.51,13.24,20.94,25.7,27.96c13.86,7.81,31.02,11.59,46.81,11.62
			c34.51,0.05,65.05-20.05,82.35-49.03c18.5-30.98-29.34-56.62-48.16-27.03c-9.11,14.32-24.66,21.04-40.57,24.87
			c-12.17,2.93-40.29,5.57-50.57-3.78C7321.45,1068.55,7306.29,1083.04,7316.08,1093.21L7316.08,1093.21z"/>
	</g>
	<g>
		<path class="st1" d="M7418.26,1456.82c11.73,174.89,55.66,349.88,86.21,522.36c31.8,179.56,60.52,359.69,86.24,540.22
			c25.36,177.98,49.42,355.09,97.57,528.68c49.12,177.1,95.83,349.13,102.24,534.1c6.99,201.9-19.83,401.83-38.5,602.33
			c-3.48,37.32,53.61,35.53,58.26,0.06c46.01-350.67,64.59-705.43-32.47-1049.12c-49.29-174.55-88.09-347.27-114.08-526.91
			c-25.93-179.23-53.28-358.15-84.86-536.48c-36.25-204.69-65.04-422.85-137.95-618.22
			C7436.79,1442.8,7417.35,1443.19,7418.26,1456.82L7418.26,1456.82z"/>
	</g>
	<g>
		<path class="st1" d="M8586.89,2674.97c-163.08,68.46-336.55,157.11-518.89,119.4c-42.34-8.76-107.61-18.82-110.6-71.5
			c-2.21-38.95,12.06-65.15-4.16-103.66c-22.01-52.28-70.98-81.44-126.25-84.19c-30.59-1.52-39.63,48.91-7.9,53.73
			c58.68,8.92,81.22,53.83,73.16,108.49c-4.62,31.37-7.19,61.81,11.2,89.68c39.05,59.16,137.22,74.49,201.39,77.08
			c174.15,7.03,350.91-77.26,496.03-165.54C8616.73,2688.8,8602.83,2668.28,8586.89,2674.97L8586.89,2674.97z"/>
	</g>
	<g>
		<path class="st1" d="M9134.13,2733.05c118.12,16.14,267.43,74.76,257.04,219.28c-4.38,60.94-40.52,114.4-103.29,125.97
			c-77.89,14.36-159.85-32.19-225.82-67.52c-24.68-13.22-54.57,3.7-55.93,31.57c-4.48,92.22-140.49,45.82-192.33,36.65
			c-25.48-4.51-38.09,25.16-17.44,40.43c54.65,40.41,121.88,65.71,189.85,42.98c54.34-18.17,90.84-63.09,94.23-119.98
			c-18.64,10.52-37.28,21.05-55.93,31.57c85.91,50.76,188.99,101.9,291.46,76.24c81.37-20.38,136.1-89.41,148.57-170.7
			c28.46-185.58-158.77-316.46-330.13-279.46C9118.54,2703.52,9116.65,2730.67,9134.13,2733.05L9134.13,2733.05z"/>
	</g>
	<g>
		<path class="st1" d="M1983.05,1095.07c-173.96-8.09-385.65,56.44-499.91,194.92c-107.03,129.72-128.57,308.05-163.41,466.74
			c-62.6,285.22-157,647.66,36.13,905.74c188.54,251.94,600.46,301.35,872.32,170.93c156.03-74.85,249.34-206.9,315.66-362.58
			c80.56-189.13,112.67-395.61,70.18-598.39c-20.73-98.92-59.06-196.13-102.48-287.29c-35.79-75.13-83.25-148.72-155.13-193.79
			c-157.37-98.67-383.57-45.56-515.82,69.67c-28.71,25.01,9.58,73.28,40.87,51.63c119.71-82.84,301.66-142.45,436.67-56.84
			c112.99,71.65,166.79,244.39,201.94,365.63c51.92,179.12,40.01,364.88-20.27,540.29c-51.93,151.1-120.51,298.16-261.59,384.23
			c-232.29,141.72-610.17,110.86-798.44-93.38c-186.37-202.18-131.14-532.43-74.63-774.35c36.27-155.27,53.44-328.5,123.13-473.17
			c87.27-181.14,306.38-255.67,494.28-273.11C2006.19,1129.77,2007.74,1096.22,1983.05,1095.07L1983.05,1095.07z"/>
	</g>
	<g>
		<path class="st1" d="M1694.21,1418.08c162.14-157.24,373.65-223.32,596.11-211.73c51.29,2.67,51.46-73.33,1.06-77.88
			c-238.13-21.5-451.19,112.83-612.94,274.34C1668.23,1412.99,1684.04,1427.94,1694.21,1418.08L1694.21,1418.08z"/>
	</g>
	<g>
		<path class="st1" d="M1819.17,1900.16c-4.37,42.85-2.1,86.83-2.32,129.87c-0.23,45.39,74.64,42.56,69.78,0.07
			c-5.18-45.26-7.77-91.95-17.35-136.52C1862.97,1864.22,1821.86,1873.88,1819.17,1900.16L1819.17,1900.16z"/>
	</g>
	<g>
		<path class="st1" d="M2057.26,1860.91c-15.97,45-2.72,124.67,24.23,163.69c13.17,19.07,43.71,12.03,44.91-12.03
			c1.33-26.88-6.3-53.6-11.23-79.87c-4.9-26.11-6.15-53.06-17.39-77.28C2089.21,1836.96,2062.89,1845.04,2057.26,1860.91
			L2057.26,1860.91z"/>
	</g>
	<g>
		<path class="st1" d="M2902.1,2695.33c1139.23,70.49,2281.17-40.85,3419.8-77.63c272.54-8.8,545.15-14.41,817.85-13.34
			c50.38,0.2,51.42-74.43,1.04-76.86c-511.97-24.71-1027.62,5.7-1539.01,31.2c-589.36,29.38-1178.52,63.9-1768.3,84.05
			c-310.17,10.6-620.61,24.78-931.02,25.59C2884.73,2668.39,2884.46,2694.23,2902.1,2695.33L2902.1,2695.33z"/>
	</g>
	<g>
		<path class="st1" d="M2937.87,2797.02c-30.98,49.71-23.65,125.94-26.47,183.03c-3.66,74.13-3.67,148.39-4.22,222.59
			c-1.08,144.62-0.07,289.4,3.12,433.99c3.19,144.64,7.41,289.26,12.66,433.84c2.69,74.16,5.85,148.28,9.54,222.4
			c2.94,58.94-7.5,143.8,28.48,193.29c13,17.89,40.94,20.56,53.06-0.51c31.45-54.65,13.72-131.82,11.15-192.68
			c-3.13-74.13-6.25-148.26-9.3-222.4c-5.94-144.58-10.85-289.2-14.73-433.85c-3.88-144.67-7.88-289.34-11.92-434
			c-2.07-74.21-3.12-148.46-7.14-222.6c-3.07-56.65,4.35-134.04-26.44-183.27C2951.54,2790.27,2941.93,2790.51,2937.87,2797.02
			L2937.87,2797.02z"/>
	</g>
	<g>
		<path class="st1" d="M3090.03,4511.88c60.24,2.07,119.53,11.43,179.91,12.7c67.43,1.43,134.94,0.9,202.38,0.37
			c132.38-1.05,264.74-2.75,397.1-5.04c274.66-4.76,549.34-13.85,823.86-23.55c555.61-19.63,1111.09-43.22,1666.33-71.64
			c290.92-14.89,585.52-20.31,874.97-53.95c54.1-6.29,59.46-86.61,1.17-86.08c-259.4,2.35-519.59,26.75-778.62,40.47
			c-274.39,14.53-548.85,27.81-823.35,40.04c-555.48,24.76-1111.14,43.61-1666.82,63.08c-145.9,5.11-291.77,11.15-437.64,17
			c-73.98,2.97-148.01,5.56-221.95,9.5c-72.99,3.88-144.21,16.96-216.86,22.25C3068.05,4478.68,3066.82,4511.09,3090.03,4511.88
			L3090.03,4511.88z"/>
	</g>
	<g>
		<path class="st1" d="M7309.16,4363.65c-33.17-69.48-2.51-167.66,4.34-241.17c7.56-81.12,14.44-162.31,19.11-243.64
			c9.11-158.73,13.11-317.8,14.73-476.77c1.63-158.97-0.64-318.01-6.22-476.9c-5.5-156.58-8.7-319.42-36.65-473.83
			c-6.72-37.14-63.41-26.49-64.86,8.51c-6.84,165.02,8.19,333.31,12.71,498.49c4.55,166.3,5.75,332.74,4.43,499.1
			c-1.29,162.69-7.39,325.19-12.31,487.79c-2.46,81.21-5.36,162.38-8.12,243.58c-2.31,67.96-5.34,138.89,30.55,199.31
			C7282.76,4414.84,7322.36,4391.3,7309.16,4363.65L7309.16,4363.65z"/>
	</g>
	<g>
		<path class="st1" d="M1509.23,2160.31c-33.49,99.9-48.5,217.37,32.89,295.69c80.5,77.47,185.38,126.19,291.07,158.99
			c51.07,15.85,105.92,28.01,159.02,14.63c55-13.85,101.51-48.92,145.72-82.8c74.48-57.07,162.01-132,170.72-231.92
			c1.57-17.98-27.4-25.53-34.77-9.06c-36.35,81.21-88.82,131.85-161.74,181.64c-36.93,25.21-76.61,56.18-119.56,70.4
			c-50.79,16.81-99.67,0.23-148.1-15.47c-85.64-27.76-170.9-64.38-241.74-121.1c-41.41-33.16-64.12-60.97-67.9-116.24
			c-3.22-47.05,0.25-94.24,1.45-141.28C1536.69,2147.85,1513.96,2146.23,1509.23,2160.31L1509.23,2160.31z"/>
	</g>
	<g>
		<path class="st1" d="M1317.01,1895.2c-22.47-40.92-72.45-119.66-129.34-90.31c-56.21,29-92.08,120.16-91.92,179.04
			c0.16,58.94,30.77,124.44,87.24,149.08c43.38,18.93,106.66,5.4,107.67-50.12c0.54-29.41-43.14-41.75-56.87-14.81
			c-16.69,32.77-59.26-29.28-64.99-44.53c-10.9-28.99-9.12-59.09,0.74-88.25c5.92-17.5,25.81-64.31,43.51-72.98
			c24.47-11.99,62.34,33.64,81.18,50.26C1306.12,1923.07,1325.02,1909.79,1317.01,1895.2L1317.01,1895.2z"/>
	</g>
	<g>
		<path class="st1" d="M2591.47,1876.36c18.1-10.61,61.27-51.18,79.25-44.35c22.02,8.36,29.83,72.96,32.08,93.81
			c4.87,45.13,6.11,113.41-49.7,123.49c-32.7,5.91-31.22,55.02-0.56,62.63c108.63,26.98,136.19-119.09,121.1-195.42
			c-8.35-42.24-35.05-122.55-82.19-136.06c-44.14-12.66-89.84,48.81-116.2,75.41C2564.54,1866.67,2578.37,1884.04,2591.47,1876.36
			L2591.47,1876.36z"/>
	</g>
	<g>
		<path class="st1" d="M1693.54,2824.69c-25.71,69.68-21.7,153.12-25.12,226.54c-3.59,77.28-4.65,154.66-4.77,232.02
			c-0.24,150.73-8.18,313.39,19.51,461.98c7.51,40.31,67.93,28.34,70.01-9.19c4.24-76.58-5.57-155.08-8.07-231.75
			c-2.52-77.31-4.15-154.66-4.48-232.01c-0.32-73.66,0.8-147.32,1.92-220.97c1.12-73.56,12.76-154.73-4.55-226.76
			C1732.36,2801.12,1700.81,2805.02,1693.54,2824.69L1693.54,2824.69z"/>
	</g>
	<g>
		<path class="st1" d="M1687.53,3740.88c39.99,22.91,92.51,12.08,137.01,9.41c62.44-3.74,124.72-9.62,187.03-14.94
			c58.78-5.02,117.41-11.32,176.08-17.48c50.98-5.35,114.99-0.14,158.38-29.53c22.29-15.1,16.75-43.2-6.82-52.69
			c-47.83-19.25-111.14-0.13-161.51,5.36c-62.45,6.81-124.82,13.82-187.13,21.83c-54.41,6.99-108.91,13.45-163.14,21.75
			c-46.99,7.19-105.34,7.28-142.04,39.95C1680.24,3729.12,1681.88,3737.65,1687.53,3740.88L1687.53,3740.88z"/>
	</g>
	<g>
		<path class="st1" d="M2345.82,3664.69c34.22-61.87,40.19-127.44,45.12-197.13c5.27-74.44,7.2-148.89,5.73-223.49
			c-2.85-144.43-6.74-304.32-47.98-443.71c-12.51-42.28-68.18-29.47-73.48,9.64c-2.04,8.09-4.08,16.19-6.13,24.28
			c-10.35,33.04,35.68,46.88,53.19,21.46c5.56-6.72,11.12-13.43,16.68-20.15c-21.25-8.53-42.5-17.06-63.74-25.59
			c8.03,145.14,35.36,287.96,38.96,433.98c1.75,70.9,1.31,142-1.37,212.87c-2.65,70.28-9.95,136.45,9.07,204.9
			C2324.82,3672.35,2340.38,3674.52,2345.82,3664.69L2345.82,3664.69z"/>
	</g>
	<g>
		<path class="st1" d="M2330.43,2859.29c82.43-17.45,164.24-61.96,240.96-96.08c82.57-36.73,164.88-74.07,247.59-110.47
			c145.75-64.15,315.77-95.99,440.89,28.52c15.06,14.99,47.09,13.17,56.79-7.81c20.18-43.65,74.96-40.52,107.09-11.16
			c34.88,31.89,46.22,86.66,63.56,129.09c10.44,25.54,48.52,23.29,50.45-6.62c5.12-79.49-30.58-171.08-109.02-203.63
			c-62.9-26.1-144.52-7.67-174.47,57.3c18.93-2.6,37.86-5.21,56.79-7.81c-116.9-116.11-290.56-130.12-439.93-74.96
			c-90.27,33.34-176.99,77.89-264.36,118.06c-96.24,44.24-208.06,82.56-293.03,146.03
			C2294.2,2834.32,2304.82,2864.71,2330.43,2859.29L2330.43,2859.29z"/>
	</g>
	<g>
		<path class="st1" d="M1696.17,2872.03c-69.7,48.77-122.6,126.31-168.48,196.99c-48.44,74.63-88.7,154.13-121.42,236.85
			c-28.74,72.64-52.3,145.45,14.33,203.74c73.35,64.17,167.91,111.91,249.68,164.42c-4.53-16.91-9.06-33.82-13.59-50.73
			c-34.83,53.46-78.97,98.74-118.62,148.38c-20.55,25.72,5.17,64.8,36.87,46.57c64.48-37.09,109.52-95.39,147.34-158.15
			c10.87-18.05,3.44-39.91-13.59-50.73c-65.86-41.85-131.95-83.3-198.09-124.7c-16.2-10.14-39.89-20.92-52.18-36.4
			c-21.42-26.97-11.45-52.6-3.27-80.34c10.36-35.15,24.53-69.78,38.9-103.42c28.24-66.15,62.16-129.99,100.76-190.68
			c38.96-61.25,88.93-116.09,124.93-178.9C1727.86,2880.72,1710.61,2861.92,1696.17,2872.03L1696.17,2872.03z"/>
	</g>
	<g>
		<path class="st1" d="M1869.06,3714.61c-28.17,55.91-33.37,119.66-45.04,180.48c-10.24,53.35-20.88,106.63-31.64,159.88
			c-23.41,115.85-44.54,231.91-60.44,349.06c13.24-12.78,26.47-25.55,39.71-38.33c-83.98,9.26-198,28.27-252.38,99.34
			c-17.33,22.64,11.37,44.76,32.5,41.6c36.67-5.48,68.08-25.92,102.78-38.26c37.51-13.34,76.53-21.71,116.06-25.95
			c22.87-2.45,36.53-15.44,39.71-38.33c16.39-117.95,38.05-234.66,61.28-351.41c20.53-103.16,59.58-228.44,38.64-333.01
			C1906.52,3701.08,1877.45,3697.95,1869.06,3714.61L1869.06,3714.61z"/>
	</g>
	<g>
		<path class="st1" d="M2174.64,3680.85c-11.97-13.46-27.45-12.22-41.58-1.69c-26.38,19.66-21.09,58.58-18.62,86.89
			c6.86,78.91,24.28,156.63,42.69,233.51c8.98,37.51,17.61,75.07,24.88,112.95c8.87,46.22,10.42,96.64,24.19,141.55
			c13.16,42.91,49.84,67.24,83.14,94.05c41.03,33.03,80.87,70.28,127.12,95.79c35.39,19.52,67.15-24.74,42.31-54.11
			c-27.54-32.56-62.37-58.14-95.06-85.37c-27.42-22.84-65.11-45.11-78.9-78.92c-11.81-28.95-10.96-69.47-16.42-100.5
			c-5.53-31.41-11.78-62.68-18.76-93.8c-10.84-48.33-23.81-96.11-35.34-144.27c-4.97-20.75-51.23-183.35-41.95-188.88
			C2178.77,3694.22,2179.41,3686.22,2174.64,3680.85L2174.64,3680.85z"/>
	</g>
	<g>
		<path class="st1" d="M4428.67,1436.7c-33.01-33.77-99.4-36.52-142.6-25.12c-48.28,12.73-83.66,47.88-99.46,94.92
			c-16.05,47.8-14.49,109.46,23.74,146.65c31.43,30.58,86.61,39.58,114.6,1.5c9.56-13-3.11-35.53-19.41-33.44
			c-35.5,4.56-65.24,7.63-75.51-36.75c-7.71-33.34,2.31-74.38,24.62-99.83c46.17-52.65,106.69-23.49,164.6-25.97
			C4430.38,1458.19,4436.87,1445.09,4428.67,1436.7L4428.67,1436.7z"/>
	</g>
	<g>
		<path class="st1" d="M5597.99,1337.23c29.82-10.76,56.33-27.11,89.6-20.39c44.26,8.94,61.85,47.2,74.7,86.27
			c12.8,38.95,28.56,87.6,20.5,128.75c-6.43,32.85-30.35,48.77-47.58,74.75c-10.1,15.24,3.58,31.95,19.27,33.18
			c51.45,4.04,82.67-51.35,91.39-95.62c12.36-62.69-10.59-139.95-36.9-196.76c-21.61-46.65-60.72-80.55-113.34-85.18
			c-44.71-3.94-98.81,12.72-115.02,57.89C5577.07,1329.96,5588.24,1340.75,5597.99,1337.23L5597.99,1337.23z"/>
	</g>
	<g>
		<path class="st1" d="M4174.66,2673.22c23.81-70.46-65.55-112.2-121.94-88.1c-77.69,33.21-103.66,139.64-72.83,213.53
			c12.03,28.82,58.35,28.07,59.03-7.75c0.84-44.58-13.93-89.94,15.15-129.52c27.53-37.47,80.52-33.07,98.03,11.92
			C4156.2,2683.82,4170.83,2684.55,4174.66,2673.22L4174.66,2673.22z"/>
	</g>
	<g>
		<path class="st1" d="M8715.85,3520.99c-33.21,97.25-27.18,201.03-28.34,302.87c-1.22,107.08-5.39,215.51-0.04,322.46
			c9.42-11.88,18.83-23.77,28.25-35.65c-64.31,19.28-132.66,29.95-191.15,64.32c-19.27,11.33-10.66,39.42,10.81,40.33
			c67.85,2.89,133.57-20.09,199.47-33.28c16.41-3.28,27.41-19.83,28.25-35.65c5.63-106.95,1.74-215.39,0.81-322.46
			c-0.89-101.64,5.6-205.94-27.5-303.02C8732.99,3510.96,8719.25,3511.03,8715.85,3520.99L8715.85,3520.99z"/>
	</g>
	<g>
		<path class="st1" d="M8999.48,3516.8c-21.38,45.58,22.65,94.85,44.35,134.57c32.7,59.86,65.77,119.48,98.96,179.06
			c19.28,34.62,27.45,60.76,17.17,99.96c-8.68,33.11-21.04,64.74-28.24,98.42c-13.92,65.08-18.93,131.16-16.55,197.6
			c0.7,19.47,16.22,37.33,36.83,36.59c52.56-1.89,105,0.98,157.46-0.1c30.41-0.62,33.34-38.93,7.26-49.36
			c-54.63-21.84-104.69-25.76-163.72-23.64c12.28,12.2,24.56,24.39,36.83,36.59c-2.93-81.61,5.89-161.57,29.65-239.88
			c17.73-58.43,32.37-102.21,4.45-160.06c-31.7-65.67-73.38-127.84-110.61-190.51c-25.16-42.35-49.37-118.5-104.06-124.76
			C9005.73,3510.87,9000.98,3513.59,8999.48,3516.8L8999.48,3516.8z"/>
	</g>
	<g>
		<path class="st1" d="M8686.28,1676.42c-29.39,34.61-36.9,101.65-28.28,145.03c3.17,15.98,20.89,25.11,35.84,23.15
			c17.33-2.27,26.68-15.22,29.02-31.67c3.01-21.22,1.33-43.39,2.71-64.86c1.33-20.62,5.26-41.14,0.71-61.5
			C8722.54,1669.79,8697.67,1663.02,8686.28,1676.42L8686.28,1676.42z"/>
	</g>
	<g>
		<path class="st1" d="M9034.41,1735.84c-19.88,12.7-32.38,33.41-38.58,55.95c-6.8,24.7-10.32,57.58,16.6,71.26
			c14.02,7.13,27.8,4.06,39.53-5.43c16.67-13.48,11.62-31.23,13.6-49.56c1.53-14.15,7.72-27.23,10.52-41.07
			C9080.72,1744.08,9056.32,1721.85,9034.41,1735.84L9034.41,1735.84z"/>
	</g>
	<g>
		<path class="st1" d="M8402.17,1879.58c-26.94,108.46,39.37,251.07,102.35,336.25c66.42,89.84,187.33,202.65,306.03,206.54
			c66.11,2.16,122.62-34.79,173.78-72.15c61.98-45.28,124.57-90.33,184.67-138.1c106.96-85.02,195.38-202.85,168.6-346.37
			c-6.48-34.73-67.28-27.14-63.49,8.33c13.75,128.58-77.37,219.94-171.39,292.51c-49.12,37.91-99.64,74.15-149.62,110.92
			c-45.65,33.59-95.79,75.53-155.94,65.52c-104.49-17.38-198.46-102.24-259.87-183.99c-29.04-38.66-53.49-80.72-71.74-125.51
			c-20.42-50.11-25.92-103.99-44.52-154.01C8417.91,1871.13,8404.64,1869.66,8402.17,1879.58L8402.17,1879.58z"/>
	</g>
</g>
<g>
	<path class="st3" d="M3727.38,3567.57c-3.04,14.19-8.49,27.74-16.34,40.66c-7.86,12.92-16.85,24.96-26.98,36.1
		c-10.14,11.15-21.16,20.78-33.06,28.88c-11.91,8.11-23.94,14.44-36.1,19c-22.3,8.11-44.46,10.77-66.5,7.98
		c-22.04-2.78-41.68-12.79-58.9-30.02c-11.66-14.18-19.89-30.14-24.7-47.88c-4.82-17.73-7.1-35.84-6.84-54.34
		c0.25-18.49,2.78-36.35,7.6-53.58c4.81-17.22,11.02-32.68,18.62-46.36c9.12-16.21,20.01-29.64,32.68-40.28
		c12.66-10.64,26.6-16.97,41.8-19c4.05-1.01,7.34,0,9.88,3.04c2.53,3.04,3.8,6.59,3.8,10.64c5.06-5.06,12.92-8.86,23.56-11.4
		c10.64-2.53,22.54-2.78,35.72-0.76c24.32,3.04,43.57,10.39,57.76,22.04c14.18,11.66,24.7,25.21,31.54,40.66
		c6.84,15.46,10.38,31.67,10.64,48.64C3731.81,3538.57,3730.42,3553.89,3727.38,3567.57z M3561.7,3462.69
		c-10.14,4.56-18.62,11.28-25.46,20.14c-6.84,8.87-12.42,18.88-16.72,30.02c-4.31,11.15-7.1,23.18-8.36,36.1
		c-1.27,12.92-1.4,25.46-0.38,37.62c1.52,17.74,6.84,32.3,15.96,43.7c9.12,11.4,23.3,17.1,42.56,17.1c11.14,0,22.16-2.15,33.06-6.46
		c10.89-4.3,20.9-10,30.02-17.1c9.12-7.09,17.48-15.58,25.08-25.46c7.6-9.88,13.68-20.14,18.24-30.78
		c2.53-5.57,4.56-12.54,6.08-20.9c1.52-8.36,2.02-16.97,1.52-25.84c-0.51-8.86-2.54-17.35-6.08-25.46
		c-3.55-8.1-9.12-14.94-16.72-20.52c-10.64-7.6-23.31-12.16-38-13.68c-14.7-1.52-30.15,1.78-46.36,9.88
		c-3.04,2.03-6.46,2.41-10.26,1.14C3562.08,3470.93,3560.68,3467.76,3561.7,3462.69z"/>
	<path class="st3" d="M3918.9,3729.45c-0.51,5.58-2.16,10.77-4.94,15.58c-2.79,4.82-6.97,6.97-12.54,6.46
		c-8.62-0.5-16.09-3.8-22.42-9.88c-6.34-6.08-9.5-11.14-9.5-15.2c0.5-44.08-0.89-89.04-4.18-134.9
		c-3.3-45.85-8.49-91.58-15.58-137.18c0-2.02,0.5-4.3,1.52-6.84c1.01-2.02,2.28-4.43,3.8-7.22c1.52-2.78,4.05-5.44,7.6-7.98
		c3.54-1.52,7.47-1.26,11.78,0.76c4.3,2.03,8.48,5.07,12.54,9.12c4.05,4.06,7.6,8.62,10.64,13.68c3.04,5.07,5.32,9.88,6.84,14.44
		c1.52,10.14,3.04,21.28,4.56,33.44s2.78,24.83,3.8,38c12.16-6.58,23.81-13.93,34.96-22.04c11.14-8.1,20.9-16.97,29.26-26.6
		c8.36-9.62,14.82-19.63,19.38-30.02c4.56-10.38,6.08-21.15,4.56-32.3c-1.02-8.61-4.82-16.46-11.4-23.56
		c-6.59-7.09-16.72-12.41-30.4-15.96c-31.42-7.09-59.54-7.47-84.36-1.14c-24.83,6.34-48.64,16.85-71.44,31.54
		c-6.59,5.07-12.67,8.11-18.24,9.12c-5.58,1.02-10.39,0.76-14.44-0.76c-4.06-1.52-7.1-3.8-9.12-6.84c-2.02-3.04-3.04-6.08-3.04-9.12
		c1.02-11.65,6.71-22.16,17.1-31.54c10.38-9.37,21.4-17.35,33.06-23.94c15.2-7.6,33.94-13.93,56.24-19
		c22.29-5.06,44.71-6.96,67.26-5.7c22.54,1.27,43.7,6.72,63.46,16.34c19.76,9.63,34.96,25.08,45.6,46.36
		c9.62,25.34,11.78,48.14,6.46,68.4c-5.32,20.27-14.82,38.76-28.5,55.48c-13.68,16.72-29.9,32.05-48.64,45.98
		c-18.75,13.94-36.48,26.73-53.2,38.38c1.01,22.3,1.64,44.08,1.9,65.36C3919.53,3691.45,3919.4,3711.21,3918.9,3729.45z"/>
	<path class="st3" d="M4323.97,3539.45c2.02,5.07,0,10.01-6.08,14.82c-6.08,4.82-15.71,7.98-28.88,9.5
		c-22.8,3.04-46.11,6.21-69.92,9.5c-23.82,3.3-48.14,6.72-72.96,10.26c-1.02,25.84-1.02,51.68,0,77.52
		c11.65,0,25.71-1.14,42.18-3.42c16.46-2.28,33.31-5.19,50.54-8.74c17.22-3.54,33.82-7.22,49.78-11.02
		c15.96-3.8,29.51-6.96,40.66-9.5c5.57-1.52,11.4-2.66,17.48-3.42c6.08-0.76,11.52-0.76,16.34,0c4.81,0.76,8.74,2.66,11.78,5.7
		s4.56,7.35,4.56,12.92c0,1.52-1.78,3.8-5.32,6.84c-3.55,3.04-7.98,6.21-13.3,9.5c-5.32,3.3-10.9,6.34-16.72,9.12
		c-5.83,2.79-11.02,4.94-15.58,6.46c-31.42,10.14-62.32,18.88-92.72,26.22c-30.4,7.35-60.04,11.28-88.92,11.78
		c-16.72,0.51-29.39-3.92-38-13.3c-8.62-9.37-13.18-22.92-13.68-40.66c-1.02-24.82-1.02-49.9,0-75.24
		c-8.62-5.06-12.92-12.16-12.92-21.28c1.01-9.62,5.57-16.21,13.68-19.76c1.01-14.69,1.77-29.51,2.28-44.46
		c0.5-14.94,1.26-29.76,2.28-44.46c-5.58-1.01-10.52-3.8-14.82-8.36c-4.31-4.56-6.46-9.62-6.46-15.2c0-4.56,1.01-8.74,3.04-12.54
		c2.02-3.8,5.82-6.71,11.4-8.74c9.12-2.02,20.26-4.3,33.44-6.84c13.17-2.53,26.72-4.81,40.66-6.84c13.93-2.02,27.36-3.8,40.28-5.32
		c12.92-1.52,23.94-2.53,33.06-3.04c10.64-1.01,20.9,0,30.78,3.04s19.12,8.87,27.74,17.48c2.02,7.1,0.63,12.42-4.18,15.96
		c-4.82,3.55-11.02,5.83-18.62,6.84c-7.6,1.02-16.72,2.16-27.36,3.42c-10.64,1.27-21.66,2.66-33.06,4.18
		c-11.4,1.52-22.8,2.92-34.2,4.18c-11.4,1.27-22.17,2.66-32.3,4.18c0,1.02,0.12,2.16,0.38,3.42c0.25,1.27,0.38,2.41,0.38,3.42
		c-1.02,13.18-1.78,26.35-2.28,39.52c-0.51,13.18-1.02,26.35-1.52,39.52c21.28-3.54,43.06-6.71,65.36-9.5
		c22.29-2.78,40.02-4.68,53.2-5.7c10.64-1.01,21.02,0.26,31.16,3.8C4306.74,3524.76,4315.86,3530.84,4323.97,3539.45z"/>
	<path class="st3" d="M4705.49,3417.09c-3.55,43.07-7.73,87.02-12.54,131.86c-4.82,44.84-11.28,87.02-19.38,126.54
		c-2.03,9.63-4.82,16.47-8.36,20.52c-3.55,4.06-8.62,6.84-15.2,8.36c-5.58,1.02-13.3-0.76-23.18-5.32
		c-9.88-4.56-18.12-11.14-24.7-19.76c-8.62-11.65-17.86-24.44-27.74-38.38c-9.88-13.93-20.52-28.12-31.92-42.56
		c-11.4-14.44-23.31-28.75-35.72-42.94c-12.42-14.18-25.46-27.36-39.14-39.52c-1.52,33.44-2.79,66.5-3.8,99.18
		c-1.02,32.68-1.02,65.49,0,98.42c0,4.56-4.06,6.84-12.16,6.84c-9.63,0-17.48-4.94-23.56-14.82s-9.63-19.88-10.64-30.02
		c-1.52-10.13-2.28-24.7-2.28-43.7s0.38-38.88,1.14-59.66c0.76-20.77,1.64-40.78,2.66-60.04c1.01-19.25,2.02-34.45,3.04-45.6
		c1.01-12.16,3.92-21.02,8.74-26.6c4.81-5.57,9.5-8.1,14.06-7.6c10.13,1.02,16.84,3.93,20.14,8.74c3.29,4.82,5.19,10.77,5.7,17.86
		c18.24,13.18,35.08,27.36,50.54,42.56c15.45,15.2,29.64,30.66,42.56,46.36c12.92,15.71,24.82,31.29,35.72,46.74
		c10.89,15.46,21.15,29.52,30.78,42.18c6.08-30.4,11.02-64.34,14.82-101.84c3.8-37.49,7.72-76.76,11.78-117.8
		c-0.51-5.06,2.53-10,9.12-14.82c6.58-4.81,12.66-6.96,18.24-6.46C4698.38,3396.83,4705.49,3403.92,4705.49,3417.09z"/>
	<path class="st3" d="M5175.92,3404.17c-2.03,2.54-5.7,4.44-11.02,5.7c-5.32,1.27-10.77-0.12-16.34-4.18
		c-4.06-3.04-8.87-6.2-14.44-9.5c-5.58-3.29-11.66-6.46-18.24-9.5c-6.59-3.04-13.18-5.57-19.76-7.6c-6.59-2.02-12.92-3.04-19-3.04
		c-7.6,0-15.58,1.78-23.94,5.32c-8.36,3.55-15.58,8.62-21.66,15.2c-11.66,12.67-15.84,24.96-12.54,36.86
		c3.29,11.91,12.03,22.93,26.22,33.06c9.12,6.59,19,13.3,29.64,20.14c10.64,6.84,21.15,13.56,31.54,20.14
		c10.38,6.59,20.26,12.92,29.64,19c9.37,6.08,17.6,11.4,24.7,15.96c9.12,6.08,17.73,12.67,25.84,19.76
		c8.1,7.1,15.2,15.08,21.28,23.94c6.08,8.87,10.89,18.88,14.44,30.02c3.54,11.15,5.32,23.82,5.32,38
		c-3.55,27.87-14.57,50.04-33.06,66.5c-18.5,16.47-39.9,26.98-64.22,31.54c-21.28,4.06-42.18,3.3-62.7-2.28
		c-20.52-5.57-37.88-16.21-52.06-31.92c-3.55-4.05-6.59-9.62-9.12-16.72c-2.54-7.09-2.79-12.16-0.76-15.2
		c3.04-4.56,8.36-7.72,15.96-9.5c7.6-1.77,13.42-1.39,17.48,1.14c11.65,10.64,25.33,18.37,41.04,23.18
		c15.7,4.82,32.17,5.2,49.4,1.14c13.17-3.04,23.81-8.74,31.92-17.1c8.1-8.36,13.17-17.86,15.2-28.5
		c2.53-11.14,1.14-22.67-4.18-34.58c-5.32-11.9-14.82-22.67-28.5-32.3c-20.78-15.7-42.94-30.4-66.5-44.08s-47.5-29.38-71.82-47.12
		c-11.66-10.13-20.14-21.28-25.46-33.44c-5.32-12.16-7.98-24.06-7.98-35.72c0-12.16,2.53-23.68,7.6-34.58
		c5.06-10.89,12.16-20.77,21.28-29.64c9.12-8.86,19.76-16.08,31.92-21.66c12.16-5.57,25.58-8.86,40.28-9.88
		c20.26-1.01,39.77,3.17,58.52,12.54c18.74,9.38,33.94,20.9,45.6,34.58c2.53,3.04,3.67,6.84,3.42,11.4
		C5180.6,3395.81,5178.96,3400.12,5175.92,3404.17z"/>
	<path class="st3" d="M5547.55,3567.57c-3.04,14.19-8.49,27.74-16.34,40.66c-7.86,12.92-16.85,24.96-26.98,36.1
		c-10.14,11.15-21.16,20.78-33.06,28.88c-11.91,8.11-23.94,14.44-36.1,19c-22.3,8.11-44.46,10.77-66.5,7.98
		c-22.04-2.78-41.68-12.79-58.9-30.02c-11.66-14.18-19.89-30.14-24.7-47.88c-4.82-17.73-7.1-35.84-6.84-54.34
		c0.25-18.49,2.78-36.35,7.6-53.58c4.81-17.22,11.02-32.68,18.62-46.36c9.12-16.21,20.01-29.64,32.68-40.28
		c12.66-10.64,26.6-16.97,41.8-19c4.05-1.01,7.34,0,9.88,3.04c2.53,3.04,3.8,6.59,3.8,10.64c5.06-5.06,12.92-8.86,23.56-11.4
		c10.64-2.53,22.54-2.78,35.72-0.76c24.32,3.04,43.57,10.39,57.76,22.04c14.18,11.66,24.7,25.21,31.54,40.66
		c6.84,15.46,10.38,31.67,10.64,48.64C5551.98,3538.57,5550.59,3553.89,5547.55,3567.57z M5381.87,3462.69
		c-10.14,4.56-18.62,11.28-25.46,20.14c-6.84,8.87-12.42,18.88-16.72,30.02c-4.31,11.15-7.1,23.18-8.36,36.1
		c-1.27,12.92-1.4,25.46-0.38,37.62c1.52,17.74,6.84,32.3,15.96,43.7c9.12,11.4,23.3,17.1,42.56,17.1c11.14,0,22.16-2.15,33.06-6.46
		c10.89-4.3,20.9-10,30.02-17.1c9.12-7.09,17.48-15.58,25.08-25.46c7.6-9.88,13.68-20.14,18.24-30.78
		c2.53-5.57,4.56-12.54,6.08-20.9c1.52-8.36,2.02-16.97,1.52-25.84c-0.51-8.86-2.54-17.35-6.08-25.46
		c-3.55-8.1-9.12-14.94-16.72-20.52c-10.64-7.6-23.31-12.16-38-13.68c-14.7-1.52-30.15,1.78-46.36,9.88
		c-3.04,2.03-6.46,2.41-10.26,1.14C5382.25,3470.93,5380.85,3467.76,5381.87,3462.69z"/>
	<path class="st3" d="M5872.07,3442.93c2.02,9.12,4.05,19.89,6.08,32.3c2.02,12.42,3.42,25.34,4.18,38.76
		c0.76,13.43,0.88,27.24,0.38,41.42c-0.51,14.19-2.03,27.87-4.56,41.04c-3.04,15.2-9.12,29.14-18.24,41.8
		c-9.12,12.67-20.27,24.07-33.44,34.2c-12.67,10.14-26.73,18.37-42.18,24.7c-15.46,6.34-30.91,10.9-46.36,13.68
		c-15.46,2.79-30.66,3.3-45.6,1.52c-14.95-1.77-28.25-5.95-39.9-12.54c-13.18-7.6-23.82-17.48-31.92-29.64
		c-8.11-12.16-11.66-27.1-10.64-44.84c1.01-17.22,2.53-33.06,4.56-47.5c2.02-14.44,4.68-28.24,7.98-41.42
		c3.29-13.17,6.96-26.47,11.02-39.9c4.05-13.42,8.36-27.48,12.92-42.18c2.53-6.58,7.09-10.38,13.68-11.4c2.53-0.5,5.57-0.5,9.12,0
		c1.52,0,3.67,0.89,6.46,2.66c2.78,1.78,5.44,4.18,7.98,7.22c2.53,3.04,4.68,6.59,6.46,10.64c1.77,4.06,1.9,8.62,0.38,13.68
		c-4.56,16.22-9.12,32.68-13.68,49.4c-4.56,16.72-8.49,32.68-11.78,47.88c-3.3,15.2-5.32,28.76-6.08,40.66
		c-0.76,11.91,0.38,21.16,3.42,27.74c6.58,9.63,15.58,15.84,26.98,18.62c11.4,2.79,23.43,3.17,36.1,1.14
		c12.66-2.02,24.95-5.44,36.86-10.26c11.9-4.81,22.16-10,30.78-15.58c13.68-9.12,23.68-20.52,30.02-34.2
		c6.33-13.68,10.26-28.62,11.78-44.84c1.52-16.21,1.39-33.18-0.38-50.92c-1.78-17.73-4.18-35.21-7.22-52.44
		c-1.02-4.56-0.76-10.38,0.76-17.48c1.52-7.09,5.57-12.66,12.16-16.72c7.09-4.05,13.55-3.54,19.38,1.52
		C5865.35,3426.72,5869.53,3433.81,5872.07,3442.93z"/>
	<path class="st3" d="M5995.95,3715.77c-1.52-18.74-2.66-40.02-3.42-63.84c-0.76-23.81-1.14-48.26-1.14-73.34s0.12-49.78,0.38-74.1
		c0.25-24.32,0.88-46.36,1.9-66.12c0-5.06,2.4-8.99,7.22-11.78c4.81-2.78,8.74-3.92,11.78-3.42c9.12,1.02,15.32,4.18,18.62,9.5
		c3.29,5.32,5.44,12.8,6.46,22.42c-0.51,16.22-0.89,32.43-1.14,48.64c-0.26,16.22-0.13,32.43,0.38,48.64
		c22.8-4.05,41.92-12.41,57.38-25.08c15.45-12.66,26.47-27.1,33.06-43.32c2.53-6.08,4.43-13.42,5.7-22.04
		c1.26-8.61,1.39-17.35,0.38-26.22c-1.02-8.86-3.42-17.22-7.22-25.08c-3.8-7.85-9.5-14.06-17.1-18.62
		c-11.15-6.58-23.31-10.13-36.48-10.64c-13.18-0.5-26.73,1.4-40.66,5.7c-13.94,4.31-27.62,11.02-41.04,20.14
		c-13.43,9.12-25.97,20.02-37.62,32.68c1.52,7.6,0.5,14.32-3.04,20.14c-3.55,5.83-8.62,10.01-15.2,12.54
		c-4.06,1.02-8.87-1.14-14.44-6.46c-5.58-5.32-8.36-10.76-8.36-16.34c0-20.26,5.7-37.87,17.1-52.82
		c11.4-14.94,25.71-27.48,42.94-37.62c17.22-10.13,35.72-17.73,55.48-22.8c19.76-5.06,38-7.6,54.72-7.6
		c24.82,0,45.6,7.22,62.32,21.66c16.72,14.44,28.12,32.56,34.2,54.34c10.64,38,7.98,72.2-7.98,102.6
		c-15.96,30.4-41.93,56.75-77.9,79.04c26.34,16.22,51.04,31.67,74.1,46.36c23.05,14.7,46.23,30.66,69.54,47.88
		c3.04,3.04,6.46,7.48,10.26,13.3c3.8,5.83,3.16,14.57-1.9,26.22c-3.04,7.1-8.24,11.02-15.58,11.78
		c-7.35,0.76-14.57-1.39-21.66-6.46c-11.15-9.12-23.69-18.62-37.62-28.5c-13.94-9.88-28.5-19.76-43.7-29.64s-30.4-19.5-45.6-28.88
		c-15.2-9.37-29.64-18.11-43.32-26.22c0.5,20.27,0.88,40.41,1.14,60.42c0.25,20.02,0.88,39.65,1.9,58.9c0,7.1-2.03,12.04-6.08,14.82
		c-4.06,2.79-9.12,4.18-15.2,4.18c-3.04-0.5-5.83-2.15-8.36-4.94c-2.54-2.78-4.94-6.08-7.22-9.88c-2.28-3.8-4.18-7.6-5.7-11.4
		C5996.71,3720.71,5995.95,3717.8,5995.95,3715.77z"/>
	<path class="st3" d="M6440.55,3449.77c2.02,2.54,3.16,5.7,3.42,9.5c0.25,3.8-0.38,6.97-1.9,9.5c-2.54,5.58-6.84,7.6-12.92,6.08
		c-10.64-2.53-21.79-3.54-33.44-3.04c-11.66,0.51-23.31,5.07-34.96,13.68c-11.66,8.62-20.78,21.16-27.36,37.62
		c-6.59,16.47-9.88,33.57-9.88,51.3c0,17.23,4.18,32.05,12.54,44.46c8.36,12.42,19.12,21.41,32.3,26.98
		c8.1,3.55,17.22,5.58,27.36,6.08c10.13,0.51,20.39,0.13,30.78-1.14c10.38-1.26,20.64-3.29,30.78-6.08
		c10.13-2.78,19.76-5.95,28.88-9.5c3.04-1.01,5.95-0.76,8.74,0.76c2.78,1.52,4.68,3.55,5.7,6.08c2.53,6.59,1.26,13.18-3.8,19.76
		c-6.08,6.59-14.19,12.42-24.32,17.48c-10.14,5.07-21.28,9.12-33.44,12.16c-12.16,3.04-24.58,4.69-37.24,4.94
		c-12.67,0.26-24.58-1.14-35.72-4.18c-15.71-4.05-29.01-10-39.9-17.86c-10.9-7.85-19.89-16.97-26.98-27.36
		c-7.1-10.38-12.42-21.53-15.96-33.44c-3.55-11.9-5.58-24.19-6.08-36.86c-1.02-30.4,4.94-57.76,17.86-82.08
		c12.92-24.32,31.03-42.3,54.34-53.96c17.22-8.61,34.58-12.03,52.06-10.26C6418.89,3432.17,6431.93,3438.63,6440.55,3449.77z"/>
	<path class="st3" d="M6766.58,3539.45c2.02,5.07,0,10.01-6.08,14.82c-6.08,4.82-15.71,7.98-28.88,9.5
		c-22.8,3.04-46.11,6.21-69.92,9.5c-23.82,3.3-48.14,6.72-72.96,10.26c-1.02,25.84-1.02,51.68,0,77.52
		c11.65,0,25.71-1.14,42.18-3.42c16.46-2.28,33.31-5.19,50.54-8.74c17.22-3.54,33.82-7.22,49.78-11.02
		c15.96-3.8,29.51-6.96,40.66-9.5c5.57-1.52,11.4-2.66,17.48-3.42c6.08-0.76,11.52-0.76,16.34,0c4.81,0.76,8.74,2.66,11.78,5.7
		s4.56,7.35,4.56,12.92c0,1.52-1.78,3.8-5.32,6.84c-3.55,3.04-7.98,6.21-13.3,9.5c-5.32,3.3-10.9,6.34-16.72,9.12
		c-5.83,2.79-11.02,4.94-15.58,6.46c-31.42,10.14-62.32,18.88-92.72,26.22c-30.4,7.35-60.04,11.28-88.92,11.78
		c-16.72,0.51-29.39-3.92-38-13.3c-8.62-9.37-13.18-22.92-13.68-40.66c-1.02-24.82-1.02-49.9,0-75.24
		c-8.62-5.06-12.92-12.16-12.92-21.28c1.01-9.62,5.57-16.21,13.68-19.76c1.01-14.69,1.77-29.51,2.28-44.46
		c0.5-14.94,1.26-29.76,2.28-44.46c-5.58-1.01-10.52-3.8-14.82-8.36c-4.31-4.56-6.46-9.62-6.46-15.2c0-4.56,1.01-8.74,3.04-12.54
		c2.02-3.8,5.82-6.71,11.4-8.74c9.12-2.02,20.26-4.3,33.44-6.84c13.17-2.53,26.72-4.81,40.66-6.84c13.93-2.02,27.36-3.8,40.28-5.32
		c12.92-1.52,23.94-2.53,33.06-3.04c10.64-1.01,20.9,0,30.78,3.04c9.88,3.04,19.12,8.87,27.74,17.48c2.02,7.1,0.63,12.42-4.18,15.96
		c-4.82,3.55-11.02,5.83-18.62,6.84c-7.6,1.02-16.72,2.16-27.36,3.42c-10.64,1.27-21.66,2.66-33.06,4.18
		c-11.4,1.52-22.8,2.92-34.2,4.18c-11.4,1.27-22.17,2.66-32.3,4.18c0,1.02,0.12,2.16,0.38,3.42c0.25,1.27,0.38,2.41,0.38,3.42
		c-1.02,13.18-1.78,26.35-2.28,39.52c-0.51,13.18-1.02,26.35-1.52,39.52c21.28-3.54,43.06-6.71,65.36-9.5
		c22.29-2.78,40.02-4.68,53.2-5.7c10.64-1.01,21.02,0.26,31.16,3.8C6749.35,3524.76,6758.47,3530.84,6766.58,3539.45z"/>
</g>
</svg>
