<?xml version="1.0" encoding="utf-8"?>
<!-- Generator: Adobe Illustrator 25.4.1, SVG Export Plug-In . SVG Version: 6.00 Build 0)  -->
<svg version="1.1" id="Ebene_2" xmlns="http://www.w3.org/2000/svg" xmlns:xlink="http://www.w3.org/1999/xlink" x="0px" y="0px"
	 viewBox="0 0 8703.39 5000" style="enable-background:new 0 0 8703.39 5000;" xml:space="preserve">
<style type="text/css">
	.st0{fill:#FFFFFF;}
	.st1{fill:#146ece;}
	.st2{fill:#EDEDED;}
	.st3{fill:#3C3C3B;}
</style>
<polyline class="st0" points="8703.39,5000 0,5000 0,0 8703.39,0 8703.39,5000 "/>
<g>
	<g>
		<path class="st1" d="M2642.74,3262.94c97.78-116.39,201.69-232.75,333.12-311.83c-9.62-9.34-19.23-18.69-28.85-28.03
			c-58.09,87.46-114.75,175.84-171.74,264.02c-27.13,41.98-54.32,83.92-81.36,125.96c-22.29,34.64-43.9,68.1-42.72,110.7
			c0.52,18.93,25.38,30.79,39.08,15.69c137.91-151.85,276.3-303.26,414.48-454.87c-13.54-7.6-27.08-15.2-40.63-22.8
			c-70.85,241.31-302.78,386.21-416.77,603.68c-12.64,24.11,19.77,50.74,39.15,29.14c176.75-196.99,354.98-394.38,565.28-556.56
			c-11.91-11.54-23.83-23.07-35.74-34.61c-182.76,189.1-367.52,382.42-486.04,620.03c-12.41,24.89,19.55,51.51,40.03,29.8
			c185.47-196.52,370.94-393.04,556.42-589.56c-13.35-9.94-26.71-19.88-40.06-29.82c-168.43,226.05-336.87,452.11-505.3,678.16
			c-18.06,24.24,20.11,48.1,40.09,29.85c184.69-168.75,369.38-337.49,554.07-506.24c-13.37-9.96-26.75-19.91-40.12-29.87
			c-77.59,101.24-155.2,202.47-232.77,303.73c-70.44,91.96-140.28,184.66-188.9,290.42c-11.57,25.16,18.83,51.44,40.15,29.89
			c141.02-142.58,287.43-279.63,438.99-410.94c-13.41-1.56-26.82-3.13-40.24-4.69c11.91,20.24-29.3,56.43-40.67,69.9
			c-17.47,20.68-34.93,41.35-52.4,62.03c-33.34,39.47-66.69,78.94-100.03,118.42c-66.69,78.94-133.37,157.89-200.06,236.83
			c-21.5,25.45,11.12,55.61,36.19,35.04c103.66-85.05,207.32-170.1,310.98-255.15c-14.57-5.85-29.15-11.7-43.72-17.55
			c-5.81,59.74-44.1,108.13-80.68,153.12c-19.92,24.51,14.76,58.25,35.05,33.94c46.48-55.72,89.63-112.59,96.86-187.01
			c2.38-24.5-28.68-29.89-43.72-17.55c-103.66,85.05-207.31,170.11-310.97,255.16c12.06,11.68,24.13,23.36,36.19,35.04
			c82.56-97.74,165.12-195.49,247.68-293.23c41.27-48.87,82.98-97.4,123.84-146.62c26.08-31.42,53.69-67.33,29.75-108.01
			c-8.78-14.91-28.16-15.15-40.24-4.69c-151.56,131.32-297.96,268.38-438.97,410.96c13.38,9.96,26.76,19.92,40.15,29.89
			c48.62-105.76,118.46-198.47,188.89-290.43c77.56-101.26,155.17-202.49,232.75-303.74c18.38-23.99-20.15-48.11-40.12-29.87
			c-184.68,168.76-369.37,337.51-554.05,506.27c13.36,9.95,26.73,19.9,40.09,29.85c168.42-226.06,336.84-452.12,505.27-678.18
			c17.46-23.44-20.83-50.2-40.06-29.82c-185.46,196.53-370.93,393.06-556.39,589.59c13.34,9.93,26.69,19.87,40.03,29.8
			c116.68-233.95,297.98-423.79,477.76-610.13c23.36-24.22-11.12-53.62-35.74-34.61c-210.16,162.36-388.22,359.9-564.79,557.03
			c13.05,9.71,26.1,19.43,39.15,29.14c116.08-221.92,349.23-368.05,420.59-615.54c6.58-22.8-24.44-40.73-40.63-22.8
			c-137.47,152.29-274.72,304.78-412.46,456.83c13.03,5.23,26.06,10.46,39.08,15.69c-1.29-44.59,33.6-84.38,56.58-120.17
			c25.65-39.95,51.28-79.91,76.92-119.87c51.27-79.9,102.75-159.66,153.02-240.2c11.08-17.75-11.38-39.23-28.85-28.03
			c-133.77,85.69-230.52,208.77-328.95,330.93C2616.11,3258.37,2632.82,3274.75,2642.74,3262.94L2642.74,3262.94z"/>
	</g>
	<path class="st2" d="M1348.04,4626.68c-10.7,3.97-22.11,8.9-27.25,18.4c-7.35,13.58,2.24,30.75,16.45,38.46
		c14.21,7.71,129.57,40.45,146.06,40.95c203.33,6.27,309.79-19.55,511.25-45.54c12.41-1.6,25.44-3.57,35.24-10.75
		c111.12-81.38-250.11-110.58-293.46-107.87C1609.51,4568.26,1465.75,4582.97,1348.04,4626.68z"/>
	<path class="st2" d="M3329.86,4641.25c8.92-3.31,18.45-7.43,22.73-15.35c6.13-11.33-1.87-25.65-13.72-32.08
		s-108.09-33.74-121.85-34.16c-169.62-5.23-258.43,16.31-426.49,37.99c-10.36,1.34-21.22,2.98-29.4,8.97
		c-92.69,67.88,208.64,92.24,244.8,89.98C3111.74,4689.98,3231.67,4677.71,3329.86,4641.25z"/>
	<path class="st2" d="M4778,4597.4c9.67-3.59,20-8.05,24.65-16.64c6.65-12.28-2.03-27.81-14.88-34.78s-117.19-36.58-132.11-37.04
		c-183.9-5.67-280.19,17.68-462.4,41.18c-11.23,1.45-23.01,3.23-31.88,9.72c-100.5,73.6,226.21,100.01,265.42,97.56
		C4541.52,4650.23,4671.54,4636.93,4778,4597.4z"/>
	<path class="st2" d="M6172.51,4612.39c9.67-3.59,20-8.05,24.65-16.64c6.65-12.28-2.03-27.81-14.88-34.78
		c-12.85-6.97-117.19-36.58-132.1-37.04c-183.9-5.67-280.19,17.68-462.4,41.18c-11.23,1.45-23.01,3.23-31.88,9.72
		c-100.5,73.6,226.21,100.01,265.42,97.56C5936.03,4665.23,6066.05,4651.92,6172.51,4612.39z"/>
	<path class="st2" d="M7540.73,4615.44c11.7-4.34,24.18-9.74,29.8-20.12c8.04-14.85-2.45-33.63-17.99-42.06
		c-15.54-8.43-141.71-44.23-159.74-44.79c-222.37-6.85-338.8,21.38-559.14,49.8c-13.58,1.75-27.82,3.9-38.54,11.75
		c-121.52,89,273.53,120.93,320.94,117.97C7254.77,4679.33,7412,4663.24,7540.73,4615.44z"/>
	<g>
		<path class="st1" d="M3679.41,1792.37c44.33-13.13,88.17-27.75,132.37-41.3c-4.77-8.09-9.54-16.19-14.31-24.28
			c-55.92,52.95-106.81,111.22-155.44,170.86c-11.02,13.51,3.07,35.42,19.78,24.98c59.26-37.03,118.51-74.06,177.63-111.33
			c-6.69-8.46-13.39-16.91-20.08-25.37c-67.97,71.77-135.3,144.46-183.58,231.4c-7.58,13.65,8.26,30.38,22.1,21.48
			c117.5-75.6,234.88-151.37,352.32-227.07c-6.14-7.76-12.29-15.52-18.43-23.28c-120.98,102.65-243.97,208.94-313.76,354.65
			c-7.15,14.93,10.97,29.64,23.51,17.5c107.56-104.18,224.07-197.88,349.03-280.4c-6.03-7.61-12.05-15.22-18.08-22.83
			c-111.92,94.05-223.03,188.86-307.24,309.65c-9.31,13.36,9.34,30.72,22.4,21.77c94.13-64.56,187.86-129.69,281.67-194.71
			c-6.4-8.08-12.79-16.16-19.18-24.23c-69.89,59-130.61,126.81-181.8,202.58c-7.79,11.53,5.12,25.38,17.35,22.21
			c74.41-19.32,139.72-58.56,191.43-115.5c-8.77-3.52-17.53-7.04-26.3-10.56c1.86,40.52-45.03,64.08-50.15,104.58
			c-3.27,25.89,6.49,46.87,31.23,55.84c17.89,6.48,25.57-21.24,8.02-28.1c-32.7-12.79,13.05-63.52,21.33-75.15
			c12.92-18.14,21.41-34.45,20.39-57.14c-0.57-12.64-16.96-20.82-26.3-10.56c-48.32,53.07-108,89.27-177.52,107.23
			c5.78,7.4,11.57,14.8,17.35,22.21c49.87-73.62,109.16-138.94,177.41-195.9c13.77-11.49-4.51-34.28-19.18-24.23
			c-94.15,64.49-188.37,128.86-282.21,193.81c7.47,7.26,14.93,14.51,22.4,21.77c81.67-118.19,191.25-212.71,300.05-305.07
			c12.92-10.97-4.13-32.06-18.08-22.83c-126.93,84.02-245.75,179.29-355.2,285.09c7.84,5.83,15.67,11.67,23.51,17.5
			c68.77-143.22,190.02-247.85,309.48-348.27c13.29-11.18-4.13-32.41-18.43-23.28c-117.76,75.15-235.56,150.23-353.26,225.49
			c7.37,7.16,14.73,14.32,22.1,21.48c47.21-84.43,112.81-154.72,179.12-224.33c12.72-13.36-3.86-35.53-20.08-25.37
			c-59.22,37.1-118.3,74.42-177.38,111.75c6.59,8.33,13.18,16.65,19.78,24.98c48.5-60.09,100.66-116.51,153.37-172.87
			c9.25-9.89,0.21-30.05-14.31-24.28c-43.19,17.18-86.77,33.32-129.8,50.9C3663.14,1778.44,3666.94,1796.07,3679.41,1792.37
			L3679.41,1792.37z"/>
	</g>
	<g>
		<path class="st1" d="M2416.17,995.57c14.19-30.09,28.38-60.18,42.56-90.28c-8.03-0.99-16.05-1.97-24.08-2.96
			c9.61,69.71,29.96,138.09,55.02,203.7c4.74,12.4,27.57,16.56,30.07-0.1c9.64-64.23,17.95-128.69,26.83-193.03
			c-10.66,1.4-21.33,2.8-31.99,4.2c18.4,103.7,36.64,207.43,54.68,311.2c3.67,21.13,32.3,12.83,34.76-4.56
			c15.56-110.08,27.63-220.57,37.26-331.32c2.01-23.14-34.23-22.61-36.44-0.04c-15.71,160.07-27.98,326.09,43.25,475.46
			c8.09,16.97,33.3,7.2,34.14-9.15c8.97-175.21,18.17-350.41,26.84-525.64c-12.21-0.01-24.42-0.02-36.62-0.04
			c5.77,188.75,31.37,376.24,76.86,559.53c5.13,20.65,33.78,14.31,35.73-4.69c22.07-215.5,32.57-431.95,30.65-648.58
			c-0.21-23.1-35.32-22.77-36.28-0.04c-9.62,229.56-18.27,460.23,20.05,687.81c2.99,17.77,30.03,15.52,34.32-0.12
			c66.98-243.87,3.1-497.24,41.44-744.2c-11.63-1.5-23.26-3.01-34.89-4.51c14.43,226.68,39.01,452.64,76.73,676.66
			c2.57,15.28,24.9,15.74,31.85,3.92c23.85-40.55,29.89-85.32,29.92-131.77c0.04-63.44-3.98-127.11-6.07-190.51
			c-4.29-130.45-8.57-260.9-12.86-391.34c-11.33-0.01-22.66-0.02-33.99-0.03c8.07,136.24,17.51,272.4,28.41,408.44
			c4.92,61.42,8.37,123.37,15.96,184.53c4.83,38.95,16.24,77.12,52.94,96.65c11.28,6,24.62-1.69,25.36-14.31
			c14.72-251.51,12.33-502.71-11.98-753.58c-11.25,1.48-22.49,2.95-33.74,4.43c70.64,213.55-6.14,448.21,87.07,657.03
			c6.29,14.1,28.94,9.05,32.45-4.41c55.41-212.52,65.16-433.53,29.79-650.24c-3.18-19.46-36.45-14.97-35.17,4.62
			c13.3,203.38,35.65,405.94,66.47,607.41c2.84,18.59,30.17,15.2,34.94-0.12c51.52-165.26,36.38-338.43,19.37-507.9
			c-11.93-0.01-23.86-0.02-35.79-0.04c16.13,143.05,32.25,286.11,48.38,429.16c2.21,19.61,28.04,23.98,35.03,4.53
			c42.7-118.9,53.86-244.24,34.48-368.97c-3.08-19.8-34.98-14.57-35.02,4.6c-0.18,78.78,12.18,156.01,38.35,230.38
			c4.68,13.29,24.55,17.89,31.97,3.93c10.8-20.31,21.61-40.62,32.41-60.93c10.23-19.23-18.92-35.22-29.27-16.42
			c-11.1,20.15-22.19,40.3-33.29,60.44c10.66,1.31,21.31,2.62,31.97,3.93c-24.13-71.93-36.73-145.36-36.54-221.29
			c-11.67,1.53-23.35,3.06-35.02,4.6c18.39,118.52,6.13,237.96-34.4,350.73c11.68,1.51,23.35,3.02,35.03,4.53
			c-16.09-143.05-32.18-286.11-48.28-429.16c-2.5-22.27-38.04-22.46-35.79-0.04c16.65,166.3,32.27,336.62-18.44,498.79
			c11.65-0.04,23.29-0.08,34.94-0.12c-30.17-198.34-51.92-397.84-65.74-597.99c-11.72,1.54-23.44,3.08-35.17,4.62
			c35.17,210.66,24.8,425.47-29.39,632.01c10.82-1.47,21.63-2.94,32.45-4.41c-90.92-204.54-14.78-438.07-84.62-648.14
			c-5.62-16.92-35.69-15.44-33.74,4.43c24.61,250.13,30.42,502.78,12.58,753.58c8.45-4.77,16.9-9.54,25.36-14.31
			c-44.27-24.27-38.44-98.44-42.18-141.2c-4.97-56.86-9.69-113.74-14.15-170.65c-9.11-116.28-17.05-232.65-24.01-349.07
			c-1.28-21.39-34.71-21.5-33.99-0.03c4.03,120.6,8.07,241.21,12.1,361.81c1.98,59.07,4.05,118.14,5.8,177.21
			c1.61,54.19,3.75,109.55-24.95,157.78c10.62,1.31,21.24,2.61,31.85,3.92c-36.49-221.15-62.48-443.77-74.85-667.6
			c-1.03-18.64-31.69-25.03-34.89-4.51c-38.51,246.66,25.34,501.04-41.45,744.19c11.44-0.04,22.88-0.08,34.32-0.12
			c-37.79-224.41-28.45-452.28-18.17-678.56c-12.09-0.01-24.18-0.02-36.28-0.04c1.17,216.63-8.8,433.05-30.7,648.58
			c11.91-1.56,23.82-3.13,35.73-4.69c-44.92-180.35-70.28-364.28-75.38-550.08c-0.64-23.31-35.42-23-36.62-0.04
			c-9.22,175.2-17.9,350.43-26.82,525.64c11.38-3.05,22.76-6.1,34.14-9.15c-68.05-142.61-53.34-304.59-38.48-457.09
			c-12.15-0.01-24.3-0.02-36.44-0.04c-9.56,110.71-21.97,221.11-36.16,331.32c11.59-1.52,23.17-3.04,34.76-4.56
			c-19.32-103.46-38.43-206.95-57.4-310.47c-3.53-19.3-29.85-11.99-31.99,4.2c-8.34,63.02-17.28,126-24.88,189.11
			c10.21-1.34,20.43-2.68,30.64-4.02c-26.66-66.04-44.47-133.02-59.7-202.44c-2.96-13.48-21.36-11.05-25.39,0.09
			c-11.31,31.25-22.61,62.51-33.92,93.76C2397.58,998.26,2412.18,1004.03,2416.17,995.57L2416.17,995.57z"/>
	</g>
	<g>
		<path class="st3" d="M3691.71,1713.97c-42.55,75.34-70.54,160.22-86.69,245.02c-15.25,80.1-29.01,173.83-11.1,254.38
			c5.8,26.1,43.06,18.08,45.11-5.92c3.43-40.14-0.98-81.19,1.03-121.59c2.14-42.98,5.74-85.83,12.48-128.34
			c12.77-80.51,35.84-157.39,61.17-234.68C3717.99,1709.8,3698.23,1702.43,3691.71,1713.97L3691.71,1713.97z"/>
	</g>
	<g>
		<path class="st3" d="M3648.45,2209.29c60.84-8.5,122.57-6.71,182.44,7.41c56.64,13.36,101.92,44.81,155.16,64.63
			c23.6,8.79,38.28-23.25,23.44-39.47c-41.25-45.08-118.83-65.37-177.29-73.65c-63.99-9.06-128.74-1.63-188.95,21.65
			C3630.78,2194.67,3635.36,2211.12,3648.45,2209.29L3648.45,2209.29z"/>
	</g>
	<g>
		<path class="st3" d="M4029.18,2317.89c35.26-83.19,49.24-176.84,58.56-266.2c9.72-93.2,12.17-188.52,1.11-281.7
			c-17.57,4.71-35.13,9.41-52.7,14.12c5.07,9.32,10.52,18.3,16.01,27.38c13.68,22.6,49.57,7.61,43.52-18.05
			c-2.44-10.34-4.85-20.58-7.76-30.8c-8.25-29.02-58.14-24.75-55.58,7.29c7.32,91.63,13.16,182.71,9.07,274.68
			c-4.05,91.18-20.5,180.53-27.86,271.27C4012.78,2325.59,4026.07,2325.23,4029.18,2317.89L4029.18,2317.89z"/>
	</g>
	<g>
		<path class="st3" d="M4062.73,1789.95c82.99,25.74,176.53,22.59,260.55,2.97c41.46-9.68,81.77-24.33,120.11-42.8
			c21.79-10.5,43.01-22.29,63.24-35.56c10.12-6.64,19.88-13.78,29.51-21.1c12.68-9.62,11.39-8.89,13.24-24.32
			c-3.6,29.99,48.47,36.44,53.27,6.88c6.49-39.97-29.83-65.54-66.72-48.22c-24.07,11.3-44.36,33.39-66.4,48.09
			c-21.81,14.55-44.58,27.57-68.17,38.98c-106.89,51.71-218.78,62.08-335.69,55.04C4053.68,1769.19,4051.76,1786.55,4062.73,1789.95
			L4062.73,1789.95z"/>
	</g>
	<g>
		<path class="st3" d="M2999.75,1332.3c16.04,110.45,137.33,195.13,241.92,132.39c42.4-25.43,66.85-70.94,60.35-120.38
			c-6.24-47.51-41.39-98.2-92.97-100.03c-22.69-0.8-33.52,32.57-12.25,43.24c31.08,15.58,54.51,34.37,55.34,72.43
			c0.79,36.32-26.77,63.23-59.63,73.62c-80.86,25.57-141.39-43.51-170.68-110.44C3016.06,1309.94,2998.01,1320.32,2999.75,1332.3
			L2999.75,1332.3z"/>
	</g>
	<g>
		<path class="st3" d="M2725.99,1487.21c0.28-8.4,44.65-23.98,51.88-27.48c19.89-9.62,39.79-19.26,59.44-29.36
			c34.87-17.93,69.36-36.63,104.09-54.82c69.85-36.58,141.6-71.54,208.04-114.17c112.39-72.11,174.61-192.37,275.48-277.16
			c17.92-15.07-5.35-42.52-24.58-31.05c-74.94,44.69-120.78,119.47-177.55,183.36c-68.05,76.6-157.82,120.22-245.02,170.93
			c-46.55,27.07-93.09,54.17-139.7,81.14c-23.32,13.49-46.26,27.53-69.13,41.78c-16.48,10.27-40.05,20.39-53.49,34.95
			c-30.71,33.28,23.89,42.51,19.74,20.67C2734.2,1480.76,2726.15,1482.21,2725.99,1487.21L2725.99,1487.21z"/>
	</g>
	<g>
		<path class="st3" d="M2666.24,1462.62c26.49-24.92,3.09-63.02-9.55-89.61c-25.17-52.97-53.76-103.95-85.92-152.99
			c-62.57-95.41-132.88-187.12-211.27-270.14c-19.7-20.86-51.17,10.16-32.12,31.78c64.34,73.02,125.88,147.61,182.15,227.11
			c26.02,36.76,50.91,74.38,75.69,111.98c21.16,32.09,79.85,94.36,68.71,134.96C2651.94,1462.98,2661.06,1467.49,2666.24,1462.62
			L2666.24,1462.62z"/>
	</g>
	<g>
		<path class="st3" d="M2416.24,946.64c124.94-59.87,245.75-131.08,362.18-206.07c57.37-36.95,114.18-74.86,170.31-113.69
			c27.1-18.75,54.01-37.79,80.81-56.97c25.76-18.43,53.79-34.88,73.17-60.15c9.74-12.71-6.56-31.96-20.88-26.73
			c-30.35,11.09-55.06,33.4-81.19,52.1c-28.72,20.56-57.62,40.86-86.58,61.08c-54.08,37.75-108.73,74.6-163.64,111.13
			c-113.75,75.69-229.44,148.65-342.5,225.32C2399.01,938.71,2406.68,951.23,2416.24,946.64L2416.24,946.64z"/>
	</g>
	<g>
		<path class="st3" d="M3150.38,504.1c-33.43,79.03,70.5,137.42,113.73,186.05c32.62,36.7,59.6,79.4,78,124.97
			c17.52,43.4,19.63,89.79,34.58,133.28c6.38,18.55,38.61,22.72,42.67-0.15c14.08-79.14-31.74-175.66-75.35-239.32
			c-24.16-35.28-53.08-66.53-86.18-93.57c-35.23-28.78-83.5-57.95-84.72-108.31C3172.78,493.21,3155.16,492.8,3150.38,504.1
			L3150.38,504.1z"/>
	</g>
	<g>
		<path class="st3" d="M3415.79,712.86c-71.88,24.4-134.59,62.31-199.32,101.67c-73.54,44.71-146.62,90.17-219.03,136.69
			c-140.45,90.25-280.04,183.05-412.62,284.61c-21.62,16.56,6.8,51.76,29.1,36.76c136.91-92.1,270.92-188.49,407.51-281.09
			c67.35-45.66,134.97-90.93,203.04-135.51c64.91-42.52,128.65-93.18,196.97-129.76C3428.77,722.3,3423.84,710.13,3415.79,712.86
			L3415.79,712.86z"/>
	</g>
	<g>
		<path class="st3" d="M2717.52,1038.43c-28.36,45.57-9.46,95.26,25.47,130.97c26.89,27.5,78.59,77.69,119.37,48.59
			c36.3-25.91,29.37-79.3,15.89-115.29c-18.52-49.46-54.4-90.96-100.86-116.01c-23.63-12.74-45.02,22.04-21.51,36.22
			c44.56,26.88,97.89,82.66,90.46,140.23c-5.68,44.01-55.98-1.97-72.39-16.22c-30.24-26.26-52.98-61.7-42.97-103.05
			C2732.95,1035.73,2721.89,1031.41,2717.52,1038.43L2717.52,1038.43z"/>
	</g>
	<g>
		<path class="st3" d="M3073.04,844.98c-11.87,70.94,22.43,140.3,86.51,173.52c10.1,5.24,24.71,2.69,30.33-8.13
			c23.55-45.33,46.97-97.96,30.54-149.59c-12.58-39.56-45.02-68.39-87.14-68.83c-28.78-0.3-28.42,40.45-0.59,43.29
			c78.92,8.07,37.38,113.69,18.93,153.66c10.11-2.71,20.22-5.42,30.33-8.13c-54.57-23.85-88.01-73.19-88.47-133.15
			C3093.39,836.38,3075,833.27,3073.04,844.98L3073.04,844.98z"/>
	</g>
	<g>
		<path class="st3" d="M4005.8,1785.14c-5.49-23.32-33.07-18.97-46.7-5.31c-22.61,22.65-9.38,59.65,11.39,78.74
			c23.64,21.72,59.03,26.43,86.47,9.16c27.04-17.01,43.9-53.19,31.92-83.91c-7.02-17.99-40.65-18.02-37.97,4.98
			c2.59,22.21-7.32,54.18-35.91,50.22c-12.08-1.67-23.43-10.64-29.05-21.24c-2.6-4.9-5.29-11.64-3.67-17.33
			c0.46-1.6,8.74-14.62,11.3-10.24C3997.34,1796.64,4007.49,1792.29,4005.8,1785.14L4005.8,1785.14z"/>
	</g>
	<g>
		<path class="st3" d="M3972.78,1870.37c-28.05,49.1-47.28,104.51-62.45,158.82c-2.32,8.31,1.31,20.36,9.96,24.01
			c23.18,9.78,40.73,23.11,56.45,42.74c7.38,9.21,23.7,7.13,31.19-0.35c48.25-48.22,84.58-173.16,10.84-217.44
			c-12.94-7.77-25.85,5.09-23.94,18.05c4.28,29.07,19.97,52.05,19.04,83.02c-1,33.17-13.9,62.66-37.11,86.2
			c10.4-0.12,20.79-0.24,31.19-0.35c-18-22.12-39.35-37.99-65.68-48.88c3.32,8,6.64,16.01,9.96,24.01
			c11.21-54.76,27.37-107.31,41.9-161.2C3997.56,1866.28,3979.29,1858.98,3972.78,1870.37L3972.78,1870.37z"/>
	</g>
	<g>
		<path class="st3" d="M3192.84,1410.12c-9.46-48.87-77.17-47.4-86.34,1.16c-5.48,28.99,14.55,54.06,31.44,75.36
			c25.71,32.39,53.25,63.18,84.86,89.92c60.6,51.27,130.29,87.65,206.9,108.34c87.6,23.66,177.57,36.1,265.06,60.54
			c20.77,5.8,36.32-25.84,15.41-35.73c-101.48-48.01-216.67-53.39-322.39-88.82c-55.01-18.44-104.37-48.73-148.52-86.14
			c-20.14-17.07-39.98-34.47-58.84-52.96c-8.64-8.47-17.38-17.01-25.48-26.01c-8.77-8.34-15.4-18.12-19.89-29.35
			c2.14-32.18,17.04-35.8,44.7-10.88C3183.84,1422.64,3194.3,1417.67,3192.84,1410.12L3192.84,1410.12z"/>
	</g>
	<g>
		<path class="st3" d="M4159.41,563.94c-120.92-38.64-283.2-42.26-394.68,27.19c-99.1,61.74-147.74,177.24-199.29,276.63
			c-103.1,198.81-250.48,461.87-97.93,676.08c133.63,187.64,424.25,285.45,644.21,219.12c119.8-36.12,207.43-126.52,275.56-228.17
			c69.08-103.07,108.65-223.95,105.68-348.55c-1.57-66.12-12.9-134.45-29.36-198.47c-14.54-56.58-38.17-112.9-81.17-153.86
			c-98.73-94.06-267.16-104.93-387.45-53.05c-24.41,10.53-7.18,49.8,17.73,41.97c104.61-32.85,242.06-33.23,328.99,44.32
			c71.91,64.15,86.25,185.48,94.49,276.02c10.11,111.08-13.43,220.58-68.32,317.67c-52.24,92.4-126.4,189.54-224.27,235.94
			c-192.35,91.2-454.98,8.77-598.34-137.12c-167.69-170.65-72.61-418.26,25.9-598.6c53.51-97.97,96.52-214.35,174.81-295.63
			c99.11-102.89,276.09-101.3,406.62-77.61C4168.23,590.68,4175.12,568.96,4159.41,563.94L4159.41,563.94z"/>
	</g>
	<g>
		<path class="st3" d="M3891.19,721.96c151.4-75.9,317.65-73.37,475.96-22.45c33.53,10.79,47.81-40.13,14.84-52
			c-166.1-59.78-346.59-16.68-498.3,61.85C3875.08,713.81,3882.68,726.22,3891.19,721.96L3891.19,721.96z"/>
	</g>
	<g>
		<path class="st3" d="M4030.11,1188.39c-10.1,28.06-16.18,57.72-23.3,86.65c-8.16,33.19,43.15,40.61,47.53,6.14
			c3.72-29.28,8.69-58.92,9.29-88.46C4064.04,1172.73,4036.28,1171.24,4030.11,1188.39L4030.11,1188.39z"/>
	</g>
	<g>
		<path class="st3" d="M4218.02,1200.72c-21.71,2.96-23.8,34.92-26.25,51.87c-3.51,24.37-5.56,50.48,5.49,73.08
			c6.44,13.18,25.42,7.8,29.52-4.01c8.98-25.88,5.47-57.85,7.15-85.01C4234.59,1226.03,4235.83,1198.29,4218.02,1200.72
			L4218.02,1200.72z"/>
	</g>
	<g>
		<path class="st3" d="M3735.26,1061.63c-71.47,21.19-104.07,107.2-95.1,175.62c11.1,84.7,73.16,157.91,139.03,207.86
			c138.01,104.67,358.68,131.16,491.68,0.88c15.03-14.72-4.41-38.66-22.32-28.19c-63.33,37.01-125.72,67.07-200.36,71.1
			c-75.05,4.05-148.54-18.35-211.87-58c-113.29-70.93-235.92-243.38-92.86-349.85C3752.62,1074.23,3747.91,1057.88,3735.26,1061.63
			L3735.26,1061.63z"/>
	</g>
	<g>
		<path class="st3" d="M3884.1,2225.27c68.8,103.13,157.56,193.89,240.54,285.64c21.78,24.08,54.75,83.38,94.46,69.5
			c17.73-6.2,37.08-25.17,51.5-37.14c20.34-16.9,38.53-34.08,51.57-57.29c7.24-12.88-7.87-28.76-20.9-20.31
			c-15.2,9.85-28.21,21.11-41.89,32.88c-10.99,9.46-22.11,18.56-33.91,27.01c-4.38,3.14-22.16,12.4-17.93,13.49
			c5.35,1.38-14.22-18.29-17.26-21.62c-8.16-8.95-16.31-17.89-24.47-26.84c-17.94-19.68-35.9-39.34-54.01-58.86
			c-69-74.35-135.97-152.05-214.63-216.43C3890.56,2209.89,3878.55,2216.96,3884.1,2225.27L3884.1,2225.27z"/>
	</g>
	<g>
		<path class="st3" d="M3717.03,2184.89c-6.07,36.95-0.86,73.21-1.56,110.3c-1.1,58.8-73.22,46.15-111.72,35.75
			c-71.28-19.26-130.47-67.68-165.63-132.17c-5.24-9.62-18.32-11.79-27.39-6.82c-31.36,17.18-56.2,39.34-76.78,68.56
			c-14.65,20.8,18.92,37.58,33.51,18.8c17.54-22.58,38.3-39.95,63.36-53.64c-9.13-2.27-18.26-4.55-27.39-6.82
			c46.5,85.5,132.27,145.57,229.4,156.97c37.16,4.36,85.69,3.33,108.46-32.02c25.58-39.7,2.75-119.35-11.85-158.96
			C3727.52,2179.61,3718.14,2178.09,3717.03,2184.89L3717.03,2184.89z"/>
	</g>
	<g>
		<path class="st3" d="M4378.55,2455.22c-14.04,41.96-33.74,75.26-69.38,102.56c-13.14,10.06,3.72,28.37,16.95,21.41
			c43.25-22.72,76.91-70.82,75.62-120.97C4401.39,2444.78,4382.69,2442.82,4378.55,2455.22L4378.55,2455.22z"/>
	</g>
	<g>
		<path class="st3" d="M4439.61,2471.98c-1.57,25.78-15.4,48.72-39.16,59.72c-14.2,6.58-4.09,30.94,10.58,25.06
			c34.73-13.91,58.28-49.45,48.14-87.35C4456.25,2458.49,4440.27,2461.21,4439.61,2471.98L4439.61,2471.98z"/>
	</g>
	<g>
		<path class="st3" d="M3280.48,2185.78c-47.34,53.1-32.67,161.87,43.95,180.66c10.9,2.67,21.18-11.54,11.78-19.83
			c-44.78-39.51-72.53-93.24-43.98-152.07C3295.73,2187.32,3286.38,2179.16,3280.48,2185.78L3280.48,2185.78z"/>
	</g>
	<g>
		<path class="st1" d="M1194.91,3235.2c68.27-39.4,136.54-78.75,205.27-117.34c-8.62-8.37-17.24-16.75-25.85-25.12
			c-77.91,104.05-154.49,209.1-231.45,313.87c-14.11,19.2,16.69,40.31,32.46,24.16c115.56-118.32,232.27-235.49,350.14-351.52
			c-11.59-8.63-23.19-17.26-34.78-25.9c-100.3,146.9-200.43,293.92-300.24,441.15c-14.94,22.05,18.56,45.25,36.35,27.06
			c135.05-138.1,270.03-276.29,405.17-414.3c-12.13-9.03-24.26-18.06-36.39-27.09c-124.85,195.64-260.58,384.05-406.97,564.14
			c-19.16,23.57,10.37,52.14,33.43,32.37c186.13-159.52,356.67-336.14,509.86-527.52c-13.18-7.4-26.36-14.79-39.54-22.19
			c-10.8,56.06-53.24,100.61-86.59,144.94c-38.49,51.16-76.99,102.32-115.48,153.49c-76.99,102.32-153.96,204.65-230.87,307.02
			c-16.46,21.91,18.7,45.01,36.88,27.45c170.28-164.49,340.29-329.27,510.86-493.45c-10.81-10.47-21.62-20.94-32.43-31.41
			c-161.53,168.14-324.71,339.56-434.05,547.66c-12.66,24.09,17.35,45.22,37.08,27.6c156.46-139.71,312.92-279.41,469.38-419.12
			c-11.01-10.66-22.02-21.32-33.03-31.98c-148.27,143.81-281.63,301.98-398.6,472.21c-16.04,23.35,18.01,42.67,36.59,27.24
			c134.83-111.89,269.65-223.79,404.48-335.68c-12.23-9.1-24.45-18.2-36.68-27.3c-37.61,79.13-85.46,151.72-144.06,216.9
			c-20.11,22.37,13.16,54.16,33.06,32.01c61.18-68.07,112.04-143.59,151.33-226.29c11.6-24.42-16.39-44.15-36.68-27.3
			c-134.8,111.92-269.6,223.84-404.4,335.76c12.2,9.08,24.4,18.16,36.59,27.24c114.77-167.08,245.78-321.8,391.39-462.81
			c21.81-21.12-11.04-51.58-33.03-31.98c-156.58,139.59-313.16,279.18-469.74,418.77c12.36,9.2,24.72,18.4,37.08,27.6
			c107.8-204.86,266.93-373.21,425.72-539.13c20.48-21.4-11.46-51.68-32.43-31.41c-170.26,164.53-341.08,328.48-511.63,492.71
			c12.29,9.15,24.58,18.3,36.88,27.45c80.05-106.19,160.04-212.44,240.01-318.69c38.51-51.16,77.01-102.31,115.52-153.47
			c33.45-44.44,71.66-87.95,82.48-144.08c4-20.74-23.61-42.07-39.54-22.19c-153.24,191.36-323.9,367.77-509.82,527.55
			c11.14,10.79,22.29,21.58,33.43,32.37c148.66-183.38,286.82-374.89,413.55-574.07c14.23-22.37-18.44-45.47-36.39-27.09
			c-134.96,138.19-270.09,276.23-405.14,414.33c12.12,9.02,24.23,18.04,36.35,27.06c99.78-147.19,199.23-294.59,298.52-442.12
			c14.3-21.24-17.62-43.02-34.78-25.9c-117.07,116.8-233.09,234.66-348.04,353.55c10.82,8.05,21.64,16.11,32.46,24.16
			c76.35-105.04,153.09-209.8,228.47-315.54c11.13-15.61-10.77-34.83-25.85-25.12c-66.3,42.65-133.07,84.53-199.87,126.4
			C1166.53,3221.63,1179.83,3243.9,1194.91,3235.2L1194.91,3235.2z"/>
	</g>
	<g>
		<path class="st3" d="M1639.3,4222.72c-6.54,51.1,19.59,99.79,66.75,121.08c14.35,6.48,28.34,0.74,34.06-13.87
			c26.28-67.2,67.45-216.4-16.09-262.42c-9.29-5.12-24.89,3.72-20.33,15.32c15.45,39.28,33.3,67.43,28.37,111.98
			c-4.7,42.47-21.69,83.7-36.63,123.4c11.35-4.62,22.7-9.25,34.06-13.88c-34.76-15.16-57.69-42.81-59.77-81.58
			C1668.66,4203.07,1641.69,4204.06,1639.3,4222.72L1639.3,4222.72z"/>
	</g>
	<g>
		<path class="st3" d="M1545.44,4206.25c86.42-11.55,183.25-25.22,264.87-56.72c29.65-11.45,18.7-50.39-12.37-46.15
			c-43.91,6-88.33,21.96-130.69,34.85c-43.47,13.23-86.09,26.81-128.43,43.29C1522.93,4187.69,1528.79,4208.47,1545.44,4206.25
			L1545.44,4206.25z"/>
	</g>
	<g>
		<path class="st3" d="M1484.26,4095.86c86.87-9.94,174.15-19.65,259.32-40.21c32.42-7.83,19.14-54.89-13.02-48.58
			c-84.66,16.6-166.76,43.75-248.57,70.57C1472.55,4080.74,1473.04,4097.14,1484.26,4095.86L1484.26,4095.86z"/>
	</g>
	<g>
		<path class="st3" d="M1499.56,3994.45c27.32-4.62,53.88-9.93,81.78-9.4c28.16,0.53,53.19,8.19,80.57,12.92
			c22.62,3.91,42.93-29.66,17.5-40.56c-57.44-24.61-136.22-18.76-190.43,11.98C1474.42,3977.65,1484.71,3996.97,1499.56,3994.45
			L1499.56,3994.45z"/>
	</g>
	<g>
		<path class="st3" d="M1472.5,3880.19c-168.37-45.46-244.4-205.84-278.73-363.31c-16.97-77.82-35.01-160.72-27.22-240.8
			c8-82.16,54.28-140.58,129.58-173c65.79-28.33,138.79-36,208.88-47.16c58.85-9.37,99.8-17.17,148.52,23.96
			c84.36,71.22,130.11,185.95,173.89,284.39c18.13,40.77,36.78,83.03,41.45,127.93c5.16,49.61-12.83,90.27-41.78,129.28
			c-61.81,83.27-141.27,148.13-208.34,226.13c-15.56,18.1,4.42,47.14,26.56,33.55c86.2-52.94,157.35-139.26,218.79-218.54
			c26.36-34.02,49.84-69.71,57.82-112.72c9.6-51.75-2.42-104.81-20.74-153.24c-45.33-119.84-104.24-259.07-199.64-347.49
			c-44.57-41.31-97.48-64.43-158.61-54.1c-80.97,13.68-165.74,24.25-242.81,53.68c-75.86,28.96-142.45,77.78-169.23,157.19
			c-28.07,83.22-12.29,175.71,3.33,259.7c33.84,182.01,118.22,418.88,334.78,438.42C1483.04,3905.33,1485.83,3883.79,1472.5,3880.19
			L1472.5,3880.19z"/>
	</g>
	<g>
		<path class="st3" d="M1530.76,4006.33c-41.3,94.48,101.88,146.08,98,234.72c-0.82,18.73,29.7,22.89,33.29,4.3
			c8.48-43.79-11.92-76.22-39.53-108.56c-30.11-35.27-79.47-70.37-71.68-122.36C1552.49,4003.38,1536.12,3994.07,1530.76,4006.33
			L1530.76,4006.33z"/>
	</g>
	<g>
		<path class="st3" d="M1504.52,3798.11c5.05-148.53-21.41-295.42-71.07-435.23c-6.53-18.39-31.68-18.48-38.16,0.13
			c-10.87,31.25-21.65,62.54-32.82,93.68c-7.33,20.44-18.93,43.5-15,65.88c7.94,45.27,61.03,40.81,95.9,37.11
			c87.76-9.31,183.7-56.57,213.69-145.51c23.89-70.86-1.53-162.68-68.07-201.56c-25.13-14.69-76.01-30.44-93.86,3.59
			c-9.64,18.39,0.15,39.11,6.15,56.9c11.15,33.09,20.96,66.65,29.93,100.39c18.55,69.78,33.08,140.62,43.5,212.07
			c11.05,75.77,11.75,152.94,24.51,228.34c3.76,22.21,35.22,14.29,37.28-4.89c11.61-108.07-12.08-226.11-34.18-331.71
			c-11.92-56.98-26.48-113.4-43.65-169.02c-2.04-6.6-26.14-67.24-24.98-68.74c7.14-9.28,45.95,21.05,50.82,26.03
			c62.78,64.22,35.37,164.58-33.11,211.02c-37.56,25.47-83.68,38.19-128.7,40.37c-43.41,2.1-26.95-27.99-17.87-56.47
			c9.31-29.23,19-58.34,28.56-87.49c-12.72,0.04-25.44,0.09-38.16,0.13c51.32,136.71,78.3,279.41,87.32,424.97
			C1483.38,3811.93,1504.04,3812.04,1504.52,3798.11L1504.52,3798.11z"/>
	</g>
	<g>
		<path class="st3" d="M1235.37,3984.83c-20.05,8.56-39.17,19.81-58.27,30.29c-16.96,9.31-39.55,16.62-48.53,34.66
			c-6.24,12.54,1.3,27.34,16,27.56c21.49,0.32,39.71-17.24,56.97-28.71c18.35-12.19,37.11-24.15,54.17-38.1
			C1271.87,3997.3,1251.01,3978.14,1235.37,3984.83L1235.37,3984.83z"/>
	</g>
	<g>
		<path class="st3" d="M746.59,3745.18c71.93,18.37,173.34-36.46,215.46-92.87c14.65-19.63-14.35-45.98-33.5-32.56
			c-29.96,20.99-55.59,45.84-87.93,63.7c-30.93,17.08-66.54,26.1-96.21,44.79C737.71,3732.46,738.47,3743.1,746.59,3745.18
			L746.59,3745.18z"/>
	</g>
	<g>
		<path class="st3" d="M757.74,3259.14c59.48,9.82,122.87,13.29,183.06,10.62c29.53-1.31,30.56-44.02,0.61-45.35
			c-60.31-2.68-123.89,0.86-183.46,10.64C745.82,3237.04,745.44,3257.11,757.74,3259.14L757.74,3259.14z"/>
	</g>
	<g>
		<path class="st3" d="M997.09,2754.73c14.84,53.16,35.79,105.95,60.28,155.38c24.06,48.53,46.71,103.82,84.65,143.27
			c14.23,14.8,40.65-0.6,35.27-20.2c-13.95-50.78-46.26-97.17-70.11-143.8c-25.35-49.56-51.91-99.25-81.14-146.65
			C1017.02,2728.12,992.28,2737.52,997.09,2754.73L997.09,2754.73z"/>
	</g>
	<g>
		<path class="st3" d="M1491.9,2726.62c-21.42,75.61-32.76,166.86-20.48,244.9c3.91,24.83,40.63,16.67,42.34-5.56
			c3.01-39-0.48-79.08,0.18-118.27c0.67-39.27,3.71-78.4,4.35-117.66C1518.55,2714.86,1495.95,2712.32,1491.9,2726.62
			L1491.9,2726.62z"/>
	</g>
	<g>
		<path class="st3" d="M1669.24,3192.76c58.71-27.85,112.21-68.59,165.88-104.89c45.68-30.89,110.75-60.92,142.22-106.89
			c9.84-14.37-6.51-32.7-22.06-28.23c-52.45,15.09-103.84,68.84-146.7,101.6c-51.21,39.15-106.6,76.6-151.35,123.24
			C1649.1,3186.07,1659.41,3197.42,1669.24,3192.76L1669.24,3192.76z"/>
	</g>
	<g>
		<path class="st3" d="M1967.28,3347.64c63.79-20.49,126.88-44.17,188.73-69.98c28.02-11.69,3.94-53.48-24.03-40.35
			c-58.85,27.63-116.89,57.78-173.17,90.28C1948.06,3333.8,1955.04,3351.57,1967.28,3347.64L1967.28,3347.64z"/>
	</g>
	<g>
		<path class="st3" d="M1775.19,3691.92c29.53-9.1,55.69,11.79,78.29,27.35c25.97,17.88,52.04,35.47,78.68,52.35
			c50.62,32.07,101.02,68.47,155.65,93.36c25.04,11.4,59.49-22.13,33.05-42.27c-64.41-49.09-140.72-87.48-212.37-124.97
			c-40.21-21.04-106.35-66.99-143.08-18.34C1760.73,3685.58,1768.49,3693.99,1775.19,3691.92L1775.19,3691.92z"/>
	</g>
	<g>
		<path class="st3" d="M2956.29,3849.57c-74.95-139.06-201.78-241.43-258.32-392.01c-51.7-137.68-45.99-311.27,70.84-415.22
			c106.66-94.91,266.29-90.1,397.24-61.42c35.04,7.67,73.91,14.89,105.01,33.49c36.15,21.62,51.05,63.27,63.22,101.33
			c22.88,71.54,36,145.97,38.8,221.03c3.11,83.39-5.45,166.88-26.15,247.74c-21.55,84.2-61.46,158.27-93.75,238.16
			c-9.27,22.93,26.25,41.19,41.4,23.23c53.85-63.84,84.86-148.29,106.92-228.04c22.48-81.24,33.87-166.06,33.48-250.35
			c-0.4-86.32-12.89-173.24-38.09-255.84c-25.15-82.41-61.62-143.15-147.51-169.43c-141.48-43.29-315.58-56.74-449.77,15.9
			c-138.58,75.01-199.47,237.04-179.73,388.48c12.98,99.54,58.73,193.37,117.55,273.75c61.8,84.45,140.46,154.63,203.28,238.24
			C2947.36,3867.46,2961.85,3859.88,2956.29,3849.57L2956.29,3849.57z"/>
	</g>
	<g>
		<path class="st3" d="M2969.91,3912.91c60.05,34.11,144.16,50.18,208.1,17.25c21.38-11.01,11.6-44.85-11.87-44.29
			c-32.1,0.76-63.51,9.04-95.71,10.48c-32.04,1.43-63.19,0.71-95.06-2.7C2964.7,3892.5,2961.28,3908,2969.91,3912.91
			L2969.91,3912.91z"/>
	</g>
	<g>
		<path class="st3" d="M3004.96,4030.64c44.97,10.92,121.1,13.04,156.67-21.77c14.24-13.93,4.39-42.55-17.03-40.86
			c-22.59,1.79-41.47,14-63.22,20.06c-23.37,6.51-47.49,8.86-71.65,10.14C2991.63,3999.17,2985.51,4025.92,3004.96,4030.64
			L3004.96,4030.64z"/>
	</g>
	<g>
		<path class="st3" d="M3019.47,3911.04c-38.08,111.63-15.98,238.73,30.87,343.96c6.12,13.74,28.59,14.89,37.84,4.41
			c43.96-49.8,62.44-111.17,77.12-174.74c7.52-32.56,14.18-65.51,24.38-97.38c10.46-32.68,30.06-60.14,41.66-92.01
			c6.34-17.42-16.53-33.18-31.34-23.42c-50.26,33.15-65.67,108.05-77.46,163.14c-14.15,66.11-23.5,137.88-68.38,191.48
			c12.61,1.47,25.23,2.94,37.84,4.41c-51.58-101.51-59.5-205.81-55.32-317.62C3037.07,3903.05,3022.5,3902.16,3019.47,3911.04
			L3019.47,3911.04z"/>
	</g>
	<g>
		<path class="st3" d="M3017.66,3835.93c-31.88-82.76-54.77-161.21-61.1-250.33c-5.78-81.34-3.14-162.76,0.35-244.15
			c2.14-49.91,14.91-147.98-61.13-150.27c-58.29-1.75-109.35,75.18-111.12,127.63c-2.43,71.92,84.49,96.95,140.21,110.33
			c78.21,18.77,162.33,18.52,240.08-2.52c27.11-7.34,56.57-19.16,66.73-47.97c9.62-27.26-3.96-57.4-26.12-73.92
			c-43.93-32.75-110.06-11.18-140.02,30.62c-49.72,69.37-20.89,174.91-12.37,252.2c11.77,106.7,19.92,214.67,37.37,320.62
			c4.09,24.86,46.31,19.09,44.88-5.89c-7.16-124.61-25.82-249.2-39.63-373.23c-5.41-48.58-22.42-118.66,7.22-162.58
			c11.92-17.66,36-32.01,57.94-27.52c20.68,4.23,17.9,25.22,4.38,35.34c-10.26,7.68-32.75,9.19-45.16,11.57
			c-57.69,11.06-118.1,10.12-175.47-2.37c-27.3-5.95-57.15-13.35-81.89-26.77c-34.68-18.81-32.43-47.28-13.79-78.64
			c14.2-23.88,54.04-61.31,63.96-14.89c5.27,24.66,0.66,53.18,0.04,78.2c-1.38,55.86-1.98,111.71,0.82,167.54
			c5.59,111.8,23.65,239.29,90.96,332.32C3008.94,3847,3020.67,3843.76,3017.66,3835.93L3017.66,3835.93z"/>
	</g>
	<g>
		<path class="st3" d="M2795.77,3807.41c-46.88-2.13-90.46,3.24-134.97,18.49c-39.68,13.59-87.06,31.83-115.06,63.99
			c-18.18,20.88,4.5,46.03,28.25,35.69c37.33-16.26,69.22-43.19,107.52-58.86c37.46-15.33,77.64-26.81,117.33-34.57
			C2813.53,3829.28,2809.76,3808.04,2795.77,3807.41L2795.77,3807.41z"/>
	</g>
	<g>
		<path class="st3" d="M2334.05,3570.75c45.06,3.86,90.89,2.2,136.16,5.29c41.84,2.86,86.73,13.79,128.17,7.73
			c19.13-2.8,24.42-34.74,5.96-42.41c-40.68-16.89-90.09-13.61-133.51-11.6c-45.58,2.11-95.83,6.56-139.31,20.75
			C2320.04,3554.25,2322.2,3569.73,2334.05,3570.75L2334.05,3570.75z"/>
	</g>
	<g>
		<path class="st3" d="M2262.25,3044.32c52.36,91.18,194.21,55.1,278.67,61.37c35,2.6,43.85-53.05,8.91-60.57
			c-91.92-19.78-185.74,42.95-269.62-18.51C2269.43,3018.71,2256.23,3033.83,2262.25,3044.32L2262.25,3044.32z"/>
	</g>
	<g>
		<path class="st3" d="M2517.46,2882.22c20.49,14.59,41.7,27.87,62.98,41.32c12.46,7.87,29.67,0.82,35.17-11.96
			c6.25-14.54-2.32-27.33-15.95-32.59c-23.17-8.94-46.17-17.93-69.78-25.56C2511.73,2847.57,2503.52,2872.29,2517.46,2882.22
			L2517.46,2882.22z"/>
	</g>
	<g>
		<path class="st3" d="M3486.69,3121.4c28.89-30.85,56.83-61.28,89.91-87.91c29.52-23.77,74.75-40.5,95.49-72.33
			c9.27-14.22-2.84-33.89-19.38-33.38c-40.37,1.26-79.89,40.55-107.27,67.57c-31.9,31.48-61.12,69.63-79.32,110.74
			C3460.51,3118.77,3475.9,3132.92,3486.69,3121.4L3486.69,3121.4z"/>
	</g>
	<g>
		<path class="st3" d="M3354.61,3401.38c66.35,16.35,131.9,29.01,200.36,34.23c33.09,2.52,66.44,3.12,99.62,3.1
			c33.3-0.02,68.3,3.83,98.31-12.09c20.23-10.73,13.64-38.63-5.84-45.16c-29.09-9.75-61.46-1.09-91.71,1.01
			c-33.22,2.31-66.43,3.18-99.71,3.97c-65.9,1.56-132.98,2.29-198.71-0.82C3347.77,3385.19,3345.59,3399.16,3354.61,3401.38
			L3354.61,3401.38z"/>
	</g>
	<g>
		<path class="st3" d="M3432.37,3737.9c45.96,17.66,93.6,31.31,139.98,47.92c45.37,16.24,90.93,43.51,137.97,53.15
			c30.67,6.28,47.1-31.55,21.3-49.39c-40.29-27.86-98.31-40.1-145-53.79c-48.57-14.24-98.86-26.63-149.38-30.99
			C3416.61,3703.02,3415.49,3731.42,3432.37,3737.9L3432.37,3737.9z"/>
	</g>
	<g>
		<path class="st3" d="M3476.6,3965.82c38.5,17.03,73.41,36.81,98.7,71.47c17.52,24.01,53.86-3.69,32.94-25.15
			c-33.68-34.53-77.09-61.76-125.58-67.72C3471.43,3943.03,3466.13,3961.19,3476.6,3965.82L3476.6,3965.82z"/>
	</g>
	<g>
		<path class="st3" d="M4400.04,3733c-55.56-140.53-119.82-278.73-165.32-423.02c-11.03-34.96-20.92-70.3-29.23-106
			c-4.16-17.86-7.97-35.82-11.34-53.85c-3.9-20.91-13.59-49.27-10.02-70.35c5.42-32.04,60.64-55.09,86.26-69.68
			c32.05-18.24,65.36-34.65,99.87-47.68c129.41-48.88,275.7-52.63,394.47,25.76c121.83,80.41,153.02,237.99,143.8,375.7
			c-10.73,160.34-145.28,258.35-260.58,350.24c-24.23,19.31,8.03,59.66,33.2,41.94c118.07-83.18,247.68-189.33,277.16-338.86
			c16.18-82.04,6.11-171.53-12.11-252.54c-16.56-73.66-51.78-140.04-109.05-190.04c-111.32-97.18-265.34-119.96-405.96-85.63
			c-82.57,20.16-160.78,58.17-231.58,104.69c-26.5,17.42-57.07,35.3-64.83,68.49c-8.35,35.71,5.78,79.72,13.26,114.52
			c43.22,200.87,133.77,386.63,237.41,562.35C4389.75,3746.32,4403.37,3741.43,4400.04,3733L4400.04,3733z"/>
	</g>
	<g>
		<path class="st3" d="M4362.87,3818.9c34.35,6.81,69.1,9.49,103.99,12.02c10.76,0.78,108.3,9.66,107.08,0.5
			c2.19-7.91,4.37-15.82,6.56-23.73c-1.16,1.43-2.32,2.86-3.49,4.29c7.63-2.05,15.27-4.09,22.9-6.14c-1.39-0.33-2.78-0.66-4.17-0.98
			c-21.72-5.13-36.24,20.03-21.61,36.39c0.95,1.06,1.9,2.13,2.85,3.19c5.25,5.87,15.18,7.9,22.52,5.71
			c10.88-3.24,17.83-7.35,22.61-17.8c4.45-9.72,5.59-24.05-4.14-31.62c-30.62-23.79-77.69-12.88-114.42-12.18
			c-46.93,0.9-94.01,1.28-140.5,8.23C4351.68,3798.5,4351.87,3816.72,4362.87,3818.9L4362.87,3818.9z"/>
	</g>
	<g>
		<path class="st3" d="M4435.15,3882.45c-6.19-8.62-17.42-9.74-24.85-1.06c-12.25,14.3,3.27,30.91,14.53,39.21
			c42.25,31.18,136.69,38,166.32-14.4c7.29-12.9-1.64-34.06-18.58-32.01c-24.14,2.93-43.71,17.16-67.73,21.44
			c-14.74,2.63-29.69,2.88-44.51,0.92c-6.86-0.9-31.99-3-35.65-6.1C4429.88,3894.88,4439.8,3888.93,4435.15,3882.45L4435.15,3882.45
			z"/>
	</g>
	<g>
		<path class="st3" d="M4427.25,3800.75c-42.41,68.72-64.61,150.93-70.68,231.08c-4.63,61.1-7.93,160.89,68.27,180.03
			c77.51,19.47,90.16-74.95,101.05-127.33c9.85-47.38,19.71-94.76,29.56-142.14c9.56-45.98,24.83-94,26.51-140.98
			c0.91-25.32-33.49-25.89-41.56-5.37c-24.03,61.09-30.66,133.97-44.18,198.27c-5.98,28.41-11.95,56.82-17.93,85.24
			c-3.91,18.61-8.31,89.75-40.56,87.09c-53.62-4.43-37.71-139.77-34.75-173.71c5.57-63.77,24.02-123.74,44.55-183.98
			C4451.71,3796.71,4433.55,3790.55,4427.25,3800.75L4427.25,3800.75z"/>
	</g>
	<g>
		<path class="st3" d="M4409.87,3759.83c5.95-47.25,2.41-95.95,5.02-143.56c2.9-52.77,8.21-105.55,14.51-158.01
			c11.54-95.98,26.7-191.53,36.61-287.7c3.6-34.99,17.45-86.7,2.48-120.2c-13.99-31.33-49.8-30.3-76.7-17.84
			c-55.49,25.7-123.07,83.86-95.73,152.39c13.23,33.16,43.5,42.22,72.92,57.06c36.24,18.27,66.97,44.62,97.23,71.28
			c48.07,42.35,109.56,104.96,177.63,109.86c66.41,4.78,94.93-80.97,95.38-135.18c0.53-64.53-57.9-101.89-116.68-77.43
			c-85.85,35.73-73.17,133.35-65.73,208.9c5.15,52.34,6.72,104.99,4.69,157.54c-2.21,57.36-12.65,113.7-16.16,170.81
			c-1.59,25.9,36.87,28.68,44.09,5.7c37.74-120.2,25.72-255.8,13.88-378.94c-2.81-29.24-5.94-63.55,8.48-90.39
			c11.25-20.94,42.41-43.04,64.71-25.45c21.3,16.8,9.58,52.06,2.44,73.84c-5.89,17.97-7.89,30.16-26.1,35.92
			c-18.85,5.97-34.47-4.12-51.23-13.45c-45.08-25.11-81.64-62.32-120.7-95.44c-18.45-15.65-37.57-30.86-57.91-44.01
			c-20.83-13.46-46.57-20.12-66.56-34.12c-37.49-26.24-1.26-67.87,24.75-86.08c5.65-3.96,34.78-25.59,39.41-22.38
			c9.15,6.36,0.98,45.91,0.3,54.35c-5.27,64.95-13.32,129.66-21.2,194.34c-9.01,74-18.01,148.25-21.15,222.79
			c-2.94,69.65-6.72,150.62,16.15,217.41C4397.57,3770.25,4408.82,3768.2,4409.87,3759.83L4409.87,3759.83z"/>
	</g>
	<g>
		<path class="st3" d="M5808.67,3785.22c-1.06,0.83-2.11,1.67-3.17,2.5c-1.57,1.24-2.37,4.19-1.67,6.05
			c3.94,10.46,14.35,18.22,25.57,11.06c17.69-11.29,3.71-32.08-5.27-43.09c-25.34-31.1-56.74-57.92-82.67-88.86
			c-27.46-32.78-53.21-66.88-76.68-102.64c-45.52-69.34-83.94-142.8-113.09-220.51c-28.68-76.45-68.48-178.09-50.99-260.37
			c16.03-75.43,92.3-117.11,159.17-140.63c82.13-28.89,170.24-45.2,257.45-40.14c154.16,8.94,321.67,111.22,335.55,278.61
			c8.22,99.21-29.95,209.58-62.15,302.2c-33.98,97.73-85.38,186.62-123.21,282.3c-7.06,17.85,20.4,32.12,32.22,18.08
			c59.66-70.78,97.99-162.48,130.78-248.31c32.97-86.31,59.43-177.4,72.97-268.92c23.75-160.56-61.73-305.65-207.74-374.56
			c-154.28-72.82-350.06-50.29-501.39,20.11c-64.52,30.01-125.45,79.35-143.82,151.02c-21.52,83.95,11.34,180.69,39.13,259.7
			c31.55,89.66,75.1,175.87,129.48,253.86c25.29,36.27,52.9,71.22,82.44,104.12c16.21,18.05,33.28,35.32,50.84,52.05
			c5.16,4.91,64.1,53.03,64.46,50.98C5817.73,3784.79,5812.52,3782.19,5808.67,3785.22L5808.67,3785.22z"/>
	</g>
	<g>
		<path class="st3" d="M5852.18,3780.53c-8.4-103.88-21.2-206.48-36.78-309.59c-7.32-48.42-14.69-96.83-22.43-145.19
			c-8.08-50.56-12.11-104.34-24.95-153.87c-6.92-26.71-22.61-54.27-53.51-55.75c-33.29-1.59-59.7,30.67-72.73,57.63
			c-27.77,57.44-14.27,130.23,26.85,177.74c51.08,59.03,134.67,79.19,209.87,71.38c41.74-4.33,82.03-16.09,121-31.34
			c29.37-11.49,82.72-24.68,95.82-56.77c12.73-31.17-10.43-76.6-27.41-101.92c-20.75-30.94-49.61-56.8-83.42-72.67
			c-24.12-11.32-53.34-19.04-76.33-1.32c-28.19,21.72-25.38,66.52-28.05,98.03c-9.71,114.79-10.87,230.3-3.49,345.26
			c3.66,57.07,8.65,114.47,17.8,170.97c5.69,35.09,18.57,65.99,57.48,69.18c24.19,1.98,29.95-36.16,6.13-41.66
			c-23.36-5.39-21.88-79.42-23.86-98.02c-3.56-33.41-6.43-66.89-8.56-100.42c-4.25-67.06-5.61-134.32-4.04-201.49
			c0.73-31.19,2.09-62.37,4.07-93.51c1.07-16.77,2.3-33.52,3.73-50.26c0.96-11.2-1.36-46.15,6.15-54.31
			c16-17.41,57.99,19.86,68.7,30.29c16.62,16.19,43.7,48.71,43,73.92c-0.63,22.71-60.08,38.12-78.89,44.85
			c-30.96,11.09-62.94,19.93-95.75,23.12c-55.4,5.37-116.05-6.99-157.43-46.26c-37.1-35.21-52.91-98.51-24.06-143.69
			c24.95-39.07,33.13,17.44,36.59,37.42c6.25,36.13,12.51,72.25,18.76,108.37c26.25,151.66,53.68,302.59,91.7,451.72
			C5840.04,3789.84,5852.83,3788.53,5852.18,3780.53L5852.18,3780.53z"/>
	</g>
	<g>
		<path class="st3" d="M5748.85,3862.71c83.04,40.15,225.96,48.79,298.17-18.72c17.33-16.21-1.11-40.94-21.66-36.76
			c-42.33,8.62-80.45,29.54-123.76,36.58c-48.47,7.88-94.78,4.11-142.95-3.8C5745.88,3837.92,5734.87,3855.95,5748.85,3862.71
			L5748.85,3862.71z"/>
	</g>
	<g>
		<path class="st3" d="M5782.25,3963.34c58.11,66.39,227.96,74.27,260.92-23.66c6.77-20.12-18.53-37.71-35.79-26.74
			c-33.13,21.03-53.74,49.92-93.89,60.75c-43.63,11.77-83.49-0.96-120.88-23.59C5784.13,3944.96,5776.11,3956.32,5782.25,3963.34
			L5782.25,3963.34z"/>
	</g>
	<g>
		<path class="st3" d="M5781.69,4117.65c27.59,14.06,52.79,29.34,79.62,44.78c24.37,14.02,51.48,20.8,79.26,13.67
			c52.49-13.47,99.61-85.91,96.64-138.85c-1.58-28.27-34.66-33.94-50.34-13.11c-27.99,37.18-32.99,112.32-97.02,96.39
			c-34.31-8.54-76.58-42.92-109.65-14.19C5776.73,4109.35,5777.67,4115.6,5781.69,4117.65L5781.69,4117.65z"/>
	</g>
	<g>
		<path class="st3" d="M5875.15,3871.63c-47.69,9.7-48.56,70.97-51.31,109.31c-5.51,76.53-11.44,159.96-1.25,236.32
			c5.69,42.58,32.56,88.3,82.55,78.23c48.91-9.85,100.65-74.17,100.63-123.39c0-14.23-19.36-23.12-29.35-11.78
			c-22.08,25.09-35.86,66.64-68.85,80.63c-45.36,19.23-37.8-72.83-38.82-96.48c-1.91-44.58-3.38-89.18-5.23-133.76
			c-1.28-30.7-18.35-108.72,17.35-125.5C5889.04,3881.37,5883.08,3870.02,5875.15,3871.63L5875.15,3871.63z"/>
	</g>
	<g>
		<path class="st3" d="M7110.57,3736.92c-43.78-64.77-91.39-126.11-138.69-188.31c-47.7-62.71-95.49-128.27-119.86-204.09
			c-23.75-73.89-25.59-152.9,14.5-221.51c35.52-60.81,91.4-110.61,151.36-146.65c112.91-67.87,258.33-92.49,377.62-26.06
			c60.66,33.78,125.79,90.96,154.2,155.73c30.88,70.4,13.05,150.37-15.71,218.26c-61.42,145-200.27,271.42-193.3,439.42
			c1.43,34.37,49.78,32.98,53.34,0.05c19.01-175.57,158.42-297.16,211.21-460.36c23.91-73.9,28.38-154.78-5.54-226.32
			c-33.06-69.75-99.89-128.78-165.04-168.06c-127.55-76.9-286.11-62.08-414.43,4.82c-132.85,69.27-250.98,197.64-234.82,356.6
			c9.36,92.03,55.18,173.33,110.41,245.67c61.86,81.03,131.08,157.51,202.23,230.36
			C7104.07,3752.64,7115.65,3744.44,7110.57,3736.92L7110.57,3736.92z"/>
	</g>
	<g>
		<path class="st3" d="M7108.99,3741.22c11.6-95.45-4.21-196.19-19.59-290.44c-9.69-59.36-15.54-165.28-95.02-171.78
			c-67.27-5.49-83.01,70.72-44.27,114.5c52.52,59.35,136.96,39.8,200.82,13.44c113.62-46.9,261.85-163.4,242.14-303.75
			c-8.9-63.36-67.15-100.26-127.44-74.85c-69.83,29.43-82.1,106.23-82.89,173.86c-1.31,112.39-0.9,224.93-0.68,337.33
			c0.16,84.17,2.84,178.11,68.79,239.09c16.46,15.22,47.28-5.06,33.31-25.43c-63.99-93.29-49.43-216.95-50.64-324.24
			c-0.72-63.92-1.61-127.84-2.1-191.76c-0.42-53.94-8.71-144.46,55.36-167.52c63.16-22.73,65.76,59.87,53.12,98.8
			c-16.44,50.64-51.22,94.22-91.28,128.37c-39.65,33.8-86.91,59.93-135.89,77.46c-27.87,9.98-60,19.61-89.75,12.41
			c-12.27-2.97-25.05-8.74-34.35-17.46c-4.56-4.27-16.16-16.84-15.09-22.96c2.82-16.09,21.57-27.44,34.81-17
			c24.51,19.34,27.95,69.2,33.55,97.18c6.57,32.79,12.42,65.72,17.56,98.76c11.24,72.35,16.5,146.76,32.75,218.16
			C7094.45,3753.33,7107.93,3749.94,7108.99,3741.22L7108.99,3741.22z"/>
	</g>
	<g>
		<path class="st3" d="M7104.72,3826.96c-10.79-14.03-24.74-17.56-40.14-7.55c-5.37,3.49-9.06,10.17-7.07,16.68
			c17.5,57.04,77.21,87.36,133.04,94.91c63.44,8.57,155.19-9.25,203.79-52.82c14.07-12.62,2.97-36.69-15.17-36.38
			c-55.52,0.94-106.23,34.1-163.06,35.97c-54.15,1.78-95.8-18.11-133.21-56.21c0.78,5.98,1.57,11.97,2.35,17.95
			c3.18-0.91,6.35-1.82,9.53-2.73C7100.42,3839.62,7109.46,3833.12,7104.72,3826.96L7104.72,3826.96z"/>
	</g>
	<g>
		<path class="st3" d="M7069.96,3982.44c44.75,50.66,116.86,91.85,186,88.89c52.76-2.25,122.96-32.49,134-90.23
			c5.89-30.79-30.9-43.1-48.69-19.65c-29.15,38.43-61.22,59.91-112.05,55.37c-54.01-4.83-98.65-34.95-148.63-52.29
			C7069.74,3960.77,7063.33,3974.94,7069.96,3982.44L7069.96,3982.44z"/>
	</g>
	<g>
		<path class="st3" d="M7181.18,3900.58c2.33-13.38-7.31-22.03-20.91-18.5c-31.27,8.11-37.32,87.05-41.41,111.83
			c-10.48,63.55-25.08,186.27,42.43,227.32c77.76,47.28,136.86-57.23,157.08-116.29c27.5-80.37,31.15-189.53-14.16-264.43
			c-11.69-19.33-42.6-6.54-37.31,15.47c13.09,54.44,27.35,103.17,21.71,160.21c-5.02,50.77-21.85,113.22-58.39,150.65
			c-57.98,59.4-74.13-49.21-76.76-86.25c-1.94-27.39-1.96-54.84-0.15-82.24c2.15-32.49,15.04-67.51,14.33-99.53
			C7167.79,3906.23,7179.82,3908.39,7181.18,3900.58L7181.18,3900.58z"/>
	</g>
	<g>
		<path class="st3" d="M3232.92,2390.76c-148.43,35.42-214.59,200.48-235.56,336.42c-3.84,24.9,29.62,33.94,38.3,10.05
			c45.79-126.16,71.84-265.04,204.06-330.38C3249.09,2402.21,3242.46,2388.48,3232.92,2390.76L3232.92,2390.76z"/>
	</g>
	<g>
		<path class="st3" d="M2931.53,2821.53c17.31-76.47-14.61-164.01-87.11-200.03c-18.03-8.96-40.52,14.72-23.27,29.75
			c51.59,44.96,87.45,97.86,91.55,167.85C2913.3,2829.32,2929.06,2832.43,2931.53,2821.53L2931.53,2821.53z"/>
	</g>
	<g>
		<path class="st3" d="M3087.89,2841.78c10.86-76.34,57.62-151.15,130.89-180.86c18.94-7.68,12.76-36.13-8.28-30.92
			c-94.03,23.31-162.55,116.61-136.18,213.56C3076.47,2851.52,3086.88,2848.88,3087.89,2841.78L3087.89,2841.78z"/>
	</g>
</g>
</svg>
