<?xml version="1.0" encoding="utf-8"?>
<!-- Generator: Adobe Illustrator 25.4.1, SVG Export Plug-In . SVG Version: 6.00 Build 0)  -->
<svg version="1.1" id="Ebene_2" xmlns="http://www.w3.org/2000/svg" xmlns:xlink="http://www.w3.org/1999/xlink" x="0px" y="0px"
	 viewBox="0 0 9954.54 5000" style="enable-background:new 0 0 9954.54 5000;" xml:space="preserve">
<style type="text/css">
	.st0{fill:#FFFFFF;}
	.st1{fill:#146ece;}
	.st2{fill:#EDEDED;}
	.st3{fill:#DADADA;}
	.st4{fill:#3C3C3B;}
</style>
<polyline class="st0" points="9954.54,5000 0,5000 0,0 9954.54,0 9954.54,5000 "/>
<g>
	<g>
		<path class="st1" d="M4925.55,1428.93c32.24-42.51,70.4-79.45,114.58-109.44c-8.25-8.02-16.5-16.03-24.74-24.05
			c-32.41,59.61-55.71,121.62-69.04,188.22c-3.35,16.75,17.44,31.02,30.36,17.04c58.48-63.27,116.99-126.44,174.51-190.59
			c-8.21-4.61-16.42-9.22-24.64-13.82c-44.46,127.95-150.79,234.23-149.59,376.24c0.14,16.34,23.3,22.88,31.39,8.17
			c45.87-83.4,92.99-166.15,141.79-247.87c23.77-39.82,47.9-79.43,72.5-118.74c24.26-38.78,47.9-78.34,91.44-97.41
			c-7.68-7.46-15.35-14.92-23.03-22.38c-102.1,167.36-185.96,344.92-248.76,530.68c-6.05,17.88,19.7,31.87,31.93,17.92
			c43.63-49.75,91.37-95.08,142.84-136.64c-10.77-6.04-21.54-12.09-32.31-18.13c-19.53,65.83-39.49,131.53-59.9,197.1
			c-6.8,21.84,23.6,31.04,35.18,14.19c39.25-57.11,78.62-114.13,117.9-171.22c-11.78-4.75-23.56-9.51-35.33-14.26
			c-18.64,86.31-35.44,172.96-50.4,259.99c-3.47,20.17,24.56,34.66,35.33,14.26c44.55-84.37,90.09-169.23,157.54-237.85
			c-10.53-4.23-21.06-8.45-31.59-12.68c-5.69,73.15-11.34,146.31-17.06,219.46c-1.75,22.37,30.27,23.16,37.04,4.78
			c76.74-208.35,173.62-408,268.97-608.25c-12.39-5-24.79-10-37.18-15.01c-71.35,178.3-124.54,363.23-158.14,552.32
			c-4.53,25.51,28.9,33.1,38.43,10.08c58.48-141.35,121.28-280.98,189.48-417.92c-12.35-3.22-24.7-6.43-37.04-9.65
			c-0.84,114.33-81.49,211.57-62.66,328.33c2.46,15.27,26.24,20.84,35.78,9.09c12.69-15.62,25.38-31.24,38.06-46.86
			c16.79-20.67-12.42-49.13-29.57-28.63c-12.9,15.42-25.8,30.83-38.7,46.25c11.93,3.03,23.85,6.06,35.78,9.08
			c-15.99-109.42,62.61-207.78,61.07-317.21c-0.26-18.67-28.14-27.81-37.04-9.65c-68.86,140.42-133.82,282.55-193.59,427.09
			c12.81,3.36,25.62,6.72,38.43,10.08c33.41-189.37,86.34-374.04,158.93-552.11c8.66-21.25-27.39-35.26-37.18-15.01
			c-98.01,202.54-193.25,406.8-270.16,618.44c12.35,1.59,24.69,3.19,37.04,4.79c5.41-73.15,10.89-146.3,16.34-219.46
			c1.23-16.52-20.94-23.26-31.59-12.68c-70.89,70.41-118.52,156.84-164.78,244.44c11.78,4.75,23.55,9.51,35.33,14.26
			c14.96-87.02,31.76-173.68,50.4-259.99c4.71-21.8-23.12-32.01-35.33-14.26c-39.27,57.08-78.46,114.23-117.75,171.3
			c11.73,4.73,23.45,9.46,35.18,14.19c20.46-65.55,40.49-131.23,60.07-197.05c5.97-20.06-18.63-29.3-32.31-18.13
			c-51.29,41.87-98.46,87.54-142.52,136.95c10.64,5.97,21.29,11.95,31.93,17.92c63.31-182.17,143.4-357.65,241.07-523.99
			c9.2-15.68-8.76-28.84-23.03-22.38c-77.93,35.28-119.45,133.86-161.28,202.98c-54.35,89.82-106.56,180.85-156.6,273.14
			c10.46,2.72,20.92,5.45,31.39,8.17c-1.99-136.67,103.43-243.97,144.31-368.82c4.67-14.27-14.79-23.82-24.64-13.82
			c-60.44,61.35-119.85,123.64-179.36,185.9c10.12,5.68,20.24,11.36,30.36,17.04c13.71-62.91,35-122.99,65.33-179.84
			c10.13-18.99-13.17-33.72-28.47-21.2c-44.37,36.3-81.6,77.68-112.5,125.99C4897.56,1430.57,4917.06,1440.13,4925.55,1428.93
			L4925.55,1428.93z"/>
	</g>
	<g>
		<path class="st1" d="M5265.61,1427.51c13.08-28.74,26.61-57.03,42.38-84.4c13.12-22.77,34.09-74.96,60.49-82.57
			c-7.27-4.08-14.54-8.16-21.82-12.24c18.42,60.34-9.16,123.15,2.28,184.82c3.04,16.36,24.52,14.97,32.39,3.98
			c50.29-70.26,68.24-167.8,141.25-220.27c-8.18-4.59-16.36-9.18-24.54-13.77c0.11,45.98-27.63,84.4-44.05,125.84
			c-15.29,38.6-24.03,78.48-28.89,119.62c-1.79,15.16,21.26,23.69,30.65,12.31c29.51-35.75,55.21-73.48,77.09-114.39
			c10.78-20.15-20.01-36.99-30.68-17.22c-20.55,38.07-44.18,73.69-71.79,107.03c10.22,4.1,20.44,8.21,30.65,12.31
			c5.96-49.66,19.67-97.1,40.4-142.57c15.3-33.55,30.08-65.23,29.32-102.9c-0.23-11.6-14.04-21.03-24.54-13.77
			c-81.29,56.27-100.28,153.95-155.4,230.64c10.79,1.33,21.59,2.65,32.38,3.98c-11.4-62.1,16.81-123.1-1.93-184.91
			c-2.76-9.1-12.43-14.93-21.82-12.24c-32.45,9.28-48.16,43.11-63.73,70.58c-21.65,38.22-38.45,79.68-50.63,121.85
			C5241.63,1431.14,5260.34,1439.1,5265.61,1427.51L5265.61,1427.51z"/>
	</g>
	<g>
		<path class="st1" d="M5730.05,969.82c-11.53,50.77-22.14,101.74-32.34,152.79c-2.42,12.12,13.57,24.09,22.84,12.82
			c45.73-55.61,95.36-107.04,148.45-155.64c-7.52-5.6-15.04-11.2-22.57-16.8c-47.43,89.35-95.13,178.65-111.21,279.75
			c-2.69,16.88,18.56,26.79,28.4,11.46c70.63-109.94,140.44-220.42,210.59-330.67c-9.64-3.89-19.28-7.78-28.92-11.67
			c-47.07,127.6-145.43,232.71-150.47,374.33c-0.55,15.51,21.4,25.02,31.85,12.79c30.57-35.79,61.18-71.55,91.65-107.43
			c-10.15-5.7-20.3-11.39-30.46-17.09c-13.2,58.43-25.12,116.52-21.14,176.72c0.93,14.07,20.8,26.16,31.43,12.62
			c39.41-50.22,78.81-100.45,118.22-150.67c-10.35-5.81-20.71-11.62-31.06-17.43c-5.62,34.56-27.49,110.04,1.06,139.6
			c30.64,31.72,60.53-12.22,72.36-36.84c50.41-104.9,79.44-220.43,149.31-315.22c-9.66-3.9-19.32-7.8-28.99-11.7
			c-30.8,94.68-65.64,193.14-56.71,294.33c1.51,17.1,21.61,21.95,31.49,8.2c31.88-44.39,65.42-87.65,98.24-131.35
			c-10.22-2.66-20.43-5.32-30.65-7.98c2.91,31.78,2.13,62.22-3.58,93.74c-3.68,20.29,27.58,28.21,31.21,8.19
			c6.17-34.04,8.27-67.36,5.28-101.89c-1.47-16.94-20.86-20.98-30.65-7.98c-32.04,42.54-63.44,85.68-96.37,127.53
			c9.62,3.86,19.23,7.72,28.85,11.58c-4.97-99.98,20.95-192.7,53.48-286.34c5.04-14.51-16.79-27.04-26.51-14.87
			c-46.02,57.63-76.25,122.55-103.68,190.53c-15.36,38.07-30.03,76.46-47.43,113.67c-2.92,6.25-6.14,18.16-11.12,22.9
			c-10.99,10.47-6.49,3.64-7.99-8.08c-3.1-24.26,4.42-54.9,8.23-78.61c2.55-15.89-18.43-33.59-31.06-17.43
			c-39.32,50.31-78.64,100.62-117.96,150.93c10.48,4.21,20.95,8.41,31.43,12.62c-3.89-57.17,7.02-112.03,19.44-167.54
			c3.68-16.46-18.13-31.66-30.46-17.09c-30.4,35.94-61.07,71.59-92.24,106.86c10.62,4.26,21.23,8.52,31.85,12.79
			c5.8-133.27,99.14-244.5,143.66-366.37c6.37-17.45-19.87-25.91-28.92-11.67c-70.07,110.29-140.5,220.35-210.1,330.94
			c9.47,3.82,18.94,7.64,28.4,11.46c14.71-98.4,59.2-187.05,106.06-273.69c7.9-14.6-10.66-27.53-22.57-16.8
			c-53.44,48.16-102.29,100.63-147.47,156.59c7.61,4.27,15.23,8.54,22.84,12.82c8.21-52.42,16-104.91,22.84-157.52
			C5748.15,962.43,5732.13,960.67,5730.05,969.82L5730.05,969.82z"/>
	</g>
	<g>
		<path class="st1" d="M5953.06,1057.4c26.02-44.34,61.68-84.29,103.72-114.13c-6.74-5.04-13.48-10.07-20.22-15.11
			c-9.87,40.35-17.34,81.31-25.11,122.1c-4.06,21.31-7.9,42.96,13.69,55.2c8.84,5.01,18.17,1.01,23.87-6.4
			c32.47-42.21,59.73-87.65,83.09-135.47c10-20.47-20.83-37.39-30.68-17.22c-23.4,47.92-51.21,92.66-82.52,135.78
			c7.96-2.13,15.91-4.26,23.87-6.4c-8.12-4.31,18.91-127.09,20.92-144.1c1.48-12.56-15.83-16.96-23.58-9.47
			c-40.07,38.76-72.21,79.54-99.98,127.95C5935.31,1058.52,5948.27,1065.56,5953.06,1057.4L5953.06,1057.4z"/>
	</g>
	<g>
		<path class="st1" d="M7197.67,1201.91c27.13-17.63,55.02-34.37,80.72-54.02c-11.26-6.32-22.51-12.63-33.77-18.95
			c-7.53,39.2-14.94,78.4-22.06,117.67c-3.48,19.22,20.13,36.37,35.27,19.79c32.47-35.57,64.63-71.43,96.62-107.43
			c-10.59-7.89-21.19-15.77-31.78-23.66c-29.78,68.6-47.5,139.2-52.74,213.8c-1.36,19.37,25.76,23.68,34.85,9.08
			c43.7-70.28,93.19-136.06,148.28-197.81c-9.53-7.1-19.06-14.19-28.59-21.29c-46.27,79.45-71.4,167.06-74.34,258.95
			c-0.47,14.85,20.96,24.65,30.98,12.44c99-120.59,190.9-246.55,282.91-372.49c14.03-19.21-18.16-36.33-31.83-17.86
			c-115.39,155.89-209.21,326.44-278.44,507.64c-6.24,16.33,15.4,30.28,29,21.67c73.63-46.58,117.82-132.83,165.8-202.9
			c59.46-86.84,118.92-173.69,178.38-260.53c14.19-20.73-19.58-38.67-33.53-18.81c-131.81,187.67-265.8,376.13-357.89,587.32
			c-11.1,25.45,20.54,42.27,36.94,20.73c132.74-174.3,265.06-348.93,398.3-522.85c-12.29-6.9-24.58-13.79-36.87-20.69
			c-92.97,153.68-185.87,309.01-240.77,481.09c-8.26,25.9,27.2,35.3,40.96,16.53c119.47-162.86,239.2-325.52,358.99-488.15
			c-12.54-7.04-25.08-14.07-37.62-21.11c-83.46,173.92-168.34,347.19-250.81,521.59c-12.26,25.92,21.87,44.04,38.17,21.42
			c116.38-161.48,234.95-321.42,352.45-482.08c-12.66-7.11-25.32-14.21-37.99-21.32c-101.57,170.29-202.44,341.14-281.09,523.52
			c-10.71,24.83,27.81,35.4,41.05,16.57c111.25-158.24,225.09-314.66,341.76-468.96c-13.68-5.52-27.36-11.04-41.04-16.56
			c-23.72,58.51-47.44,117.01-71.16,175.52c-8.79,21.67,22.96,35.28,37.32,20.94c45.98-45.92,92.19-91.61,137.31-138.38
			c-12.13-4.87-24.26-9.74-36.4-14.61c-1.45,22.43-3.02,44.84-4.67,67.26c-1.18,15.99,18.01,24.03,30.5,17.11
			c17.51-9.7,28.91-21.11,37.87-39.3c11.19-22.73-22.65-41.55-34.23-19.21c-4.32,11.74-12.32,19.85-23.99,24.32
			c10.17,5.7,20.33,11.41,30.5,17.11c2.13-22.44,4.36-44.85,6.69-67.26c2.02-19.39-24.29-26.23-36.4-14.61
			c-46.9,45.01-92.71,91.1-138.76,136.97c12.44,6.98,24.88,13.96,37.32,20.94c23.8-58.49,47.61-116.97,71.41-175.46
			c10.44-25.66-27.49-34.44-41.04-16.56c-116.88,154.16-230.91,310.41-341.77,468.95c13.69,5.52,27.37,11.04,41.05,16.57
			c76.65-179.01,176.21-346.64,275.77-513.56c14.82-24.85-21.97-43.22-37.99-21.32c-117.51,160.67-234.01,322.13-352.64,481.98
			c12.73,7.14,25.45,14.28,38.17,21.42c84.55-173.42,166.7-348.01,250.26-521.9c12.31-25.61-21.41-43.1-37.62-21.11
			c-119.9,162.6-239.86,325.16-360.09,487.53c13.65,5.51,27.31,11.02,40.96,16.53c54.53-168.33,144.13-320.62,234.43-471.74
			c14.5-24.26-21.09-41.52-36.87-20.69c-132.31,174.63-265.56,348.56-398.37,522.81c12.31,6.91,24.63,13.82,36.94,20.73
			c92.24-211.31,222.21-401.43,354.48-589.23c-11.18-6.27-22.35-12.54-33.53-18.81c-53.77,78.31-107.54,156.62-161.31,234.93
			c-26.16,38.1-52.29,76.21-78.47,114.29c-25.86,37.62-51.45,74.92-90.72,99.7c9.67,7.22,19.33,14.45,29,21.67
			c68.36-178.18,159.35-345.8,272.12-499.78c-10.61-5.95-21.22-11.91-31.83-17.86c-89.53,123.85-179.67,247.4-276.74,365.51
			c10.33,4.15,20.65,8.29,30.98,12.44c2.79-85.92,26.17-167.09,69.47-241.35c10.21-17.51-14.78-36.76-28.59-21.29
			c-57.13,63.97-108.66,132.34-154.81,204.63c11.62,3.03,23.23,6.05,34.85,9.08c5.15-67.56,21.81-132.73,50.27-194.23
			c9.09-19.64-15.31-41.33-31.78-23.66c-32.83,35.22-65.5,70.58-97.85,106.24c11.76,6.6,23.51,13.19,35.27,19.79
			c7.01-39.34,13.73-78.71,20.33-118.12c3.46-20.65-17.9-31.56-33.77-18.95c-23.88,18.97-45.55,41.02-67.91,61.77
			C7171.11,1191.99,7185.32,1209.93,7197.67,1201.91L7197.67,1201.91z"/>
	</g>
	<g>
		<path class="st1" d="M7746.4,1750.75c41.43-54.81,79.01-111.78,128.55-160.05c-10.55-7.85-21.1-15.71-31.65-23.56
			c-16.85,34.82-31.1,71.05-46.35,106.6c-10.82,25.23,31.43,35.98,41.69,10.94c13.98-34.1,29.07-67.97,41.47-102.68
			c8.41-23.54-24.43-30.82-36.82-14.86c-42.92,55.29-86.95,111.57-114.78,176.39C7723.76,1754.6,7740.52,1758.53,7746.4,1750.75
			L7746.4,1750.75z"/>
	</g>
	<g>
		<path class="st1" d="M7528.02,923.9c18.14-23.08,34.98-47.38,58.67-65.21c-8.71-3.45-17.43-6.91-26.14-10.36
			c10.06,38.95-37.29,86.83-51.56,121.44c-15.97,38.73-23.42,79.06-24.51,120.81c-0.3,11.56,9.55,19.58,20.37,20.24
			c33.84,2.05,55.72-19.49,74.47-45.53c29.05-40.37,58.69-83.27,82.41-126.99c10-18.43-16.44-40.22-30.37-22.61
			c-19.18,24.24-35.56,50.39-52.55,76.18c-16.1,24.44-38.86,80.51-73.41,78.52c6.79,6.75,13.58,13.49,20.37,20.24
			c1.28-55.12,15.67-105.65,43.82-153.06c18.74-31.57,38.54-60.88,25.4-98.46c-4.85-13.86-24.72-17.88-32.58-4.01
			c-15.21,26.86-33.93,51.19-47.68,78.91C7510.74,922.05,7521.82,931.78,7528.02,923.9L7528.02,923.9z"/>
	</g>
	<g>
		<path class="st1" d="M570.39,1137.64c-15.64,48.71-25.77,99.07-40.91,147.95c-5.52,17.82,19.87,26.33,29.21,11.79
			c28.71-44.76,55.18-91.09,82.49-136.72c-12.08-3.15-24.15-6.29-36.23-9.44c-10.91,78.96-20.65,158.09-30.91,237.13
			c-2.99,23,33.85,26.04,39.77,5.14c13.56-47.85,36.2-90.27,68.89-127.81c-11.62-4.67-23.24-9.33-34.86-14
			c-10.89,84.36-25.25,168.18-41.67,251.63c-3.87,19.67,17.1,29.13,31.68,17.78c42.2-32.85,76.52-71.75,103.59-117.86
			c-11.24-4.53-22.47-9.07-33.71-13.6c-7.93,33.98-10.24,66.91-6.09,101.66c1.72,14.39,19.63,25.43,31.29,12.56
			c20.1-22.18,40.19-44.36,60.29-66.54c-10.39-4.17-20.78-8.34-31.17-12.52c-0.98,9.4-1.93,18.81-2.84,28.22
			c-1.9,19.27,31.1,23.42,34.19,4.42c1.54-9.33,3.04-18.66,4.5-28c2.61-16.43-17.22-31.71-30.49-17.11
			c-20.13,22.15-40.26,44.3-60.39,66.45c10.43,4.19,20.86,8.37,31.29,12.56c-3.74-31.69-2.5-61.13,4.98-92.37
			c4.82-20.13-23.04-31.56-33.71-13.6c-24.72,41.58-55.84,77.72-94.64,106.79c9.26,6.92,18.52,13.84,27.78,20.76
			c19.42-86.35,34.22-173.47,45.99-261.18c2.37-17.66-24.04-26.31-34.86-14c-37.58,42.73-63.83,90.64-79.04,145.53
			c13.26,1.71,26.51,3.43,39.77,5.14c9.8-79.03,20.13-158.02,29.28-237.13c2.28-19.69-27.59-25.12-36.23-9.44
			c-25.65,46.56-52.34,92.73-76.53,140.06c9.93,2.59,19.87,5.17,29.8,7.76c7.01-50.22,19.17-99.63,25.66-149.92
			C587.76,1130.23,573.04,1129.39,570.39,1137.64L570.39,1137.64z"/>
	</g>
	<g>
		<path class="st1" d="M655.09,1203.18c6.77-42.34,23.31-77.24,43.28-114.78c-8.39-2.19-16.78-4.37-25.17-6.56
			c-1.5,37.69-3.67,75.36-5.08,113.05c-0.67,17.9,28.47,21.97,31.88,4.12c11.5-60.1,47.93-106.64,103.56-132.17
			c-8.28-6.19-16.56-12.38-24.84-18.56c-5.95,39.02-11.89,78.03-17.84,117.05c-3.06,20.07,19.75,28.31,31.82,12.84
			c34.41-44.1,68.83-88.19,103.24-132.29c-11.23-2.92-22.45-5.85-33.68-8.77c-1.78,43.56-13.47,82.2-35.25,119.91
			c-12.43,21.52,20.2,39,33.17,18.61c37.66-59.23,86.08-107.49,145.47-144.9c-8.44-2.1-16.89-4.21-25.33-6.31
			c12.42,28.13-30.14,62.56-44.95,82.82c-16.73,22.9-25.97,45.25-22.36,73.81c2.19,17.37,27.38,16.58,35.01,4.3
			c37.95-61.08,87-112.33,146.71-152.44c-9.55-7.14-19.1-14.27-28.65-21.41c-28.47,85.61-60.87,169.82-95.95,252.93
			c-8.56,20.29,23.44,30.26,34.13,13.77c40.38-62.23,95.7-110.56,161.58-144.34c-7.98-7.76-15.97-15.52-23.95-23.27
			c-46.24,75.33-100.75,145.67-163.88,207.66c-12.72,12.49,3.9,33.69,19.14,24.18c63.72-39.75,127.37-79.62,191.19-119.21
			c-7.81-5.84-15.62-11.67-23.43-17.51c-41.14,115.46-175.9,164.77-211.35,285.01c-4.38,14.86,12.44,25.23,24.97,18.66
			c54.7-28.72,107.35-60.6,158.15-95.76c-6.87-8.67-13.73-17.34-20.6-26.02c-69.63,65.05-132.08,136.52-187.38,214.11
			c-9.27,13.01,6.07,28.11,19.47,24.92c46.13-10.97,88.29-29.3,127.68-55.75c-8.05-7.82-16.09-15.64-24.14-23.46
			c-33.64,46.71-67.28,93.41-100.92,140.12c-9.07,12.6,6.08,30.42,20.1,25.72c37.67-12.62,70.14-31.65,99.41-58.54
			c-10.13-5.69-20.26-11.37-30.39-17.06c-3.53,17.7-9.09,31.98-20.6,46.34c-5.54,6.91-8.48,18.81-0.02,25.36
			c21.47,16.63,43.45,31.1,67.56,43.69c20.21,10.56,38.97-19.76,18.33-30.87c-21.09-11.35-40.96-23.86-59.97-38.47
			c-0.01,8.45-0.01,16.91-0.02,25.36c15.42-19.36,25-37.77,29.78-62.21c3.46-17.71-16.81-29.63-30.39-17.06
			c-24.62,22.79-51,38.67-82.79,49.45c6.7,8.57,13.4,17.15,20.1,25.72c33.46-46.81,66.92-93.62,100.38-140.43
			c10.28-14.38-10.13-32.93-24.14-23.46c-36.73,24.85-75.66,42.17-118.78,52.58c6.49,8.31,12.98,16.61,19.47,24.92
			c53.35-75.41,113.88-144.62,181.37-207.67c13.92-13-4.69-37.03-20.6-26.02c-50.8,35.16-103.45,67.04-158.15,95.76
			c8.32,6.22,16.64,12.44,24.97,18.66c34.67-117.63,169.26-168.95,209.33-285.54c4.54-13.22-12.17-24.59-23.43-17.51
			c-63.59,39.97-127.35,79.66-191.04,119.47c6.38,8.06,12.76,16.12,19.14,24.18c65.54-64.48,123.01-134.29,171.78-212.35
			c9.85-15.76-9.36-30.61-23.95-23.27c-72.1,36.26-130.74,89.32-176.24,155.78c10.75,6.03,21.51,12.07,32.26,18.1
			c37.79-83.86,70.63-169.49,99.51-256.82c5.22-15.8-14.87-30.7-28.65-21.41c-65.28,43.99-119.02,99.67-160.1,166.85
			c11.67,1.43,23.34,2.87,35.01,4.3c-4.63-34.64,36.42-65.1,53.54-91.34c15.78-24.19,20.43-47.1,8.85-73.95
			c-3.88-8.98-17.82-10.98-25.33-6.31c-64.98,40.38-118.62,93.18-160.06,157.48c11.05,6.2,22.11,12.41,33.17,18.61
			c24.34-43.26,36.69-88.91,38.24-138.49c0.62-19.74-23.85-21.56-33.68-8.77c-34.04,44.31-68.08,88.61-102.12,132.92
			c10.82,2.82,21.64,5.64,32.47,8.46c5.65-39.05,11.29-78.11,16.94-117.16c2.04-14.12-15.61-18.91-25.47-14.29
			c-62.12,29.07-105.46,85.02-117.83,152.52c10.63,1.37,21.25,2.75,31.88,4.12c0.16-37.68-0.45-75.37-0.38-113.06
			c0.02-12.83-19.14-18.73-25.17-6.56c-19.4,39.17-27.37,83.12-32.07,126.3C642.24,1208.43,654.01,1209.9,655.09,1203.18
			L655.09,1203.18z"/>
	</g>
	<g>
		<path class="st1" d="M1171.72,1912.98c-11.53,31.68-17.19,65.37-27.95,97.34c-4.18,12.43,9.32,25.43,21.63,21.28
			c27.85-9.39,52.34-23.64,73.9-43.67c-10.87-4.36-21.74-8.73-32.61-13.09c-1.7,12.29-4.81,23.94-1.18,36.03
			c4.11,13.69,22.65,15.6,30.11,3.7c7.4-11.81,7.42-26.1,9.3-39.7c2.4-17.37-22.08-23.4-32.61-13.09
			c-16.23,15.88-34.57,28.23-55.89,36.24c7.43,5.6,14.86,11.21,22.29,16.81c1.77-33.3,8.95-66.34,9.89-99.67
			C1188.86,1905.07,1174.84,1904.42,1171.72,1912.98L1171.72,1912.98z"/>
	</g>
	<path class="st2" d="M1049.26,4112.23c-23.44,8.71-48.47,19.52-59.73,40.32c-16.11,29.76,4.91,67.4,36.06,84.29
		s284,88.65,320.15,89.76c445.66,13.74,679-42.85,1120.59-99.81c27.21-3.51,55.76-7.82,77.25-23.56
		c243.55-178.36-548.19-242.37-643.22-236.43C1622.37,3984.19,1307.26,4016.43,1049.26,4112.23z"/>
	<path class="st3" d="M1874.18,4078.56c-95.45-18.71-194.4-22.22-291.14-10.36c-37.38,4.59-81.21,16.82-91.6,50.14
		c-8.33,26.74,11.02,55.55,37.23,69.47c26.21,13.92,57.58,16.36,87.8,17.93c128.11,6.69,256.8,3.78,384.4-8.69
		c34.33-3.36,73.99-10.73,89.45-39.1c20.42-37.46-18.66-81.03-61.13-96.29c-63.42-22.79-140.28-9.93-190.89,31.93"/>
	<g>
		<path class="st1" d="M1546.72,3310.15c43.25-29.59,86.8-58.79,131.59-86.03c-7.74-7.52-15.48-15.04-23.22-22.57
			c-39.84,59.18-79.2,118.69-118.73,178.08c-13.09,19.67,15,35.88,30.64,22.81c51.59-43.11,102.75-86.72,153.97-130.27
			c-10.81-8.05-21.63-16.1-32.44-24.15c-48.77,64.22-97.18,128.71-145.71,193.11c-12.83,17.03,11.92,37.36,28.18,27.39
			c87.03-53.39,167.11-116.36,239.4-188.48c-9.64-9.33-19.27-18.66-28.91-27.99c-73.58,80.89-147.13,161.81-220.7,242.71
			c-17.9,19.69,8.76,42.87,28.41,27.51c119.14-93.14,238.32-186.24,357.48-279.35c-9.28-8.99-18.57-17.98-27.85-26.97
			c-128.75,143.04-257.52,286.08-386.29,429.11c-16.63,18.47,9.12,42.88,27.22,26.36c124.96-114.13,249.91-228.25,374.87-342.38
			c-10.52-5.9-21.04-11.8-31.55-17.7c-52.9,163.2-242.14,229.16-314.23,382.06c-9.5,20.16,13.5,36.5,30.29,22.55
			c105.9-88.05,212.57-175.39,317.06-265.12c-9.68-7.2-19.35-14.41-29.03-21.61c-55.31,88.46-111.93,176.1-168.23,263.93
			c-10.49,16.37,12.66,30.98,25.8,19.21c56.64-50.73,113.49-101.21,170.39-151.64c-9.05-5.08-18.1-10.16-27.16-15.24
			c-13.21,52.8-33.54,101.44-59.59,149.17c-8.47,15.52,13.93,33.91,25.58,19.05c5.07-6.47,9.95-14.81,16.66-19.58
			c9.88-7.03,45.15-23.02,44.24,3.84c-0.58,16.98,24.12,15.86,26.13,0.03c3.07-24.23-15.16-44.02-39.06-47.42
			c-30.13-4.28-53.42,19.96-71,40.83c8.53,6.35,17.06,12.7,25.58,19.05c28.95-48.85,49.16-101.69,62.78-156.74
			c4.02-16.26-15.38-25.73-27.16-15.24c-56.78,50.58-113.59,101.12-170.64,151.4c8.6,6.4,17.2,12.81,25.8,19.21
			c57.04-87.46,113.77-175.13,171.78-261.94c12.57-18.81-14.19-33.6-29.03-21.61c-107.18,86.59-212.4,175.75-318.19,264.03
			c10.1,7.52,20.19,15.03,30.29,22.55c73.39-156.41,262.33-222.35,317.32-391.2c6.16-18.93-18.64-29.47-31.55-17.71
			c-125.13,113.96-250.25,227.92-375.38,341.88c9.07,8.79,18.15,17.57,27.22,26.36c128.97-142.84,257.94-285.67,386.93-428.49
			c17.49-19.37-8.56-42-27.85-26.97c-119.34,92.94-238.67,185.9-358.04,278.81c9.47,9.17,18.94,18.34,28.41,27.51
			c73.73-80.74,147.48-161.48,221.19-242.23c17.72-19.41-10.4-46.4-28.91-27.99c-69.95,69.59-147.02,130.22-231.2,181.7
			c9.39,9.13,18.79,18.26,28.18,27.39c48.62-64.34,97.35-128.58,145.72-193.1c14.91-19.9-16.17-38.17-32.44-24.15
			c-50.89,43.82-101.83,87.59-152.35,131.84c10.21,7.6,20.42,15.2,30.64,22.81c38.19-60.13,76.56-120.16,114.43-180.49
			c8.92-14.21-9.21-31.71-23.22-22.57c-45.15,29.46-88.73,60.44-130.3,94.76C1519.57,3299.62,1534.66,3318.4,1546.72,3310.15
			L1546.72,3310.15z"/>
	</g>
	<g>
		<path class="st4" d="M1831.03,1894.1c-118.07-56.16-252.12,14.7-339.67,96.12c-94,87.42-140.95,209.04-179.5,328.52
			c-69.26,214.7-179.76,483.1-57.92,700.09c64.75,115.32,191.19,180.06,314.57,213.84c115.09,31.52,241.26,36.23,356.41,2.46
			c263.48-77.26,408.52-389.1,374.11-649.42c-9.94-75.15-35.24-147.56-64.69-217.14c-24.71-58.39-56.6-115.54-107.99-154.52
			c-114.99-87.23-299.7-70.46-414.65,6.58c-26.45,17.73-3.33,56.69,24.85,41.72c101.28-53.82,249.97-80.56,350.79-9.51
			c83.5,58.85,121.94,188.25,144.37,282.69c30.94,130.3,10.49,263.75-47.08,383.72c-52.91,110.26-119.78,206.52-237.15,252.9
			c-97.38,38.48-208.06,42.04-310.15,22.94c-111.69-20.9-232.2-67.31-306.96-156.62c-138.13-165.01-65.59-414.11-3.64-594.78
			c40.34-117.65,68.96-243.76,138.21-348.85c71.23-108.1,220.14-221.64,355.97-177.29
			C1834.55,1922.03,1844.55,1900.53,1831.03,1894.1L1831.03,1894.1z"/>
	</g>
	<g>
		<path class="st4" d="M1542.87,3210.48c-5.22,79.52-5.89,159.33-10.5,238.92c-2.3,39.8-5.02,79.54-8.29,119.27
			c-3.22,39.07-10.74,79.9-8.47,119c1.38,23.66,36.12,29.71,42.74,5.52c20.2-73.81,17.15-160.12,19.89-236.28
			c2.94-81.75,4.18-164.9-3.67-246.39C1572.66,3190.71,1544.2,3190.29,1542.87,3210.48L1542.87,3210.48z"/>
	</g>
	<g>
		<path class="st4" d="M1563.16,3704.09c72.08,19.67,146.13,33.25,220.15,43.33c65.98,8.98,142.76,25.49,208.58,15.68
			c25.45-3.79,22.49-40.84,0.42-47.09c-31.1-8.79-64.56-7.25-96.7-9.15c-37.62-2.21-75.17-5.46-112.78-7.65
			c-72.43-4.23-144.9-9.07-217.45-10.26C1556.56,3688.81,1554.53,3701.74,1563.16,3704.09L1563.16,3704.09z"/>
	</g>
	<g>
		<path class="st4" d="M1985.88,3642.8c19.35-77.57,11.7-161.27,12.3-240.55c0.31-41.09,0.89-82.2,2.02-123.28
			c1.1-39.82,7.39-81.86-2.11-120.87c-5.08-20.89-33.5-17.71-39.92,0.14c-12.76,35.47-10.63,75.67-11.8,112.98
			c-1.36,43.66-1.98,87.31-1.5,130.99c0.86,79.19-1.37,165.57,27,240.66C1974.22,3649.04,1984.04,3650.18,1985.88,3642.8
			L1985.88,3642.8z"/>
	</g>
	<g>
		<path class="st4" d="M1995.45,3210.25c54.84,46.67,105.32,92.53,150.23,149.16c35.06,44.22,72.14,90.08,121.58,118.96
			c75.12,43.88,195,40.56,234.89-49.02c51.31-115.21-65.6-206.51-150.87-258.73c-58.79-36.01-120.39-67.33-184.02-93.85
			c-60.15-25.07-129.02-56.95-195.04-58.29c-17.94-0.36-26.01,25.09-9.59,33.86c45.5,24.32,99.05,34.74,147.23,53.14
			c53.85,20.57,106.27,44.97,156.89,72.54c74.07,40.34,233.36,120.23,189.68,229.48c-16.18,40.47-62.06,52.9-102.17,49.16
			c-49.88-4.66-89.9-34.54-124.46-68.79c-70.58-69.95-128.46-151.41-221-194.68C1998.53,3188.37,1985.3,3201.61,1995.45,3210.25
			L1995.45,3210.25z"/>
	</g>
	<g>
		<path class="st4" d="M1516.4,3215.8c-87.84,39.62-159.81,115-204.75,199.29c-18.28,34.29-34.45,71.85,1.14,100.94
			c20.16,16.48,46.04,27.76,68.51,40.69c31.44,18.08,62.51,36.4,95.42,51.71c25.6,11.91,46.5-21.74,22.61-38.07
			c-36.28-24.79-75.13-45.43-113.39-66.96c-23.92-13.46-54.04-24.16-40.37-55.27c7.35-16.73,16.22-32.96,25.62-48.6
			c40.17-66.84,94.58-118.6,156.12-165.39C1538.45,3225.65,1529.24,3210.01,1516.4,3215.8L1516.4,3215.8z"/>
	</g>
	<g>
		<path class="st4" d="M1606.48,3717.49c-33.74,131.27-22.07,287.47,35.12,410.44c10.32,22.19,45.83,6.22,39.9-16.55
			c-16.94-65.08-34.36-129.56-42.14-196.53c-7.55-64.96-5.09-128.28-2.02-193.38C1638.18,3703.8,1610.79,3700.73,1606.48,3717.49
			L1606.48,3717.49z"/>
	</g>
	<g>
		<path class="st4" d="M1636.66,4094.66c-3.35,1.66-16.62-3.21-21.42-2.78c-10.13,0.89-20.15,4.39-30.35,5.46
			c-19.24,2.01-38.41,0.05-57.51,3.04c-17.69,2.77-22.65,32.06-5.52,39.29c21.98,9.27,45.61,8.45,68.67,2.85
			c10.21-2.48,20.3-6.19,29.74-10.77c4.57-2.21,10.09-4.41,13.62-8.23c3.87-4.19,5.52-14.76,9.68-17.25
			C1651.26,4101.65,1644.49,4090.78,1636.66,4094.66L1636.66,4094.66z"/>
	</g>
	<g>
		<path class="st4" d="M1880.79,3763.38c-4.22,20.64,2.5,36.9,8.29,56.94c7.53,26.08,13.79,52.4,17.95,79.24
			c9.11,58.75,6.86,118.22-2.98,176.68c-1.89,11.25,1.33,21.12,11.32,27.29c48.82,30.13,102.1,38.98,158.3,29.01
			c30.56-5.42,18.02-50.52-12.18-45.44c-43.41,7.3-84.19-2.39-121.14-25.65c3.77,9.1,7.55,18.19,11.32,27.29
			c10.68-60.15,11.1-120.26,1.34-180.58c-7.05-43.56-19.86-124.54-62.11-148.91C1887.35,3757.21,1881.68,3759.06,1880.79,3763.38
			L1880.79,3763.38z"/>
	</g>
	<g>
		<path class="st4" d="M1168.02,1908.42c-25.59,35.99-48.61,82.63-85.9,108.15c-13.73,9.4-15.99,25.4-5.1,38.04
			c29.99,34.81,78.04,43.15,120.87,29.44c51.67-16.53,84.28-60.77,115.16-102.41c7.24-9.76,1.63-24.99-8.15-30.42
			c-18.37-10.21-35.43-19.5-55.84-24.41c-16.1-3.88-28.18,15.46-16.43,27.67c14.48,15.06,31.29,24.98,49.25,35.52
			c-2.72-10.14-5.43-20.28-8.15-30.42c-33.77,43.38-106.85,123.44-161.77,60.48c1.28,9.74,2.55,19.48,3.83,29.23
			c23.21-45.36,58.97-82.29,79.19-129.99C1201.91,1902.89,1176.74,1896.15,1168.02,1908.42L1168.02,1908.42z"/>
	</g>
	<g>
		<path class="st4" d="M704.01,1535.13c-82.73-83.74-181.59-196.78-151.88-324.76c27.46-118.32,162.53-153.94,262.01-189.9
			c60.31-21.8,125.78-55.27,190.27-61.25c66.78-6.2,107.78,41.36,142.41,91.42c34.43,49.77,71.39,104.26,83.82,164.43
			c13.91,67.32-16.25,115.87-58.08,164.96c-30.23,35.47-61.42,71.39-75.4,116.8c-16.51,53.65-8.04,111.81,7.61,164.57
			c8.02,27.02,20.85,52.85,27.61,80.16c12.96,52.33-53.09,37.38-79.96,25.04c-49.34-22.66-87.35-68.42-103.41-119.97
			c-18.07-57.97-10.04-121.5,14.56-176.31c21.88-48.75,65.4-87.9,78.09-140.71c20.95-87.16-59.99-150.69-135.18-170.86
			c-87.44-23.46-227.42,2.33-224.66,117.82c1.46,61.15,50.85,71.61,89.71,105.39c65.74,57.16,0.19,143.08-74.63,128.85
			c-19.13-3.64-35.54,24.58-14.62,33.9c98.13,43.74,194.77-57.08,152.96-154.8c-8.9-20.79-22.78-37.13-41.07-50.23
			c-30.74-22.02-74.17-34.4-62.75-81.52c16.75-69.12,113.19-68.94,167.24-52.9c62.19,18.45,122.02,70.69,86.62,139.46
			c-29.37,57.05-69.88,100.56-85.21,165.04c-26.34,110.81,12.5,231.04,113.66,290.06c38.84,22.66,100.1,42.93,141.67,15.75
			c51.07-33.4,21.4-96.83,6.55-141.06c-23.84-71.01-37.48-145.55,7.27-211.38c32.59-47.95,79.24-85.68,101.69-140.36
			c48.5-118.16-39.27-252.49-112.72-340.37c-35.82-42.86-82.15-73.34-139.61-73.02c-71.8,0.4-143.91,37.31-210.18,61.29
			c-115.44,41.79-264.6,85.29-292.96,223.64c-30.22,147.4,72.97,264.38,176.95,352.34C700.16,1553.24,711.5,1542.71,704.01,1535.13
			L704.01,1535.13z"/>
	</g>
	<g>
		<path class="st4" d="M1611.68,2809.62c-19.53,27.57-21.57,79.69,7.22,101.66c15.14,11.55,35.58,0.99,32.41-18.57
			c-1.97-12.17-7.21-23.01-9.52-35.02c-2.31-11.99-0.52-23.46,1.47-35.33C1646.51,2802.98,1623.09,2793.51,1611.68,2809.62
			L1611.68,2809.62z"/>
	</g>
	<g>
		<path class="st4" d="M1814.21,2822.29c-13.93,14.79-19.54,30.82-21.31,50.96c-1.61,18.43-0.14,46.49,19.4,54.64
			c13.36,5.57,24.86,0.76,30.54-12.44c6.17-14.33-3.79-28.23-5.89-42.58c-1.94-13.28-0.61-28,0.17-41.37
			C1837.81,2819.84,1821.87,2814.15,1814.21,2822.29L1814.21,2822.29z"/>
	</g>
	<g>
		<path class="st4" d="M1592.24,2182.93c115.88-89.3,244.93-160.16,395.57-143.32c31.85,3.56,40.7-50.7,8.18-55.65
			c-166.51-25.31-294.19,92.59-414.69,188.37C1573.44,2178.59,1584.6,2188.82,1592.24,2182.93L1592.24,2182.93z"/>
	</g>
	<g>
		<path class="st4" d="M2293.14,2740.04c41.37-18.49,90.52,33.6,56.99,70.13c-29.88,32.55-75.46,22.98-113.92,30.97
			c-16.02,3.33-18.81,26.41-4.79,34.08c57.42,31.41,159.34-6.69,174.77-71.99c16.43-69.5-68.33-127.28-126.88-86.38
			C2264.59,2727.14,2277.14,2747.19,2293.14,2740.04L2293.14,2740.04z"/>
	</g>
	<g>
		<path class="st4" d="M1252.36,2663.36c-21.68-44.76-88.5-51.46-121.49-15.54c-46.96,51.12,0.14,136.37,52.91,162
			c16.25,7.89,39.44-9.4,27.52-27.14c-18.26-27.17-61.82-58.99-51.07-96.83c8.26-29.08,51.61-30.71,68.26-8.68
			C1238.83,2690.86,1260.12,2679.39,1252.36,2663.36L1252.36,2663.36z"/>
	</g>
	<path class="st2" d="M5271.76,4131.44c-23.44,8.71-48.47,19.52-59.73,40.32c-16.11,29.76,4.91,67.4,36.06,84.29
		c31.14,16.9,284,88.65,320.15,89.76c445.66,13.74,679-42.84,1120.59-99.81c27.21-3.51,55.76-7.82,77.25-23.56
		c243.55-178.36-548.19-242.37-643.22-236.43C5844.86,4003.4,5529.75,4035.64,5271.76,4131.44z"/>
	<path class="st3" d="M6096.68,4097.78c-95.45-18.7-194.4-22.22-291.14-10.36c-37.38,4.59-81.22,16.82-91.6,50.14
		c-8.33,26.74,11.02,55.55,37.23,69.47c26.21,13.92,57.58,16.35,87.8,17.93c128.11,6.69,256.8,3.78,384.4-8.69
		c34.33-3.35,73.99-10.73,89.45-39.1c20.42-37.46-18.66-81.03-61.12-96.29c-63.42-22.79-140.28-9.93-190.89,31.93"/>
	<g>
		<path class="st1" d="M5769.22,3329.36c43.25-29.59,86.8-58.79,131.59-86.03c-7.74-7.52-15.48-15.04-23.22-22.57
			c-39.84,59.18-79.2,118.69-118.73,178.08c-13.09,19.67,15,35.88,30.64,22.81c51.59-43.11,102.75-86.72,153.97-130.27
			c-10.81-8.05-21.63-16.1-32.44-24.15c-48.77,64.22-97.18,128.71-145.71,193.11c-12.83,17.03,11.92,37.36,28.18,27.39
			c87.03-53.39,167.11-116.36,239.4-188.48c-9.64-9.33-19.27-18.66-28.91-27.99c-73.58,80.89-147.13,161.81-220.7,242.71
			c-17.9,19.69,8.76,42.87,28.41,27.51c119.14-93.14,238.32-186.24,357.48-279.35c-9.29-8.99-18.57-17.98-27.85-26.97
			c-128.75,143.04-257.52,286.08-386.29,429.1c-16.63,18.47,9.12,42.88,27.22,26.36c124.96-114.13,249.91-228.25,374.87-342.38
			c-10.52-5.9-21.04-11.8-31.55-17.71c-52.9,163.2-242.14,229.15-314.23,382.06c-9.5,20.16,13.5,36.5,30.29,22.55
			c105.9-88.05,212.57-175.39,317.06-265.12c-9.68-7.2-19.35-14.41-29.03-21.61c-55.31,88.46-111.93,176.1-168.23,263.93
			c-10.49,16.37,12.66,30.98,25.8,19.21c56.64-50.73,113.49-101.21,170.39-151.64c-9.05-5.08-18.1-10.16-27.16-15.24
			c-13.21,52.8-33.54,101.44-59.59,149.17c-8.47,15.52,13.93,33.91,25.58,19.05c5.07-6.47,9.95-14.81,16.66-19.58
			c9.88-7.03,45.15-23.02,44.24,3.84c-0.58,16.98,24.12,15.86,26.13,0.03c3.07-24.23-15.16-44.02-39.06-47.42
			c-30.13-4.28-53.42,19.96-71,40.83c8.53,6.35,17.06,12.7,25.58,19.05c28.95-48.85,49.16-101.69,62.78-156.74
			c4.02-16.26-15.38-25.73-27.16-15.24c-56.78,50.58-113.59,101.12-170.63,151.4c8.6,6.4,17.2,12.81,25.8,19.21
			c57.04-87.46,113.77-175.13,171.78-261.94c12.57-18.81-14.19-33.6-29.03-21.61c-107.18,86.59-212.4,175.75-318.19,264.03
			c10.1,7.52,20.19,15.03,30.29,22.55c73.39-156.41,262.33-222.35,317.32-391.2c6.16-18.93-18.64-29.47-31.55-17.71
			c-125.13,113.96-250.25,227.92-375.38,341.88c9.07,8.79,18.15,17.57,27.22,26.36c128.97-142.84,257.94-285.67,386.93-428.49
			c17.49-19.37-8.56-42-27.85-26.97c-119.35,92.94-238.67,185.9-358.04,278.81c9.47,9.17,18.94,18.34,28.41,27.51
			c73.73-80.74,147.48-161.48,221.19-242.23c17.72-19.41-10.4-46.4-28.91-27.99c-69.95,69.59-147.02,130.22-231.2,181.7
			c9.39,9.13,18.79,18.26,28.18,27.39c48.62-64.34,97.35-128.58,145.72-193.1c14.92-19.9-16.17-38.16-32.44-24.15
			c-50.89,43.82-101.83,87.59-152.35,131.84c10.21,7.6,20.42,15.2,30.64,22.81c38.19-60.13,76.56-120.16,114.43-180.49
			c8.92-14.21-9.21-31.71-23.22-22.57c-45.15,29.46-88.73,60.44-130.3,94.76C5742.07,3318.83,5757.16,3337.62,5769.22,3329.36
			L5769.22,3329.36z"/>
	</g>
	<g>
		<path class="st4" d="M6053.52,1913.31c-118.07-56.16-252.12,14.7-339.67,96.12c-94,87.42-140.95,209.04-179.5,328.52
			c-69.26,214.7-179.76,483.1-57.92,700.09c64.75,115.32,191.19,180.06,314.57,213.84c115.09,31.52,241.26,36.23,356.41,2.46
			c263.48-77.26,408.52-389.1,374.11-649.42c-9.93-75.15-35.24-147.56-64.69-217.14c-24.71-58.39-56.6-115.54-107.99-154.52
			c-114.99-87.23-299.7-70.46-414.65,6.58c-26.45,17.73-3.33,56.69,24.85,41.72c101.28-53.82,249.97-80.56,350.79-9.51
			c83.5,58.85,121.94,188.25,144.37,282.69c30.94,130.3,10.49,263.75-47.08,383.72c-52.91,110.26-119.78,206.52-237.15,252.9
			c-97.38,38.48-208.06,42.04-310.15,22.94c-111.69-20.9-232.2-67.31-306.96-156.62c-138.12-165.01-65.59-414.11-3.64-594.78
			c40.34-117.65,68.96-243.76,138.21-348.85c71.23-108.1,220.14-221.64,355.97-177.29
			C6057.05,1941.24,6067.05,1919.75,6053.52,1913.31L6053.52,1913.31z"/>
	</g>
	<g>
		<path class="st4" d="M5765.37,3229.69c-5.22,79.52-5.89,159.33-10.5,238.92c-2.3,39.8-5.02,79.54-8.29,119.27
			c-3.22,39.07-10.74,79.9-8.47,119c1.38,23.66,36.12,29.71,42.74,5.52c20.2-73.81,17.15-160.12,19.89-236.28
			c2.94-81.75,4.18-164.9-3.67-246.39C5795.15,3209.93,5766.7,3209.5,5765.37,3229.69L5765.37,3229.69z"/>
	</g>
	<g>
		<path class="st4" d="M5785.66,3723.3c72.08,19.67,146.13,33.25,220.15,43.33c65.98,8.98,142.76,25.49,208.58,15.68
			c25.45-3.79,22.49-40.84,0.42-47.09c-31.1-8.79-64.56-7.25-96.7-9.15c-37.62-2.21-75.17-5.46-112.78-7.65
			c-72.43-4.23-144.9-9.07-217.45-10.26C5779.06,3708.03,5777.03,3720.95,5785.66,3723.3L5785.66,3723.3z"/>
	</g>
	<g>
		<path class="st4" d="M6208.38,3662.01c19.35-77.57,11.7-161.27,12.3-240.55c0.31-41.09,0.89-82.2,2.02-123.28
			c1.1-39.82,7.38-81.86-2.11-120.87c-5.08-20.89-33.5-17.71-39.92,0.14c-12.76,35.47-10.63,75.67-11.8,112.98
			c-1.36,43.66-1.98,87.31-1.5,130.99c0.86,79.19-1.37,165.57,27,240.66C6196.72,3668.26,6206.54,3669.4,6208.38,3662.01
			L6208.38,3662.01z"/>
	</g>
	<g>
		<path class="st4" d="M6217.95,3229.46c54.84,46.67,105.32,92.53,150.23,149.16c35.06,44.22,72.14,90.08,121.58,118.96
			c75.12,43.88,195,40.56,234.89-49.02c51.31-115.21-65.6-206.51-150.87-258.73c-58.79-36.01-120.39-67.33-184.03-93.85
			c-60.15-25.07-129.02-56.95-195.04-58.29c-17.94-0.36-26.01,25.09-9.59,33.86c45.5,24.32,99.05,34.74,147.23,53.14
			c53.85,20.57,106.27,44.97,156.89,72.54c74.07,40.34,233.36,120.23,189.68,229.48c-16.18,40.47-62.06,52.9-102.17,49.16
			c-49.88-4.66-89.9-34.54-124.46-68.79c-70.58-69.95-128.46-151.41-221-194.68C6221.02,3207.59,6207.8,3220.82,6217.95,3229.46
			L6217.95,3229.46z"/>
	</g>
	<g>
		<path class="st4" d="M5738.9,3235.01c-87.84,39.62-159.81,115-204.75,199.29c-18.28,34.29-34.45,71.85,1.14,100.94
			c20.16,16.48,46.04,27.76,68.51,40.69c31.44,18.08,62.51,36.4,95.42,51.71c25.6,11.91,46.5-21.74,22.61-38.07
			c-36.28-24.79-75.13-45.43-113.39-66.96c-23.92-13.46-54.04-24.16-40.37-55.28c7.35-16.73,16.22-32.96,25.62-48.6
			c40.17-66.84,94.58-118.6,156.12-165.39C5760.94,3244.86,5751.74,3229.22,5738.9,3235.01L5738.9,3235.01z"/>
	</g>
	<g>
		<path class="st4" d="M5828.98,3736.71c-33.74,131.27-22.07,287.47,35.12,410.44c10.32,22.19,45.83,6.22,39.9-16.55
			c-16.94-65.08-34.36-129.56-42.14-196.53c-7.55-64.95-5.09-128.28-2.02-193.38C5860.67,3723.01,5833.28,3719.94,5828.98,3736.71
			L5828.98,3736.71z"/>
	</g>
	<g>
		<path class="st4" d="M5859.16,4113.87c-3.35,1.66-16.62-3.21-21.42-2.78c-10.13,0.89-20.15,4.39-30.35,5.46
			c-19.24,2.01-38.41,0.05-57.51,3.04c-17.69,2.77-22.65,32.06-5.52,39.29c21.98,9.27,45.61,8.45,68.67,2.85
			c10.21-2.48,20.3-6.19,29.74-10.77c4.57-2.21,10.09-4.41,13.62-8.23c3.87-4.19,5.52-14.76,9.68-17.25
			C5873.76,4120.86,5866.99,4109.99,5859.16,4113.87L5859.16,4113.87z"/>
	</g>
	<g>
		<path class="st4" d="M6103.29,3782.6c-4.22,20.64,2.5,36.9,8.29,56.94c7.53,26.08,13.79,52.4,17.95,79.24
			c9.11,58.75,6.86,118.22-2.98,176.68c-1.89,11.25,1.33,21.12,11.32,27.29c48.82,30.13,102.1,38.98,158.3,29.01
			c30.56-5.42,18.02-50.52-12.18-45.44c-43.41,7.3-84.19-2.39-121.14-25.65c3.77,9.1,7.55,18.19,11.32,27.29
			c10.68-60.15,11.1-120.26,1.34-180.58c-7.05-43.56-19.86-124.54-62.11-148.91C6109.85,3776.42,6104.17,3778.27,6103.29,3782.6
			L6103.29,3782.6z"/>
	</g>
	<g>
		<path class="st4" d="M5814.73,2202.15c115.88-89.3,244.93-160.16,395.57-143.32c31.85,3.56,40.7-50.7,8.18-55.65
			c-166.51-25.31-294.19,92.59-414.69,188.37C5795.94,2197.8,5807.1,2208.03,5814.73,2202.15L5814.73,2202.15z"/>
	</g>
	<g>
		<path class="st4" d="M6515.64,2759.25c41.37-18.49,90.52,33.61,56.99,70.13c-29.88,32.55-75.46,22.98-113.92,30.97
			c-16.02,3.33-18.81,26.41-4.79,34.08c57.42,31.41,159.33-6.69,174.77-71.99c16.43-69.5-68.33-127.28-126.88-86.38
			C6487.08,2746.35,6499.63,2766.41,6515.64,2759.25L6515.64,2759.25z"/>
	</g>
	<g>
		<path class="st4" d="M5474.85,2682.57c-21.68-44.76-88.5-51.46-121.49-15.54c-46.96,51.12,0.14,136.37,52.91,162
			c16.25,7.89,39.44-9.4,27.52-27.14c-18.26-27.17-61.82-58.99-51.07-96.83c8.26-29.08,51.61-30.71,68.26-8.68
			C5461.33,2710.07,5482.61,2698.6,5474.85,2682.57L5474.85,2682.57z"/>
	</g>
	<g>
		<path class="st1" d="M7876.78,3330.85c62.72-19.68,125.36-39.69,187.48-61.23c-4.65-7.89-9.3-15.77-13.94-23.66
			c-60.86,55.02-121.72,110.03-182.57,165.05c-13.65,12.34,3.92,28.42,17.9,22.61c105.85-44,208.3-95.1,307.12-153.2
			c-6.13-7.74-12.26-15.48-18.38-23.22c-60.46,47.66-121.37,94.76-182.07,142.1c-36.1,28.16-102,67.32-79.9,122.45
			c3.96,9.87,15.66,17.25,26.03,10.32c102.04-68.27,203.39-137.58,305.01-206.47c-7.35-9.28-14.69-18.56-22.04-27.84
			c-118.29,112.9-236.57,225.81-354.86,338.71c-12.19,11.64-2.29,29.95,12.89,30.93c71.95,4.67,135.27-58.64,190.15-97.1
			c73.27-51.35,146.53-102.71,219.38-154.66c-7.31-9.24-14.62-18.47-21.93-27.71c-104.94,93.81-209.61,187.14-296.18,298.8
			c-10.9,14.06,10.3,32.42,23.96,23.29c98.02-65.5,196.04-131,294.07-196.5c-8.6-6.43-17.2-12.85-25.8-19.28
			c-28.72,69.12-64.95,133.9-106.63,196c-9.86,14.69,9.51,31.17,23.54,22.88c42.45-25.06,85.1-49.75,127.72-74.5
			c18.21-10.58,1.8-37.81-16.36-27.47c-42.84,24.39-85.64,48.84-128.66,72.93c7.85,7.63,15.7,15.25,23.54,22.88
			c44.82-63.58,80.99-132.03,110.79-203.81c5.92-14.26-13.98-27.19-25.8-19.28c-98,65.53-196,131.07-294.01,196.6
			c7.99,7.76,15.97,15.52,23.96,23.29c84.39-108.92,187.78-201.01,291.53-290.96c15.45-13.39-5.14-39.3-21.93-27.71
			c-65.19,45.02-130.05,90.49-194.86,136.05c-31.37,22.05-62.7,44.15-94.1,66.14c-31.12,21.8-61.79,46.27-101.86,43.72
			c4.3,10.31,8.6,20.62,12.89,30.93c118.12-113.06,236.25-226.12,354.37-339.19c14.7-14.07-4.87-39.52-22.04-27.84
			c-101.54,69.05-203.37,137.7-304.48,207.36c8.68,3.44,17.35,6.88,26.03,10.32c-13.88-33.28,30.97-59.62,51.87-76.39
			c21.27-17.06,42.55-34.12,63.82-51.18c44.48-35.67,88.83-71.52,133.5-106.96c13.75-10.91-4.04-31.7-18.38-23.22
			c-98.67,58.31-200.98,109.64-306.72,153.88c5.97,7.54,11.93,15.07,17.9,22.61c60.72-55.15,121.44-110.3,182.17-165.44
			c10.44-9.48-0.46-28.37-13.94-23.66c-62.24,21.74-123.94,45-185.51,68.57C7858.9,3315.54,7863.48,3335.03,7876.78,3330.85
			L7876.78,3330.85z"/>
	</g>
	<path class="st2" d="M7377.73,4116.6c-23.61,9.71-48.82,21.77-60.16,44.98c-16.22,33.19,4.95,75.18,36.32,94.03
		c31.37,18.85,69.52,20.58,105.93,21.83c448.89,15.32,529.67,107.04,974.45,43.5c27.41-3.92,426.96-85.25,448.6-102.81
		c245.31-198.96-552.16-270.36-647.88-263.74C7954.98,3973.77,7637.59,4009.73,7377.73,4116.6z"/>
	<path class="st3" d="M8208.62,4079.04c-96.14-20.86-195.81-24.79-293.25-11.55c-37.65,5.12-81.8,18.76-92.26,55.93
		c-8.39,29.83,11.1,61.97,37.5,77.5s57.99,18.24,88.43,20c129.03,7.46,258.66,4.22,387.18-9.69c34.58-3.74,74.52-11.97,90.1-43.61
		c20.57-41.79-18.79-90.39-61.57-107.41c-63.88-25.42-141.3-11.08-192.28,35.62"/>
	<g>
		<path class="st4" d="M8207.84,1820.92c-295.15,32.19-503.25,289.92-587.06,558.11c-44.98,143.96-71.89,308.51-39.31,457.71
			c31.62,144.83,132.19,257.66,243.38,349.8c49.19,40.77,101.94,91.98,169.09,95.86c68.31,3.95,146.06-16.25,211.97-32.66
			c66.11-16.45,131.85-40.64,187.11-81.3c51.95-38.23,91.25-91.81,127.02-144.86c35.86-53.18,70.4-111.69,86.29-174.4
			c18.45-72.77,11.16-146.61,8.43-220.6c-2.55-69.24,13.33-137.77,6.64-206.77c-4.89-50.38-19.11-99.49-44.66-143.38
			c-114.6-196.93-401.17-234.5-593.92-144.14c-22.98,10.77-6.95,47.8,16.96,40.16c162.16-51.81,368.68-50.94,492.87,82.77
			c63.88,68.78,82.23,161.62,71.97,252.74c-14.88,132.12,22.75,269.72-38.1,393.8c-51.57,105.16-126.06,212.06-235.61,261.03
			c-57.17,25.56-119.52,39.01-180.9,49.94c-31.54,5.62-64.07,12.55-96.1,13.91c-41.62,1.77-70.12-16.84-101.77-41.3
			c-100-77.28-201.81-164.54-255.07-281.99c-60.54-133.5-44.67-292.81-13.99-431.89c65.98-299.03,260.59-559.07,566.66-637.21
			C8218.16,1834.13,8217.01,1819.92,8207.84,1820.92L8207.84,1820.92z"/>
	</g>
	<g>
		<path class="st4" d="M7798.84,2612.56c28.67,59.56,84.21,113.5,136.41,152.69c51.79,38.89,110.09,63.87,174.97,68.74
			c58.8,4.41,118.78-8.82,171.92-33.83c25.93-12.2,50.03-27.94,71.86-46.48c12.04-10.23,23.23-21.38,33.48-33.41
			c4.86-5.7,9.46-11.64,13.93-17.64c9.75-13.08,9.96-7.46-1.55-15.56c-3.68-6.34-7.37-12.68-11.05-19.03
			c0.17-0.32,0.33-0.64,0.5-0.95c8.8-2.36,17.6-4.72,26.4-7.07c-1.13-0.5-2.27-1-3.4-1.49c-14.56-6.39-36.38,8.19-25.03,24.68
			c0.66,0.96,1.33,1.93,1.99,2.89c6.26,9.1,16.52,11.22,26.37,6.57c13.74-6.49,20.69-20.09,15.63-34.7
			c-3.8-10.98-11.72-15.84-22.76-17.17c-24.81-3-35.74,14.62-49.21,32.2c-18.71,24.43-40.82,45.65-66.33,62.93
			c-47.56,32.22-103.61,50.08-161.05,50.98c-63.23,1-121.74-19.81-173.74-55.21c-54.65-37.21-95.54-91.79-150.55-127.81
			C7801.97,2600.19,7796.3,2607.28,7798.84,2612.56L7798.84,2612.56z"/>
	</g>
	<g>
		<path class="st4" d="M7870.95,2720.89c12.14,68.16-0.9,136.74,30.62,200.88c26.22,53.35,72.79,96.94,127.34,120.25
			c53.12,22.7,120.49,30.36,166.92-10.57c23.76-20.94,38.02-50.01,52.62-77.55c21.25-40.08,43.58-79.79,62.96-120.81
			c13.44-28.45-26.75-51.41-42.79-24.01c-31.07,53.07-54.27,111.46-87.82,162.99c-35.46,54.47-105.16,44.47-156.47,18.29
			c-46.35-23.65-84.06-64.01-103.18-112.57c-20.46-51.96-12.6-109.73-34.06-161.23C7883.11,2706.99,7869.06,2710.29,7870.95,2720.89
			L7870.95,2720.89z"/>
	</g>
	<g>
		<path class="st4" d="M7869.09,3206.58c-12.08,71.37-14.23,144.49-21.22,216.5c-7.37,75.87-19.8,151.23-25.19,227.26
			c-1.51,21.29,32.43,25.11,37.27,4.82c16.96-71.05,23.6-144.14,29.59-216.83c6.21-75.45,12.97-153.13,4.24-228.56
			C7892.32,3197.15,7871.64,3191.53,7869.09,3206.58L7869.09,3206.58z"/>
	</g>
	<g>
		<path class="st4" d="M7810.33,3697.9c79.27,22.47,160.69,40.27,243.28,43.4c64.83,2.46,171.05,1.26,220.39-47.18
			c12-11.79,3.44-34.34-14-33.6c-34.16,1.46-66.97,18.67-100.71,25.31c-38.84,7.64-78.89,9.74-118.42,9.51
			c-76.17-0.44-151.8-10.81-227.49-18.17C7801.11,3675.98,7798.87,3694.65,7810.33,3697.9L7810.33,3697.9z"/>
	</g>
	<g>
		<path class="st4" d="M8334.85,3627.02c5.47-67.71-5.49-137.8-16.68-204.46c-5.72-34.11-11.95-68.17-18.86-102.06
			c-6.67-32.72-10.69-68.81-28.77-97.36c-10.97-17.32-35.81-8.99-37.68,10.1c-3.06,31.28,7.97,62.98,14.52,93.51
			c7.25,33.8,14.29,67.61,20.69,101.59c12.65,67.17,21.68,136.71,42.98,201.8C8315.3,3643.11,8333.77,3640.38,8334.85,3627.02
			L8334.85,3627.02z"/>
	</g>
	<g>
		<path class="st4" d="M7874.41,3199.49c-84.78-14.77-166.58-3.11-251.41-1.22c-46.43,1.04-77.84-47.03-107.2-78.53
			c-28.98-31.1-57.55-62.6-84.86-95.18c-52.66-62.83-102.17-130.75-136.96-205.34c-13.39-28.72-14.61-48.68-6.16-79.04
			c4.08-14.65,8.98-28.64,9.22-44.04c0.41-26.43-10.1-46.83-32-61.26c-20.48-13.48-47.63,19.24-27.28,34.89
			c30.47,23.45-6.44,80.62-3.79,113.69c2.85,35.41,24,70.36,40.96,100.67c41.2,73.61,93.69,140.33,149.49,203.36
			c28.18,31.83,57.34,62.77,86.69,93.51c23.46,24.57,44.78,52.26,80.1,57.9c43.74,6.98,92.31-8.31,136.11-11.74
			c47.88-3.74,95.79-3.08,143.74-4.85C7883.62,3221.84,7888.3,3201.91,7874.41,3199.49L7874.41,3199.49z"/>
	</g>
	<g>
		<path class="st4" d="M7892.9,3710.03c-2.65,23.92-7.2,43.85-6.76,68.3c0.41,22.78,0.95,45.55,1.82,68.31
			c1.84,48.09,4.26,96.15,6.75,144.21c1.01,19.55,9.34,58.38-7.02,73.54c-9.49,8.8-30.25,9.82-41.99,12.18
			c-25.49,5.13-51.03,7.8-59.68,35.38c-3.01,9.6,1.89,21.48,10.84,26.14c10.98,5.71,19.08,5.66,30.05-0.33
			c7.64-4.17,12.19-14.34,9.66-22.79c-0.29-0.97-0.58-1.95-0.88-2.92c-5-16.67-25.93-17.45-35.2-4.33
			c-0.61,0.86-1.22,1.73-1.83,2.59c7.82-3.19,15.64-6.37,23.46-9.56c2.4,1.77,4.81,3.55,7.21,5.32c-0.02,7.78-0.04,15.56-0.06,23.33
			c4.16-6.05,34.86-6.92,43.13-9.07c14.6-3.79,29.4-8.63,41.71-17.57c30.4-22.08,29.52-54.8,27.33-89.1
			c-3.22-50.62-6.53-101.23-10.35-151.8c-2.1-27.86-4.54-55.68-7.28-83.49c-2.53-25.71-9.19-45.44-14.98-70.43
			C7906.68,3698.61,7893.83,3701.67,7892.9,3710.03L7892.9,3710.03z"/>
	</g>
	<g>
		<path class="st4" d="M8180.49,3754.46c0.58,53.9,7.66,107.64,8.48,161.62c0.82,54.19-1.41,108.31-5.95,162.3
			c-0.93,11.05,8.27,20.4,18.06,23.42c36.08,11.13,72.85,25.28,110.71,27.55c21.33,1.28,29.62-29.31,11.16-39.39
			c-33.12-18.11-72.21-25.34-108.53-34.94c6.02,7.81,12.04,15.61,18.06,23.42c4.03-106.51,4.98-224.13-23.68-327.69
			C8204.6,3735.56,8180.31,3738.34,8180.49,3754.46L8180.49,3754.46z"/>
	</g>
	<g>
		<path class="st4" d="M8032.97,2440.71c-10.89,23.35-16.05,50.82-15.95,76.56c0.09,21.53,32.39,25.87,37.99,4.91
			c6.65-24.9,9-52.8,4.3-78.23C8057.15,2432.2,8038.02,2429.88,8032.97,2440.71L8032.97,2440.71z"/>
	</g>
	<g>
		<path class="st4" d="M8219.79,2465.99c-7.43,24.14-5.65,49.29,1.98,73.16c10.57,33.08,60.48,13.86,45.45-18.85
			c-7.09-15.42-9.27-32.73-10.15-49.5C8255.95,2449.77,8226.13,2445.38,8219.79,2465.99L8219.79,2465.99z"/>
	</g>
	<g>
		<path class="st4" d="M7964.71,2077.02c116.68-79.09,236.28-105.45,375.02-79.43c32.89,6.17,48.33-42.17,14.43-50.57
			c-136.61-33.83-303.87,12.86-401.13,115.24C7945.73,2069.94,7955.42,2083.32,7964.71,2077.02L7964.71,2077.02z"/>
	</g>
	<g>
		<path class="st4" d="M8617.25,2516.56c25.72-35.98,83.37-14.66,88.25,24.92c2.58,20.87-6.78,40.26-24.69,51.34
			c-19.29,11.94-39.29,9.22-60.67,8.88c-21.13-0.34-28.94,28.05-10.97,38.73c75.21,44.69,166-40.82,143.49-118.87
			c-10.19-35.33-41.51-62.64-78.99-62.87c-35.97-0.22-59.83,20.48-72.97,51.18C8596.38,2519.96,8611.88,2524.07,8617.25,2516.56
			L8617.25,2516.56z"/>
	</g>
	<g>
		<path class="st4" d="M7623.5,2427.39c-9.83-59.03-83.49-44.29-107.37-4.56c-30.82,51.27-13.19,124.06,32.96,160.09
			c24.22,18.91,59.49-12.42,35.6-35.23c-18.12-17.31-30.94-36.48-33.62-61.93c-1.18-11.24-1.08-23.3,2.56-34.12
			c3.72-11.07,27.93-44.47,39.45-16.09C7600.49,2453.79,7626.81,2447.25,7623.5,2427.39L7623.5,2427.39z"/>
	</g>
	<g>
		<path class="st1" d="M3756.76,3245.2c53.24-31.61,107.76-59,163.78-85.26c-8.15-10.3-16.31-20.6-24.46-30.9
			c-51.41,57.47-102.68,115.05-153.69,172.87c-15.33,17.38,5.03,47.52,26.12,32.99c57.85-39.86,119.5-71.05,186.2-93.25
			c-5.55-13.14-11.1-26.28-16.65-39.42c-84.98,52.69-153.99,124.71-202.63,212.11c-10.52,18.89,11.33,41.53,30.39,29.53
			c103.29-65.01,206.58-130.02,309.88-195.02c-8.99-11.36-17.98-22.71-26.97-34.07c-104.85,86.03-209.69,172.05-314.54,258.08
			c-16.57,13.6-1.25,35.36,15.52,37.24c69.85,7.81,127.15-43.38,180.8-80.66c66.9-46.5,133.81-92.99,200.71-139.49
			c-9.04-11.41-18.07-22.83-27.11-34.24c-120.52,93.51-229.42,200.43-324.36,319.85c-14.99,18.85,3.66,46.84,26.83,33.89
			c116.08-64.95,229.68-134.05,340.39-207.77c-7.26-12.19-14.52-24.39-21.79-36.58c-127.18,91.3-255.9,186.06-337.53,322.77
			c-11.13,18.64,11.21,39.02,29.34,28.52c124.51-72.1,244.74-151.14,360.28-236.88c-8.71-11-17.42-22-26.12-33
			c-69.57,68.91-139.15,137.81-208.72,206.71c-18.35,18.17,5.07,44.15,26.49,33.47c61.94-30.87,123.83-61.87,185.59-93.09
			c-10.58-4.19-21.16-8.39-31.74-12.58c6.52,23,2.85,42.7-13.14,60.62c-17.23,19.32,10.75,46.35,28.55,27.64
			c26.6-27.97,35.74-61.94,26.41-99.47c-3.56-14.34-19.75-18.5-31.74-12.58c-62.07,30.66-124.03,61.54-185.92,92.54
			c8.83,11.16,17.66,22.31,26.49,33.47c69.43-69.04,138.86-138.09,208.29-207.13c16.85-16.76-6.18-47.86-26.12-33
			c-115.42,86-235.53,165.07-360.17,237.08c9.78,9.51,19.56,19.01,29.34,28.52c77.85-130.09,201.02-220.21,322.19-307.02
			c22.42-16.06,1.65-52.15-21.79-36.58c-110.79,73.61-224.35,142.79-340.87,206.97c8.94,11.3,17.88,22.59,26.83,33.89
			c95.74-118.8,204.16-225.96,324.69-319.53c19.99-15.52-6.49-48.58-27.11-34.24c-58.53,40.7-117.06,81.4-175.59,122.1
			c-51.55,35.84-115.89,99.44-182.83,91.98c5.17,12.41,10.35,24.82,15.52,37.24c104.82-86.05,209.64-172.11,314.46-258.16
			c19.69-16.17-6.03-47.25-26.97-34.07c-103.28,65.04-206.55,130.07-309.83,195.11c10.13,9.84,20.26,19.69,30.39,29.53
			c44.96-80.84,107.86-147.44,186.31-196.53c20.29-12.7,7.77-47.66-16.65-39.42c-70.15,23.67-135.89,56.27-196.7,98.55
			c8.71,11,17.41,21.99,26.12,32.99c50.81-58.06,101.34-116.34,151.75-174.75c14.69-17.02-3.87-42.4-24.46-30.9
			c-53.54,29.92-105.59,63.3-156.58,97.36C3729.79,3232.5,3742.27,3253.81,3756.76,3245.2L3756.76,3245.2z"/>
	</g>
	<g>
		<path class="st1" d="M2770.62,957.87c70.6-40.74,141.18-81.41,212.49-120.92c-9.13-8.87-18.26-17.75-27.39-26.62
			c-80.56,107.59-159.74,216.21-239.31,324.53c-14.92,20.31,17.64,42.62,34.32,25.55c119.48-122.34,240.16-243.49,362.03-363.46
			c-12.24-9.11-24.48-18.23-36.73-27.34c-103.71,151.89-207.24,303.9-310.44,456.14c-15.76,23.26,19.58,47.73,38.35,28.55
			c139.64-142.8,279.2-285.67,418.94-428.38c-12.79-9.52-25.59-19.05-38.38-28.57c-129.07,202.25-269.38,397.03-420.72,583.21
			c-20.2,24.85,10.94,54.98,35.25,34.14c192.46-164.94,368.79-347.56,527.18-545.44c-13.9-7.8-27.79-15.6-41.69-23.39
			c-11.15,57.92-55.03,103.95-89.49,149.75c-39.8,52.9-79.6,105.8-119.41,158.7c-79.6,105.8-159.19,211.6-238.72,317.46
			c-17.36,23.11,19.72,47.47,38.89,28.95c176.06-170.08,351.85-340.45,528.21-510.22c-11.41-11.04-22.81-22.09-34.22-33.13
			c-167.05,173.88-335.8,351.16-448.88,566.37c-13.35,25.4,18.29,47.69,39.1,29.11c161.78-144.45,323.55-288.91,485.33-433.36
			c-11.61-11.24-23.22-22.49-34.83-33.73c-153.33,148.72-291.25,312.31-412.22,488.35c-16.92,24.62,18.99,45.01,38.6,28.73
			c139.41-115.7,278.81-231.39,418.22-347.09c-12.89-9.6-25.79-19.2-38.68-28.8c-38.87,81.78-88.32,156.81-148.88,224.17
			c-21.21,23.59,13.88,57.12,34.87,33.76c63.29-70.42,115.91-148.52,156.55-234.07c12.23-25.76-17.29-46.56-38.68-28.8
			c-139.38,115.72-278.76,231.44-418.14,347.16c12.87,9.58,25.73,19.16,38.6,28.73c118.65-172.73,254.08-332.67,404.61-478.43
			c23.01-22.28-11.65-54.4-34.83-33.73c-161.9,144.33-323.8,288.67-485.7,433c13.03,9.7,26.07,19.4,39.1,29.11
			c111.44-211.79,275.95-385.82,440.11-557.36c21.6-22.57-12.09-54.52-34.22-33.13c-176.04,170.12-352.67,339.64-529.01,509.45
			c12.96,9.65,25.93,19.3,38.89,28.95c82.77-109.8,165.47-219.66,248.17-329.52c39.81-52.89,79.63-105.79,119.44-158.68
			c34.61-45.98,74.13-91.01,85.33-149.09c4.22-21.87-24.9-44.36-41.69-23.39c-158.45,197.86-334.9,380.27-527.15,545.47
			c11.75,11.38,23.5,22.76,35.25,34.14c153.74-189.64,296.62-387.69,427.67-593.67c15.01-23.6-19.45-47.96-38.38-28.57
			c-139.55,142.89-279.26,285.61-418.91,428.41c12.78,9.52,25.56,19.03,38.35,28.55c103.17-152.19,206-304.6,308.66-457.14
			c15.1-22.43-18.6-45.42-36.73-27.34c-121.05,120.77-241.01,242.63-359.86,365.56c11.44,8.52,22.88,17.03,34.32,25.55
			c78.95-108.61,158.29-216.93,236.24-326.26c11.76-16.49-11.42-37.02-27.39-26.62c-68.32,44.49-137.34,87.81-206.42,131.1
			C2741.27,943.85,2755.03,966.87,2770.62,957.87L2770.62,957.87z"/>
	</g>
	<path class="st2" d="M3154.17,4153.5c-23.61,9.71-48.82,21.77-60.16,44.98c-16.22,33.19,4.95,75.18,36.32,94.03
		c31.37,18.85,69.52,20.58,105.93,21.83c448.89,15.32,529.67,107.04,974.45,43.5c27.41-3.91,426.96-85.25,448.6-102.81
		c245.31-198.96-552.16-270.36-647.88-263.73C3731.42,4010.67,3414.03,4046.64,3154.17,4153.5z"/>
	<path class="st3" d="M4012.49,4115.95c-128.28-20.86-261.26-24.79-391.27-11.55c-50.24,5.12-109.15,18.76-123.1,55.93
		c-11.2,29.83,14.81,61.97,50.03,77.5s77.38,18.24,117.99,20.01c172.16,7.46,345.12,4.22,516.6-9.69
		c46.13-3.74,99.43-11.98,120.22-43.61c27.45-41.79-25.08-90.39-82.15-107.41c-85.23-25.42-188.53-11.08-256.55,35.62"/>
	<g>
		<path class="st4" d="M3976.48,1769.56c-256.59,61.29-397.76,313.69-469.25,546.84c-37.8,123.29-67.38,253.64-67.56,383.19
			c-0.16,107.82,28.63,193.2,99.29,274.43c74.02,85.09,168.85,160.36,270.5,209.63c95.24,46.16,197.12,53.89,290.76-2.58
			c98.49-59.4,159.91-162.59,213.32-260.99c60.38-111.22,125.51-223.18,160.64-345.61c18.2-63.42,27.98-131.85,8.69-196.22
			c-19.98-66.65-65.66-123.07-120.61-164.49c-136.61-102.97-317.59-105.01-479.82-80.95c-29.23,4.33-23.45,54.79,6.38,51.17
			c137.32-16.68,286.8-23.11,409.77,51.1c107.32,64.77,159.54,171.27,131.72,294.17c-25.84,114.15-84.07,219.42-139.67,321.32
			c-48.44,88.79-94.88,182.11-171.31,250.72c-76.75,68.9-172.41,85.45-266.39,44.09c-92.51-40.72-176.58-105.64-246.86-177.65
			c-67.66-69.33-107.24-138.45-111.94-236.71c-5.53-115.55,17.9-232.15,48.06-343.12c31.83-117.11,71.81-233.89,139.29-335.64
			c77-116.13,179.31-200.49,304.75-259.6C3999.85,1786.25,3990.12,1766.3,3976.48,1769.56L3976.48,1769.56z"/>
	</g>
	<g>
		<path class="st4" d="M3863.66,2480.01c-5.87,18.04-8.7,37.57-12.35,56.19c-6.62,33.76,45.91,39.26,46.53,6.01
			c0.36-19.06,1.71-38.85-0.24-57.82C3895.69,2465.63,3869.89,2460.86,3863.66,2480.01L3863.66,2480.01z"/>
	</g>
	<g>
		<path class="st4" d="M4067.01,2506.63c-1.31,12.26-7.08,28.75-15.08,38.34c-10.09,12.09-11,28.97,2.69,39.19
			c13.49,10.07,30.14,5.05,39.45-7.82c7.47-10.33,13.16-22.48,16.01-34.94c3.27-14.26,1.83-26.27-1.9-40.18
			C4101.83,2477.61,4069.37,2484.6,4067.01,2506.63L4067.01,2506.63z"/>
	</g>
	<g>
		<path class="st4" d="M3655.64,2591.28c8.82,63.39,35.02,125.21,76.76,174.61c45.49,53.84,109.29,79.11,178.3,85.59
			c38.02,3.57,76.29,0.71,114.13-3.63c32.68-3.75,68.46-5.51,99.23-17.87c59.89-24.06,80.6-89.56,101.29-145.03
			c9.13-24.48-25.55-32.06-38.42-15.51c-33.63,43.24-41.5,104.15-101.56,118.56c-55.07,13.21-117.57,17.7-174,14.2
			c-61.05-3.8-116.29-27.3-156.03-74.73c-35.69-42.59-55.37-96.05-86.17-141.8C3664.4,2578.59,3654.54,2583.33,3655.64,2591.28
			L3655.64,2591.28z"/>
	</g>
	<g>
		<path class="st4" d="M3803.1,2097.72c62.03-61.85,138.16-109.49,223.23-131.67c45.49-11.86,207.34-43.78,217.17,29.09
			c4.27,31.64,57.18,23.71,56.39-7.4c-2.8-111.21-168.6-93.51-239.49-76.56c-107.72,25.76-205.13,87.16-269.08,177.78
			C3786.32,2096.06,3797.32,2103.49,3803.1,2097.72L3803.1,2097.72z"/>
	</g>
	<g>
		<path class="st4" d="M3509.59,2396.41c-4.15-80.78-114.49-83.92-152.85-26.07c-20.9,31.51-24.96,74.84-8.55,109.14
			c21.27,44.47,73.93,49.01,99.72,87.16c13.56,20.05,45.14,2.47,33.5-19.39c-22.25-41.78-85.33-51.58-97.69-97.26
			c-17.46-64.53,76.43-121.58,103.74-50.68C3491.59,2410.05,3510.27,2409.81,3509.59,2396.41L3509.59,2396.41z"/>
	</g>
	<g>
		<path class="st4" d="M4458.24,2597.83c13.04-26.89,54.8-21.22,69.94,0.93c17.43,25.5,5.82,63.32-10.88,85.7
			c-34.45,46.15-91.57,51.88-144.17,42.33c-20.42-3.71-32.51,21.41-14.44,33.46c84.28,56.19,210.85-14.35,224.51-109.48
			c6.04-42.03-11.02-91.03-55.54-103.48c-37.61-10.52-72.5,7.56-83.34,44.92C4441.97,2600.32,4454.48,2605.57,4458.24,2597.83
			L4458.24,2597.83z"/>
	</g>
	<g>
		<path class="st4" d="M3780.49,3155.44c-67.44,32.07-77.58,113.52-74.46,180.45c5.04,108.17,14.04,218.53,30.15,325.63
			c3.94,26.22,47.67,19.77,46.88-6.15c-2.88-93.73-13.77-187.91-23.97-281.09c-7.15-65.35-21.18-151.97,38.21-197.62
			C3810.59,3166.43,3793.51,3149.24,3780.49,3155.44L3780.49,3155.44z"/>
	</g>
	<g>
		<path class="st4" d="M3681.52,3723.36c78.49,23.69,157.79,33.92,239.92,36.63c80.23,2.65,166.81,4.67,245.8-10.74
			c31.77-6.2,24.49-54-6.78-54.43c-79.11-1.08-158.86,8.45-238.25,8.5c-79.59,0.05-158.7-1.35-238.08,2.34
			C3673.92,3706.14,3671.29,3720.27,3681.52,3723.36L3681.52,3723.36z"/>
	</g>
	<g>
		<path class="st4" d="M4119.78,3180.07c-6.87,2.65,31.53,113.03,34.53,124.87c11.87,46.87,20.46,94.62,23.85,142.9
			c3.09,44.09,2.8,88.39-2.16,132.34c-4.99,44.15-25.66,91.8-21.96,135.95c1.49,17.71,25.93,32.98,39.63,15.91
			c37.9-47.22,41.21-126.24,44.33-184.82c3.63-68.31-2.26-138.31-19.91-204.51c-8.52-31.96-19.69-62.85-33.17-93.04
			c-10.1-22.61-23.03-59.29-44.02-74.03c-14.76-10.36-45.45-3.74-26.88,15.69c1.89,1.98,5.14,2.13,7.43,0.87
			c0.94-0.52,1.87-1.03,2.81-1.55C4129.95,3187.51,4126.11,3177.63,4119.78,3180.07L4119.78,3180.07z"/>
	</g>
	<g>
		<path class="st4" d="M3787.57,3756.38c0.61,1.45,1.22,2.89,1.83,4.34c-3.15-1.77-6.29-3.53-9.44-5.3
			c-7.14,57.63-1.45,113.1,3.8,170.93c5.02,55.33,8.55,112.14,20.89,166.37c6.4,28.1,51.04,21.72,50.92-6.68
			c-0.38-87.14-16.49-179.09-31.87-264.8c-3.49-19.44-5.87-64.93-31.2-70.01c-8.96-1.8-15.76-0.77-15.31,10.31
			c0.1,2.53,1.78,5.28,4.46,5.79c0.88,0.17,1.77,0.34,2.65,0.5C3791.75,3769.23,3795.24,3758.21,3787.57,3756.38L3787.57,3756.38z"
			/>
	</g>
	<g>
		<path class="st4" d="M3794.45,4100.2c-47.63,23.78-87.02,25.83-138.98,18.27c-24.67-3.59-43.36,27.98-18.37,42.59
			c55.54,32.48,137.68,14.11,177.22-35.77C3825.72,4110.9,3811.72,4091.57,3794.45,4100.2L3794.45,4100.2z"/>
	</g>
	<g>
		<path class="st4" d="M4043.94,3757.96c-12.82,61.52-15.06,122.04-16.54,184.78c-1.27,54.06-14.47,127.59,9.03,177.4
			c6.43,13.62,30.09,13.13,36.37-0.35c23.47-50.36,10.37-122.45,9.09-176.99c-1.48-62.82-3.57-123.31-16.49-184.91
			C4063.22,3747.39,4046.12,3747.5,4043.94,3757.96L4043.94,3757.96z"/>
	</g>
	<g>
		<path class="st4" d="M4059.28,4143.85c19.47,10.28,40.22,17.01,60.94,24.32c22.23,7.84,44.26,18.01,67.01,23.95
			c31.33,8.18,44.86-38.17,13.71-48.05c-22.35-7.09-46.51-10.26-69.43-15.47c-21.46-4.88-42.59-10-64.58-11.74
			C4052.35,4115.69,4046.59,4137.15,4059.28,4143.85L4059.28,4143.85z"/>
	</g>
	<g>
		<path class="st4" d="M3094.01,2862.52c-61.16-21.17-74.47-105.69-67.58-161.49c4.77-38.61,17.73-76.99,34.4-111.97
			c16.08-33.72,41.02-62.5,55.64-96.53c6.24-14.53-14.28-27.45-26.21-19.58c-72.35,47.73-113.66,173.51-112.06,256.78
			c1.37,71.12,34.45,146.06,113.17,150.72C3102.3,2881.09,3103.56,2865.82,3094.01,2862.52L3094.01,2862.52z"/>
	</g>
	<g>
		<path class="st4" d="M3096.4,2517.65c4.21,25.45,10.91,49.63,10.05,75.66c-0.29,8.79,6.04,15.01,13.7,17.76
			c56.64,20.33,139.76,43.56,106.52,123.02c-27.07,64.72-102.83,88.68-152.5,132.41c-17.99,15.83,5.7,45.2,25.56,32.29
			c71.39-46.42,175.75-94.52,178.95-193.61c2.71-83.78-82.27-121.53-153.22-130.22c5.97,4.5,11.93,9,17.9,13.51
			c-10.13-26.15-17.53-52.96-32.77-76.7C3105.79,2504.29,3095.02,2509.33,3096.4,2517.65L3096.4,2517.65z"/>
	</g>
	<g>
		<path class="st4" d="M3092.56,2858.6c55.01,128.03,132.91,254.34,250.38,335.25c51.42,35.42,112.59,55.75,175.27,48.25
			c72.29-8.65,136.05-41.75,209.89-42.84c28.97-0.43,38.24-44.98,7.57-51.45c-60.21-12.71-117.65,12.55-174.61,28.75
			c-67.4,19.18-125.81,12.87-186.34-24.03c-54.93-33.49-101.14-82.01-142.62-130.69c-44.98-52.8-90.24-111.65-125.09-171.6
			C3101.59,2840.92,3088.49,2849.14,3092.56,2858.6L3092.56,2858.6z"/>
	</g>
	<g>
		<path class="st4" d="M4130.8,3168.79c45.84,63.7,103.36,119.88,158.08,175.9c44.32,45.37,95.3,99.64,161.67,108.74
			c54.49,7.47,103.57-23.87,122.2-75.3c21.34-58.9,0.53-128.2-34.91-177.22c-11.3-15.63-35.96-6.35-32.15,13.33
			c9.41,48.49,36.17,97.37,15.8,146.83c-24.94,60.56-86.46,38.28-127.51,8.89c-88.91-63.65-156.66-154.15-246.78-217.35
			C4137.85,3146.04,4123.95,3159.28,4130.8,3168.79L4130.8,3168.79z"/>
	</g>
	<g>
		<path class="st4" d="M3724.12,2782.93c52.98,44.36,22.12,120.23,37.7,179.04c16.03,60.5,69.93,93.08,126.56,109.99
			c29.33,8.76,63.43,17.89,94.2,18.02c34.57,0.14,57.72-17.1,78.47-43.56c42.07-53.67,64.23-127.71,44.95-194.35
			c-5.62-19.41-35.49-15.64-35.93,4.72c-1.3,59.67-9.46,131.42-58.71,173c-35.33,29.83-137.49-9.11-170.52-33.85
			c-74.32-55.67-20.05-185.44-104.53-228.57C3726.92,2762.57,3714.98,2775.27,3724.12,2782.93L3724.12,2782.93z"/>
	</g>
	<g>
		<path class="st4" d="M3230.11,1978.94c-6.8,53.15,19.62,103.42,68.77,125.61c15.13,6.83,29.89,0.78,35.92-14.64
			c27.29-69.79,69.59-223.71-17.1-271.46c-9.6-5.29-25.73,3.85-21.02,15.84c15.98,40.62,33.97,69.77,28.85,115.78
			c-4.88,43.87-22.42,86.46-37.85,127.48c11.97-4.88,23.95-9.76,35.92-14.64c-35.6-15.53-59.91-44.14-62.05-83.94
			C3260.46,1958.62,3232.58,1959.65,3230.11,1978.94L3230.11,1978.94z"/>
	</g>
	<g>
		<path class="st4" d="M3133.06,1961.91c89.55-11.97,189.38-25.53,273.99-58.19c31.25-12.06,19.7-53.1-13.03-48.63
			c-89.79,12.26-183.65,48.49-267.81,81.25C3109.79,1942.73,3115.84,1964.21,3133.06,1961.91L3133.06,1961.91z"/>
	</g>
	<g>
		<path class="st4" d="M3069.8,1847.77c89.94-10.3,180.03-19.83,268.25-41.12c34.13-8.24,20.15-57.78-13.7-51.15
			c-87.67,17.18-172.21,45.66-256.89,73.43C3057.69,1832.13,3058.2,1849.1,3069.8,1847.77L3069.8,1847.77z"/>
	</g>
	<g>
		<path class="st4" d="M3085.62,1742.92c28.27-4.78,55.7-9.87,84.55-9.25c29.07,0.62,54.9,8.46,83.18,13.35
			c23.87,4.13,45.31-31.31,18.47-42.81c-59.8-25.62-140.8-19.15-197.15,12.8C3059.62,1725.55,3070.26,1745.52,3085.62,1742.92
			L3085.62,1742.92z"/>
	</g>
	<g>
		<path class="st4" d="M3057.64,1624.78c-173.66-46.89-252.36-213.55-287.73-375.78c-17.53-80.43-36.18-166.1-28.13-248.85
			c8.25-84.76,56.01-145,133.68-178.45c68-29.29,143.47-37.2,215.91-48.74c60.68-9.67,102.87-17.74,153.1,24.66
			c87.19,73.6,134.48,192.22,179.72,293.96c18.71,42.08,37.96,85.7,42.79,132.03c5.34,51.21-13.24,93.17-43.13,133.44
			c-63.89,86.06-146.02,153.1-215.34,233.72c-16.44,19.11,4.67,49.78,28.04,35.43c89.21-54.78,162.82-144.1,226.4-226.14
			c27.28-35.21,51.56-72.15,59.83-116.66c9.96-53.59-2.47-108.54-21.44-158.7c-46.9-123.98-107.85-268.02-206.55-359.51
			c-46.21-42.84-101.08-66.77-164.47-56.06c-83.73,14.15-171.37,25.08-251.06,55.5c-78.6,30-147.57,80.59-175.33,162.87
			c-29.05,86.13-12.72,181.85,3.44,268.77c35.1,188.81,122.25,432.94,346.63,453.19C3068.54,1650.77,3071.42,1628.5,3057.64,1624.78
			L3057.64,1624.78z"/>
	</g>
	<g>
		<path class="st4" d="M3117.88,1755.2c-42.59,97.45,104.88,151.22,101.33,242.69c-0.75,19.36,30.61,23.67,34.43,4.45
			c9.07-45.64-11.82-78.73-40.8-112.33c-31.29-36.29-82.24-72.73-74.2-126.43C3140.35,1752.15,3123.42,1742.52,3117.88,1755.2
			L3117.88,1755.2z"/>
	</g>
	<g>
		<path class="st4" d="M3090.74,1539.9c5.22-153.54-21.81-305.57-73.07-450.14c-6.89-19.43-33.45-19.49-40.29,0.14
			c-11.26,32.31-22.43,64.65-33.98,96.85c-7.62,21.23-19.61,45.13-15.51,68.36c8.29,47.05,63.31,42.57,99.62,38.72
			c90.95-9.64,190.35-58.62,221.42-150.81c24.76-73.47-1.62-168.63-70.6-208.94c-26.25-15.34-79.09-31.54-97.71,3.89
			c-10.06,19.14,0.06,40.67,6.31,59.2c11.53,34.21,21.67,68.91,30.94,103.8c19.18,72.16,34.21,145.4,44.98,219.28
			c11.42,78.34,12.15,158.13,25.34,236.1c3.98,23.53,37.32,15.14,39.5-5.18c12.01-111.78-12.5-233.88-35.36-343.1
			c-12.33-58.91-27.38-117.25-45.14-174.76c-2.06-6.68-26.42-70.34-26.31-70.48c7.56-9.49,47.11,21.56,52.21,26.78
			c64.68,66.18,36.42,169.58-34.14,217.44c-38.76,26.29-86.36,39.43-132.83,41.67c-44.48,2.15-27.37-28.45-18.02-57.79
			c9.62-30.22,19.61-60.33,29.48-90.48c-13.43,0.05-26.86,0.09-40.29,0.14c53.15,141.34,81.38,288.76,90.71,439.29
			C3068.89,1554.19,3090.25,1554.31,3090.74,1539.9L3090.74,1539.9z"/>
	</g>
	<g>
		<path class="st4" d="M2812.45,1732.97c-20.91,8.65-40.68,20.04-60.49,30.91c-17.62,9.67-41.02,17.26-50.36,36.01
			c-6.61,13.29,1.38,28.97,16.95,29.2c22.34,0.33,41.21-17.83,59.16-29.75c19-12.62,38.25-25.13,55.76-39.8
			C2850.15,1745.57,2828.61,1726.27,2812.45,1732.97L2812.45,1732.97z"/>
	</g>
	<g>
		<path class="st4" d="M2487.17,1554.04c74.88,19.12,179.33-37.05,223.19-95.79c15.44-20.68-15.12-48.45-35.3-34.31
			c-30.98,21.7-57.47,47.4-90.92,65.87c-31.95,17.64-68.55,27.39-99.24,46.72C2477.98,1540.89,2478.77,1551.9,2487.17,1554.04
			L2487.17,1554.04z"/>
	</g>
	<g>
		<path class="st4" d="M2498.69,1051.49c61.63,10.17,126.9,14.22,189.27,11.45c31.15-1.38,32.23-46.44,0.65-47.84
			c-62.51-2.78-127.97,1.34-189.7,11.48C2486.37,1028.64,2485.98,1049.39,2498.69,1051.49L2498.69,1051.49z"/>
	</g>
	<g>
		<path class="st4" d="M2566.07,461.08c15.4,55.17,36.48,109.58,61.91,160.9c24.89,50.23,48.34,107.41,87.6,148.23
			c15.04,15.64,42.97-0.64,37.28-21.35c-14.44-52.55-47.86-100.54-72.55-148.8c-26.26-51.34-54.04-102.29-84.31-151.39
			C2586.69,433.57,2561.11,443.28,2566.07,461.08L2566.07,461.08z"/>
	</g>
	<g>
		<path class="st4" d="M3077.7,432.01c-22.19,78.36-34.37,172.44-21.64,253.35c4.13,26.23,42.93,17.61,44.73-5.87
			c3.1-40.3-0.4-81.8,0.07-122.29c0.48-40.6,3.47-81.08,4.13-121.66C3105.26,419.85,3081.89,417.22,3077.7,432.01L3077.7,432.01z"/>
	</g>
	<g>
		<path class="st4" d="M3261.07,913.99c60.64-28.76,116.31-70.55,171.76-108.05c47.31-31.99,114.63-63.09,147.23-110.69
			c10.41-15.21-6.89-34.62-23.35-29.88c-54.33,15.63-107.51,71.24-151.9,105.17c-52.9,40.44-109.94,79.59-156.15,127.76
			C3240.24,907.07,3250.9,918.81,3261.07,913.99L3261.07,913.99z"/>
	</g>
	<g>
		<path class="st4" d="M3569.23,1074.13c66.04-21.21,131.36-45.23,195.39-71.95c29.53-12.32,4.15-56.37-25.33-42.53
			c-60.88,28.58-120.59,60.14-178.81,93.75C3549.36,1059.82,3556.58,1078.2,3569.23,1074.13L3569.23,1074.13z"/>
	</g>
	<g>
		<path class="st4" d="M3370.62,1430.11c30.43-9.38,57.43,12.67,80.7,28.69c26.86,18.48,53.81,36.67,81.35,54.13
			c52.34,33.17,104.45,70.8,160.93,96.53c26.33,11.99,62.56-23.27,34.76-44.46c-66.64-50.78-145.56-90.5-219.69-129.29
			c-41.69-21.81-110.12-68.96-148.19-18.56C3355.67,1423.55,3363.68,1432.25,3370.62,1430.11L3370.62,1430.11z"/>
	</g>
	<g>
		<path class="st4" d="M4527.83,3193.45c-32.18-32.3-67.44-59.91-100.89-90.68c-18.91-17.39-21.71-29.02,1.34-46.83
			c15.64-12.08,37.07-23.16,55.9-28.59c40.98-11.82,74.88,19.42,74.83,60.83c-0.06,46.25-40.03,72.83-74.66,94.83
			c-19.61,12.46-7.65,45.26,16.05,38c56.49-17.29,106.73-71.49,106.82-132.78c0.08-55.02-41.13-109.37-98.56-110.87
			c-50.53-1.32-139.12,39.25-145.8,95.97c-2.94,24.96,11.9,42.39,30.78,56.4c38.99,28.92,81.91,53.17,124.65,75.91
			C4525.91,3209.69,4534.23,3199.88,4527.83,3193.45L4527.83,3193.45z"/>
	</g>
	<g>
		<path class="st4" d="M4901.77,1341.51c-28.75,39.29-60.39,93.98-19.48,137.51c20.35,21.65,48.08,12.68,60.07,42.26
			c6.81,16.81,15.38,39,10.35,57.31c-4.44,16.14-20.03,28.05-28.17,42.27c-23.66,41.34-16.51,101.97,27.01,127.66
			c39.11,23.09,92.57,8.43,113.54-31.46c-12.26,1.69-24.52,3.37-36.78,5.06c31.32,35.64,69.06,59.84,113.77,75.4
			c-4.64-11.19-9.28-22.39-13.93-33.58c-44.56,60.13,13.49,140.04,79.58,147.42c67.47,7.53,119.81-65.31,72.57-120.95
			c-5.66,13.19-11.32,26.38-16.99,39.57c9.18-0.79,53.67-10.54,60.04-5.19c7.82,6.56,5.28,19.16,7.22,28.75
			c4.16,20.54,12.65,38.4,33.3,46.5c47.83,18.77,118.69-20.13,160.09-41.96c8.81-4.65,14.64-17.15,11.38-26.87
			c-15.11-45.14-1.76-93.47,43.32-114.19c-12.63-5.01-25.27-10.02-37.9-15.02c7.25,43.86,56.05,63.66,96.22,53.48
			c53.79-13.63,73.07-72.16,84.48-119.98c2.74-11.5-1.75-23.82-12.33-29.71c-28.52-15.9-41.47-50.74-17.7-77.5
			c17.43-19.63,39.16-13.18,59.63-24.9c43.31-24.79,14.17-77.63,2.6-113.16c-10.97-33.7-23.13-75.63-61.29-87.4
			c-31.2-9.62-65.88,6.7-74.05,38.69c14.51-3.89,29.03-7.78,43.54-11.67c-25.49-20.9-48.14-40.93-34.56-75.49
			c6.14-15.62,9.84-30.7,4.66-47.33c-9.89-31.72-44.08-48.5-73.5-57.26c-65.22-19.41-178.56-10.83-161.59,84.39
			c5.9-9.93,11.79-19.86,17.69-29.79c-15.64,5.43-38.7,14.76-55.26,8.98c-22.67-7.92-16.95-32.89-27.66-50.5
			c-18.09-29.73-54.43-25.74-84-21.04c-31.23,4.95-63.4,16.68-79.08,46.27c-14.33,27.04-10.26,58.5,12.14,79.19
			c1.69-12.65,3.39-25.29,5.08-37.94c-32.9,19.77-65.8,39.54-98.71,59.31c11.22,2.8,22.44,5.59,33.66,8.39
			c-51.2-97.89-187.11-64.76-200.63,39.96c-4,31.02,45.43,30.46,49.35,0.05c7.89-61.32,82.24-65.77,108.64-15.33
			c6.07,11.6,22.92,14.85,33.66,8.39c32.9-19.78,65.79-39.56,98.68-59.34c13.07-7.86,16.95-26.99,5.08-37.94
			c-30.04-27.73,48.53-55.97,67.54-46.49c15.67,7.82,14.72,41.5,29.23,56.01c29.98,29.99,78.99,20.83,114.78,8.79
			c13.4-4.51,20.02-15.9,17.69-29.79c-7.95-47.39,71.99-31.34,95.09-24.63c9.84,2.86,22.73,6.35,30.9,12.92
			c17.55,14.08,6.88,24.3,2.3,41.69c-13,49.41,14.98,84.48,51.92,115.04c14.27,11.81,38.37,8.22,43.54-11.67
			c2.78-10.69,22.68,16.68,23.74,19c4.41,9.61,7.18,20.2,10.39,30.21c3.34,10.41,20.35,47.43,16.23,55.28
			c-2.26,4.3-30.27,7.45-37.37,11.15c-13.47,7.03-25.37,17-34.68,28.95c-40.08,51.44-20.09,121.79,35.08,152.34
			c-4.11-9.9-8.22-19.81-12.33-29.71c-5.56,23.61-10.6,50.87-27.09,69.55c-13.03,14.76-46.56,24.98-51.81-2.82
			c-3.31-17.55-24.3-21.65-37.9-15.02c-62.38,30.39-86.24,106.55-64.69,170.28c3.79-8.96,7.59-17.91,11.39-26.87
			c-27.93,14.84-57.13,27.6-87.89,35.34c-12.66,3.19-24.66,9.74-33.4-2.81c-4.75-6.82-2.81-21.82-4.66-29.92
			c-13.21-57.82-62.19-39.89-109.61-35.77c-20.8,1.81-30.74,23.39-16.99,39.57c10.1,11.88,3.01,30.8-8.54,38.36
			c-13.87,9.08-37,3.02-49.74-4.84c-24.28-14.98-38.12-45.76-19.99-70.25c9.64-13.02-1.24-29.18-13.93-33.58
			c-37.24-12.94-67.3-34.29-93.3-63.77c-9.62-10.9-30.25-7.41-36.78,5.06c-9.29,17.75-31.58,25.42-49.55,14.43
			c-27.62-16.88-17.88-54.66-3.48-75.59c20.08-29.2,33.04-52.05,25.49-89.05c-5.32-26.05-18.29-67.19-43.19-81.39
			c-19.12-10.91-37.89-1.8-49.49-26.62c-12.59-26.94,5.79-59.3,19-82.46C4931.68,1339.32,4910.94,1328.98,4901.77,1341.51
			L4901.77,1341.51z"/>
	</g>
	<g>
		<path class="st4" d="M5274.26,1414.4c-66.79-11.1-113.62,61.6-100.26,122.96c16.3,74.89,103.88,113.13,174.16,101.73
			c74.81-12.13,144.96-81.57,117.22-161.32c-29.01-83.39-138.19-108.21-210.58-68.06c-22.78,12.63-6.97,44.59,16.78,39.73
			c51.32-10.5,116.57-21.4,144.56,37.16c25.78,53.93-27.72,99.2-76.88,106.69c-42.79,6.52-93.12-10.85-115.32-49.78
			c-25.25-44.29,3.04-100.76,50.19-114.71C5280.77,1426.84,5282.16,1415.71,5274.26,1414.4L5274.26,1414.4z"/>
	</g>
	<g>
		<path class="st4" d="M5880.52,900.15c27.46-12.87,61.1-19.04,91.22-20.73c-6.86-8.9-13.72-17.79-20.58-26.69
			c-8.68,26.69-1.84,54.95,19.08,74.24c31.47,29.03,56.65,6.19,92.32,11.7c9.07,1.4,20.75-0.93,25.21-10.27
			c9.71-20.34,14.98-39.34,16.75-61.88c-7.52,7.26-15.03,14.51-22.55,21.77c31.21,1.83,61.21,6.99,91.33,15.3
			c-5.14-8.89-10.28-17.78-15.42-26.67c-7.91,25.83-15.81,51.65-23.72,77.48c-2.98,9.73,2.06,19.36,10.19,24.55
			c20.59,13.16,37.62,28.4,53.56,46.72c6.05,6.95,19.34,8.13,26.9,3.14c12.44-8.21,24.88-16.43,37.31-24.64
			c-10.14-2.53-20.28-5.05-30.41-7.58c16.36,37.58,31.73,75.57,48.09,113.16c4.77-11.25,9.54-22.49,14.31-33.74
			c-48.99,13.92-85.18,50.82-95.77,101c-2.37,11.24,1.9,19.28,10.71,25.81c18.22,13.52,36.45,27.03,54.67,40.55
			c-2.79-10.42-5.58-20.84-8.37-31.25c-9.93,15.78-18.89,33.49-30.32,48.21c-12.82,16.52-5.44,10.09-22.24,1.18
			c-19.93-10.57-44.67-12.31-66.25-6.37c-17.98,4.95-43.68,18.65-49.54,37.84c-7.08,23.19,11.47,57.14,21.73,77.25
			c2.95-10.86,5.9-21.73,8.85-32.59c-29.2,16.26-58.35,32.61-87.51,48.93c12.14,6.81,24.27,13.62,36.41,20.43
			c0.28-41.71-26.45-77.79-66.71-90.01c-17.13-5.2-40.52-7-56.82,2.18c-21.32,12.01-28.97,49.29-38.37,70.82
			c9.12-3.72,18.23-7.43,27.35-11.15c-28.21-7.39-56.42-14.78-84.63-22.17c3.51,13.09,7.02,26.18,10.52,39.28
			c19.64-16.78,22.17-41.1,12.9-64.53c-12.27-31-53.64-45.74-58.26-78.18c-2.18-15.28-23.63-21.57-35.34-14.01
			c-19.1,12.33-38.44,22.18-59.94,29.61c8.97,3.55,17.95,7.11,26.92,10.66c-15.82-35.65-33.79-69.86-54.16-103.12
			c-4.92,11.59-9.83,23.18-14.75,34.77c21.35-8.19,40.94-17.71,59.99-30.5c9.47-6.35,13.08-15.44,11.22-26.49
			c-3.75-22.34-1.14-41.16,6.34-62.41c3.82-10.86-2.84-20.5-11.02-26.56c-8.38-6.2-27.22-15.04-32.8-24.29
			c-10.58-4.69-11.17-10.95-1.75-18.78c3.31-5.62,6.77-11.13,10.4-16.54c16.9-25.73,36.47-48.71,58.05-70.58
			c-11.45,0.13-22.9,0.26-34.35,0.39c19.59,21.55,39.17,43.1,58.76,64.65c9.54,10.5,24.88,7.23,34.62-0.39
			c19.13-14.95,39.8-26.11,62.61-34.29c16.25-5.83,21.72-20.16,15.11-35.64c-7.01-16.41-14.07-32.8-21.13-49.19
			c-10.47-24.34-54.85-6.43-44.56,18.48c6.81,16.49,13.62,32.99,20.48,49.46c5.87-9.89,11.75-19.78,17.62-29.68
			c-31.3,11.37-58.62,26.76-84.72,47.35c11.54-0.13,23.08-0.26,34.62-0.39c-19.68-21.46-39.35-42.92-59.03-64.38
			c-8.71-9.5-25.71-8.45-34.35,0.39c-31.05,31.76-75.64,76.93-87.75,120.77c-11.66,42.2,35.59,62.67,63.85,83.61
			c-3.67-8.85-7.35-17.7-11.02-26.56c-10.25,29.12-11.65,56.71-6.56,87.05c3.74-8.83,7.48-17.66,11.22-26.49
			c-15.37,10.31-30.69,18.9-48.05,25.56c-13.86,5.32-23.6,20.31-14.75,34.77c20.37,33.26,38.34,67.47,54.16,103.12
			c3.96,8.92,18,13.75,26.92,10.66c25.6-8.85,49.08-19.83,71.89-34.55c-11.78-4.67-23.56-9.34-35.34-14.01
			c2.38,16.72,9.74,29.73,21.1,42.18c7.77,8.52,54.11,40.3,36.78,55.07c-13.99,11.92-5.87,34.96,10.52,39.28
			c28.2,7.42,56.4,14.84,84.6,22.27c9.22,2.43,23.16-1.58,27.35-11.15c5.26-12,11.54-24.23,16.01-36.54
			c4.26-11.72,2.78-13.6,12.46-15.82c24.23-5.54,43.41,26.65,43.26,45.95c-0.15,18.74,20.68,29.21,36.41,20.43
			c29.18-16.29,58.39-32.54,87.54-48.89c11.66-6.54,14.88-21.15,8.85-32.59c-9.05-17.15-14.36-34.08-17.71-53.08
			c-2.07,7.5-4.15,15.01-6.22,22.51c19.49-21.66,39.76-18.82,63.04-6.7c11.85,6.17,20.52,13.8,35.12,11.53
			c34.35-5.34,54.71-59.84,70.74-85.37c7.24-11.53,1.45-23.98-8.37-31.25c-18.23-13.5-36.46-27.01-54.69-40.51
			c3.57,8.6,7.14,17.21,10.71,25.81c7.24-34.43,28.28-58.97,62.54-68.73c15.72-4.48,20.33-19.93,14.31-33.74
			c-16.34-37.5-33.65-74.56-49.98-112.06c-4.6-10.57-21.5-13.46-30.41-7.58c-12.44,8.21-24.88,16.43-37.31,24.64
			c8.97,1.05,17.93,2.09,26.9,3.14c-18.53-21.3-38.84-38.26-62.57-53.42c3.4,8.18,6.79,16.37,10.19,24.55
			c7.91-25.83,15.81-51.65,23.72-77.48c3.52-11.5-4.18-23.57-15.42-26.67c-33.85-9.34-67.71-14.73-102.75-16.78
			c-12.37-0.72-21.66,10.37-22.55,21.77c-0.3,14.31-3.85,27.77-10.64,40.37c8.4-3.43,16.81-6.85,25.21-10.27
			c-13.79-2.13-24.59-1.65-38.44,0.7c-23.33,3.96-53.24-1.51-43.24-33.59c5.4-17.32-11.38-27.99-26.35-25.93
			c-40.9,5.64-67.02,21.21-96.69,48.93C5862.09,893.93,5872.03,904.12,5880.52,900.15L5880.52,900.15z"/>
	</g>
	<g>
		<path class="st4" d="M5954.51,1053.05c-52.33-8.05-89.52,44.91-75.32,94.14c18.16,62.95,100.17,87.11,157.08,67.66
			c66.61-22.76,83.99-99.66,30.85-147.84c-31.23-28.32-133.57-67.76-137.55,5.6c-1.13,20.87,27.67,25.67,37.63,9.8
			c8-12.74,58.81,20.05,64.97,26.57c29.38,31.08,1.31,58.68-32.07,61.9c-26.43,2.55-60.33-8.78-73.67-33.4
			c-13.4-24.72-0.56-60.76,27.94-67.52C5962.46,1068.04,5963.52,1054.43,5954.51,1053.05L5954.51,1053.05z"/>
	</g>
	<g>
		<path class="st4" d="M5990.57,2477.3c-18.09,29.97-22.37,63.51-17.11,97.72c4.68,30.46,56.49,18.07,48.2-12.92
			c-6.47-24.2-4.2-47.16,4.02-70.64C6033.04,2470.45,6001.31,2459.5,5990.57,2477.3L5990.57,2477.3z"/>
	</g>
	<g>
		<path class="st4" d="M6187.83,2510.79c0.7,16.08,0.14,32.57-2.8,48.44c-2.88,15.5-9.19,29.8-11.04,45.49
			c-2.95,24.98,32.61,28.86,43.94,11.44c19.84-30.51,15.2-77.05,3.93-109.83C6215.95,2489.15,6186.96,2490.66,6187.83,2510.79
			L6187.83,2510.79z"/>
	</g>
	<g>
		<path class="st4" d="M5709.05,2729.54c-34,81.11-8.41,182.76,48.58,247.29c48.23,54.61,172.12,115.55,226.19,35.61
			c9.9-14.64-6.69-35.33-23.21-29.71c-35.71,12.15-62.5,21.75-100.46,7.79c-32.88-12.09-60.51-35.93-81.54-63.65
			c-42.13-55.55-52.15-122.33-41.15-189.88C5740.54,2718.14,5716.2,2712.48,5709.05,2729.54L5709.05,2729.54z"/>
	</g>
	<g>
		<path class="st4" d="M8270.14,3240.95c157.07-39.76,338.92,5.09,473.4-104.66c109.37-89.26,157.15-248.75,165.84-384.84
			c1.63-25.55-39.21-30.37-44.87-5.8c-29.78,129.09-52.73,278.67-167.25,363.14c-126.93,93.62-299.85,43.18-439.79,102.15
			C8239.57,3218.48,8252.45,3245.43,8270.14,3240.95L8270.14,3240.95z"/>
	</g>
	<g>
		<path class="st4" d="M8882.86,2773.92c22.14,27.51,63.49,20.37,87.28-0.95c33.34-29.9,31.03-89.17,10.2-125.48
			c-11.4-19.87-44.25-11.03-44.23,11.85c0.02,24.37,13.09,50.39,4.54,74.46c-4.34,12.22-22.03,28.41-35.37,17.94
			C8889.53,2739.36,8870.09,2758.06,8882.86,2773.92L8882.86,2773.92z"/>
	</g>
	<g>
		<path class="st4" d="M7489.98,1110.05c27.51-120.24,51.46-240.5,99.68-354.79c-15.27,2.07-30.53,4.15-45.8,6.22
			c48.81,64.87,96.35,130.69,142.32,197.6c22.29,32.44,44.2,65.15,65.82,98.04c21.06,32.04,40.31,67.51,67.29,94.92
			c13.55,13.76,42.21-0.35,35.05-20.08c-25.72-70.82-81.51-136.73-124.13-198.36c-46.2-66.79-93.95-132.48-142.98-197.22
			c-12.54-16.56-39.08-15.39-45.8,6.22c-36.74,118.21-72.88,239.4-79.45,363.82C7461.13,1122.35,7486.46,1125.45,7489.98,1110.05
			L7489.98,1110.05z"/>
	</g>
	<g>
		<path class="st4" d="M7487.97,1132.94c-116.54-33.61-241.88-39.72-362.31-31.67c-17.95,1.2-31.63,19.4-21.63,36.42
			c37.11,63.17,77.66,124.46,119.82,184.36c38.69,54.97,78.95,123.06,131.72,165.54c17.33,13.95,42.59-3.28,31.97-24.41
			c-30.87-61.36-84.53-115.82-124.24-172.12c-40.95-58.04-79.03-117.8-116.66-178.03c-7.21,12.14-14.42,24.28-21.63,36.42
			c120.95-13.13,239.1-6.49,359.71,5.6C7497.83,1156.37,7500.15,1136.45,7487.97,1132.94L7487.97,1132.94z"/>
	</g>
	<g>
		<path class="st4" d="M7433.64,1408.25c-98.68,70.84-164,184.58-196.21,300.1c-5.33,19.1,12.95,36.28,31.74,31.23
			c54.55-14.64,109.1-29.27,163.59-44.12c50.95-13.88,104.84-24.45,152.96-46.54c18.99-8.72,10.31-41.43-10.56-39.41
			c-52.73,5.11-104.56,23.04-155.61,36.66c-54.57,14.57-109.07,29.35-163.59,44.12c10.58,10.41,21.16,20.82,31.74,31.23
			c30.98-112.19,89.61-203.89,160.83-294.47C7456.36,1417.13,7445.95,1399.42,7433.64,1408.25L7433.64,1408.25z"/>
	</g>
	<g>
		<path class="st4" d="M7568.92,1573.81c42.56,59.27,91.58,114.26,139.49,169.2c29.82,34.19,71.62,83.68,122.86,62.37
			c25.35-10.55,35.08-32.95,45.86-56.55c12.76-27.93,25.21-56.05,36.94-84.44c25.68-62.17,49.6-128.28,53.96-195.96
			c1.7-26.31-40-31.04-46.06-5.95c-11.12,46.01-22.08,91.1-38.74,135.56c-9.17,24.47-19.41,48.53-30.1,72.37
			c-9.38,20.91-17.89,52.24-32.61,69.71c-20.37,24.18-41.16-1.88-57.42-19c-17.53-18.46-34.58-37.38-52.09-55.86
			c-36.68-38.73-73.48-77.9-113.34-113.4C7583.43,1539.21,7556.35,1556.31,7568.92,1573.81L7568.92,1573.81z"/>
	</g>
	<g>
		<path class="st4" d="M7926.99,1449.34c108.71-16.39,213.43-63.86,311.73-111.15c14.76-7.1,17.74-30.22,5.48-40.9
			c-105.55-91.9-249.29-180.49-391.69-193.3c-20.02-1.8-30.8,30.93-11.04,38.95c63.23,25.65,128.45,43.74,189.75,74.56
			c63.24,31.79,121.41,71.32,175.44,116.95c1.83-13.63,3.65-27.26,5.48-40.9c-96.31,48.11-198.53,85.6-293.17,136.79
			C7907.62,1436.48,7915.94,1451.01,7926.99,1449.34L7926.99,1449.34z"/>
	</g>
	<g>
		<path class="st4" d="M8081.88,1586.84c26.99,17.46,55.55,31.49,81.81,50.3c26.27,18.82,49.41,40.75,73.77,61.86
			c23.73,20.55,56.33-10.91,35.26-34.89c-43.4-49.41-114.1-93.03-179.5-103.56C8077.44,1558.01,8067.28,1577.39,8081.88,1586.84
			L8081.88,1586.84z"/>
	</g>
	<g>
		<path class="st4" d="M8355.57,1380.54c72.99-41.21,146.55-73.79,224.16-105.05c28.72-11.57,18.33-57.16-12.54-46.81
			c-82.31,27.61-161.81,75.4-227.98,131.19C8327.17,1370.03,8342.72,1387.8,8355.57,1380.54L8355.57,1380.54z"/>
	</g>
	<g>
		<path class="st4" d="M7961.82,999.2c78.94-52.44,159.98-113.91,224.19-184.35c21.13-23.19-10.2-49.95-33.33-32.28
			c-74.75,57.13-142.12,131.33-200.5,204.45C7946.98,993.54,7953.73,1004.58,7961.82,999.2L7961.82,999.2z"/>
	</g>
	<g>
		<path class="st4" d="M7290.32,904.41c-20.04-18.27-40.71-35.76-59.27-55.6c-17.11-18.29-31.85-46.15-54.5-57.45
			c-16.07-8.02-35.07,5.28-30.99,23.36c5.97,26.41,34.78,47.91,54.69,64.58c22.18,18.57,45.58,35.97,71.59,48.75
			C7286.28,935.14,7303.74,916.64,7290.32,904.41L7290.32,904.41z"/>
	</g>
	<g>
		<path class="st4" d="M7224.19,1347.5c-33.99,9.12-66.86,22.43-99.84,34.65c-30.53,11.32-63.92,20.38-91.49,37.87
			c-24.26,15.39-9.14,52.82,19.33,45.78c31.79-7.87,61.32-25.53,90.67-39.81c31.64-15.4,63.99-29.97,94.09-48.25
			C7253.14,1367.9,7242.84,1342.5,7224.19,1347.5L7224.19,1347.5z"/>
	</g>
	<g>
		<path class="st4" d="M7455.84,1589.13c-31.5,113.58-53.61,229.28-87.73,342.3c-8.96,29.67,38.79,41.62,46.59,12.22
			c30.21-113.94,59.22-233.33,63.46-351.64C7478.61,1579.16,7459.17,1577.1,7455.84,1589.13L7455.84,1589.13z"/>
	</g>
</g>
</svg>
