<?xml version="1.0" encoding="utf-8"?>
<!-- Generator: Adobe Illustrator 25.4.1, SVG Export Plug-In . SVG Version: 6.00 Build 0)  -->
<svg version="1.1" id="Ebene_2" xmlns="http://www.w3.org/2000/svg" xmlns:xlink="http://www.w3.org/1999/xlink" x="0px" y="0px"
	 viewBox="0 0 6330.49 5000" style="enable-background:new 0 0 6330.49 5000;" xml:space="preserve">
<style type="text/css">
	.st0{fill:#FFFFFF;}
	.st1{fill:#146ece;}
	.st2{fill:#EDEDED;}
	.st3{fill:#DADADA;}
	.st4{fill:#3C3C3B;}
</style>
<polyline class="st0" points="6330.49,5000 0,5000 0,0 6330.49,0 6330.49,5000 "/>
<g>
	<g>
		<path class="st1" d="M1170.9,1917.07c36.08-20.74,73.19-40.39,108.28-62.76c-8.24-8.01-16.48-16.01-24.71-24.02
			c-40.44,52.39-75.25,108.22-104.01,167.83c-7.02,14.54,9.12,35.99,24.83,24.13c77.9-58.83,153.45-119.74,225.87-185.25
			c-8.7-8.42-17.39-16.84-26.09-25.26c-92.51,92.19-189.64,188.38-231.61,315.34c-5.79,17.51,17.38,27.45,29.31,16.45
			c111.64-102.97,223.53-205.69,334.74-309.13c-7.81-7.56-15.61-15.12-23.42-22.68c-126.45,120.02-238.56,253.84-331.66,401.35
			c-5.75,9.11,1.62,22.85,12.78,22.01c46.37-3.46,71.75-38.53,100.85-70.55c35.87-39.48,73.02-77.79,111.23-115.01
			c78.85-76.8,162.43-148.53,249.7-215.59c-7.02-6.8-14.04-13.59-21.06-20.39c-152.18,148.01-290.92,309.06-414.13,481.94
			c-11.32,15.88,12.39,29.04,25.06,18.66c187.47-153.63,326.74-359.82,532.42-492.03c-7.1-8.97-14.2-17.94-21.31-26.91
			c-183.28,158.55-344.11,341.88-474.1,546.57c-11.2,17.64,13.9,34.28,28.12,20.93c211.09-198.31,418.46-403.21,650.93-576.84
			c-7.49-9.46-14.97-18.91-22.46-28.37c-202.3,163.12-401.84,343.53-525.48,575.85c-6.83,12.83,4.69,30.45,19.86,25.43
			c57.33-19,98.24-71.53,139.78-112.83c50.89-50.6,101.46-101.52,152.5-151.97c101.3-100.14,204.71-198.15,314.98-288.43
			c-8.57-8.3-17.14-16.6-25.71-24.89c-170.1,174.15-324.63,362.99-460.42,565.07c-10.11,15.05,10.79,36.04,25.63,24.91
			c208.67-156.42,386.17-346.95,561.79-538.54c-9.02-8.74-18.04-17.47-27.06-26.21c-145.5,170.39-276.33,352.73-389.53,546.12
			c-11.85,20.24,14.35,35.24,30.31,22.57c152.46-121.05,274.9-270.47,397.72-420.22c-9.34-6.95-18.68-13.91-28.03-20.86
			c-86.29,130.63-173.91,263.93-215.78,416.49c-4.44,16.18,18.57,31.2,29.98,16.82c85.84-108.16,172.56-215.63,258.23-323.94
			c-9.69-7.22-19.39-14.43-29.08-21.65c-60.16,108.04-113.83,219.38-161.08,333.65c-6.63,16.04,19.02,29.76,29.44,16.52
			c48.06-61.02,104.37-114.09,167.18-159.74c-8.15-6.09-16.29-12.17-24.44-18.26c-16.78,57.23-35.16,113.9-55.15,170.09
			c-6.38,17.93,21.92,24.57,28.43,7.46c21.21-55.83,40.84-112.18,58.87-169.11c4.22-13.32-12.63-26.46-24.44-18.26
			c-66.26,46.04-125.17,100.47-175.38,163.69c9.81,5.51,19.63,11.01,29.44,16.52c46.55-111.3,99.88-219.52,159.09-324.62
			c9.94-17.64-15.76-38.32-29.08-21.65c-86.22,107.91-171.38,216.66-257.42,324.72c9.99,5.61,19.99,11.22,29.98,16.82
			c41.32-149.58,127.47-280.06,212.01-408.28c11.02-16.71-15.32-36.38-28.03-20.86c-122.18,149.22-248.18,297.78-399.78,418.22
			c10.1,7.52,20.21,15.05,30.31,22.57c111.5-190.62,239.97-370.61,383.26-538.62c15.84-18.58-10.48-44.32-27.06-26.21
			c-173.1,189.07-347.97,378.49-553.56,533.13c8.54,8.3,17.09,16.61,25.63,24.91c133.76-199.76,286.02-386.14,453.69-558.37
			c16.69-17.14-8.2-39.28-25.71-24.89c-104.25,85.64-202.45,178.17-298.5,272.84c-47.08,46.4-93.69,93.28-140.45,140
			c-22.71,22.69-45.46,45.36-68.31,67.91c-24.96,24.63-49.1,52.41-83.31,63.77c6.62,8.48,13.24,16.95,19.86,25.43
			c122.22-230.04,320.57-406.67,521.04-567.65c16.29-13.08-5.78-40.91-22.46-28.37c-234.47,176.4-444.27,382.89-657.61,583.61
			c9.37,6.98,18.74,13.95,28.12,20.93c128.28-202.34,287.16-383,468.11-539.78c15.13-13.11-4.75-37.57-21.31-26.91
			c-208.26,134.08-348.69,342.97-537.31,499.86c8.35,6.22,16.71,12.44,25.06,18.66c120.43-171.64,257.43-330.77,407.62-477.02
			c14.21-13.84-6.59-31.52-21.06-20.39c-78.43,60.33-153.89,124.41-225.6,192.62c-34.73,33.04-68.58,67-101.49,101.85
			c-16.35,17.32-32.41,34.91-48.38,52.59c-17.97,19.9-35.93,43.01-64.86,45.01c4.26,7.34,8.52,14.68,12.78,22.01
			c92.39-144.7,203.27-276.5,329.12-393.24c15.72-14.58-7.91-36.78-23.42-22.68c-112.41,102.19-224.15,205.12-336.13,307.78
			c9.77,5.48,19.54,10.97,29.31,16.45c40.31-120.7,134.99-212.22,223.89-298.94c17.19-16.77-8.69-40.67-26.09-25.26
			c-70.45,62.38-142.97,123.11-218.02,179.89c8.28,8.04,16.55,16.08,24.83,24.13c28.71-59.64,63.47-115.49,103.87-167.91
			c11.32-14.69-10.55-33.06-24.71-24.02c-35.17,22.46-68.7,47.91-102.8,71.96C1145.1,1905.04,1156.65,1925.27,1170.9,1917.07
			L1170.9,1917.07z"/>
	</g>
	<g>
		<path class="st1" d="M2351.61,1877.3c28.43-33.07,56.35-66.68,85.54-99.07c-8.21-4.61-16.43-9.22-24.64-13.83
			c-23.42,76.17-49.99,151.23-79.69,225.18c-5.54,13.78,15.49,24.27,24.64,13.83c63.47-72.4,123.77-147.4,180.73-225.04
			c-8.68-4.87-17.36-9.74-26.04-14.61c-58.58,110.32-116.02,221.76-152.02,341.84c-5.43,18.11,18.78,24.52,28.48,11.49
			c88.3-118.62,176.61-237.23,264.91-355.85c-9.32-5.23-18.65-10.47-27.97-15.7c-90.95,139.05-172.54,283.81-244.44,433.6
			c-7.97,16.61,12.31,33.19,26.24,19.53c143.25-140.45,216.94-339.13,376.1-464.74c-8.99-6.69-17.98-13.38-26.97-20.08
			c-126.47,186.33-254.31,377.55-310.09,598.69c-5.03,19.94,21.95,29.86,32.7,13.19c131.01-203.18,266.09-403.69,405.17-601.42
			c-11.67-3.04-23.34-6.08-35.01-9.12c-7.96,54.29-50.34,102.15-77.52,148.43c-28.14,47.91-54.09,97.1-77.78,147.36
			c-46.49,98.64-84.79,201.2-112.88,306.58c-5.61,21.05,24.26,32.78,35.19,14.2c124.13-211.01,257.56-416.02,398.44-616.22
			c-10.74-6.03-21.49-12.06-32.23-18.08c-107.93,190.83-216.42,384.07-277.14,596.05c-6.3,21.98,24.66,33.02,36.21,14.61
			c130.07-207.47,260.14-414.93,390.21-622.4c-11.95-4.82-23.89-9.64-35.84-14.46c-79.49,212.64-218.15,407.3-241.51,637.99
			c-1.82,17.98,27.05,25.04,34.46,8.97c104.64-226.99,218.06-453.17,363.91-656.87c-11.01-6.18-22.03-12.36-33.04-18.54
			c-99.06,210.47-183.37,427.1-252.71,649.15c-6.71,21.49,23.58,31.12,34.91,14.09c141.28-212.36,255.48-440.17,366.95-669.16
			c-11.97-4.83-23.93-9.66-35.9-14.49c-73.43,210.79-146.48,421.71-220.32,632.35c-7.04,20.09,23.64,31.01,33.78,13.63
			c115.82-198.43,205.13-409.62,293.52-621.2c-10.98-2.88-21.96-5.76-32.94-8.64c-63.78,197.9-134.71,394.04-192.63,593.73
			c-3.87,13.35,13.28,21.77,22.7,12.74c60.6-58.09,105.81-130.33,142.01-205.5c42.88-89.03,84.41-178.72,126.56-268.09
			c7.74-16.42-16.83-29.94-24.5-13.75c-71.67,151.5-130.2,309.67-173.68,471.54c-3.42,12.72,8.13,21.84,19.95,19.63
			c23.73-4.43,38.45-21.07,51.06-40.64c20.64-32.06,38.44-66.31,57.51-99.32c39.58-68.5,78.95-137.13,118.78-205.48
			c-11.69-6.56-23.38-13.12-35.07-19.68c-46.92,96.39-93.65,195.38-114.77,301.12c-3.91,19.58,21.24,29.8,32.27,13.02
			c42.76-65.02,85.62-129.98,128.25-195.08c-10.38-4.19-20.77-8.38-31.15-12.57c-16.68,55.94-31.12,112.66-46.38,168.99
			c-3.8,14.03,14.44,19.15,22.06,8.9c21.71-29.19,42.61-59.28,65.22-87.78c6.76-8.53-5.32-20.16-12.06-11.67
			c-23.1,29.12-48.12,56.94-72.13,85.34c6.72,3.77,13.45,7.55,20.17,11.32c18.82-55.38,38.54-110.63,55.97-166.48
			c5.99-19.19-21.02-27.74-31.15-12.57c-43.22,64.75-86.21,129.65-129.31,194.49c10.76,4.34,21.51,8.68,32.27,13.02
			c21.28-103.82,68.08-196.69,115.79-290.37c11.8-23.17-22.67-42.28-35.07-19.68c-32.32,58.96-65.04,117.71-97.58,176.56
			c-15.31,27.69-30.63,55.38-45.94,83.08c-12.7,22.96-27.95,68.52-57.06,74.51c6.65,6.54,13.3,13.09,19.95,19.64
			c39.99-160.97,95.23-316.33,166.57-466.08c-8.17-4.58-16.33-9.16-24.5-13.75c-40.93,86.18-81.51,172.54-122.84,258.52
			c-37,76.97-73.45,154.75-140.45,210.2c7.57,4.25,15.13,8.49,22.7,12.74c72.55-195.01,132.58-394.9,199.38-591.96
			c7.22-21.29-24.77-27.7-32.94-8.64c-89.03,207.73-178.48,416.41-292.51,611.93c11.26,4.54,22.52,9.09,33.78,13.63
			c73.79-210.73,148.36-421.18,222.55-631.77c7.35-20.86-26.28-34.07-35.9-14.49c-112.12,228.27-223.12,458.58-366.01,669.68
			c11.64,4.7,23.27,9.39,34.91,14.09c69.2-218.42,152.44-432.45,248.93-640.27c10.4-22.39-19.02-38.34-33.04-18.54
			c-145.56,205.54-250.98,432.89-362.8,657.49c11.49,2.99,22.97,5.98,34.46,8.97c29.84-226.47,163.63-417.96,242.32-628.11
			c8.05-21.51-24.71-32.19-35.84-14.46c-130.19,207.4-260.38,414.8-390.56,622.2c12.07,4.87,24.14,9.74,36.21,14.61
			c60-209.03,165.41-399.33,271.18-587.99c11.92-21.26-18.92-37.15-32.23-18.08c-140.04,200.59-272.72,406.41-399.48,615.64
			c11.73,4.73,23.46,9.47,35.19,14.2c31.63-112.73,71.73-222.59,123.33-327.78c24.47-49.88,51.2-98.66,80.09-146.12
			c27.04-44.43,57.64-85.52,65.23-138.16c2.94-20.39-25.89-22.15-35.01-9.12c-138.58,198.03-273.16,398.83-403.65,602.28
			c10.9,4.4,21.8,8.8,32.7,13.19c54.53-218.41,180.71-407,305.26-591.1c11.86-17.53-13.21-30.97-26.97-20.08
			c-159.19,126.02-232.38,324.68-375.44,465.37c8.75,6.51,17.49,13.02,26.24,19.53c71.66-149.88,153-294.82,243.56-434.1
			c11.59-17.82-16.1-31.74-27.97-15.7c-87.95,118.81-175.91,237.63-263.86,356.44c9.49,3.83,18.99,7.66,28.48,11.49
			c34.95-117.75,90.92-226.87,148.02-335.11c9.23-17.49-15-29.75-26.04-14.61c-55.25,75.74-113.74,148.95-175.55,219.45
			c8.21,4.61,16.43,9.22,24.64,13.83c29.71-73.95,56.27-149.01,79.69-225.18c5.19-16.88-17.96-23.57-26.95-10.88
			c-25.14,35.49-51.75,70-77.72,104.9C2329.67,1874.75,2344.53,1885.54,2351.61,1877.3L2351.61,1877.3z"/>
	</g>
	<g>
		<path class="st1" d="M3564.37,1633.36c37.6-58.26,77.3-115.68,112.78-175.21c-11.2-4.52-22.4-9.04-33.6-13.56
			c-19.03,108.18-38.05,216.35-57.08,324.53c-4.05,23,28.46,31.84,35.6,9.34c36.59-115.38,84.37-226.31,143.46-331.95
			c-10.94-4.41-21.88-8.83-32.81-13.24c-26.33,124.42-52.58,248.86-79.13,373.23c-3.87,18.13,23.62,31.55,31.85,12.85
			c75.28-171.11,140.57-346.39,195.28-525.15c-11.46-3.01-22.92-6.01-34.38-9.02c-46.09,209.79-92.1,419.59-137.86,629.45
			c-5.03,23.07,29.35,31.94,35.71,9.37c109.35-387.83,219.52-775.43,328.74-1163.3c-12.48-3.27-24.96-6.55-37.44-9.82
			c-68.39,416.25-136.78,832.5-205.16,1248.74c-3.89,23.7,31.24,33.58,36.94,9.69c101.52-425.6,204.68-850.8,305.69-1276.53
			c-13.13-1.7-26.26-3.39-39.39-5.09c-57.46,413.34-116.89,826.4-173.77,1239.82c-3.17,23.07,31.83,24.13,38.64,4.99
			c147.8-415.59,209.37-853.65,265.16-1289.26c-13.34,1.75-26.68,3.5-40.01,5.25c25.23,193.39-4.05,389.05-24.72,581.47
			c-20.94,194.95-41.97,389.9-62.36,584.91c-2.11,20.22,29.76,27.48,38.3,9.98c187.21-383.49,76.7-823.87,192.43-1223.87
			c-13.63,0.05-27.26,0.09-40.88,0.14c54.13,365.79,40,739-33.63,1101.06c-5.48,26.95,31.79,35.86,41.09,10.78
			c143.46-387,209.4-794.48,270.67-1200.92c-13.34-1.72-26.68-3.45-40.02-5.17c40.36,378.97-35.87,758.91-108.84,1129.18
			c-5.3,26.91,34.55,37.52,41.72,10.94c105.44-391.05,192.03-788.41,250.65-1189.27c-14.14-0.01-28.29-0.03-42.43-0.04
			c-7.95,331.46-48.3,661.74-111.83,986.99c-3.44,17.64,14.51,32.97,31.13,23.26c47.22-27.59,74.1-73.67,91.01-124.43
			c21.98-66,32.26-136.52,46.79-204.41c33.13-154.84,66.27-309.67,99.4-464.51c-13.81-1.78-27.61-3.57-41.42-5.35
			c-32.84,266.47-66.2,532.89-98.13,799.47c-2.96,24.68,34.48,26.33,41.57,5.37c49.81-147.16,100.31-294.08,150.63-441.07
			c-13.82-1.78-27.63-3.57-41.45-5.35c-17.38,158.27-34.96,316.51-52.06,474.81c-2.59,23.95,36.36,27.99,41.86,5.41
			c19.51-80.1,48.98-156.46,88.69-228.72c-13.06-3.4-26.11-6.8-39.17-10.2c-5.22,103.4-9.98,206.82-15.32,310.21
			c-1.33,25.82,39.33,25.48,40.64,0.04c5.34-103.41,11.27-206.8,16.73-310.21c1.11-20.97-29.46-27.78-39.17-10.2
			c-41.53,75.15-72.96,154.92-93.48,238.31c13.95,1.8,27.91,3.61,41.86,5.41c17.47-158.24,34.45-316.54,51.64-474.81
			c2.68-24.67-34.32-26.24-41.45-5.35c-50.14,147.05-100.1,294.16-150.75,441.04c13.86,1.79,27.71,3.58,41.57,5.37
			c33.44-266.39,65.45-532.97,97.97-799.47c2.86-23.47-36.6-27.99-41.42-5.35c-30.42,142.97-60.83,285.94-91.25,428.91
			c-13.96,65.62-26.58,131.76-42.58,196.92c-13.4,54.59-32.74,112.61-84.04,142.4c10.38,7.75,20.75,15.51,31.13,23.26
			c65.25-329.05,100.17-662.65,113.32-997.69c0.91-23.29-37.85-28.83-41.64-5.38c-64.47,398.71-145.08,793.76-250.72,1183.71
			c13.91,3.65,27.81,7.3,41.72,10.94c74.54-375.92,145.54-755.35,107.89-1140.09c-2.03-20.71-36.17-29.31-40.02-5.17
			c-64.57,404.96-127.12,814.98-272.5,1200.44c13.7,3.59,27.39,7.19,41.09,10.78c77.27-369.17,85.86-749.61,33.52-1122.82
			c-3.03-21.59-35.63-17.98-40.88,0.14c-57.3,197.68-62.03,405-70.66,609.2c-8.74,206.67-23.71,416.82-116.45,605.46
			c12.77,3.33,25.54,6.65,38.3,9.98c21.16-196.96,41.67-393.98,62.27-591c20.11-192.32,47.61-387.44,23.7-580.67
			c-3.18-25.7-37.23-25.61-40.68-0.04c-58.16,431.46-113.4,867.84-262.39,1279.36c12.88,1.66,25.76,3.33,38.64,4.99
			c59.22-413.13,115.9-826.61,174.54-1239.82c3.18-22.39-34.29-26.33-39.39-5.09c-102.22,425.45-202.28,851.4-303.98,1276.98
			c12.31,3.23,24.63,6.46,36.94,9.69c68.55-416.2,137.11-832.41,205.66-1248.61c3.96-24.04-30.66-33.86-37.44-9.82
			c-109.37,387.81-217.78,775.9-327,1163.75c11.9,3.12,23.81,6.25,35.71,9.37c45.7-209.89,91.16-419.84,136.53-629.8
			c4.81-22.25-27.85-30.62-34.38-9.02c-53.25,176.14-116.9,348.84-191,517.28c10.62,4.28,21.23,8.57,31.85,12.85
			c26.54-124.36,53.39-248.65,80.15-372.97c4.15-19.28-22.62-31.31-32.81-13.24c-60.91,108.01-110.61,221.79-148.04,340.02
			c11.87,3.11,23.73,6.23,35.6,9.34c18.98-108.19,37.95-216.38,56.93-324.57c3.46-19.71-22.55-32.11-33.6-13.56
			c-35.4,59.43-66.93,121.57-100.2,182.27C3538.28,1635.2,3556.79,1645.12,3564.37,1633.36L3564.37,1633.36z"/>
	</g>
	<g>
		<path class="st1" d="M4443.93,587.3c-11.86,129.06-12.09,259-25.36,388.13c-13.48,131.11-34.66,261.12-60.76,390.28
			c-5.16,25.52,33.54,35.62,39.5,10.36c30.61-129.79,51.56-261.89,64.06-394.65c12.27-130.31,21.71-266.76,5.2-397.09
			C4464.86,570.91,4445.01,575.61,4443.93,587.3L4443.93,587.3z"/>
	</g>
	<g>
		<path class="st1" d="M3745.63,894.77c-17.48,12.05-34.37,24.06-53.96,32.51c4.3,5.43,8.6,10.87,12.91,16.3
			c30.78-27.71,55.63-62.66,82.94-93.71c-10.3-4.14-20.61-8.27-30.91-12.41c-3.08,56.88-4.19,113.99-5.8,170.93
			c-0.52,18.33,28.27,27.19,36.24,9.44c26.67-59.42,53.5-118.77,79.85-178.33c-11.9-3.1-23.81-6.2-35.71-9.3
			c3.88,87.04,18.77,172.77,45.5,255.72c5.25,16.3,31.94,18.55,35.97-0.12c22.87-106.03,47.17-211.79,69.23-317.99
			c4.96-23.89-31.63-33.28-36.92-9.68c-23.74,105.85-45.26,212.23-68.2,318.26c11.99-0.04,23.98-0.08,35.97-0.12
			c-25.72-80.02-40.46-161.98-43.21-246.02c-0.57-17.5-27.44-27.42-35.71-9.3c-27.04,59.23-53.61,118.68-80.34,178.05
			c12.08,3.15,24.16,6.29,36.24,9.44c1.36-56.93,3.23-113.99,3.12-170.93c-0.04-18.97-23.96-22.74-33.74-8.79
			c-23.66,33.75-51.74,66.04-71.29,102.39c-5.58,10.38,8.4,21.53,16.77,12.49c13.92-15.04,30.55-26.7,47.1-38.65
			C3757.9,900.44,3752.05,890.35,3745.63,894.77L3745.63,894.77z"/>
	</g>
	<path class="st2" d="M875.83,4418.77c-18.58,6.9-38.41,15.47-47.34,31.95c-12.76,23.58,3.89,53.41,28.58,66.8
		c24.68,13.39,225.06,70.25,253.71,71.14c353.18,10.89,538.1-33.95,888.04-79.09c21.56-2.78,44.19-6.2,61.22-18.67
		c193.01-141.35-434.43-192.07-509.74-187.36C1330,4317.29,1080.28,4342.84,875.83,4418.77z"/>
	<path class="st3" d="M1529.56,4392.08c-75.64-14.82-154.06-17.61-230.72-8.21c-29.63,3.63-64.36,13.33-72.59,39.73
		c-6.6,21.19,8.73,44.02,29.5,55.06c20.77,11.03,45.63,12.96,69.58,14.21c101.52,5.3,203.51,3,304.63-6.89
		c27.2-2.66,58.63-8.51,70.89-30.98c16.19-29.69-14.79-64.21-48.44-76.31c-50.26-18.06-111.17-7.87-151.28,25.3"/>
	<g>
		<path class="st1" d="M1270.05,3783.14c34.28-23.45,68.79-46.59,104.28-68.18c-6.13-5.96-12.27-11.92-18.4-17.88
			c-31.57,46.9-62.72,94.08-94.01,141.17c-10.3,15.49,11.81,28.27,24.13,17.97c40.87-34.18,81.43-68.72,122.02-103.24
			c-8.52-6.34-17.04-12.68-25.56-19.03c-38.65,50.89-77.01,102-115.47,153.04c-10.11,13.42,9.39,29.44,22.2,21.58
			c68.97-42.3,132.42-92.21,189.7-149.35c-7.59-7.35-15.18-14.7-22.77-22.05c-58.31,64.11-116.6,128.23-174.9,192.35
			c-14.1,15.51,6.9,33.77,22.38,21.67c94.42-73.81,188.86-147.59,283.3-221.38c-7.31-7.08-14.63-14.16-21.94-21.24
			c-102.03,113.36-204.09,226.7-306.15,340.03c-13.13,14.58,7.2,33.84,21.48,20.8c99.04-90.43,198.08-180.86,297.12-271.29
			c-8.33-4.68-16.66-9.35-25-14.03c-41.94,129.33-191.9,181.6-249.02,302.77c-7.53,15.97,10.7,28.93,24,17.87
			c83.93-69.78,168.46-138.99,251.26-210.1c-7.67-5.71-15.34-11.42-23.01-17.13c-43.83,70.1-88.7,139.55-133.32,209.16
			c-8.31,12.97,10.03,24.55,20.45,15.22c44.88-40.2,89.94-80.2,135.03-120.17c-7.17-4.03-14.35-8.05-21.52-12.08
			c-10.47,41.84-26.58,80.39-47.22,118.22c-6.71,12.3,11.04,26.87,20.27,15.09c4.02-5.13,7.89-11.73,13.2-15.52
			c7.83-5.57,35.78-18.24,35.06,3.04c-0.46,13.46,19.12,12.57,20.7,0.02c2.43-19.2-12.01-34.89-30.95-37.58
			c-23.88-3.39-42.33,15.82-56.27,32.35c6.76,5.03,13.52,10.06,20.27,15.09c22.94-38.71,38.96-80.59,49.75-124.21
			c3.19-12.89-12.19-20.39-21.52-12.08c-45,40.09-90.02,80.13-135.22,119.98c6.82,5.07,13.63,10.15,20.45,15.22
			c45.2-69.31,90.16-138.78,136.13-207.58c9.96-14.91-11.25-26.63-23.01-17.13c-84.94,68.62-168.33,139.27-252.16,209.23
			c8,5.96,16,11.91,24,17.87c58.16-123.95,207.91-176.21,251.47-310.02c4.88-14.99-14.76-23.35-25-14.03
			c-99.15,90.32-198.29,180.65-297.44,270.97c7.16,6.93,14.32,13.87,21.48,20.8c102.19-113.21,204.39-226.41,306.61-339.59
			c13.78-15.25-6.74-33.08-21.94-21.24c-94.58,73.65-189.14,147.32-283.74,220.95c7.46,7.22,14.92,14.45,22.38,21.67
			c58.43-63.99,116.87-127.97,175.29-191.96c13.96-15.29-8.19-36.56-22.77-22.05c-55.44,55.15-116.52,103.21-183.24,144.01
			c7.4,7.19,14.8,14.39,22.2,21.58c38.53-50.98,77.15-101.9,115.48-153.03c11.75-15.67-12.74-30.07-25.56-19.03
			c-40.33,34.73-80.69,69.42-120.73,104.48c8.04,5.99,16.09,11.98,24.13,17.97c30.3-47.64,60.75-95.18,90.76-142.99
			c7.07-11.26-7.3-25.13-18.4-17.88c-35.78,23.35-70.32,47.9-103.26,75.09C1248.54,3774.79,1260.49,3789.68,1270.05,3783.14
			L1270.05,3783.14z"/>
	</g>
	<g>
		<path class="st4" d="M1495.36,2660.95c-93.5-44.47-199.8,11.77-269.11,76.24c-74.48,69.27-111.68,165.63-142.22,260.3
			c-54.88,170.12-142.45,382.8-45.91,554.74c51.3,91.37,151.48,142.65,249.24,169.42c91.19,24.97,191.16,28.71,282.39,1.95
			c208.76-61.21,323.67-308.3,296.4-514.55c-7.87-59.54-27.92-116.91-51.25-172.04c-19.58-46.26-44.84-91.54-85.56-122.43
			c-91.1-69.1-237.43-55.81-328.49,5.22c-20.86,13.98-2.63,44.71,19.59,32.9c80.29-42.67,198.16-63.86,278.09-7.54
			c66.2,46.65,96.67,149.22,114.45,224.08c24.53,103.28,8.32,209.06-37.32,304.16c-41.94,87.4-94.95,163.7-187.99,200.46
			c-77.19,30.5-164.91,33.32-245.84,18.18c-88.53-16.57-184.05-53.35-243.3-124.14c-109.49-130.8-52.01-328.23-2.91-471.44
			c31.97-93.25,54.66-193.19,109.54-276.48c56.5-85.75,174.46-175.63,282.18-140.45
			C1498.15,2683.08,1506.08,2666.05,1495.36,2660.95L1495.36,2660.95z"/>
	</g>
	<g>
		<path class="st4" d="M1267,3704.15c-4.14,63.01-4.57,126.27-8.22,189.34c-1.83,31.54-3.98,63.03-6.57,94.52
			c-2.55,30.96-8.51,63.32-6.71,94.3c1.09,18.64,28.46,23.42,33.68,4.35c16-58.49,13.58-126.88,15.76-187.22
			c2.33-64.76,3.4-130.71-2.81-195.26C1290.61,3688.48,1268.05,3688.15,1267,3704.15L1267,3704.15z"/>
	</g>
	<g>
		<path class="st4" d="M1283.08,4095.33c57.12,15.59,115.83,26.26,174.49,34.25c52.27,7.11,113.1,20.2,165.25,12.43
			c20.07-2.99,17.74-32.21,0.33-37.13c-24.64-6.97-51.15-5.75-76.61-7.24c-29.81-1.75-59.57-4.32-89.37-6.06
			c-57.4-3.35-114.82-7.28-172.32-8.23C1277.85,4083.22,1276.24,4093.46,1283.08,4095.33L1283.08,4095.33z"/>
	</g>
	<g>
		<path class="st4" d="M1618.08,4046.75c15.33-61.42,9.18-127.84,9.65-190.63c0.24-32.57,0.7-65.15,1.6-97.7
			c0.87-31.54,5.85-64.86-1.67-95.76c-4.01-16.46-26.39-13.95-31.45,0.11c-10.11,28.1-8.42,59.95-9.34,89.51
			c-1.08,34.6-1.57,69.19-1.19,103.81c0.68,62.68-1.15,131.28,21.3,190.71C1608.83,4051.7,1616.62,4052.6,1618.08,4046.75
			L1618.08,4046.75z"/>
	</g>
	<g>
		<path class="st4" d="M1246.03,3708.37c-69.63,31.41-126.55,91.17-162.18,157.98c-14.47,27.13-27.28,56.86,0.89,79.88
			c15.97,13.05,36.47,21.99,54.27,32.23c24.91,14.32,49.54,28.85,75.62,40.98c20.18,9.38,36.65-17.14,17.82-30.01
			c-28.75-19.65-59.54-36-89.86-53.07c-18.99-10.69-42.88-19.22-32.03-43.93c5.82-13.26,12.85-26.12,20.3-38.52
			c31.81-52.94,75.07-93.97,123.8-131.02C1263.5,3716.17,1256.2,3703.78,1246.03,3708.37L1246.03,3708.37z"/>
	</g>
	<g>
		<path class="st4" d="M1317.41,4105.95c-26.72,103.94-17.36,227.87,27.91,325.22c8.13,17.49,36.12,4.9,31.45-13.04
			c-13.43-51.58-27.23-102.69-33.4-155.77c-5.98-51.5-3.94-101.64-1.5-153.25C1342.53,4095.09,1320.82,4092.66,1317.41,4105.95
			L1317.41,4105.95z"/>
	</g>
	<g>
		<path class="st4" d="M1341.33,4404.84c-2.72,1.35-13.12-2.53-16.97-2.18c-8.02,0.73-15.97,3.54-24.06,4.39
			c-15.24,1.59-30.42,0.04-45.55,2.41c-13.94,2.18-17.85,25.27-4.35,30.96c17.39,7.33,36.1,6.68,54.34,2.25
			c8.09-1.96,16.06-4.92,23.55-8.53c3.63-1.75,8.01-3.44,10.82-6.47c3.09-3.33,4.34-11.64,7.69-13.65
			C1352.9,4410.38,1347.54,4401.76,1341.33,4404.84L1341.33,4404.84z"/>
	</g>
	<g>
		<path class="st4" d="M1534.8,4142.31c-3.35,16.39,2.02,29.2,6.65,45.1c6.01,20.65,10.94,41.53,14.23,62.8
			c7.22,46.58,5.44,93.72-2.36,140.07c-1.49,8.87,1.05,16.65,8.93,21.52c38.66,23.86,80.86,30.87,125.38,22.98
			c24.1-4.27,14.21-39.83-9.6-35.83c-34.43,5.79-66.77-1.89-96.07-20.34c2.98,7.17,5.95,14.35,8.93,21.52
			c8.46-47.65,8.8-95.27,1.06-143.06c-5.57-34.45-15.72-98.76-49.13-118.03C1539.99,4137.42,1535.5,4138.88,1534.8,4142.31
			L1534.8,4142.31z"/>
	</g>
	<g>
		<path class="st4" d="M1306.12,2889.84c91.83-70.77,194.1-127.02,313.48-113.67c25.13,2.81,32.12-40.01,6.46-43.91
			c-131.92-20.05-233.13,73.3-328.61,149.19C1291.23,2886.4,1300.07,2894.5,1306.12,2889.84L1306.12,2889.84z"/>
	</g>
	<g>
		<path class="st4" d="M1861.58,3331.33c32.83-14.68,71.87,26.63,45.23,55.64c-23.51,25.6-59.88,18.74-90.34,24.48
			c-12.66,2.38-14.97,21.16-3.8,27.01c45.85,23.98,126.06-4.8,138.41-57.08c13-55.02-54.09-100.83-100.45-68.43
			C1838.95,3321.11,1848.89,3337,1861.58,3331.33L1861.58,3331.33z"/>
	</g>
	<g>
		<path class="st4" d="M1036.77,3270.57c-17.19-35.48-70.07-40.71-96.21-12.25c-37.17,40.47,0.15,107.95,41.91,128.23
			c12.8,6.22,31.07-7.4,21.68-21.38c-14.5-21.57-49.01-46.78-40.48-76.81c6.56-23.08,40.98-24.32,54.19-6.85
			C1026.06,3292.36,1042.93,3283.27,1036.77,3270.57L1036.77,3270.57z"/>
	</g>
	<g>
		<path class="st1" d="M2755.94,3784.32c49.71-15.6,99.35-31.46,148.57-48.52c-3.68-6.25-7.37-12.5-11.05-18.75
			c-48.23,43.6-96.46,87.2-144.69,130.8c-10.82,9.78,3.11,22.52,14.18,17.92c83.89-34.87,165.07-75.37,243.38-121.41
			c-4.86-6.13-9.71-12.27-14.57-18.4c-47.91,37.77-96.18,75.09-144.29,112.61c-28.61,22.31-80.84,53.35-63.32,97.04
			c3.14,7.82,12.41,13.67,20.62,8.18c80.86-54.11,161.18-109.03,241.71-163.63c-5.82-7.35-11.64-14.71-17.47-22.06
			c-93.74,89.47-187.48,178.95-281.22,268.42c-9.66,9.22-1.82,23.73,10.22,24.51c57.02,3.7,107.2-46.47,150.69-76.95
			c58.07-40.7,116.12-81.4,173.85-122.57c-5.79-7.32-11.59-14.64-17.38-21.96c-83.16,74.34-166.11,148.31-234.71,236.79
			c-8.64,11.15,8.16,25.69,18.99,18.45c77.68-51.91,155.36-103.82,233.04-155.73c-6.82-5.09-13.63-10.19-20.45-15.28
			c-22.76,54.78-51.47,106.12-84.5,155.33c-7.81,11.64,7.53,24.7,18.66,18.13c33.64-19.86,67.44-39.42,101.22-59.04
			c14.43-8.38,1.42-29.97-12.97-21.77c-33.95,19.33-67.87,38.71-101.96,57.8c6.22,6.04,12.44,12.09,18.66,18.13
			c35.52-50.39,64.18-104.63,87.8-161.52c4.69-11.3-11.08-21.54-20.45-15.28c-77.66,51.93-155.33,103.87-232.99,155.8
			c6.33,6.15,12.66,12.3,18.99,18.45c66.88-86.32,148.81-159.29,231.03-230.58c12.24-10.61-4.07-31.15-17.38-21.96
			c-51.66,35.68-103.06,71.71-154.43,107.81c-24.86,17.47-49.69,34.99-74.57,52.42c-24.66,17.27-48.97,36.66-80.72,34.65
			c3.41,8.17,6.81,16.34,10.22,24.51c93.61-89.6,187.22-179.2,280.83-268.8c11.65-11.15-3.86-31.32-17.47-22.06
			c-80.47,54.72-161.16,109.12-241.3,164.33c6.88,2.73,13.75,5.45,20.62,8.18c-11-26.37,24.54-47.25,41.11-60.53
			c16.86-13.52,33.72-27.04,50.58-40.56c35.25-28.27,70.4-56.68,105.8-84.77c10.89-8.64-3.2-25.12-14.57-18.4
			c-78.2,46.21-159.27,86.89-243.06,121.95c4.73,5.97,9.46,11.95,14.18,17.92c48.12-43.7,96.24-87.41,144.36-131.11
			c8.27-7.51-0.37-22.48-11.05-18.75c-49.33,17.23-98.22,35.67-147.01,54.34C2741.78,3772.18,2745.4,3787.62,2755.94,3784.32
			L2755.94,3784.32z"/>
	</g>
	<path class="st2" d="M2360.46,4407c-18.71,7.7-38.69,17.25-47.68,35.64c-12.86,26.31,3.92,59.58,28.78,74.51
		c24.86,14.94,55.09,16.31,83.94,17.3c355.73,12.14,419.75,84.83,772.23,34.47c21.72-3.1,338.36-67.56,355.51-81.47
		c194.41-157.67-437.58-214.25-513.43-209C2817.92,4293.81,2566.39,4322.31,2360.46,4407z"/>
	<path class="st3" d="M3018.92,4377.24c-76.19-16.54-155.17-19.65-232.39-9.16c-29.84,4.05-64.83,14.87-73.11,44.32
		c-6.65,23.64,8.8,49.11,29.71,61.41c20.92,12.31,45.96,14.46,70.08,15.85c102.26,5.92,204.98,3.34,306.83-7.68
		c27.4-2.97,59.06-9.49,71.4-34.56c16.3-33.12-14.9-71.63-48.79-85.12c-50.62-20.15-111.97-8.78-152.37,28.22"/>
	<g>
		<path class="st4" d="M3018.3,2587.73c-233.91,25.51-398.73,229.79-465.14,442.31c-35.64,114.07-56.97,244.45-31.15,362.68
			c25.06,114.76,104.74,204.16,192.84,277.17c38.96,32.29,80.75,72.87,133.94,75.94c54.12,3.13,115.73-12.88,167.96-25.88
			c52.38-13.04,104.47-32.2,148.26-64.42c41.15-30.29,72.28-72.74,100.62-114.76c28.42-42.13,55.78-88.5,68.37-138.18
			c14.62-57.66,8.84-116.17,6.68-174.79c-2.02-54.87,10.57-109.18,5.26-163.86c-3.87-39.91-15.14-78.81-35.38-113.58
			c-90.79-156.01-317.83-185.78-470.54-114.19c-18.11,8.49-5.48,37.68,13.37,31.66c128.54-41.07,292.24-40.37,390.68,65.61
			c50.64,54.52,65.19,128.12,57.06,200.36c-11.79,104.72,18.02,213.77-30.2,312.12c-40.87,83.35-99.92,168.08-186.75,206.9
			c-45.31,20.26-94.73,30.93-143.39,39.59c-25.01,4.45-50.79,9.95-76.18,11.03c-33.01,1.4-55.61-13.36-80.72-32.76
			c-79.25-61.24-159.94-130.41-202.15-223.49c-47.99-105.82-35.42-232.09-11.09-342.34c52.29-237,206.6-443.02,449.16-504.95
			C3026.48,2598.19,3025.57,2586.94,3018.3,2587.73L3018.3,2587.73z"/>
	</g>
	<g>
		<path class="st4" d="M2694.18,3215.08c22.72,47.2,66.73,89.95,108.12,120.98c41.04,30.77,87.26,50.55,138.64,54.41
			c46.58,3.5,94.1-6.98,136.19-26.79c20.54-9.67,39.63-22.13,56.93-36.82c9.54-8.1,18.41-16.94,26.53-26.47
			c3.84-4.51,7.49-9.21,11.03-13.96c7.63-10.23,7.96-5.99-1.1-12.37c-2.9-5-5.81-10-8.71-15c0.11-0.24,0.23-0.49,0.34-0.73
			c6.95-1.86,13.9-3.73,20.85-5.59c-0.89-0.41-1.78-0.82-2.67-1.22c-11.44-5.24-29.01,6.72-19.84,19.56
			c0.54,0.75,1.08,1.51,1.62,2.26c5.03,7.04,13,9.01,20.83,5.19c10.79-5.26,16.34-15.84,12.32-27.43c-3-8.65-9.24-12.49-17.94-13.54
			c-19.63-2.38-28.26,11.56-38.91,25.47c-14.84,19.37-32.37,36.2-52.6,49.91c-37.71,25.54-82.14,39.7-127.68,40.42
			c-50.14,0.79-96.49-15.72-137.7-43.82c-43.28-29.51-75.7-72.77-119.29-101.32C2696.66,3205.28,2692.17,3210.9,2694.18,3215.08
			L2694.18,3215.08z"/>
	</g>
	<g>
		<path class="st4" d="M2751.33,3300.93c9.62,54.02-0.73,108.36,24.29,159.18c20.8,42.26,57.72,76.75,100.93,95.22
			c42.06,17.97,95.41,24.05,132.18-8.36c18.82-16.59,30.12-39.62,41.69-61.44c16.84-31.76,34.53-63.23,49.89-95.74
			c10.6-22.43-21.09-40.54-33.74-18.93c-24.62,42.06-43.01,88.33-69.6,129.17c-28.13,43.21-83.42,35.31-124.13,14.53
			c-36.74-18.75-66.59-50.79-81.72-89.29c-16.19-41.18-9.99-86.96-26.99-127.77C2760.96,3289.92,2749.83,3292.53,2751.33,3300.93
			L2751.33,3300.93z"/>
	</g>
	<g>
		<path class="st4" d="M2749.85,3685.83c-9.57,56.56-11.18,114.51-16.72,171.57c-5.84,60.14-15.51,119.86-20.06,180.1
			c-1.27,16.85,25.77,19.92,29.54,3.82c13.19-56.38,18.61-114.2,23.35-171.83c4.92-59.79,10.38-121.35,3.46-181.13
			C2768.26,3678.36,2751.87,3673.91,2749.85,3685.83L2749.85,3685.83z"/>
	</g>
	<g>
		<path class="st4" d="M2703.29,4075.19c62.84,17.81,127.32,31.81,192.79,34.3c51.35,1.95,135.5,1.01,174.58-37.36
			c9.46-9.28,2.71-27.05-11.03-26.47c-27.06,1.15-53.06,14.8-79.78,20.05c-30.79,6.06-62.53,7.73-93.87,7.54
			c-60.35-0.36-120.31-8.66-180.28-14.49C2695.98,4057.83,2694.2,4072.62,2703.29,4075.19L2703.29,4075.19z"/>
	</g>
	<g>
		<path class="st4" d="M3118.96,4019.02c4.33-53.6-4.45-109.24-13.31-162c-4.54-27.04-9.47-54.02-14.94-80.88
			c-5.28-25.92-8.46-54.51-22.79-77.13c-8.64-13.64-28.21-7.08-29.68,7.95c-2.42,24.78,6.32,49.89,11.5,74.08
			c5.74,26.79,11.33,53.58,16.4,80.51c10.02,53.21,17.09,108.39,33.97,159.95C3103.46,4031.77,3118.1,4029.61,3118.96,4019.02
			L3118.96,4019.02z"/>
	</g>
	<g>
		<path class="st4" d="M2754.07,3680.21c-67.2-11.71-132-2.37-199.24-0.87c-36.83,0.82-61.73-37.27-85.02-62.26
			c-22.96-24.64-45.6-49.61-67.25-75.43c-41.74-49.8-80.98-103.63-108.55-162.75c-10.63-22.79-11.59-38.63-4.89-62.71
			c3.23-11.6,7.11-22.68,7.3-34.87c0.33-20.91-7.98-37.05-25.31-48.46c-16.14-10.63-37.54,15.16-21.51,27.5
			c24.2,18.62-5.08,63.92-2.97,90.16c2.26,28.05,19.01,55.72,32.45,79.73c32.64,58.33,74.24,111.2,118.45,161.14
			c22.33,25.22,45.44,49.74,68.7,74.11c18.57,19.45,35.45,41.39,63.41,45.86c34.66,5.54,73.15-6.58,107.86-9.26
			c37.94-2.93,75.92-2.4,113.91-3.79C2761.37,3697.93,2765.08,3682.13,2754.07,3680.21L2754.07,3680.21z"/>
	</g>
	<g>
		<path class="st4" d="M2768.72,4084.81c-2.1,18.97-5.71,34.74-5.33,54.13c0.35,18.05,0.81,36.09,1.51,54.13
			c1.47,38.11,3.38,76.2,5.35,114.28c0.8,15.54,7.4,46.32-5.61,58.36c-7.54,6.98-23.98,7.79-33.3,9.66
			c-20.16,4.06-40.39,6.16-47.23,27.97c-2.37,7.57,1.49,16.93,8.55,20.61c8.69,4.52,15.02,4.42,23.73-0.23
			c6.19-3.31,9.44-11.29,7.62-17.99c-0.21-0.78-0.42-1.56-0.63-2.33c-3.57-13.19-20.89-13.9-27.89-3.43
			c-0.46,0.69-0.93,1.39-1.39,2.08c6.17-2.52,12.34-5.03,18.52-7.55c1.88,1.4,3.77,2.8,5.65,4.2c-0.02,6.13-0.03,12.27-0.05,18.4
			c3.33-4.85,27.65-5.52,34.24-7.23c11.56-3,23.28-6.83,33.02-13.91c24.06-17.48,23.35-43.39,21.62-70.54
			c-2.55-40.12-5.18-80.22-8.2-120.3c-1.67-22.08-3.56-44.13-5.7-66.17c-1.97-20.4-7.25-35.99-11.84-55.81
			C2779.65,4075.76,2769.46,4078.18,2768.72,4084.81L2768.72,4084.81z"/>
	</g>
	<g>
		<path class="st4" d="M2996.63,4120.02c0.46,42.71,6.11,85.3,6.78,128.08c0.68,42.94-1.08,85.83-4.68,128.62
			c-0.73,8.71,6.52,16.09,14.24,18.47c28.58,8.82,57.71,20.03,87.71,21.83c16.81,1.01,23.34-23.09,8.8-31.04
			c-26.24-14.34-57.21-20.08-85.98-27.68c4.75,6.16,9.49,12.31,14.24,18.47c3.19-84.39,4.04-177.63-18.67-259.69
			C3015.74,4105.04,2996.49,4107.24,2996.63,4120.02L2996.63,4120.02z"/>
	</g>
	<g>
		<path class="st4" d="M2879.73,3078.9c-8.65,18.56-12.45,40.25-12.64,60.67c-0.16,17.05,25.9,20.52,30.1,3.89
			c5.02-19.83,7.14-41.79,3.41-61.99C2898.88,3072.15,2883.73,3070.32,2879.73,3078.9L2879.73,3078.9z"/>
	</g>
	<g>
		<path class="st4" d="M3027.77,3098.94c-5.41,19.41-4.46,38.8,1.66,57.95c8.34,26.08,47.69,10.93,35.84-14.86
			c-5.57-12.12-7.62-26.04-7.96-39.27C3056.88,3086.08,3032.34,3082.56,3027.77,3098.94L3027.77,3098.94z"/>
	</g>
	<g>
		<path class="st4" d="M2825.63,2790.68c92.49-62.69,187.24-83.66,297.22-63.04c25.95,4.87,38.13-33.27,11.38-39.89
			c-108.22-26.8-240.81,10.13-317.86,91.23C2810.59,2785.07,2818.26,2795.67,2825.63,2790.68L2825.63,2790.68z"/>
	</g>
	<g>
		<path class="st4" d="M3342.75,3139.01c20.43-28.58,66.15-11.74,70.03,19.74c2.05,16.58-5.39,31.98-19.62,40.78
			c-15.31,9.47-31.16,7.32-48.13,7.05c-16.65-0.27-22.8,22.1-8.65,30.52c59.53,35.37,131.39-32.32,113.57-94.09
			c-8.07-27.96-32.84-49.56-62.51-49.75c-28.5-0.18-47.41,16.14-57.82,40.46C3326.21,3141.7,3338.5,3144.96,3342.75,3139.01
			L3342.75,3139.01z"/>
	</g>
	<g>
		<path class="st4" d="M2555.23,3068.34c-7.77-46.66-66.11-35-85.01-3.57c-24.41,40.6-10.43,98.22,26.1,126.75
			c19.1,14.91,46.92-9.79,28.08-27.79c-14.38-13.73-24.54-28.94-26.67-49.13c-0.94-8.92-0.85-18.49,2.03-27.08
			c2.98-8.87,22.19-35.32,31.35-12.73C2536.99,3089.27,2557.85,3084.08,2555.23,3068.34L2555.23,3068.34z"/>
	</g>
	<g>
		<path class="st1" d="M4329.3,3716.44c42.18-25.04,85.4-46.78,129.75-67.64c-6.42-8.11-12.85-16.23-19.27-24.34
			c-40.74,45.54-81.37,91.17-121.8,137c-12.08,13.69,3.96,37.45,20.58,26c45.85-31.59,94.72-56.31,147.58-73.91
			c-4.37-10.36-8.75-20.71-13.12-31.07c-67.33,41.75-122.01,98.81-160.55,168.05c-8.29,14.89,8.93,32.73,23.95,23.28
			c81.86-51.52,163.71-103.04,245.57-154.55c-7.09-8.95-14.17-17.9-21.26-26.85c-83.09,68.17-166.18,136.35-249.26,204.52
			c-13.06,10.72-0.98,27.87,12.23,29.35c55.34,6.19,100.73-34.38,143.23-63.91c53.02-36.85,106.04-73.69,159.06-110.54
			c-7.12-9-14.24-17.99-21.37-26.99c-95.51,74.11-181.81,158.84-257.05,253.48c-11.81,14.86,2.89,36.92,21.14,26.71
			c91.99-51.47,182.01-106.23,269.75-164.65c-5.72-9.61-11.45-19.22-17.17-28.83c-100.78,72.34-202.77,147.43-267.45,255.75
			c-8.77,14.69,8.84,30.75,23.12,22.47c98.67-57.14,193.95-119.78,285.52-187.72c-6.86-8.67-13.72-17.34-20.59-26.01
			c-55.14,54.61-110.27,109.21-165.41,163.82c-14.46,14.32,3.99,34.79,20.88,26.38c49.09-24.47,98.13-49.03,147.08-73.77
			c-8.34-3.31-16.67-6.61-25.01-9.91c5.18,18.26,2.26,33.9-10.44,48.13c-13.57,15.22,8.47,36.51,22.49,21.77
			c21.06-22.15,28.29-49.03,20.9-78.74c-2.81-11.3-15.56-14.58-25.01-9.91c-49.19,24.29-98.29,48.77-147.34,73.34
			c6.96,8.79,13.92,17.58,20.88,26.38c55.02-54.72,110.04-109.43,165.06-164.15c13.28-13.21-4.87-37.71-20.59-26.01
			c-91.47,68.16-186.66,130.81-285.42,187.88c7.71,7.49,15.42,14.98,23.12,22.47c61.7-103.11,159.33-174.54,255.36-243.34
			c17.67-12.66,1.3-41.1-17.17-28.83c-87.8,58.33-177.79,113.16-270.13,164.02c7.05,8.9,14.1,17.8,21.14,26.71
			c75.87-94.15,161.79-179.07,257.31-253.22c15.76-12.23-5.12-38.29-21.37-26.99c-46.38,32.25-92.77,64.51-139.15,96.76
			c-40.87,28.42-91.87,78.82-144.94,72.91c4.08,9.78,8.16,19.57,12.23,29.35c83.07-68.2,166.13-136.39,249.2-204.58
			c15.52-12.74-4.75-37.24-21.26-26.85c-81.84,51.54-163.69,103.08-245.53,154.62c7.98,7.76,15.97,15.52,23.95,23.28
			c35.64-64.08,85.5-116.87,147.68-155.78c15.99-10.01,6.12-37.56-13.12-31.07c-55.58,18.76-107.67,44.59-155.86,78.09
			c6.86,8.67,13.72,17.33,20.58,26c40.26-46.01,80.31-92.2,120.26-138.48c11.58-13.42-3.05-33.37-19.27-24.34
			c-42.47,23.65-83.72,50.08-124.13,77.07C4307.93,3706.37,4317.82,3723.26,4329.3,3716.44L4329.3,3716.44z"/>
	</g>
	<path class="st2" d="M3851.76,4436.25c-18.71,7.7-38.69,17.25-47.68,35.64c-12.86,26.31,3.92,59.58,28.78,74.51
		c24.86,14.94,55.09,16.31,83.94,17.3c355.73,12.14,419.75,84.83,772.23,34.47c21.72-3.1,338.35-67.56,355.51-81.47
		c194.41-157.67-437.58-214.25-513.43-209C4309.22,4323.06,4057.69,4351.56,3851.76,4436.25z"/>
	<path class="st3" d="M4531.96,4406.49c-101.66-16.53-207.04-19.65-310.07-9.15c-39.81,4.05-86.5,14.87-97.55,44.32
		c-8.87,23.64,11.74,49.11,39.65,61.42c27.91,12.31,61.32,14.46,93.51,15.85c136.44,5.91,273.5,3.34,409.39-7.68
		c36.56-2.97,78.8-9.49,95.27-34.56c21.75-33.12-19.87-71.63-65.1-85.12c-67.54-20.15-149.4-8.78-203.31,28.23"/>
	<g>
		<path class="st4" d="M4503.42,2547.03c-203.25,48.55-315.16,248.74-371.78,433.39c-29.96,97.7-53.39,200.99-53.54,303.65
			c-0.12,85.42,22.68,153.06,78.66,217.41c58.65,67.43,133.8,127.07,214.35,166.11c75.44,36.57,156.14,42.69,230.33-2.05
			c78.04-47.07,126.7-128.83,169.02-206.79c47.85-88.13,99.45-176.85,127.3-273.86c14.42-50.25,22.17-104.46,6.88-155.45
			c-15.83-52.8-52.01-97.49-95.55-130.31c-108.23-81.58-251.63-83.2-380.17-64.14c-23.06,3.42-18.5,43.22,5.03,40.37
			c108.84-13.22,227.31-18.31,324.78,40.51c85.09,51.35,126.48,135.79,104.43,233.23c-20.48,90.47-66.63,173.9-110.69,254.66
			c-38.39,70.37-75.2,144.33-135.77,198.71c-60.85,54.63-136.71,67.75-211.23,34.95c-73.32-32.27-139.95-83.73-195.65-140.8
			c-53.64-54.96-85.01-109.76-88.74-187.65c-4.38-91.58,14.19-183.99,38.09-271.94c25.23-92.81,56.92-185.37,110.39-266.01
			c61.08-92.12,142.11-158.81,241.59-205.68C4521.94,2560.26,4514.23,2544.45,4503.42,2547.03L4503.42,2547.03z"/>
	</g>
	<g>
		<path class="st4" d="M4414.02,3110.05c-4.65,14.29-6.8,29.8-9.69,44.55c-5.22,26.62,36.2,30.95,36.69,4.74
			c0.28-15.1,1.45-30.79-0.09-45.82C4439.4,3098.64,4418.96,3094.86,4414.02,3110.05L4414.02,3110.05z"/>
	</g>
	<g>
		<path class="st4" d="M4575.26,3131.14c-1.04,9.74-5.62,22.83-11.98,30.45c-7.96,9.54-8.68,22.86,2.12,30.92
			c10.64,7.95,23.78,3.98,31.12-6.17c5.92-8.18,10.42-17.8,12.68-27.66c2.59-11.29,1.45-20.78-1.51-31.79
			C4602.7,3108.27,4577.12,3113.78,4575.26,3131.14L4575.26,3131.14z"/>
	</g>
	<g>
		<path class="st4" d="M4249.17,3198.22c6.99,50.21,27.84,99.18,60.9,138.31c36.04,42.65,86.57,62.67,141.23,67.81
			c30.13,2.83,60.46,0.57,90.45-2.88c25.89-2.97,54.23-4.36,78.6-14.16c47.43-19.05,63.83-70.94,80.21-114.87
			c7.19-19.29-20.13-25.26-30.28-12.22c-26.67,34.29-32.91,82.57-80.54,94c-43.65,10.47-93.19,14.03-137.92,11.25
			c-48.4-3.01-92.2-21.65-123.72-59.25c-28.29-33.76-43.8-76.17-68.22-112.44C4256.1,3188.17,4248.29,3191.92,4249.17,3198.22
			L4249.17,3198.22z"/>
	</g>
	<g>
		<path class="st4" d="M4366.02,2807.09c49.15-49.01,109.48-86.82,176.89-104.43c36.1-9.43,164.42-34.7,172.22,23.11
			c3.37,24.97,45.12,18.71,44.5-5.84c-2.22-88.05-133.56-74-189.67-60.58c-85.38,20.42-162.57,68.96-213.27,140.8
			C4352.73,2805.77,4361.44,2811.66,4366.02,2807.09L4366.02,2807.09z"/>
	</g>
	<g>
		<path class="st4" d="M4133.42,3043.79c-3.29-63.98-90.67-66.41-121.05-20.62c-16.55,24.94-19.76,59.25-6.78,86.4
			c16.84,35.22,58.68,38.8,78.94,69.12c10.66,15.95,35.86,1.9,26.55-15.36c-17.77-32.95-67.72-40.89-77.51-77.05
			c-13.87-51.24,60.64-96.45,82.3-40.19C4119.16,3054.6,4133.97,3054.41,4133.42,3043.79L4133.42,3043.79z"/>
	</g>
	<g>
		<path class="st4" d="M4885.2,3203.41c10.32-21.27,43.54-16.77,55.51,0.69c13.86,20.22,4.62,50.27-8.63,68.02
			c-27.15,36.36-72.78,41.57-114.32,33.49c-16.11-3.13-25.86,17.17-11.44,26.52c67.14,43.53,166.93-10.8,177.83-86.78
			c4.77-33.27-8.73-72.01-43.94-81.92c-29.8-8.39-57.44,5.93-66.03,35.54C4872.32,3205.39,4882.23,3209.55,4885.2,3203.41
			L4885.2,3203.41z"/>
	</g>
	<g>
		<path class="st4" d="M4348.11,3645.3c-53.42,25.41-61.38,89.99-58.91,143c3.99,85.71,11.12,173.16,23.89,258.03
			c3.11,20.67,37.59,15.59,36.96-4.85c-2.28-74.28-10.92-148.92-19-222.76c-5.68-51.85-16.74-120.39,30.38-156.61
			C4371.96,3654.01,4358.42,3640.4,4348.11,3645.3L4348.11,3645.3z"/>
	</g>
	<g>
		<path class="st4" d="M4269.67,4095.37c62.15,18.76,125.1,26.79,190.13,28.94c63.57,2.1,132.18,3.7,194.76-8.51
			c25.07-4.89,19.32-42.61-5.35-42.95c-62.69-0.86-125.9,6.7-188.8,6.73c-63.07,0.04-125.77-1.16-188.68,1.76
			C4263.66,4081.72,4261.57,4092.92,4269.67,4095.37L4269.67,4095.37z"/>
	</g>
	<g>
		<path class="st4" d="M4616.98,3664.83c-5.41,2.08,25.08,89.54,27.45,98.93c9.41,37.15,16.22,75,18.9,113.27
			c2.45,34.94,2.22,70.04-1.71,104.87c-3.95,34.99-20.34,72.75-17.4,107.74c1.17,13.96,20.44,26,31.24,12.54
			c30.02-37.39,32.63-100.01,35.1-146.4c2.88-54.13-1.79-109.59-15.78-162.04c-6.75-25.32-15.6-49.79-26.28-73.71
			c-8-17.92-18.16-47.03-34.8-58.71c-11.7-8.21-36.02-2.96-21.3,12.43c1.5,1.57,4.07,1.69,5.89,0.69c0.74-0.41,1.48-0.82,2.23-1.23
			C4625.05,3670.72,4622,3662.89,4616.98,3664.83L4616.98,3664.83z"/>
	</g>
	<g>
		<path class="st4" d="M4353.71,4121.54c0.48,1.15,0.97,2.29,1.45,3.44c-2.49-1.4-4.99-2.8-7.48-4.2
			c-5.66,45.63-1.05,89.67,3.11,135.46c3.98,43.84,6.77,88.85,16.55,131.82c5.05,22.16,40.26,17.13,40.17-5.27
			c-0.3-69.05-13.07-141.91-25.26-209.83c-2.76-15.41-4.53-51.47-24.63-55.51c-7.1-1.42-12.49-0.61-12.13,8.17
			c0.08,2.01,1.41,4.18,3.54,4.58c0.7,0.13,1.4,0.27,2.1,0.4C4357.03,4131.72,4359.8,4122.98,4353.71,4121.54L4353.71,4121.54z"/>
	</g>
	<g>
		<path class="st4" d="M4359.17,4394c-37.83,18.89-68.87,20.58-110.17,14.57c-19.45-2.83-34.18,22.06-14.49,33.58
			c43.9,25.67,109.11,11.2,140.39-28.27C4383.95,4402.49,4372.86,4387.17,4359.17,4394L4359.17,4394z"/>
	</g>
	<g>
		<path class="st4" d="M4556.88,4122.79c-10.15,48.73-11.84,96.75-13.01,146.43c-1.01,42.82-11.47,101.08,7.15,140.54
			c5.06,10.73,23.71,10.34,28.66-0.28c18.59-39.89,8.21-97.01,7.19-140.22c-1.17-49.7-2.75-97.8-12.97-146.54
			C4572.16,4114.41,4558.61,4114.5,4556.88,4122.79L4556.88,4122.79z"/>
	</g>
	<g>
		<path class="st4" d="M4569.04,4428.6c15.43,8.15,31.88,13.46,48.3,19.23c17.63,6.19,35.09,14.23,53.12,18.93
			c24.71,6.45,35.38-30.1,10.81-37.9c-17.71-5.62-36.85-8.15-55.01-12.31c-17-3.89-33.73-7.97-51.16-9.35
			C4563.55,4406.28,4558.98,4423.29,4569.04,4428.6L4569.04,4428.6z"/>
	</g>
	<g>
		<path class="st4" d="M3802.94,3410.07c43.57,101.39,105.45,201.52,198.47,265.6c40.74,28.06,89.2,44.17,138.85,38.23
			c57.28-6.85,107.82-33.08,166.33-33.95c22.85-0.34,30.17-35.48,5.97-40.59c-47.69-10.07-93.21,9.95-138.33,22.79
			c-53.44,15.2-99.75,10.21-147.74-19.06c-43.54-26.55-80.17-65-113.04-103.58c-35.65-41.84-71.45-88.55-99.07-136.06
			C3810.09,3396.06,3799.71,3402.57,3802.94,3410.07L3802.94,3410.07z"/>
	</g>
	<g>
		<path class="st4" d="M4303.44,3350.1c41.92,35.11,17.63,95.29,29.97,141.86c12.69,47.91,55.38,73.7,100.23,87.1
			c23.24,6.94,50.25,14.18,74.62,14.28c27.37,0.11,45.69-13.54,62.11-34.49c33.35-42.55,50.76-101.1,35.69-153.95
			c-4.39-15.39-28.18-12.39-28.47,3.74c-0.85,47.3-7.44,104.22-46.46,137.17c-28.04,23.67-109.04-7.18-135.26-26.82
			c-58.95-44.15-15.77-147-82.78-181.21C4305.65,3333.96,4296.19,3344.03,4303.44,3350.1L4303.44,3350.1z"/>
	</g>
	<g>
		<path class="st4" d="M1445.47,3107.9c-14.14,23.86-17.64,50.27-13.47,77.42c3.69,24.02,44.55,14.25,38.01-10.19
			c-5.13-19.18-3.4-37.43,3.28-56C1479.24,3102.56,1453.88,3093.7,1445.47,3107.9L1445.47,3107.9z"/>
	</g>
	<g>
		<path class="st4" d="M1601.79,3134.44c0.55,12.78,0.21,25.8-2.12,38.41c-2.28,12.28-7.28,23.6-8.75,36.02
			c-2.32,19.69,25.71,22.75,34.64,9.02c15.65-24.07,12.1-61.09,3.2-86.99C1624.08,3117.29,1601.1,3118.48,1601.79,3134.44
			L1601.79,3134.44z"/>
	</g>
	<g>
		<path class="st4" d="M1222.37,3307.79c-26.94,64.28-6.59,144.78,38.56,195.9c38.17,43.22,136.29,91.54,179.1,28.24
			c7.8-11.53-5.27-27.84-18.29-23.41c-28.32,9.64-49.58,17.24-79.67,6.17c-26.08-9.59-48-28.49-64.65-50.48
			c-33.36-44.04-41.25-96.99-32.53-150.52C1247.32,3298.75,1228.04,3294.27,1222.37,3307.79L1222.37,3307.79z"/>
	</g>
	<g>
		<path class="st4" d="M3067.67,3713.07c124.41-31.54,268.58,3.92,375.09-83.01c86.65-70.72,124.51-197.09,131.39-304.91
			c1.29-20.14-30.9-23.94-35.37-4.57c-23.6,102.33-41.8,220.87-132.58,287.83c-100.62,74.22-237.65,34.18-348.58,80.88
			C3043.45,3695.26,3053.66,3716.63,3067.67,3713.07L3067.67,3713.07z"/>
	</g>
	<g>
		<path class="st4" d="M3553.24,3342.96c17.53,21.79,50.27,16.06,69.1-0.82c26.39-23.66,24.55-70.59,8.07-99.33
			c-8.99-15.67-34.88-8.69-34.87,9.34c0.02,19.33,10.37,39.94,3.59,59.03c-3.46,9.74-17.5,22.53-28.12,14.19
			C3558.53,3315.57,3543.12,3330.39,3553.24,3342.96L3553.24,3342.96z"/>
	</g>
	<g>
		<path class="st4" d="M1594.47,3690.8c39.39,89.38,129.69,174.82,228.8,192.59c49.13,8.81,74.5-61.21,90-97.24
			c23.78-55.26,36.48-116.3,32.51-176.59c-1.49-22.61-33.93-22.46-35.66-0.04c-3.62,47.02-11.39,92.23-27.62,136.68
			c-8.27,22.64-18.68,44.29-30.98,65.01c-3.77,6.35-12.8,27.33-19.94,29.67c-5.57,1.82-21.23-5.95-26.24-7.61
			c-80.06-26.45-146.21-83.32-191.29-153.81C1606.22,3667.23,1588.79,3677.91,1594.47,3690.8L1594.47,3690.8z"/>
	</g>
	<g>
		<path class="st4" d="M1943.08,3604.94c14.71-8.42,45.05,8.42,63.39,4.52c16.78-3.56,34.12-11.46,49.26-19.33
			c28.6-14.86,68-42.9,56.36-80.28c-6.73-21.6-42.14-18.65-41.49,5.44c0.67,24.8-46.72,44.77-65.75,53.12
			c-26.11,11.45-54.65-4.29-77.63,16.5C1915.98,3595.07,1930.52,3612.13,1943.08,3604.94L1943.08,3604.94z"/>
	</g>
	<g>
		<path class="st4" d="M3515.8,1552.18c175.77-81.13,362.22-200.85,458.23-375.08c12.26-22.24-19.07-37.71-33.25-18.66
			c-58.72,78.9-121.02,150.42-199.26,210.78c-76.12,58.72-160.57,105.85-247.72,146.03
			C3468.11,1527.09,3490.52,1563.84,3515.8,1552.18L3515.8,1552.18z"/>
	</g>
	<g>
		<path class="st4" d="M2331.31,1804.49c362.58-25.64,729.08-75.25,1070.72-204.78c26.1-9.9,15.33-51.45-11.1-41.44
			c-338.12,128.02-700.29,177.33-1059.03,203.42C2304.23,1763.71,2303.13,1806.48,2331.31,1804.49L2331.31,1804.49z"/>
	</g>
	<g>
		<path class="st4" d="M1146.89,1845.92c320.69-0.11,640-15.83,960.28-31.68c27.92-1.38,28.9-44.45,0.58-42.98
			c-320.1,16.54-640.29,38.78-960.54,51.39C1132.1,1823.24,1131.47,1845.93,1146.89,1845.92L1146.89,1845.92z"/>
	</g>
	<g>
		<path class="st4" d="M1132.9,1839.46c2.31,87.94,20.15,175.13,21.13,263.45c0.99,88.84-11.56,176.03-20.76,264.17
			c-2.56,24.57,38.19,29.26,43.27,5.59c37.11-172.73,41.68-368.26-20.83-536.21C1151.5,1825.14,1132.54,1825.79,1132.9,1839.46
			L1132.9,1839.46z"/>
	</g>
	<g>
		<path class="st4" d="M3844.25,2073.13c160.18-73.19,312.55-161.79,457.07-262.35c138.09-96.09,275.92-201.63,396.01-319.74
			c18.97-18.66-9.13-43.6-28.58-27.68c-131.68,107.79-259.11,218.1-399.36,315.14c-141.77,98.09-291.17,184.54-447.99,256.25
			C3794.65,2046.98,3817.96,2085.15,3844.25,2073.13L3844.25,2073.13z"/>
	</g>
	<g>
		<path class="st4" d="M2429.13,2373.3c402.34-21.54,805.5-74.63,1187.3-208.23c27.52-9.63,16.12-52.9-11.54-43.07
			c-377.82,134.4-776.42,188.66-1175.21,211.32C2403.76,2334.79,2402.76,2374.71,2429.13,2373.3L2429.13,2373.3z"/>
	</g>
	<g>
		<path class="st4" d="M1165.85,2380.94c164.44,8.6,330.29,7.38,494.94,7.06c165.63-0.32,331.24-1.78,496.82-5.86
			c26.05-0.64,26.9-40.73,0.54-39.98c-165.58,4.75-331.23,6.9-496.87,9.01c-164.72,2.1-330.99,2.34-495.25,15.51
			C1156.85,2367.41,1156.36,2380.44,1165.85,2380.94L1165.85,2380.94z"/>
	</g>
	<g>
		<path class="st4" d="M4643.06,1464.76c47.37,44.61,105.81,80.57,160.01,116.25c56.35,37.1,112.59,81.68,173.84,110.15
			c19.52,9.07,43.27-15.16,24.99-31.96c-49.57-45.56-112.72-79.94-169.21-116.22c-56.18-36.08-114.79-74.74-177.08-99.36
			C4643.6,1438.87,4634.21,1456.43,4643.06,1464.76L4643.06,1464.76z"/>
	</g>
	<g>
		<path class="st4" d="M3631.45,887.68c50.65,44.54,104.75,85.23,155.31,130.01c51,45.18,97.57,95.15,148.3,140.41
			c22.93,20.47,53.37-10.22,34.05-33.69c-43.82-53.24-100.7-99.51-155.37-141.14c-53.45-40.7-110.83-80.63-172.17-108.52
			C3633.75,871.19,3623.84,880.99,3631.45,887.68L3631.45,887.68z"/>
	</g>
	<g>
		<path class="st4" d="M3661.35,876.77c195.42-52.72,385-123.28,573.37-197.27c186.31-73.18,373.09-149.68,552.42-238.8
			c20.57-10.22,6.03-45.89-15.61-36.96c-187.13,77.25-372.04,159.7-559.57,236.1c-185.13,75.43-372.22,145.68-555.82,224.61
			C3648.87,867.58,3654.06,878.74,3661.35,876.77L3661.35,876.77z"/>
	</g>
	<g>
		<path class="st4" d="M4780.61,423.5c10.21,54.63,16.6,110.05,27.48,164.79c10.05,50.53,20.65,100.97,31.25,151.4
			c21.59,102.71,41.58,205.8,59.98,309.12c18.4,103.32,34.92,206.98,49.55,310.91c14.78,104.98,21.76,213.42,43.8,317.08
			c4.51,21.21,38.05,16.1,38.09-5c0.21-103.73-18.72-210.39-32.96-312.98c-14.7-105.9-31.57-211.52-50.28-316.79
			c-18.71-105.28-39.65-210.1-62.81-314.49c-11.14-50.21-23.21-100.3-36.67-149.94c-14.67-54.08-34.46-105.29-51.66-158.31
			C4793.18,409.44,4778.73,413.43,4780.61,423.5L4780.61,423.5z"/>
	</g>
	<g>
		<path class="st4" d="M2106.51,1787.88c3.55,93.93,22.29,187.76,29.97,281.51c3.87,47.27,7.05,94.64,8.94,142.03
			c1.77,44.54-1.52,91.14,8.01,134.85c3.46,15.9,28.83,15.57,32.38-0.11c9.87-43.57,5.47-90.37,3.52-134.7
			c-2.17-49.44-5.71-98.75-11.16-147.94c-10.23-92.4-20.66-190.48-53.55-278.02C2121.27,1776.6,2106.1,1777,2106.51,1787.88
			L2106.51,1787.88z"/>
	</g>
	<g>
		<path class="st4" d="M2323.98,1795.25c-9.26,89.61,6.39,182.63,19.46,271.2c6.72,45.51,13.53,91.01,20.6,136.46
			c7.35,47.29,10.55,99.17,25.7,144.58c6.41,19.21,36.44,16.51,36.77-4.83c0.72-45.94-11.15-93.69-18.01-139.05
			c-6.89-45.58-14.28-91.09-21.27-136.66c-13.93-90.8-23.48-185.39-50.82-273.34C2334.26,1786.66,2324.68,1788.41,2323.98,1795.25
			L2323.98,1795.25z"/>
	</g>
	<g>
		<path class="st4" d="M3400.4,1583.81c17.65,92.57,64.52,180.36,99.34,267.47c17.26,43.17,33.88,86.67,49.05,130.62
			c15.74,45.64,26.48,93.55,43.65,138.55c7.15,18.74,42.02,18.49,39.22-5.15c-11.14-93.97-52.81-188.83-88.9-275.55
			c-36.63-88-71.93-184.45-128.66-261.62C3409.24,1571.51,3398.79,1575.38,3400.4,1583.81L3400.4,1583.81z"/>
	</g>
	<g>
		<path class="st4" d="M3487.17,1556.03c35.36,92.73,94.6,177.97,146.15,262.27c26.46,43.27,53.47,86.2,80.29,129.25
			c26.42,42.41,50.8,88.16,82.79,126.65c15.42,18.56,40.34-5.28,31.82-24.29c-20.5-45.74-51.72-87.96-78.23-130.44
			c-26.86-43.03-53.58-86.15-80.8-128.95c-52.1-81.92-101.84-171.01-168.36-242.31C3495.67,1542.69,3484.29,1548.47,3487.17,1556.03
			L3487.17,1556.03z"/>
	</g>
	<g>
		<path class="st4" d="M1919.26,2373.22c-3.64,201.44,17.4,404.04,34.65,604.6c17.09,198.74,28.22,399.6,57.65,596.9
			c2.84,19.03,34.38,14.27,33.94-4.45c-4.68-201.61-28.59-403.7-45.87-604.61c-17.03-198.03-31.01-398.63-68.5-593.99
			C1929.85,2364.95,1919.38,2366.71,1919.26,2373.22L1919.26,2373.22z"/>
	</g>
	<g>
		<path class="st4" d="M2256.94,3245.73c37.93-66.19,63.56-138.39,90.53-209.58c27.31-72.09,53.04-144.87,77.89-217.84
			c49.97-146.72,101.21-296.81,135.22-448.14c5.56-24.73-30.13-33.49-38.03-9.98c-49.02,145.89-88.74,295.25-136.06,441.81
			c-23.05,71.39-46.65,142.57-70.68,213.64c-25.2,74.52-53.96,148.41-70.43,225.43C2243.94,3247.88,2253.32,3252.06,2256.94,3245.73
			L2256.94,3245.73z"/>
	</g>
	<g>
		<path class="st4" d="M3329.37,2237.29c12.43,179.92,46.89,359.19,87.28,534.71c41.06,178.43,89.01,356.39,152.02,528.43
			c6.79,18.54,36.32,11.38,30.78-8.25c-49.21-174.59-98.96-348.78-139.55-525.65c-40.52-176.55-71.38-354.97-109.22-532.03
			C3348.2,2222.9,3328.54,2225.3,3329.37,2237.29L3329.37,2237.29z"/>
	</g>
	<g>
		<path class="st4" d="M3817.42,3411.29c2.85-29.89-18.28-50.46-26.02-77.65c-10.26-36.04,11.15-55.7,33.18-79.49
			c8.19-8.84,3.3-27.3-10.77-25.83c-37.05,3.89-61.37,40.9-65.85,75.78c-6.22,48.34,30.3,74.26,53.01,111.6
			C3805.65,3423.39,3816.64,3419.52,3817.42,3411.29L3817.42,3411.29z"/>
	</g>
	<g>
		<path class="st4" d="M4039.55,1942.59c-12.99,124.13-46.58,242.77-76.98,363.41c-30.01,119.08-54.82,239.81-76.02,360.75
			c-42.11,240.25-68.86,482.5-81.13,726.1c-1.24,24.54,36.99,24.07,38.53,0.04c15.85-247.44,45.41-494.39,88.87-738.51
			c21.56-121.14,46.44-241.47,73.43-361.51c25.71-114.33,60.18-231.89,47.86-350.26
			C4053.17,1933.42,4040.52,1933.39,4039.55,1942.59L4039.55,1942.59z"/>
	</g>
	<g>
		<path class="st4" d="M4629.82,3656.49c74.22-13.02,148.61-25.66,222.77-39.06c71.07-12.83,142.06-33.98,199.54-79.31
			c59.22-46.7,95.28-114.82,119.34-185.04c11.54-33.69,13.35-87.32,41.32-111.03c23.94-20.29,40.05-42.92,28.31-75.49
			c-7.79-21.6-37.84-12.91-34.68,9.29c3.36,23.62-14.67,30.16-28.87,43.63c-10.29,9.77-16.82,21.58-21.58,34.86
			c-11.39,31.78-18.54,65.06-30.05,96.9c-24.73,68.4-63.39,132.39-126.6,171.25c-114.8,70.57-261.08,51.18-376.58,117.22
			C4613.06,3645.26,4619.84,3658.25,4629.82,3656.49L4629.82,3656.49z"/>
	</g>
	<g>
		<path class="st4" d="M4541.43,1598.39c53.27,223.77,140.44,441.83,222.78,656.19c81.49,212.16,167.45,422.92,260.28,630.39
			c53.58,119.75,109.58,238.34,168.4,355.6c9.19,18.33,35.98,2.2,27.88-16.13c-186.46-421.81-366.2-845.69-525.26-1278.71
			c-43.64-118.81-84.41-239.16-134.57-355.43C4556.15,1579.21,4538.81,1587.35,4541.43,1598.39L4541.43,1598.39z"/>
	</g>
	<g>
		<path class="st1" d="M4449.42,719.26c3.92,0,4.04-6.01,0.08-6.01C4445.58,713.25,4445.46,719.26,4449.42,719.26L4449.42,719.26z"
			/>
	</g>
	<g>
		<path class="st1" d="M3749.09,905.15c6,0,6.19-9.2,0.12-9.2C3743.21,895.95,3743.02,905.15,3749.09,905.15L3749.09,905.15z"/>
	</g>
</g>
</svg>
